<svg width="47" height="47" viewBox="0 0 47 47" fill="none" xmlns="http://www.w3.org/2000/svg">
<path d="M45.5462 44.9586H40.2183V35.4175C43.6486 34.9116 46.276 31.6589 46.276 27.6835C46.276 24.4309 44.4514 21.5396 41.824 20.3831C41.4591 20.2386 41.0212 20.3831 40.8752 20.7445C40.7292 21.1059 40.8752 21.5396 41.2401 21.6842C43.3567 22.6238 44.8163 25.0091 44.8163 27.6112C44.8163 30.7916 42.7728 33.3937 40.2183 33.8273V32.0926L42.7728 29.6351C43.0647 29.3459 43.0647 28.9123 42.7728 28.6231C42.4808 28.334 42.0429 28.334 41.751 28.6231L40.2183 30.0687V27.7558C40.2183 27.3221 39.9264 27.033 39.4885 27.033C39.0506 27.033 38.7586 27.3221 38.7586 27.7558V33.9719C36.934 33.7551 35.3284 32.454 34.4525 30.5024C34.3066 30.141 33.8687 29.9965 33.5038 30.141C33.1388 30.2856 32.9929 30.7193 33.1388 31.0807C34.2336 33.6105 36.3501 35.2007 38.7586 35.4175V44.8863H27.446V29.3459C28.3948 29.9965 29.5626 30.3579 30.7303 30.3579C33.8687 30.3579 36.4231 27.9003 36.6421 24.8645C38.9046 23.9972 40.4373 21.8288 40.4373 19.3712C40.4373 16.5523 38.3937 14.167 35.6933 13.661C35.7663 13.4442 35.7663 13.2274 35.7663 13.0105C35.7663 11.2035 34.4525 9.61333 32.6279 9.3242C32.6279 9.25192 32.6279 9.25192 32.6279 9.17964C32.6279 5.92701 30.0005 3.32491 26.7162 3.32491C23.4319 3.32491 20.8045 5.92701 20.8045 9.17964C20.8045 9.46876 20.8045 9.75789 20.8774 10.1193C20.9504 10.4807 21.3154 10.7698 21.6803 10.6975C22.0452 10.6253 22.3371 10.2639 22.2642 9.90245C22.1912 9.61333 22.1912 9.39648 22.1912 9.17964C22.1912 6.7221 24.1617 4.77052 26.6432 4.77052C29.1247 4.77052 31.0953 6.7221 31.0953 9.17964C31.0953 9.39648 31.0953 9.61333 31.0223 9.90245L30.9493 10.6975H31.8251C33.1388 10.6975 34.2336 11.7817 34.2336 13.0828C34.2336 13.4442 34.1606 13.7333 34.0146 14.0224L33.5767 14.9621L34.6715 15.0344C37.08 15.1067 38.9046 17.0582 38.9046 19.4435C38.9046 21.3951 37.5179 23.2021 35.6203 23.7081L35.0364 23.8526V24.5754C35.0364 27.033 33.0658 28.9845 30.5844 28.9845C29.3436 28.9845 28.1759 28.4786 27.3001 27.5389V24.4309L30.6574 20.6C30.9493 20.3109 30.8763 19.8772 30.5844 19.5881C30.2924 19.2989 29.8545 19.3712 29.5626 19.6603L27.3001 22.1902V16.1909C27.3001 15.7572 27.0081 15.4681 26.5702 15.4681C26.1323 15.4681 25.8404 15.7572 25.8404 16.1909V19.6603L23.8698 17.6365C23.5779 17.3474 23.14 17.3474 22.848 17.6365C22.5561 17.9256 22.5561 18.3593 22.848 18.6484L25.5485 21.3951C25.6214 21.4674 25.7674 21.5396 25.8404 21.5396V27.5389C25.0376 28.4063 23.8698 28.84 22.7021 28.84C22.1182 28.84 21.5343 28.6954 20.9504 28.4786C20.5855 28.334 20.1476 28.4786 20.0016 28.84C19.8557 29.2014 20.0016 29.6351 20.3666 29.7796C21.0964 30.0687 21.8992 30.2133 22.6291 30.2133C23.7968 30.2133 24.8916 29.8519 25.7674 29.2737V44.7417L11.1705 44.6694V36.4294C16.8633 35.9235 21.3154 27.9726 21.3154 18.2147C21.3154 8.16771 16.4984 0 10.5137 0C4.52894 0 0.00390625 8.24 0.00390625 18.287C0.00390625 27.828 4.38297 35.7066 9.92979 36.4294V44.814H1.39061C0.952705 44.814 0.660767 45.1031 0.660767 45.5368C0.660767 45.9705 0.952705 46.2596 1.39061 46.2596L39.4155 46.3319H39.4885H39.5615H45.5462C45.9841 46.3319 46.276 46.0428 46.276 45.6091C46.276 45.2477 45.9841 44.9586 45.5462 44.9586ZM1.46359 18.287C1.46359 9.03508 5.62371 1.51789 10.8056 1.51789C15.9875 1.51789 20.1476 9.03508 20.1476 18.287C20.1476 27.1775 16.2794 34.4779 11.4625 34.9838V27.4666L14.7468 23.7081C15.0387 23.4189 14.9657 22.9852 14.6738 22.6961C14.3818 22.407 13.9439 22.4793 13.652 22.7684L11.4625 25.2982V21.7565C11.4625 21.3228 11.1705 21.0337 10.7326 21.0337C10.2947 21.0337 10.0028 21.3228 10.0028 21.7565V27.3944L8.03219 25.3705C7.74025 25.0814 7.30235 25.0814 7.01041 25.3705C6.71847 25.6596 6.71847 26.0933 7.01041 26.3824L9.71084 29.1291C9.78382 29.2014 9.92979 29.2737 10.0028 29.2737V34.9838C5.1858 34.1887 1.46359 27.033 1.46359 18.287Z" fill="#444444"/>
</svg>
