<svg width="42" height="42" viewBox="0 0 42 42" fill="none" xmlns="http://www.w3.org/2000/svg">
<path fill-rule="evenodd" clip-rule="evenodd" d="M40.4244 0H4.06046C3.77071 0 3.48096 0.290377 3.48096 0.580752C3.48096 0.871127 3.77071 1.1615 4.06046 1.1615H40.4244C40.7142 1.1615 41.0039 0.871127 41.0039 0.580752C41.0039 0.290377 40.7142 0 40.4244 0ZM1.30794 37.6034C1.30794 37.8937 1.01818 38.0389 0.728431 38.0389C0.438678 38.0389 0.148926 37.8937 0.148926 37.6034V1.01629C0.148926 0.725917 0.438678 0.435547 0.728431 0.435547C1.01818 0.435547 1.30794 0.725917 1.30794 1.01629V37.6034ZM39.5552 3.9201C39.5552 3.62973 39.8449 3.33936 40.1347 3.33936C40.4244 3.33936 40.7142 3.62973 40.7142 3.9201V40.6524C40.7142 40.9427 40.4244 41.2331 40.1347 41.2331C39.8449 41.2331 39.5552 40.9427 39.5552 40.6524V3.9201ZM37.2368 39.7812H16.0849V39.3456C16.0849 39.0553 15.7951 38.7649 15.5054 38.9101C15.2156 38.9101 14.9259 39.2005 15.0708 39.4908V40.2168V40.5071C15.0708 40.7975 15.3605 40.9427 15.6503 40.9427H37.2368C37.5266 40.9427 37.8163 40.6523 37.8163 40.3619C37.8163 40.0716 37.5266 39.7812 37.2368 39.7812ZM6.52334 30.0537H7.24772C7.53748 30.0537 7.68235 30.3441 7.82723 30.7796C7.82723 31.07 7.53748 31.2152 7.24772 31.2152H6.66822V40.362C6.66822 40.6523 6.37847 40.9427 6.08871 40.9427H0.583412C0.293659 40.9427 0.00390625 40.6523 0.00390625 40.362C0.00390625 40.0716 0.293659 39.7812 0.583412 39.7812H5.65408V30.6344C5.65408 30.3441 5.94384 30.0537 6.23359 30.0537H6.37846H6.52334ZM10.2903 30.9248C10.073 30.8522 9.81944 30.7433 9.56591 30.6344L9.56584 30.6344L9.56579 30.6344L9.56577 30.6344C9.31229 30.5255 9.05881 30.4166 8.84153 30.344C8.55178 30.1989 8.26202 30.4892 8.11715 30.7796C7.97227 31.07 8.26202 31.3603 8.55178 31.5055L9.85566 31.9411H10.1454C10.2903 31.9411 10.58 31.7959 10.58 31.6507C10.58 31.3603 10.4352 30.9248 10.2903 30.9248ZM12.2459 32.0137C12.4632 32.1952 12.6805 32.3766 12.8978 32.5218C13.0427 32.8122 13.0427 33.1026 13.0427 33.2478C12.8978 33.3929 12.753 33.3929 12.6081 33.3929C12.4632 33.3929 12.3183 33.3929 12.1735 33.2478C11.9561 33.1026 11.7751 32.9574 11.594 32.8122C11.4129 32.667 11.2318 32.5218 11.0145 32.3766C10.7247 32.2315 10.7247 31.9411 10.8696 31.6507C11.0145 31.3603 11.3042 31.3603 11.594 31.5055C11.8113 31.6507 12.0286 31.8322 12.2459 32.0137ZM15.5055 38.6197C15.7953 38.6197 15.9402 38.3293 15.9402 38.0389C15.7953 37.4582 15.6504 37.0226 15.5055 36.5871C15.3607 36.2967 15.0709 36.1515 14.7812 36.2967C14.4914 36.4419 14.3465 36.7323 14.4914 37.0226L14.926 38.3293C14.926 38.3293 15.0709 38.6197 15.5055 38.6197ZM13.9122 33.6833L14.7814 34.99C14.9263 35.2804 14.7814 35.5707 14.4917 35.8611H14.2019C14.0571 35.8611 13.9122 35.7159 13.7673 35.5708L13.7673 35.5707C13.6224 35.1352 13.3327 34.6996 13.0429 34.4092C12.898 34.1189 12.898 33.8285 13.1878 33.5381C13.3327 33.3929 13.7673 33.3929 13.9122 33.6833ZM19.9971 10.3083C19.9971 10.0179 20.2868 9.72754 20.5766 9.72754C20.8663 9.72754 21.1561 9.87272 21.1561 10.1631V20.0358H37.0925C37.3822 20.0358 37.672 20.3262 37.672 20.6165C37.672 20.9069 37.3822 21.1973 37.0925 21.1973H21.1561V31.2152C21.1561 31.5056 20.8663 31.7959 20.5766 31.7959C20.2868 31.7959 19.9971 31.5056 19.9971 31.2152V10.3083Z" fill="#D5C695"/>
</svg>
