<svg width="41" height="42" viewBox="0 0 41 42" fill="none" xmlns="http://www.w3.org/2000/svg">
<path fill-rule="evenodd" clip-rule="evenodd" d="M3.91164 1.45187H40.2756C40.7102 1.45187 41 1.16149 41 0.725934C41 0.290374 40.7102 0 40.2756 0H3.91164C3.47701 0 3.18726 0.290374 3.18726 0.725934C3.18726 1.16149 3.47701 1.45187 3.91164 1.45187ZM40.2757 3.04895C39.841 3.04895 39.5513 3.33932 39.5513 3.77488V40.5071C39.5513 40.9427 39.841 41.2331 40.2757 41.2331C40.7103 41.2331 41 40.9427 41 40.5071V3.77488C41 3.33932 40.7103 3.04895 40.2757 3.04895ZM1.59452 37.3138C1.59452 37.7494 1.30476 38.0398 0.870134 38.0398C0.435505 38.0398 0.145752 37.7494 0.145752 37.3138V0.87193C0.145752 0.43637 0.435505 0.145996 0.870134 0.145996C1.30476 0.145996 1.59452 0.43637 1.59452 0.87193V37.3138ZM37.3781 39.4909H16.5159V39.3457C16.5159 38.9101 16.0813 38.6198 15.7915 38.6198C15.3569 38.6198 15.0671 39.0553 15.0671 39.3457V40.0716V40.362C15.0671 40.6524 15.3569 40.9427 15.7915 40.9427H37.3781C37.8127 40.9427 38.1025 40.6524 38.1025 40.2168C38.1025 39.7812 37.8127 39.4909 37.3781 39.4909ZM6.66431 29.7632H7.38869C7.67844 29.7632 8.11307 30.0536 7.9682 30.6343C7.9682 31.0699 7.67845 31.3602 7.24382 31.3602H6.95406V40.2166C6.95406 40.6522 6.66431 40.9426 6.22968 40.9426H0.724382C0.289753 40.9426 0 40.6522 0 40.2166C0 39.7811 0.289753 39.4907 0.724382 39.4907H5.65018V30.4891C5.65018 30.0536 5.93993 29.7632 6.37456 29.7632H6.51943H6.66431ZM13.0389 32.2315C12.8216 32.0863 12.6043 31.9048 12.387 31.7233C12.1697 31.5418 11.9524 31.3603 11.7351 31.2152C11.5256 31.0053 11.2405 31.023 10.9892 31.1585C10.9353 30.897 10.7727 30.6033 10.4309 30.4891C10.2136 30.4165 9.96006 30.3076 9.70652 30.1987C9.45299 30.0899 9.19945 29.981 8.98214 29.9084C8.54751 29.7632 8.25776 30.0536 8.11288 30.4891C7.96801 30.9247 8.25776 31.2151 8.69239 31.3602L9.99627 31.7958H10.286C10.38 31.7958 10.474 31.7805 10.5631 31.75C10.5665 31.969 10.6893 32.1998 10.8658 32.3767C11.3004 32.667 11.5902 32.9574 11.8799 33.2478C12.0248 33.393 12.1697 33.393 12.3146 33.393C12.4594 33.393 12.7492 33.2478 12.8941 33.1026C13.4736 32.9574 13.3287 32.5218 13.0389 32.2315ZM15.6464 38.6196H15.5016C15.2118 38.6196 14.9221 38.3293 14.9221 38.0389L14.4874 36.7322C14.3426 36.2966 14.4874 35.8611 14.9221 35.8611C15.2118 35.7159 15.6464 35.8611 15.7913 36.2966C15.9362 36.7322 16.0811 37.1678 16.2259 37.7485C16.2259 38.1841 16.0811 38.4744 15.6464 38.6196ZM14.7775 35.716C15.0673 35.5708 15.2122 35.1353 15.0673 34.6997L14.198 33.393C13.9083 33.1026 13.4736 33.1026 13.1839 33.2478C12.8941 33.5382 12.8941 33.9738 13.039 34.2641C13.3288 34.5545 13.6185 34.9901 13.7634 35.4256C13.9083 35.716 14.198 35.8612 14.3429 35.8612C14.5126 35.8612 14.5829 35.8114 14.6412 35.7701C14.6824 35.7409 14.7175 35.716 14.7775 35.716Z" fill="#D5C695"/>
</svg>
