<svg width="31" height="29" viewBox="0 0 31 29" fill="none" xmlns="http://www.w3.org/2000/svg">
<path fill-rule="evenodd" clip-rule="evenodd" d="M0.20949 16.4165C0.57132 16.0875 0.998937 15.7914 1.45945 15.6269C2.11732 15.3966 2.80808 15.2979 3.49885 15.1992C3.92646 15.1663 4.35408 15.1992 4.7488 15.2979C5.24221 15.4295 5.30799 15.8901 4.88038 16.1862C4.61723 16.3836 4.28829 16.4823 3.99225 16.5809C3.03834 16.877 2.05153 17.1402 1.06472 17.4034C0.933149 17.4363 0.801575 17.4692 0.538427 17.535C0.406852 17.4363 0.0779168 17.3376 0.0121297 17.1402C-0.0207639 16.9099 0.0450226 16.548 0.20949 16.4165ZM3.40017 4.86901C3.46595 4.70452 3.69621 4.60582 3.89357 4.44133C4.55144 4.70452 5.17642 4.90191 5.70272 5.23089C6.2948 5.55988 6.8211 5.98757 7.34739 6.41525C7.64344 6.64554 7.74212 6.94163 7.47897 7.27061C7.21582 7.5996 6.95267 7.46801 6.62374 7.30351C5.8014 6.87583 4.97906 6.48105 4.15672 6.02046C3.89357 5.88887 3.63042 5.65858 3.43306 5.42829C3.33438 5.32959 3.33438 5.0664 3.40017 4.86901ZM6.95267 0C6.2948 0 6.03165 0.328987 6.16323 0.855366C6.19612 0.921164 6.19612 1.05276 6.22901 1.11856C6.95267 2.23711 7.67633 3.38857 8.43288 4.47422C8.53156 4.60582 8.95918 4.67162 9.15654 4.57292C9.45258 4.47422 9.55126 4.14524 9.45258 3.84915C8.99207 2.5003 8.3671 1.21725 7.28161 0.197392C7.21582 0.0986961 7.01846 0.0328987 6.95267 0ZM5.86718 19.4102C5.14353 20.1998 4.38697 20.9894 3.36727 21.3842C2.93966 21.5487 2.57783 21.2526 2.57783 20.6933C2.64361 20.5946 2.7094 20.3643 2.84098 20.2656C3.59753 19.7392 4.38697 19.2128 5.20931 18.7194C5.34089 18.6536 5.66982 18.7523 5.8014 18.8839C5.90008 18.9826 5.93297 19.3444 5.86718 19.4102ZM16.2944 27.5033C16.0642 26.5822 15.8339 25.661 15.6695 24.7398C15.6366 24.5753 15.8668 24.3121 16.0313 24.2134C16.1629 24.1476 16.4918 24.2463 16.5576 24.345C17.0181 25.2991 17.5115 26.2861 17.5115 27.3717C17.5115 27.8323 17.1168 28.0955 16.5905 27.8652C16.5247 27.7994 16.3273 27.6678 16.2944 27.5033ZM11.6893 27.7007C11.788 27.1414 11.9525 26.5822 12.1499 26.0558C12.3801 25.3978 12.6433 24.7398 12.9722 24.1148C13.038 23.9503 13.334 23.7529 13.4985 23.7858C13.6959 23.8187 13.8274 24.0819 13.9261 24.1805C13.7616 25.5623 13.5972 26.7796 13.0051 27.8981C12.9393 28.0297 12.8406 28.2271 12.709 28.26C12.4459 28.3258 12.1499 28.4245 11.9196 28.3258C11.7551 28.2929 11.6565 27.8981 11.6893 27.7007ZM11.5249 8.58656C11.2946 8.98135 11.0644 9.37613 10.6039 9.47483C10.0118 9.60642 9.3868 9.67222 8.76182 9.80381C7.77501 10.0341 6.7882 10.2315 5.86718 10.5276C5.20931 10.725 5.14353 11.1856 5.57114 11.7119C6.06454 12.2712 6.55795 12.8305 7.08425 13.324C7.77501 13.982 8.49867 14.5412 9.18944 15.1992C9.3539 15.3308 9.48548 15.6269 9.45258 15.7914C9.3868 16.4494 9.22233 17.0744 9.12365 17.7324C8.95918 18.7523 8.79471 19.7721 8.66314 20.5288C8.63024 21.746 8.92629 22.0092 9.74863 21.6803C11.1959 21.0552 12.6433 20.3972 14.0577 19.7063C14.4524 19.5089 14.7484 19.476 15.1103 19.6734C15.3734 19.805 15.6037 19.9366 15.8668 20.0682C17.3141 20.7591 18.7615 21.45 20.2088 22.1408C20.7022 22.3711 21.2285 21.9763 21.1627 21.45C20.9324 19.805 20.6693 18.193 20.3732 16.548C20.3075 16.2191 20.3404 16.0217 20.5377 15.7585C21.1627 15.0018 21.7877 14.2451 22.3798 13.4556C22.906 12.7318 23.3995 11.9751 23.86 11.2185C24.1231 10.7908 24.0244 10.4618 23.6626 10.3631C22.2153 9.96831 20.8009 9.50773 19.3207 9.24454C18.597 9.11294 18.0707 8.94845 17.7418 8.25758C17.7089 8.19178 17.676 8.12598 17.6102 8.06018C16.7221 6.84293 15.8668 5.62568 14.9458 4.44133C14.584 3.94784 14.1893 4.01364 13.8603 4.54002C13.038 5.92177 12.2814 7.23772 11.5249 8.58656ZM19.7154 4.86901C20.0772 3.88205 20.3732 2.86219 20.768 1.87523C20.8995 1.54624 21.2614 1.25015 21.5574 1.01986C21.6561 0.921164 21.9192 0.921164 22.0508 0.986961C22.2153 1.08566 22.314 1.31595 22.4455 1.48044C22.2482 1.90813 22.0837 2.30291 21.9192 2.6648C21.5245 3.55306 21.1627 4.44133 20.768 5.29669C20.6364 5.59278 20.439 5.92177 20.0772 5.75727C19.6825 5.59278 19.5838 5.29669 19.7154 4.86901ZM22.8403 6.21786C23.0376 5.88887 23.3008 5.55988 23.5968 5.29669C23.9915 4.90191 24.4192 4.54002 24.8797 4.24393C25.077 4.11234 25.4389 4.07944 25.6362 4.21103C25.9323 4.37553 25.8994 4.70451 25.6691 4.93481C25.077 5.59278 24.452 6.21786 23.86 6.84293C23.7613 6.94163 23.5639 6.97453 23.4323 7.04032C22.9061 7.04032 22.61 6.61264 22.8403 6.21786ZM27.4783 21.6145C27.248 21.8776 26.9849 22.0092 26.6559 21.7789C26.1296 21.45 25.6033 21.1539 25.077 20.792C24.8797 20.6604 24.6823 20.463 24.5836 20.2327C24.4849 20.0682 24.4849 19.7721 24.5507 19.6076C24.6165 19.4431 24.8797 19.3444 25.0441 19.2457C25.2744 19.3444 25.4717 19.3773 25.6362 19.5089C26.2283 19.9366 26.8204 20.3643 27.3796 20.8249C27.6427 21.0223 27.7414 21.3184 27.4783 21.6145ZM29.9453 17.4034C29.7808 17.7653 29.4519 17.7982 29.09 17.6666C27.873 17.2389 26.623 16.8441 25.406 16.4494C25.1428 16.3507 24.8468 16.1862 24.9783 15.8572C25.077 15.6269 25.3731 15.4624 25.4717 15.3637C27.0177 15.594 28.3335 15.923 29.5506 16.548C29.9124 16.7454 30.1097 17.0086 29.9453 17.4034Z" fill="white"/>
</svg>
