<svg width="123" height="160" viewBox="0 0 123 160" fill="none" xmlns="http://www.w3.org/2000/svg">
<g clip-path="url(#clip0)">
<path fill-rule="evenodd" clip-rule="evenodd" d="M28.568 133.475C28.568 139.275 29.67 141.663 31.874 141.834C34.078 142.09 36.0277 139.36 36.1124 135.437C36.282 129.296 30.0091 127.846 28.568 133.475ZM116.897 105.586C117.067 102.09 117.321 92.7079 117.236 90.064C117.152 87.42 116.134 86.9083 114.524 86.9083C112.574 86.823 111.387 88.2729 111.387 91.0021C111.387 93.8166 112.489 96.29 116.304 96.4605C114.524 101.578 114.439 104.819 112.15 107.207C110.37 108.998 108.251 109.083 106.556 108.486C103.928 109.936 99.6893 110.277 98.4177 106.098C98.1634 105.33 98.0787 104.307 97.9939 103.113C97.0614 104.819 95.4508 106.098 92.7382 106.098C90.2799 106.098 85.6176 104.136 85.6176 95.2665C85.6176 87.0789 90.1951 84.435 93.5859 84.0938C97.0614 83.6674 99.6893 86.3966 99.1806 89.0405C97.9091 87.3347 91.9753 86.4819 91.721 95.2665C91.6362 97.9104 92.3144 102.175 95.027 102.004C96.468 101.919 97.4005 100.043 97.7396 97.7399C97.7396 94.7548 97.8243 91.6844 97.6548 89.8081C99.6045 89.9787 102.487 90.064 104.182 89.8081C103.843 92.7932 102.741 101.919 105.284 105.842C108.166 104.392 109.692 101.322 110.794 98.2516C108.166 97.1428 106.386 95.0959 106.386 91.1727C106.386 85.3731 110.455 83.4968 114.27 83.4968C118.084 83.4968 120.203 84.0938 122.238 84.5202C121.814 87.7612 122.153 97.3134 123.086 105.501C120.542 105.245 119.695 105.33 116.897 105.586ZM112.489 147.122C112.235 146.354 112.15 145.33 112.066 144.136C111.133 145.842 109.522 147.122 106.81 147.122C104.352 147.122 99.6893 145.16 99.6893 136.29C99.6893 128.102 104.267 125.458 107.658 125.117C111.133 124.691 113.761 127.42 113.252 130.064C111.981 128.358 106.047 127.505 105.793 136.29C105.708 138.934 106.386 143.198 109.099 143.028C110.54 143.028 111.472 141.066 111.811 138.763C111.896 135.778 111.896 132.708 111.726 130.832C113.676 131.002 116.558 131.002 118.254 130.832C117.83 134.499 116.304 147.633 121.814 148.657C119.61 150.704 113.93 152.068 112.489 147.122ZM96.2985 152.324C95.4508 155.736 92.5687 159.318 87.3977 159.488C83.4136 159.659 80.3619 155.821 81.0401 151.642C84.6004 157.015 90.1104 154.797 91.0428 149.424C91.2971 148.23 91.3819 146.269 91.4667 144.136C90.7885 145.672 89.517 146.951 87.3977 147.122C83.4136 147.548 79.2599 144.051 79.0904 136.716C78.9208 128.955 83.5831 124.947 87.9911 124.947C91.2971 124.947 92.9925 126.652 93.162 129.296C92.2296 128.273 91.0428 127.249 89.1779 127.505C85.7871 127.932 85.1937 133.561 85.1937 136.461C85.1937 138.934 85.1937 143.539 88.2454 143.454C90.619 143.369 91.6362 139.616 91.3819 135.522C91.2971 133.817 91.1276 132.281 91.0428 131.343C92.6534 131.514 96.0442 131.429 97.57 131.173C97.1462 134.414 97.9939 145.586 96.2985 152.324ZM78.4122 150.704C77.9884 155.309 73.9194 159.829 68.8333 160C64.8492 160.085 59.2544 156.674 60.7802 148.486C61.967 153.092 64.9339 154.968 67.8161 154.712C70.4439 154.542 72.987 152.239 73.3261 148.827C73.8347 144.136 70.783 140.128 66.0359 139.531C69.5115 138.763 72.0545 136.034 72.5631 132.878C72.987 130.32 71.885 128.614 69.8505 128.273C66.7141 127.761 65.0187 131.258 66.0359 134.328C62.8995 134.243 61.0345 131.002 62.3909 128.358C64.171 124.947 67.5618 124.52 70.6135 124.947C74.089 125.373 77.9036 128.017 77.8188 132.452C77.7341 136.29 74.6824 138.763 72.0545 139.446C75.8691 140.81 78.8361 145.16 78.4122 150.704ZM43.5721 136.119C43.5721 147.122 55.7789 151.556 60.6107 142.431C55.8636 144.648 49.5059 142.857 49.4212 135.778C49.3364 131.684 49.9298 127.079 52.7272 126.994C55.2702 126.908 55.6093 130.235 55.2702 132.452C55.0159 134.755 53.3206 137.825 50.947 138.849C53.2358 140.043 59.4239 138.934 59.8478 132.878C60.1869 126.652 56.8809 124.606 52.8119 124.606C48.8278 124.606 43.5721 127.249 43.5721 136.119ZM35.0952 105.586C36.0277 98.7633 39.2489 95.4371 42.2158 94.2431C40.5204 93.1343 36.3667 89.2964 35.8581 83.7527C37.8926 84.0938 39.6727 84.0938 42.3006 83.9232C42.2158 88.0171 43.6569 92.7079 47.0476 94.0725C44.6741 95.6077 42.3853 98.4222 42.3853 105.586C40.0966 104.904 36.9601 105.16 35.0952 105.586ZM42.2158 136.461C41.4529 144.222 36.3667 147.463 31.7044 147.122C25.0077 146.61 20.7692 141.748 21.8712 127.505C22.5494 118.55 25.7706 110.362 33.5694 110.448C36.4515 110.448 40.4357 112.409 40.2661 117.527C40.1813 121.706 36.7058 126.397 30.1786 123.241C33.9932 122.303 35.0104 120.171 35.0952 118.465C35.2647 116.674 34.9257 114.627 33.0607 114.627C29.7547 114.627 28.7375 121.109 28.2289 127.249C34.3323 122.047 43.233 126.738 42.2158 136.461ZM20.5997 138.166C20.9388 133.987 18.65 129.893 13.5638 129.296C16.0221 128.614 18.65 126.311 18.65 122.644C18.65 118.38 14.7506 116.077 11.3598 115.65C8.4777 115.309 5.25647 115.906 3.73063 118.721C2.7134 120.938 3.8154 124.35 6.95185 124.435C5.93462 121.45 7.3757 118.977 10.5122 119.232C12.2075 119.403 13.6486 120.597 13.2248 123.07C12.8009 126.055 10.0883 128.87 7.46047 129.723C12.8009 129.979 14.7506 133.731 14.242 137.228C13.9029 140.128 11.5294 142.431 9.07108 142.345C5.93462 142.26 3.81539 140.384 1.95047 137.484C0.42463 142.345 3.64586 146.61 8.98631 147.036C15.1745 147.804 20.0063 144.307 20.5997 138.166ZM0.509399 75.8209C2.45909 75.9915 5.42601 76.0768 7.20616 75.8209C6.86708 77.3561 6.78231 82.8998 6.86708 88.9552C7.79954 88.9552 8.732 88.9552 9.74923 89.1258C10.5969 79.6588 18.2261 75.9915 23.2275 78.4648C18.9891 79.6588 16.8698 84.6055 16.7851 90.661C16.6155 100.213 18.7348 103.625 22.1255 103.539C25.9401 103.369 27.466 96.4605 27.3812 90.4904C27.3812 86.3113 26.6183 76.8443 17.8871 75.3092C28.1441 71.7271 33.7389 79.4883 33.7389 90.5757C33.7389 99.275 29.1614 107.377 22.2103 107.377C15.8526 107.377 10.5122 102.857 9.66446 93.5608C8.81677 93.3049 7.79954 93.2196 6.86708 93.1343C7.03662 99.1898 7.29093 104.733 7.54524 106.013C5.84985 105.416 1.69617 105.672 -0.0839844 106.098C0.933245 102.345 1.10278 79.8294 0.509399 75.8209ZM23.5666 42.5586C24.4991 41.7058 25.6011 40.9382 26.7878 40.5117C28.4832 39.9147 30.2634 39.6588 32.0435 39.403C33.1455 39.3177 34.2475 39.403 35.2647 39.6588C36.5363 40 36.7058 41.194 35.6038 41.9616C34.9257 42.4733 34.078 42.7292 33.315 42.9851C30.8567 43.7527 28.3137 44.435 25.7706 45.1173C25.4315 45.2026 25.0924 45.2878 24.4143 45.4584C24.0752 45.2026 23.2275 44.9467 23.058 44.435C22.9732 43.8379 23.1428 42.8998 23.5666 42.5586ZM31.7892 12.6226C31.9587 12.1962 32.5521 11.9403 33.0607 11.5139C34.7561 12.1962 36.3667 12.7079 37.723 13.5608C39.2489 14.4136 40.6052 15.5224 41.9615 16.6311C42.7244 17.2281 42.9787 17.9957 42.3006 18.8486C41.6224 19.7015 40.9443 19.3603 40.0966 18.9339C37.9773 17.8252 35.8581 16.8017 33.7389 15.6077C33.0607 15.2665 32.3826 14.6695 31.874 14.0725C31.6197 13.8166 31.6197 13.1343 31.7892 12.6226ZM40.9443 0C39.2489 0 38.5707 0.852878 38.9098 2.21748C38.9946 2.38806 38.9946 2.72921 39.0793 2.89979C40.9443 5.79957 42.8092 8.78465 44.7589 11.5991C45.0132 11.9403 46.1152 12.1109 46.6238 11.855C47.3867 11.5991 47.641 10.7463 47.3867 9.97868C46.2 6.48188 44.5893 3.15565 41.792 0.511727C41.6224 0.255864 41.1138 0.0852878 40.9443 0ZM38.1469 50.3198C36.282 52.3667 34.3323 54.4136 31.7044 55.4371C30.6024 55.8635 29.67 55.0959 29.67 53.6461C29.8395 53.3902 30.0091 52.7932 30.3481 52.5373C32.2978 51.1727 34.3323 49.8081 36.4515 48.5288C36.7906 48.3582 37.6383 48.6141 37.9773 48.9552C38.2317 49.2111 38.3164 50.1493 38.1469 50.3198ZM65.0187 71.3006C64.4253 68.9126 63.8319 66.5245 63.4081 64.1365C63.3233 63.71 63.9167 63.0277 64.3405 62.7718C64.6796 62.6013 65.5273 62.8571 65.6968 63.113C66.8836 65.5863 68.1552 68.145 68.1552 70.9595C68.1552 72.1535 67.1379 72.8358 65.7816 72.2388C65.6121 72.0682 65.1035 71.7271 65.0187 71.3006ZM53.151 71.8124C53.4053 70.3625 53.8292 68.9126 54.3378 67.548C54.9312 65.8422 55.6093 64.1365 56.457 62.516C56.6266 62.0896 57.3895 61.5778 57.8133 61.6631C58.3219 61.7484 58.661 62.4307 58.9153 62.6866C58.4915 66.2687 58.0676 69.4243 56.5418 72.3241C56.3722 72.6652 56.1179 73.177 55.7789 73.2623C55.1007 73.4328 54.3378 73.6887 53.7444 73.4328C53.3206 73.3475 53.0663 72.3241 53.151 71.8124ZM53.4901 93.8166C57.0504 93.049 57.9829 87.1642 57.8133 83.7527C59.8478 83.9232 62.6452 84.0938 64.5948 83.7527C64.3405 88.2729 60.4412 92.5373 58.4067 93.9872C61.2889 95.1812 64.5101 98.5075 65.4425 105.33C63.4929 105.075 60.7802 104.819 58.1524 105.33C58.1524 98.2516 55.9484 95.3518 53.4901 93.8166ZM47.1324 83.7527C47.5563 86.0554 47.8106 98.8486 47.1324 105.586C48.8278 105.33 51.4556 105.16 53.6596 105.416C52.8967 101.066 52.7272 90.8316 53.151 83.4968C51.4556 84.0085 49.0821 84.0938 47.1324 83.7527ZM73.0718 95.1812C73.0718 98.7633 73.1565 103.028 73.8347 105.416C71.2916 105.075 69.3419 105.075 67.477 105.416C67.9008 100.128 68.1552 87.2495 67.3922 84.0938C68.9181 84.435 70.6135 84.435 73.3261 84.0938C72.8175 87.1642 73.0718 91.0021 73.0718 92.452C74.5976 92.3667 76.293 92.2814 77.9884 92.3667C77.9884 88.7846 77.8188 85.5437 77.6493 84.0085C79.2599 84.1791 81.803 84.2644 83.2441 84.0085C82.5659 86.9936 83.2441 102.942 83.7527 105.416C82.3116 104.904 78.8361 105.075 77.3102 105.501C77.6493 103.966 77.9036 99.0192 77.9884 94.9254C76.3778 95.0107 74.5976 95.0107 73.0718 95.1812ZM52.7272 22.2601C52.1338 23.2836 51.5404 24.307 50.3536 24.5629C48.8278 24.904 47.2172 25.0746 45.6066 25.4158C43.0635 26.0128 40.5204 26.5245 38.1469 27.2921C36.4515 27.8038 36.282 28.9979 37.384 30.3625C38.6555 31.8124 39.927 33.2623 41.2833 34.5416C43.0635 36.2473 44.9284 37.6972 46.7086 39.403C47.1324 39.7441 47.4715 40.5117 47.3867 40.9382C47.2172 42.6439 46.7933 44.2644 46.539 45.9701C46.1152 48.6141 45.6913 51.258 45.3523 53.2196C45.2675 56.3753 46.0304 57.0576 48.1496 56.2047C51.8795 54.5842 55.6093 52.8785 59.2544 51.0874C60.2716 50.5757 61.0345 50.4904 61.967 51.0021C62.6452 51.3433 63.2385 51.6844 63.9167 52.0256C67.6465 53.8166 71.3764 55.6077 75.1062 57.3987C76.3778 57.9957 77.7341 56.9723 77.5645 55.6077C76.9711 51.3433 76.293 47.1642 75.5301 42.8998C75.3605 42.0469 75.4453 41.5352 75.9539 40.8529C77.5645 38.8913 79.1751 36.9296 80.701 34.8827C82.0573 33.0064 83.3288 31.0448 84.5156 29.0832C85.1937 27.9744 84.9394 27.1215 84.007 26.8657C80.2771 25.8422 76.6321 24.6482 72.8175 23.9659C70.9525 23.6247 69.5962 23.1983 68.7485 21.4072C68.6638 21.2367 68.579 21.0661 68.4095 20.8955C66.1207 17.7399 63.9167 14.5842 61.5432 11.5139C60.6107 10.2345 59.5935 10.4051 58.7458 11.7697C56.6266 15.3518 54.6769 18.7633 52.7272 22.2601ZM73.8347 12.6226C74.7671 10.064 75.5301 7.42004 76.5473 4.86141C76.8864 4.00853 77.8188 3.24094 78.5818 2.64392C78.8361 2.38806 79.5142 2.38806 79.8533 2.55864C80.2771 2.8145 80.5314 3.41151 80.8705 3.83795C80.3619 4.94669 79.9381 5.97015 79.5142 6.90832C78.497 9.21109 77.5645 11.5139 76.5473 13.7313C76.2082 14.4989 75.6996 15.3518 74.7671 14.9254C73.7499 14.4989 73.4956 13.7313 73.8347 12.6226ZM81.8877 16.1194C82.3964 15.2665 83.0745 14.4136 83.8374 13.7313C84.8547 12.7079 85.9567 11.7697 87.1434 11.0021C87.6521 10.661 88.5845 10.5757 89.0931 10.9168C89.856 11.3433 89.7713 12.1962 89.1779 12.7932C87.652 14.4989 86.0414 16.1194 84.5156 17.7399C84.2613 17.9957 83.7527 18.081 83.4136 18.2516C82.0573 18.2516 81.2944 17.1429 81.8877 16.1194ZM93.8402 56.0341C93.2468 56.7164 92.5687 57.0576 91.721 56.4605C90.3647 55.6077 89.0084 54.8401 87.6521 53.9019C87.1434 53.5608 86.6348 53.049 86.3805 52.452C86.1262 52.0256 86.1262 51.258 86.2957 50.8316C86.4653 50.4051 87.1434 50.1493 87.5673 49.8934C88.1607 50.1493 88.6693 50.2345 89.0931 50.5757C90.619 51.6844 92.1448 52.7932 93.5859 53.9872C94.264 54.4989 94.5183 55.2665 93.8402 56.0341ZM100.198 45.1173C99.774 46.0554 98.9263 46.1407 97.9939 45.7996C94.8574 44.6908 91.6362 43.6674 88.4997 42.6439C87.8216 42.3881 87.0587 41.9616 87.3977 41.1087C87.652 40.5117 88.415 40.0853 88.6693 39.8294C92.6534 40.4264 96.0442 41.2793 99.1806 42.8998C100.113 43.4115 100.622 44.0938 100.198 45.1173Z" fill="white"/>
</g>
<defs>
<clipPath id="clip0">
<rect width="123" height="160" fill="white"/>
</clipPath>
</defs>
</svg>
