<svg width="37" height="37" viewBox="0 0 37 37" fill="none" xmlns="http://www.w3.org/2000/svg">
<path fill-rule="evenodd" clip-rule="evenodd" d="M24.2749 4.92871H29.3594C30.8168 4.92871 31.9983 6.11011 31.9982 7.56756V16.948C31.9982 18.4055 30.8168 19.5869 29.3593 19.5869H7.05274C5.59529 19.5869 4.41382 18.4054 4.41382 16.948V7.56763C4.41382 6.11011 5.59536 4.92871 7.05274 4.92871H21.7001C22.0048 4.92871 22.2518 5.17571 22.2518 5.48039C22.2518 5.78506 22.0048 6.03206 21.7001 6.03206H7.05274C6.20478 6.03206 5.51724 6.71952 5.51724 7.56756V8.90079H30.8949V7.56756C30.8949 6.71952 30.2074 6.03206 29.3594 6.03206H24.2749C23.9702 6.03206 23.7232 5.78506 23.7232 5.48039C23.7232 5.17571 23.9702 4.92871 24.2749 4.92871ZM29.3594 18.4835C30.2061 18.4835 30.8949 17.7947 30.8949 16.948V10.0042H5.51724V16.948C5.51724 17.7947 6.20608 18.4835 7.05274 18.4835H29.3594Z" fill="#467637"/>
<path fill-rule="evenodd" clip-rule="evenodd" d="M4.70825 23.4285C4.70825 21.9481 5.91278 20.7437 7.39314 20.7437C8.87357 20.7437 10.078 21.9481 10.078 23.4285C10.078 24.909 8.8735 26.1134 7.39314 26.1134C5.91278 26.1134 4.70825 24.909 4.70825 23.4285ZM5.8116 23.4285C5.8116 24.3006 6.52111 25.0101 7.39314 25.0101C8.26524 25.0101 8.97467 24.3006 8.97467 23.4285C8.97467 22.5565 8.26516 21.847 7.39314 21.847C6.52111 21.847 5.8116 22.5565 5.8116 23.4285Z" fill="#467637"/>
<path fill-rule="evenodd" clip-rule="evenodd" d="M29.0191 20.7437C27.5387 20.7437 26.3342 21.9481 26.3342 23.4285C26.3342 24.909 27.5387 26.1134 29.0191 26.1134C30.4995 26.1134 31.704 24.909 31.704 23.4285C31.704 21.9481 30.4995 20.7437 29.0191 20.7437ZM29.0191 25.0101C28.1471 25.0101 27.4376 24.3006 27.4376 23.4285C27.4376 22.5565 28.1471 21.847 29.0191 21.847C29.8911 21.847 30.6006 22.5565 30.6006 23.4285C30.6006 24.3006 29.8912 25.0101 29.0191 25.0101Z" fill="#467637"/>
<path fill-rule="evenodd" clip-rule="evenodd" d="M33.9842 7.57654H34.5021C35.5552 7.57654 36.4119 8.43318 36.412 9.4863V15.1557C36.412 16.2088 35.5553 17.0654 34.5023 17.0654H33.9844V27.2166H34.1052C34.9309 27.2166 35.6027 27.8884 35.6027 28.7142V31.9714C35.6027 32.7972 34.931 33.469 34.1052 33.469H33.5062V35.381C33.5062 36.2736 32.78 36.9998 31.8873 36.9998H27.8426C26.95 36.9998 26.2238 36.2736 26.2238 35.381V33.469H24.936C24.6932 34.3582 23.8789 35.0137 22.9139 35.0137H13.4982C12.5332 35.0137 11.7189 34.358 11.476 33.469H10.5558V35.381C10.5558 36.2736 9.82957 36.9998 8.93694 36.9998H4.89224C3.99961 36.9998 3.27341 36.2736 3.27341 35.381V33.469H2.6744C1.8487 33.469 1.17692 32.7972 1.17692 31.9714V28.7142C1.17692 27.9726 1.7192 27.357 2.42762 27.2387V17.0654H1.90969C0.856709 17.0654 7.22656e-05 16.2087 0 15.1557V9.48616C0 8.4331 0.856709 7.57647 1.90969 7.57647H2.42762V5.24012C2.42762 2.3508 4.77842 0 7.66788 0H28.7441C31.6335 0 33.9843 2.3508 33.9842 5.24019V7.57654ZM1.90976 15.9622H2.42769V8.67996H1.90976C1.46518 8.67996 1.10342 9.04165 1.10342 9.4863V15.1558C1.10342 15.6005 1.46518 15.9622 1.90976 15.9622ZM4.89224 35.8966H8.93701C9.22116 35.8966 9.45241 35.6654 9.45241 35.3812L9.45234 33.4692H4.37684V35.3812C4.37684 35.6654 4.60809 35.8966 4.89224 35.8966ZM13.4981 33.9105H22.9138C23.2573 33.9105 23.5606 33.7351 23.739 33.4692H12.6729C12.8513 33.7351 13.1546 33.9105 13.4981 33.9105ZM31.8873 35.8966C32.1714 35.8966 32.4027 35.6654 32.4027 35.3812V33.4692H27.3272V35.3812C27.3272 35.6654 27.5584 35.8966 27.8426 35.8966H31.8873ZM34.4992 28.7142C34.4992 28.4966 34.3227 28.3201 34.105 28.3201L11.1079 28.3199C10.8032 28.3199 10.5562 28.0729 10.5562 27.7683C10.5562 27.4636 10.8032 27.2166 11.1079 27.2166H11.6224V23.1659C11.6224 21.6248 12.8717 20.3756 14.4128 20.3756H21.9991C23.5402 20.3756 24.7894 21.6248 24.7894 23.1659V27.2166H32.8808V5.24012C32.8808 2.95545 31.0288 1.10335 28.7441 1.10335H7.66788C5.38321 1.10335 3.53104 2.95545 3.53104 5.24012V27.2167H8.53319C8.83786 27.2167 9.08487 27.4637 9.08487 27.7684C9.08487 28.0731 8.83786 28.3201 8.53319 28.3201H2.67462C2.45689 28.3201 2.28041 28.4966 2.28041 28.7143V31.9717C2.28041 32.1893 2.45689 32.3658 2.67455 32.3658H34.1049C34.3227 32.3658 34.4992 32.1893 34.4992 31.9716V28.7142ZM23.6861 27.2167V23.166C23.6861 22.2358 22.9293 21.4791 21.9992 21.4791H14.4129C13.4827 21.4791 12.7259 22.2358 12.7259 23.166V27.2167H23.6861ZM34.5021 15.9621C34.9468 15.9621 35.3085 15.6004 35.3085 15.1558V9.48616C35.3085 9.04151 34.9468 8.67982 34.5021 8.67982H33.9843V15.9621H34.5021Z" fill="#467637"/>
</svg>
