<svg width="37" height="29" viewBox="0 0 37 29" fill="none" xmlns="http://www.w3.org/2000/svg">
<path fill-rule="evenodd" clip-rule="evenodd" d="M8.2188 21.1685C6.8532 21.1685 5.74219 22.2794 5.74219 23.6451C5.74219 25.0107 6.85313 26.1217 8.2188 26.1217C9.5844 26.1217 10.6954 25.0107 10.6954 23.6451C10.6953 22.2795 9.58433 21.1685 8.2188 21.1685ZM8.2188 25.0226C7.45922 25.0226 6.8412 24.4047 6.8412 23.645C6.8412 22.8853 7.45922 22.2674 8.2188 22.2674C8.97838 22.2674 9.5964 22.8853 9.5964 23.645C9.5964 24.4047 8.97838 25.0226 8.2188 25.0226Z" fill="#467637"/>
<path fill-rule="evenodd" clip-rule="evenodd" d="M29.8392 21.1685C28.4736 21.1685 27.3625 22.2794 27.3625 23.6451C27.3625 25.0107 28.4735 26.1217 29.8392 26.1217C31.2048 26.1217 32.3158 25.0107 32.3158 23.6451C32.3158 22.2795 31.2048 21.1685 29.8392 21.1685ZM29.8392 25.0226C29.0796 25.0226 28.4616 24.4047 28.4616 23.645C28.4616 22.8853 29.0796 22.2674 29.8392 22.2674C30.5987 22.2674 31.2168 22.8853 31.2168 23.645C31.2168 24.4047 30.5987 25.0226 29.8392 25.0226Z" fill="#467637"/>
<path fill-rule="evenodd" clip-rule="evenodd" d="M32.9003 4.46924H11.9484C10.8169 4.46924 9.89624 5.38983 9.89624 6.52144V10.6987C9.89624 11.8304 10.8169 12.7509 11.9484 12.7509H32.9003C34.0318 12.7509 34.9525 11.8304 34.9525 10.6987V6.52144C34.9525 5.38983 34.0319 4.46924 32.9003 4.46924ZM14.4569 11.652H11.9484C11.4229 11.652 10.9953 11.2244 10.9953 10.6988V6.52158C10.9953 5.99599 11.4229 5.5684 11.9484 5.5684H14.4569V11.652ZM19.4023 11.652H15.556V5.56833H19.4023V11.652ZM24.3476 11.652H20.5012V5.56833H24.3476V11.652ZM33.8535 10.6989C33.8535 11.2253 33.4267 11.6521 32.9003 11.6521H30.3918V10.9333C30.3918 10.6299 30.1458 10.3838 29.8423 10.3838C29.5389 10.3838 29.2928 10.6299 29.2928 10.9333V11.6521H25.4466V5.5684H29.2928V8.36891C29.2928 8.67235 29.5389 8.91841 29.8423 8.91841C30.1458 8.91841 30.3918 8.67235 30.3918 8.36891V5.5684H32.9003C33.4268 5.56833 33.8535 5.99513 33.8535 6.52151V10.6989Z" fill="#467637"/>
<path d="M12.8083 14.5063H32.0401C32.3436 14.5063 32.5895 14.7524 32.5895 15.0559C32.5895 15.3593 32.3435 15.6054 32.04 15.6054H12.8083C12.5048 15.6054 12.2588 15.3593 12.2588 15.0559C12.2588 14.7524 12.5048 14.5063 12.8083 14.5063Z" fill="#467637"/>
<path d="M32.0401 16.8145H18.7934C18.4899 16.8145 18.2439 17.0605 18.2439 17.364C18.2439 17.6674 18.4899 17.9135 18.7934 17.9135H32.0401C32.3436 17.9135 32.5896 17.6674 32.5896 17.364C32.5896 17.0605 32.3436 16.8145 32.0401 16.8145Z" fill="#467637"/>
<path d="M12.8083 16.8145H16.5952C16.8987 16.8145 17.1447 17.0605 17.1447 17.364C17.1447 17.6674 16.8987 17.9135 16.5952 17.9135H12.8083C12.5048 17.9135 12.2588 17.6674 12.2588 17.364C12.2588 17.0605 12.5048 16.8145 12.8083 16.8145Z" fill="#467637"/>
<path d="M4.62119 17.6934H2.53315C2.22963 17.6934 1.98364 17.9394 1.98364 18.2429C1.98364 18.5463 2.22963 18.7924 2.53315 18.7924H4.62119C4.92471 18.7924 5.1707 18.5463 5.1707 18.2429C5.1707 17.9394 4.92478 17.6934 4.62119 17.6934Z" fill="#467637"/>
<path d="M34.0183 16.466C34.0183 16.1626 34.2643 15.9165 34.5678 15.9165C34.8713 15.9165 35.1173 16.1625 35.1173 16.466V18.5541C35.1173 18.8575 34.8713 19.1036 34.5678 19.1036C34.2643 19.1036 34.0183 18.8575 34.0183 18.5541V16.466Z" fill="#467637"/>
<path fill-rule="evenodd" clip-rule="evenodd" d="M4.26338 0H32.7365C35.0874 0 37 1.91251 36.9999 4.26338V23.6448C36.9999 23.9482 36.7539 24.1943 36.4504 24.1943H34.6565C34.3827 26.6104 32.3274 28.4943 29.8393 28.4943C27.3513 28.4943 25.2959 26.6104 25.0221 24.1943H13.036C12.7622 26.6104 10.7068 28.4943 8.21884 28.4943C5.73088 28.4943 3.6755 26.6104 3.40169 24.1943H0.549508C0.245992 24.1943 0 23.9482 0 23.6448V4.26338C0 1.91251 1.91258 0 4.26338 0ZM4.26338 1.09894C2.5186 1.09894 1.09902 2.51853 1.09902 4.26338V5.16526H7.69824V1.09894H4.26338ZM7.69816 6.26434H1.09902V15.1718H5.82403C6.85743 15.1718 7.69816 14.331 7.69816 13.2977V6.26434ZM1.09902 23.0953H3.40169C3.46904 22.5012 3.6445 21.9395 3.90733 21.4299H1.09902V23.0953ZM4.46869 23.6449C4.46869 25.7129 6.15096 27.3952 8.21884 27.3952C10.2866 27.3952 11.9691 25.7128 11.9691 23.6449C11.9691 21.5771 10.2867 19.8948 8.21884 19.8948C6.15096 19.8948 4.46869 21.577 4.46869 23.6449ZM13.0359 23.0953H25.0221C25.0895 22.5012 25.2649 21.9395 25.5278 21.4299H12.5302C12.7932 21.9395 12.9685 22.5011 13.0359 23.0953ZM26.0891 23.6449C26.0891 25.7129 27.7714 27.3952 29.8393 27.3952C31.9071 27.3952 33.5896 25.7128 33.5896 23.6449C33.5896 21.5771 31.9071 19.8948 29.8393 19.8948C27.7714 19.8948 26.0891 21.577 26.0891 23.6449ZM34.6565 23.0953H35.901V21.4299H34.1508C34.4137 21.9395 34.5891 22.5011 34.6565 23.0953ZM33.3745 20.3309H35.901V4.26345C35.901 2.5186 34.4814 1.09901 32.7365 1.09901H8.79718V13.2977C8.79718 14.937 7.46345 16.2707 5.8241 16.2707H1.09902V20.3309H4.68368C5.569 19.3872 6.82577 18.7959 8.21884 18.7959C9.6119 18.7959 10.8687 19.3871 11.754 20.3309H26.3041C27.1894 19.3872 28.4462 18.7959 29.8393 18.7959C31.2323 18.7959 32.4892 19.3871 33.3745 20.3309Z" fill="#467637"/>
</svg>
