<svg width="35" height="31" viewBox="0 0 35 31" fill="none" xmlns="http://www.w3.org/2000/svg">
<path d="M11.5664 27.75C11.8857 27.75 12.1445 27.4912 12.1445 27.1719C12.1445 26.8526 11.8857 26.5938 11.5664 26.5938C11.2471 26.5938 10.9883 26.8526 10.9883 27.1719C10.9883 27.4912 11.2471 27.75 11.5664 27.75Z" fill="#467637"/>
<path d="M28.332 27.1719C28.332 27.4912 28.0732 27.75 27.7539 27.75C27.4346 27.75 27.1758 27.4912 27.1758 27.1719C27.1758 26.8526 27.4346 26.5938 27.7539 26.5938C28.0732 26.5938 28.332 26.8526 28.332 27.1719Z" fill="#467637"/>
<path fill-rule="evenodd" clip-rule="evenodd" d="M9.2539 20.8125H31.2226C31.3555 20.8125 31.4843 20.7667 31.5874 20.6829C31.6905 20.5991 31.7615 20.4824 31.7886 20.3523L34.6792 6.47731C34.6968 6.39319 34.6953 6.30622 34.675 6.22272C34.6547 6.13923 34.616 6.06131 34.5618 5.99464C34.5076 5.92797 34.4392 5.87423 34.3616 5.83731C34.284 5.8004 34.1992 5.78125 34.1133 5.78125H6.44703L5.19164 0.445662C5.16178 0.318833 5.08996 0.205807 4.98782 0.124913C4.88567 0.0440199 4.7592 2.8675e-06 4.6289 0H0.582031C0.428703 0 0.281654 0.0609095 0.173235 0.169329C0.0648156 0.277748 0.00390625 0.424797 0.00390625 0.578125C0.00390625 0.731453 0.0648156 0.878501 0.173235 0.986921C0.281654 1.09534 0.428703 1.15625 0.582031 1.15625H4.17103L8.54982 19.7662C8.0832 19.916 7.67611 20.2099 7.3871 20.6057C7.09808 21.0014 6.94204 21.4787 6.9414 21.9687V23.125C6.94209 23.7381 7.18595 24.3259 7.61948 24.7594C8.05301 25.1929 8.6408 25.4368 9.2539 25.4375H9.25549C8.93287 25.8668 8.73623 26.3776 8.68764 26.9124C8.63904 27.4473 8.7404 27.9851 8.98036 28.4655C9.22031 28.946 9.58937 29.3501 10.0461 29.6325C10.5029 29.915 11.0294 30.0646 11.5664 30.0646C12.1034 30.0646 12.6299 29.915 13.0867 29.6325C13.5434 29.3501 13.9125 28.946 14.1524 28.4655C14.3924 27.9851 14.4938 27.4473 14.4452 26.9124C14.3966 26.3776 14.1999 25.8668 13.8773 25.4375H25.443C25.1204 25.8668 24.9237 26.3776 24.8751 26.9124C24.8265 27.4473 24.9279 27.9851 25.1678 28.4655C25.4078 28.946 25.7769 29.3501 26.2336 29.6325C26.6904 29.915 27.2168 30.0646 27.7539 30.0646C28.2909 30.0646 28.8174 29.915 29.2741 29.6325C29.7309 29.3501 30.1 28.946 30.3399 28.4655C30.5799 27.9851 30.6813 27.4473 30.6327 26.9124C30.5841 26.3776 30.3874 25.8668 30.0648 25.4375H32.3789C32.5322 25.4375 32.6793 25.3766 32.7877 25.2682C32.8961 25.1597 32.957 25.0127 32.957 24.8594C32.957 24.706 32.8961 24.559 32.7877 24.4506C32.6793 24.3421 32.5322 24.2812 32.3789 24.2812H9.2539C8.94736 24.2809 8.65347 24.1589 8.43671 23.9422C8.21995 23.7254 8.09802 23.4315 8.09765 23.125V21.9687C8.09802 21.6622 8.21995 21.3683 8.43671 21.1516C8.65347 20.9348 8.94736 20.8129 9.2539 20.8125ZM9.71178 19.6562L9.16769 17.3437H12.3568L12.6459 19.6562H9.71178ZM22.2371 13.875L22.1407 16.1875H18.3358L18.2394 13.875H22.2371ZM18.1913 12.7187L18.0949 10.4062H22.3817L22.2853 12.7187H18.1913ZM17.1785 16.1875H13.3774L13.0883 13.875H17.082L17.1785 16.1875ZM17.2267 17.3437L17.3231 19.6562H13.811L13.5219 17.3437H17.2267ZM18.3839 17.3437H22.0926L21.9962 19.6562H18.4803L18.3839 17.3437ZM23.2499 17.3437H26.9545L26.6654 19.6562H23.1533L23.2499 17.3437ZM23.298 16.1875L23.3944 13.875H27.3881L27.099 16.1875H23.298ZM28.5533 13.875H31.957L31.4756 16.1875H28.2642L28.5533 13.875ZM28.6978 12.7187L28.9869 10.4062H32.6797L32.1982 12.7187H28.6978ZM27.5326 12.7187H23.4424L23.5388 10.4062H27.8215L27.5326 12.7187ZM23.5869 9.25L23.6833 6.9375H28.2551L27.9661 9.25H23.5869ZM22.4297 9.25H18.0467L17.9503 6.9375H22.5262L22.4297 9.25ZM16.8893 9.25H12.51L12.221 6.9375H16.7928L16.8893 9.25ZM16.9375 10.4062L17.0339 12.7187H12.9436L12.6546 10.4062H16.9375ZM11.7786 12.7187H8.0793L7.53521 10.4062H11.4895L11.7786 12.7187ZM11.9231 13.875L12.2122 16.1875H8.89517L8.35109 13.875H11.9231ZM30.7529 19.6562H27.8306L28.1197 17.3437H31.2343L30.7529 19.6562ZM32.9209 9.25H29.1314L29.4205 6.9375H33.4023L32.9209 9.25ZM11.0561 6.9375L11.3451 9.25H7.26327L6.71919 6.9375H11.0561ZM13.3008 27.1719C13.3008 27.5149 13.1991 27.8502 13.0085 28.1354C12.8179 28.4206 12.547 28.6429 12.2301 28.7742C11.9132 28.9055 11.5645 28.9398 11.228 28.8729C10.8916 28.806 10.5826 28.6408 10.34 28.3983C10.0975 28.1557 9.93227 27.8467 9.86535 27.5102C9.79843 27.1738 9.83278 26.8251 9.96405 26.5081C10.0953 26.1912 10.3176 25.9204 10.6028 25.7298C10.8881 25.5392 11.2234 25.4375 11.5664 25.4375C12.0262 25.438 12.4671 25.6209 12.7922 25.9461C13.1173 26.2712 13.3002 26.712 13.3008 27.1719ZM29.4883 27.1719C29.4883 27.5149 29.3865 27.8502 29.196 28.1354C29.0054 28.4206 28.7345 28.6429 28.4176 28.7742C28.1007 28.9055 27.752 28.9398 27.4155 28.8729C27.0791 28.806 26.7701 28.6408 26.5275 28.3983C26.2849 28.1557 26.1198 27.8467 26.0528 27.5102C25.9859 27.1738 26.0203 26.8251 26.1515 26.5081C26.2828 26.1912 26.5051 25.9204 26.7903 25.7298C27.0755 25.5392 27.4109 25.4375 27.7539 25.4375C28.2137 25.438 28.6545 25.6209 28.9797 25.9461C29.3048 26.2712 29.4877 26.712 29.4883 27.1719Z" fill="#467637"/>
</svg>
