<svg width="30" height="37" viewBox="0 0 30 37" fill="none" xmlns="http://www.w3.org/2000/svg">
<path d="M25.3229 24.1728L23.1514 23.5352L18.427 20.4494V19.7423C19.7948 18.7106 20.7342 17.1335 20.9087 15.3258C21.5948 15.2154 22.1204 14.6193 22.1204 13.9027V11.9584C22.1204 11.9509 22.1196 11.9435 22.1192 11.936V9.47302C22.3925 9.27733 22.5659 8.95857 22.5659 8.601V6.34703L25.8263 5.79167C26.3622 5.7004 26.7475 5.27483 26.7854 4.73262C26.8231 4.19041 26.5006 3.71548 25.9827 3.55079L14.9913 0.0547231C14.7619 -0.0182651 14.5197 -0.0181929 14.2904 0.0546508L3.29892 3.55079C2.781 3.71548 2.4584 4.19041 2.4962 4.73255C2.52019 5.07704 2.68481 5.37405 2.9389 5.56859V8.51608H2.91201C2.29306 8.51608 1.78951 9.01963 1.78951 9.63859V11.1017L1.06491 15.3546C0.939669 16.0902 1.50623 16.7635 2.25418 16.7635H4.70752C5.45381 16.7635 6.02232 16.0918 5.8968 15.3546L5.17219 11.1017V9.63859C5.17219 9.01963 4.66865 8.51608 4.04969 8.51608H4.02288V5.88829L6.71795 6.34732V8.601C6.71795 8.95705 6.8906 9.27531 7.1626 9.47129L7.16362 13.9027C7.16362 14.6193 7.6892 15.2154 8.37522 15.3258C8.54974 17.1325 9.48804 18.7089 10.8546 19.7407V20.451L6.13116 23.5363L3.96138 24.1731C1.63956 24.8546 0.000144452 26.9862 0.000144452 29.4641V31.0794C0.000144452 31.3787 0.24274 31.6213 0.542136 31.6213C0.841533 31.6213 1.08413 31.3787 1.08413 31.0794V29.4641C1.08413 27.5112 2.39279 25.7631 4.26671 25.2132L6.28841 24.6197L14.3652 29.4191C14.5292 29.5165 14.7462 29.5217 14.9189 29.4191L22.9963 24.6195L25.0178 25.2129C26.8914 25.763 28.2001 27.5109 28.2001 29.4637V34.6985C28.2001 35.3699 27.6538 35.9162 26.9824 35.9162H24.5935V33.58C24.5935 33.2806 24.3509 33.038 24.0515 33.038C23.7522 33.038 23.5095 33.2806 23.5095 33.58V35.9162H5.77207V33.58C5.77207 33.2806 5.52947 33.038 5.23008 33.038C4.93068 33.038 4.68809 33.2806 4.68809 33.58V35.9162H2.30166C1.63024 35.9162 1.08398 35.3699 1.08398 34.6985V33.6129C1.08398 33.3136 0.841388 33.0709 0.541992 33.0709C0.242596 33.0709 0 33.3135 0 33.6129V34.6984C0 35.9675 1.03246 37 2.30159 37H26.9822C28.2514 37 29.2838 35.9675 29.2838 34.6984V29.4636C29.2838 27.0442 27.7003 24.8708 25.3229 24.1728ZM4.70745 15.6796H2.25418C2.17837 15.6796 2.12056 15.6118 2.13342 15.5366L2.78887 11.6895H4.17276L4.82821 15.5365C4.841 15.6116 4.78362 15.6796 4.70745 15.6796ZM4.08821 9.63859V10.6056H2.87335V9.63859C2.87335 9.61727 2.89062 9.6 2.91194 9.6H4.04955C4.07094 9.59992 4.08821 9.61727 4.08821 9.63859ZM12.7036 26.9674L12.9193 27.299L7.38598 24.0111L10.8982 21.7171C11.0574 23.5858 11.6734 25.3842 12.7036 26.9674ZM12.6998 24.6278C13.9755 24.8091 15.3077 24.8092 16.5841 24.6278C16.3374 25.2347 16.0335 25.8204 15.6718 26.3764L14.6419 27.9593L13.6121 26.3764C13.2504 25.8204 12.9465 25.2347 12.6998 24.6278ZM16.5803 26.9674C17.6105 25.3842 18.2265 23.5858 18.3857 21.7171L21.8978 24.0111L16.3646 27.299L16.5803 26.9674ZM19.7507 9.67486H21.0353V11.4163H20.3977C20.0409 11.4163 19.7506 11.1261 19.7506 10.7693L19.7507 9.67486ZM3.62744 4.58375L14.6191 1.08754C14.6332 1.08306 14.6484 1.08299 14.6627 1.08762L25.6543 4.58375C25.677 4.59098 25.7081 4.60081 25.7041 4.65725C25.7002 4.71361 25.668 4.71903 25.6445 4.72308L22.0104 5.34203L20.646 5.17329C20.3491 5.13651 20.0784 5.34767 20.0416 5.64468C20.0049 5.94177 20.216 6.21233 20.513 6.24904L21.4821 6.36893V8.59095L7.80187 8.59045V6.36886L13.4102 5.67489C14.2271 5.57394 15.0552 5.57394 15.8715 5.67489L17.9942 5.93743C18.2912 5.97421 18.5619 5.76313 18.5986 5.46611C18.6354 5.16903 18.4243 4.89847 18.1273 4.86169L16.0047 4.59914C15.1001 4.48721 14.1823 4.48721 13.2771 4.59914L7.2723 5.34218L3.63713 4.72308C3.61357 4.71903 3.58141 4.71361 3.57744 4.65725C3.57353 4.60081 3.60468 4.59091 3.62744 4.58375ZM8.24724 11.4163L8.24652 9.67486H9.5332V10.7694C9.5332 11.1261 9.24299 11.4164 8.88614 11.4164L8.24724 11.4163ZM9.44013 15.0472C9.41223 14.6059 9.04541 14.2602 8.6051 14.2602C8.40788 14.2602 8.24746 14.0998 8.24746 13.9026V12.5003H8.88614C9.84055 12.5003 10.6171 11.7238 10.6171 10.7694V9.67486H18.6667V10.7694C18.6667 11.7238 19.4433 12.5003 20.3977 12.5003H21.0364V13.9026C21.0364 14.0998 20.8759 14.2602 20.6787 14.2602C20.2384 14.2602 19.8716 14.6059 19.8437 15.0473C19.6711 17.7839 17.3862 19.9277 14.6419 19.9277C11.8976 19.9277 9.61277 17.7839 9.44013 15.0472ZM14.6419 21.0116C15.6059 21.0116 16.5221 20.7912 17.3431 20.3993V20.7428C17.3431 21.6694 17.2181 22.5835 16.9774 23.4652C15.5044 23.746 13.8392 23.7573 12.3065 23.4652C12.0658 22.5836 11.9408 21.6695 11.9408 20.7428C11.9408 20.7313 11.9392 20.7201 11.9385 20.7087C11.9383 20.7065 11.9386 20.7043 11.9384 20.702V20.3982C12.76 20.7908 13.6771 21.0116 14.6419 21.0116Z" fill="#467637"/>
</svg>
