<svg width="38" height="37" viewBox="0 0 38 37" fill="none" xmlns="http://www.w3.org/2000/svg">
<path d="M3.2768 24.8022C2.97329 24.8022 2.72729 25.0483 2.72729 25.3518V26.7804C2.72729 27.0838 2.97329 27.3299 3.2768 27.3299C3.58032 27.3299 3.82631 27.0838 3.82631 26.7804V25.3518C3.82631 25.0483 3.58025 24.8022 3.2768 24.8022Z" fill="#467637"/>
<path d="M2.72729 29.1433C2.72729 28.8398 2.97329 28.5938 3.2768 28.5938C3.58025 28.5938 3.82631 28.8397 3.82631 29.1433V30.5719C3.82631 30.8753 3.58032 31.1214 3.2768 31.1214C2.97329 31.1214 2.72729 30.8753 2.72729 30.5719V29.1433Z" fill="#467637"/>
<path d="M3.2768 32.3853C2.97329 32.3853 2.72729 32.6313 2.72729 32.9348V34.3634C2.72729 34.6668 2.97329 34.9129 3.2768 34.9129C3.58032 34.9129 3.82631 34.6668 3.82631 34.3634V32.9348C3.82631 32.6312 3.58025 32.3853 3.2768 32.3853Z" fill="#467637"/>
<path d="M22.1845 11.9058C21.881 11.9058 21.635 12.1518 21.635 12.4553V14.1037C21.635 14.4072 21.8811 14.6532 22.1845 14.6532C22.488 14.6532 22.734 14.4072 22.734 14.1037V12.4553C22.734 12.1518 22.488 11.9058 22.1845 11.9058Z" fill="#467637"/>
<path d="M18.3931 12.4553C18.3931 12.1518 18.6391 11.9058 18.9426 11.9058C19.2461 11.9058 19.4921 12.1518 19.4921 12.4553V14.1037C19.4921 14.4072 19.2461 14.6532 18.9426 14.6532C18.6391 14.6532 18.3931 14.4072 18.3931 14.1037V12.4553Z" fill="#467637"/>
<path d="M22.1845 7.12109C21.881 7.12109 21.635 7.36716 21.635 7.6706V9.31905C21.635 9.6225 21.8811 9.86856 22.1845 9.86856C22.488 9.86856 22.734 9.6225 22.734 9.31905V7.6706C22.734 7.36716 22.488 7.12109 22.1845 7.12109Z" fill="#467637"/>
<path d="M18.3931 7.6706C18.3931 7.36716 18.6391 7.12109 18.9426 7.12109C19.2461 7.12109 19.4921 7.36716 19.4921 7.6706V9.31905C19.4921 9.6225 19.2461 9.86856 18.9426 9.86856C18.6391 9.86856 18.3931 9.6225 18.3931 9.31905V7.6706Z" fill="#467637"/>
<path d="M15.7006 2.33691C15.3971 2.33691 15.1511 2.58298 15.1511 2.88642V4.53487C15.1511 4.83832 15.3972 5.08438 15.7006 5.08438C16.0041 5.08438 16.2501 4.83832 16.2501 4.53487V2.88642C16.2501 2.58298 16.0042 2.33691 15.7006 2.33691Z" fill="#467637"/>
<path d="M21.635 2.88642C21.635 2.58298 21.881 2.33691 22.1845 2.33691C22.488 2.33691 22.734 2.58298 22.734 2.88642V4.53487C22.734 4.83832 22.488 5.08438 22.1845 5.08438C21.8811 5.08438 21.635 4.83832 21.635 4.53487V2.88642Z" fill="#467637"/>
<path d="M18.9426 2.33691C18.6391 2.33691 18.3931 2.58298 18.3931 2.88642V4.53487C18.3931 4.83832 18.6391 5.08438 18.9426 5.08438C19.2461 5.08438 19.4921 4.83832 19.4921 4.53487V2.88642C19.4921 2.58298 19.2461 2.33691 18.9426 2.33691Z" fill="#467637"/>
<path d="M21.6771 17.473C21.5748 17.23 21.6684 16.9389 21.8908 16.799C22.3164 16.5312 22.8661 16.9546 22.7058 17.4352C22.6329 17.6538 22.4279 17.8062 22.1975 17.8118C21.9714 17.8174 21.7649 17.6802 21.6771 17.473Z" fill="#467637"/>
<path d="M18.9426 16.7134C18.6391 16.7134 18.3931 16.9594 18.3931 17.2629V18.9113C18.3931 19.2149 18.6391 19.4608 18.9426 19.4608C19.2461 19.4608 19.4921 19.2148 19.4921 18.9113V17.2629C19.4921 16.9594 19.2461 16.7134 18.9426 16.7134Z" fill="#467637"/>
<path d="M18.3931 31.6867C18.3931 31.3833 18.6391 31.1372 18.9426 31.1372C19.2461 31.1372 19.4921 31.3832 19.4921 31.6867V33.3352C19.4921 33.6386 19.2461 33.8847 18.9426 33.8847C18.6391 33.8847 18.3931 33.6386 18.3931 33.3352V31.6867Z" fill="#467637"/>
<path d="M18.9426 26.3291C18.6391 26.3291 18.3931 26.5752 18.3931 26.8786V28.5271C18.3931 28.8305 18.6391 29.0766 18.9426 29.0766C19.2461 29.0766 19.4921 28.8305 19.4921 28.5271V26.8786C19.4921 26.5752 19.2461 26.3291 18.9426 26.3291Z" fill="#467637"/>
<path d="M18.3931 22.071C18.3931 21.7675 18.6391 21.5215 18.9426 21.5215C19.2461 21.5215 19.4921 21.7675 19.4921 22.071V23.7194C19.4921 24.0229 19.2461 24.269 18.9426 24.269C18.6391 24.269 18.3931 24.0229 18.3931 23.7194V22.071Z" fill="#467637"/>
<path d="M34.25 30.8073C34.25 30.5039 34.496 30.2578 34.7995 30.2578C35.103 30.2578 35.349 30.5039 35.349 30.8073V32.3625C35.349 32.6659 35.103 32.912 34.7995 32.912C34.496 32.912 34.25 32.6659 34.25 32.3625V30.8073Z" fill="#467637"/>
<path fill-rule="evenodd" clip-rule="evenodd" d="M36.8843 27.8403H33.2637V23.3503C33.2637 23.0469 33.0176 22.8008 32.7142 22.8008C32.4107 22.8008 32.1646 23.0469 32.1646 23.3503V35.786H22.7339V19.4609H32.1646V20.7857C32.1646 21.0892 32.4107 21.3353 32.7142 21.3353C33.0176 21.3353 33.2637 21.0892 33.2637 20.7857V18.9115C33.2637 18.608 33.0176 18.362 32.7142 18.362H25.2062V0.549507C25.2062 0.246064 24.9601 0 24.6567 0H13.2277C12.9243 0 12.6782 0.246064 12.6782 0.549507V8.76986H5.57011C5.26667 8.76986 5.02061 9.01593 5.02061 9.31937V22.8297H0.983346C0.679902 22.8297 0.433838 23.0758 0.433838 23.3792V36.3354C0.433838 36.6389 0.679902 36.8849 0.983346 36.8849H16.9992L17.0006 36.8849H32.7128L32.7142 36.8849H36.8843C37.1878 36.8849 37.4338 36.6389 37.4338 36.3354V28.3898C37.4338 28.0864 37.1878 27.8403 36.8843 27.8403ZM5.02061 35.7859H1.53285V23.9287H5.02061V35.7859ZM16.4497 35.7859L6.11962 35.786V32.7473H16.4497V35.7859ZM16.4497 27.9484H11.4973C11.1938 27.9484 10.9478 28.1945 10.9478 28.4979C10.9478 28.8014 11.1938 29.0474 11.4973 29.0474H16.4497V31.6483H6.11962V29.0474H8.93285C9.23629 29.0474 9.48236 28.8014 9.48236 28.4979C9.48236 28.1945 9.23629 27.9484 8.93285 27.9484H6.11962V25.3476H16.4497V27.9484ZM16.4497 24.2487H6.11962V21.6478H16.4497V24.2487ZM16.4497 20.5489H6.11962V17.9481H16.4497V20.5489ZM16.4497 16.8491H6.11962V14.2482H16.4497V16.8491ZM16.4497 13.1492H6.11962V9.8688H16.4497V13.1492ZM21.6349 18.9115V35.7861H17.5487V9.3193C17.5487 9.01585 17.3027 8.76979 16.9992 8.76979H16.25V7.67085C16.25 7.3674 16.004 7.12134 15.7005 7.12134C15.397 7.12134 15.151 7.3674 15.151 7.67085V8.76979H13.7772V1.09901H24.1071V18.362H22.1843C21.8809 18.362 21.6349 18.608 21.6349 18.9115ZM36.3348 35.7859H33.2637V28.9393H36.3348V35.7859Z" fill="#467637"/>
<path d="M30.4888 30.9702H24.4096C24.1061 30.9702 23.8601 31.2163 23.8601 31.5197C23.8601 31.8232 24.1061 32.0692 24.4096 32.0692H30.4888C30.7923 32.0692 31.0383 31.8232 31.0383 31.5197C31.0383 31.2163 30.7924 30.9702 30.4888 30.9702Z" fill="#467637"/>
<path d="M24.4096 33.5674H30.4888C30.7924 33.5674 31.0383 33.8134 31.0383 34.1169C31.0383 34.4203 30.7923 34.6664 30.4888 34.6664H24.4096C24.1061 34.6664 23.8601 34.4203 23.8601 34.1169C23.8601 33.8134 24.1061 33.5674 24.4096 33.5674Z" fill="#467637"/>
<path d="M30.4888 28.3726H24.4096C24.1061 28.3726 23.8601 28.6186 23.8601 28.9221C23.8601 29.2255 24.1061 29.4716 24.4096 29.4716H30.4888C30.7923 29.4716 31.0383 29.2255 31.0383 28.9221C31.0383 28.6186 30.7924 28.3726 30.4888 28.3726Z" fill="#467637"/>
<path d="M24.4096 20.5801H30.4888C30.7924 20.5801 31.0383 20.8261 31.0383 21.1296C31.0383 21.433 30.7923 21.6791 30.4888 21.6791H24.4096C24.1061 21.6791 23.8601 21.433 23.8601 21.1296C23.8601 20.8261 24.1061 20.5801 24.4096 20.5801Z" fill="#467637"/>
<path d="M30.4888 25.7754H24.4096C24.1061 25.7754 23.8601 26.0215 23.8601 26.3249C23.8601 26.6283 24.1061 26.8744 24.4096 26.8744H30.4888C30.7923 26.8744 31.0383 26.6283 31.0383 26.3249C31.0383 26.0215 30.7924 25.7754 30.4888 25.7754Z" fill="#467637"/>
<path d="M24.4096 23.1777H30.4888C30.7924 23.1777 31.0383 23.4238 31.0383 23.7272C31.0383 24.0307 30.7923 24.2767 30.4888 24.2767H24.4096C24.1061 24.2767 23.8601 24.0307 23.8601 23.7272C23.8601 23.4238 24.1061 23.1777 24.4096 23.1777Z" fill="#467637"/>
<path d="M33.1884 10.5869H26.4848C26.1813 10.5869 25.9353 10.833 25.9353 11.1364C25.9353 11.4399 26.1813 11.6859 26.4848 11.6859H33.1884C33.4919 11.6859 33.7379 11.4399 33.7379 11.1364C33.7379 10.833 33.4919 10.5869 33.1884 10.5869Z" fill="#467637"/>
<path d="M30.4409 12.8945H35.2763C35.5798 12.8945 35.8258 13.1406 35.8258 13.444C35.8258 13.7475 35.5798 13.9935 35.2763 13.9935H30.4409C30.1374 13.9935 29.8914 13.7475 29.8914 13.444C29.8914 13.1406 30.1374 12.8945 30.4409 12.8945Z" fill="#467637"/>
<path d="M10.3298 4.10303H5.49433C5.19082 4.10303 4.94482 4.34909 4.94482 4.65253C4.94482 4.95598 5.19089 5.20204 5.49433 5.20204H10.3298C10.6333 5.20204 10.8793 4.95598 10.8793 4.65253C10.8793 4.34909 10.6334 4.10303 10.3298 4.10303Z" fill="#467637"/>
<path d="M2.74702 5.93457H7.58238C7.88597 5.93457 8.13196 6.18063 8.13196 6.48408C8.13196 6.78752 7.88597 7.03359 7.58245 7.03359H2.74702C2.44357 7.03359 2.19751 6.78752 2.19751 6.48408C2.19751 6.18063 2.4435 5.93457 2.74702 5.93457Z" fill="#467637"/>
</svg>
