<svg width="155" height="112" viewBox="0 0 155 112" fill="none" xmlns="http://www.w3.org/2000/svg">
<path fill-rule="evenodd" clip-rule="evenodd" d="M154.004 0H0.00390625V98H64.4643L77.0038 112L89.5433 98H154.004V0Z" fill="#467637"/>
<path fill-rule="evenodd" clip-rule="evenodd" d="M154.004 0H0.00390625V98H64.4643L77.0038 112L89.5433 98H154.004V0Z" fill="url(#paint0_linear)"/>
<path d="M38.5521 40.5V26.2H34.5481L34.1581 29.632C33.8808 32.0067 33.5341 33.9567 33.1181 35.482C32.7021 36.99 32.1648 38.1427 31.5061 38.94C30.8648 39.72 30.1541 40.2227 29.3741 40.448C28.5941 40.6733 27.6408 40.6907 26.5141 40.5L26.5921 36.34C26.9388 36.4093 27.2421 36.4093 27.5021 36.34C27.7621 36.2707 28.0481 36.054 28.3601 35.69C28.6721 35.3087 28.9408 34.7627 29.1661 34.052C29.4088 33.324 29.6341 32.2753 29.8421 30.906C30.0675 29.5367 30.2495 27.8813 30.3881 25.94L30.6481 22.3H42.7121V40.5H38.5521ZM51.0425 40.5H47.4025V22.3H51.5625V33.61L59.6225 22.3H63.2625V40.5H59.1025V29.19L51.0425 40.5ZM65.8635 26.2V22.3H80.9435V26.2H75.4835V40.5H71.3235V26.2H65.8635ZM83.5334 40.5V22.3H94.3234V26.2H87.6934V29.398H93.5434V33.298H87.6934V36.6H94.5834V40.5H83.5334ZM102.648 40.5H98.4884V22.3C98.8004 22.3 99.6758 22.2913 101.114 22.274C102.57 22.2567 103.55 22.248 104.052 22.248C106.635 22.248 108.507 22.82 109.668 23.964C110.83 25.0907 111.41 26.5293 111.41 28.28C111.41 29.9787 110.795 31.426 109.564 32.622C108.334 33.8007 106.704 34.39 104.676 34.39C103.758 34.39 103.082 34.364 102.648 34.312V40.5ZM104.468 26.148C104.399 26.148 103.792 26.1653 102.648 26.2V30.36C103.307 30.4467 103.94 30.49 104.546 30.49C105.205 30.49 105.777 30.3167 106.262 29.97C106.748 29.6233 106.99 29.0513 106.99 28.254C106.99 26.85 106.15 26.148 104.468 26.148ZM117.914 25.888L122.854 22.3H125.662V40.5H121.762V27.838L119.942 29.112L117.914 25.888ZM55.2113 70.068L56.0953 71.732C55.4887 72.356 54.6653 72.85 53.6253 73.214C52.5853 73.578 51.4933 73.76 50.3493 73.76C47.6107 73.76 45.3833 72.9107 43.6673 71.212C41.9687 69.496 41.1193 67.2253 41.1193 64.4C41.1193 61.7133 41.934 59.486 43.5633 57.718C45.21 55.9327 47.42 55.04 50.1933 55.04C52.516 55.04 54.362 55.6293 55.7313 56.808L54.7173 58.472C53.504 57.5707 52.0047 57.12 50.2193 57.12C48.2433 57.12 46.6227 57.796 45.3573 59.148C44.092 60.5 43.4593 62.2507 43.4593 64.4C43.4593 66.5667 44.1093 68.326 45.4093 69.678C46.7267 71.0127 48.4427 71.68 50.5573 71.68C52.3427 71.68 53.894 71.1427 55.2113 70.068ZM56.891 76.88V71.42H58.841C59.3956 70.7267 59.985 69.314 60.609 67.182C61.2503 65.0327 61.6576 62.2853 61.831 58.94L62.013 55.3H72.725V71.42H75.195V76.88H73.115V73.5H58.971V76.88H56.891ZM63.911 60.63C63.7203 63.4033 63.3476 65.7607 62.793 67.702C62.2383 69.626 61.7356 70.8653 61.285 71.42H70.515V57.38H64.145L63.911 60.63ZM76.3656 73.5L84.1916 55.196H86.0896L93.9156 73.5H91.5496L89.2096 67.988H80.9156L78.6016 73.5H76.3656ZM85.0756 58.134L81.7996 65.908H88.3516L85.0756 58.134ZM109.258 73.5V65.258H99.2476V73.5H97.0376V55.3H99.2476V63.178H109.258V55.3H111.468V73.5H109.258Z" fill="#F7F7EC"/>
<defs>
<linearGradient id="paint0_linear" x1="77.0039" y1="0" x2="77.0039" y2="112" gradientUnits="userSpaceOnUse">
<stop stop-color="#467637"/>
<stop offset="1" stop-color="#284A2E"/>
</linearGradient>
</defs>
</svg>
