<svg width="155" height="112" viewBox="0 0 155 112" fill="none" xmlns="http://www.w3.org/2000/svg">
<path fill-rule="evenodd" clip-rule="evenodd" d="M154.004 0H0.00390625V98H64.4643L77.0038 112L89.5433 98H154.004V0Z" fill="#467637"/>
<path fill-rule="evenodd" clip-rule="evenodd" d="M154.004 0H0.00390625V98H64.4643L77.0038 112L89.5433 98H154.004V0Z" fill="url(#paint0_linear)"/>
<path d="M36.4398 40.5V26.2H32.4358L32.0458 29.632C31.7685 32.0067 31.4218 33.9567 31.0058 35.482C30.5898 36.99 30.0525 38.1427 29.3938 38.94C28.7525 39.72 28.0418 40.2227 27.2618 40.448C26.4818 40.6733 25.5285 40.6907 24.4018 40.5L24.4798 36.34C24.8265 36.4093 25.1298 36.4093 25.3898 36.34C25.6498 36.2707 25.9358 36.054 26.2478 35.69C26.5598 35.3087 26.8285 34.7627 27.0538 34.052C27.2965 33.324 27.5218 32.2753 27.7298 30.906C27.9552 29.5367 28.1372 27.8813 28.2758 25.94L28.5358 22.3H40.5998V40.5H36.4398ZM48.9302 40.5H45.2902V22.3H49.4502V33.61L57.5102 22.3H61.1502V40.5H56.9902V29.19L48.9302 40.5ZM63.7512 26.2V22.3H78.8312V26.2H73.3712V40.5H69.2112V26.2H63.7512ZM81.4211 40.5V22.3H92.2111V26.2H85.5811V29.398H91.4311V33.298H85.5811V36.6H92.4711V40.5H81.4211ZM100.536 40.5H96.3761V22.3C96.6881 22.3 97.5635 22.2913 99.0021 22.274C100.458 22.2567 101.437 22.248 101.94 22.248C104.523 22.248 106.395 22.82 107.556 23.964C108.717 25.0907 109.298 26.5293 109.298 28.28C109.298 29.9787 108.683 31.426 107.452 32.622C106.221 33.8007 104.592 34.39 102.564 34.39C101.645 34.39 100.969 34.364 100.536 34.312V40.5ZM102.356 26.148C102.287 26.148 101.68 26.1653 100.536 26.2V30.36C101.195 30.4467 101.827 30.49 102.434 30.49C103.093 30.49 103.665 30.3167 104.15 29.97C104.635 29.6233 104.878 29.0513 104.878 28.254C104.878 26.85 104.037 26.148 102.356 26.148ZM116.322 40.5V37.38C116.478 37.2413 116.903 36.834 117.596 36.158C118.307 35.4647 118.783 34.988 119.026 34.728C119.269 34.468 119.685 34.0347 120.274 33.428C120.863 32.804 121.279 32.31 121.522 31.946C121.765 31.582 122.051 31.14 122.38 30.62C122.727 30.0827 122.961 29.5887 123.082 29.138C123.221 28.6873 123.29 28.2367 123.29 27.786C123.29 26.59 122.735 25.992 121.626 25.992C121.106 25.992 120.699 26.1653 120.404 26.512C120.109 26.8413 119.849 27.318 119.624 27.942L116.374 26.46C116.669 25.1253 117.301 24.068 118.272 23.288C119.26 22.4907 120.534 22.092 122.094 22.092C123.775 22.092 125.084 22.5687 126.02 23.522C126.973 24.4753 127.45 25.6367 127.45 27.006C127.45 30.4553 125.422 33.74 121.366 36.86H128.074V40.5H116.322ZM54.7113 70.068L55.5953 71.732C54.9887 72.356 54.1653 72.85 53.1253 73.214C52.0853 73.578 50.9933 73.76 49.8493 73.76C47.1107 73.76 44.8833 72.9107 43.1673 71.212C41.4687 69.496 40.6193 67.2253 40.6193 64.4C40.6193 61.7133 41.434 59.486 43.0633 57.718C44.71 55.9327 46.92 55.04 49.6933 55.04C52.016 55.04 53.862 55.6293 55.2313 56.808L54.2173 58.472C53.004 57.5707 51.5047 57.12 49.7193 57.12C47.7433 57.12 46.1227 57.796 44.8573 59.148C43.592 60.5 42.9593 62.2507 42.9593 64.4C42.9593 66.5667 43.6093 68.326 44.9093 69.678C46.2267 71.0127 47.9427 71.68 50.0573 71.68C51.8427 71.68 53.394 71.1427 54.7113 70.068ZM56.391 76.88V71.42H58.341C58.8956 70.7267 59.485 69.314 60.109 67.182C60.7503 65.0327 61.1576 62.2853 61.331 58.94L61.513 55.3H72.225V71.42H74.695V76.88H72.615V73.5H58.471V76.88H56.391ZM63.411 60.63C63.2203 63.4033 62.8476 65.7607 62.293 67.702C61.7383 69.626 61.2356 70.8653 60.785 71.42H70.015V57.38H63.645L63.411 60.63ZM75.8656 73.5L83.6916 55.196H85.5896L93.4156 73.5H91.0496L88.7096 67.988H80.4156L78.1016 73.5H75.8656ZM84.5756 58.134L81.2996 65.908H87.8516L84.5756 58.134ZM108.758 73.5V65.258H98.7476V73.5H96.5376V55.3H98.7476V63.178H108.758V55.3H110.968V73.5H108.758Z" fill="#F7F7EC"/>
<defs>
<linearGradient id="paint0_linear" x1="77.0039" y1="0" x2="77.0039" y2="112" gradientUnits="userSpaceOnUse">
<stop stop-color="#467637"/>
<stop offset="1" stop-color="#284A2E"/>
</linearGradient>
</defs>
</svg>
