<svg width="155" height="112" viewBox="0 0 155 112" fill="none" xmlns="http://www.w3.org/2000/svg">
<path fill-rule="evenodd" clip-rule="evenodd" d="M154.004 0H0.00390625V98H64.4643L77.0038 112L89.5433 98H154.004V0Z" fill="#467637"/>
<path fill-rule="evenodd" clip-rule="evenodd" d="M154.004 0H0.00390625V98H64.4643L77.0038 112L89.5433 98H154.004V0Z" fill="url(#paint0_linear)"/>
<path d="M36.351 40.5V26.2H32.347L31.957 29.632C31.6796 32.0067 31.333 33.9567 30.917 35.482C30.501 36.99 29.9636 38.1427 29.305 38.94C28.6636 39.72 27.953 40.2227 27.173 40.448C26.393 40.6733 25.4396 40.6907 24.313 40.5L24.391 36.34C24.7376 36.4093 25.041 36.4093 25.301 36.34C25.561 36.2707 25.847 36.054 26.159 35.69C26.471 35.3087 26.7396 34.7627 26.965 34.052C27.2076 33.324 27.433 32.2753 27.641 30.906C27.8663 29.5367 28.0483 27.8813 28.187 25.94L28.447 22.3H40.511V40.5H36.351ZM48.8413 40.5H45.2013V22.3H49.3613V33.61L57.4213 22.3H61.0613V40.5H56.9013V29.19L48.8413 40.5ZM63.6623 26.2V22.3H78.7423V26.2H73.2823V40.5H69.1223V26.2H63.6623ZM81.3322 40.5V22.3H92.1222V26.2H85.4922V29.398H91.3422V33.298H85.4922V36.6H92.3822V40.5H81.3322ZM100.447 40.5H96.2873V22.3C96.5993 22.3 97.4746 22.2913 98.9133 22.274C100.369 22.2567 101.349 22.248 101.851 22.248C104.434 22.248 106.306 22.82 107.467 23.964C108.629 25.0907 109.209 26.5293 109.209 28.28C109.209 29.9787 108.594 31.426 107.363 32.622C106.133 33.8007 104.503 34.39 102.475 34.39C101.557 34.39 100.881 34.364 100.447 34.312V40.5ZM102.267 26.148C102.198 26.148 101.591 26.1653 100.447 26.2V30.36C101.106 30.4467 101.739 30.49 102.345 30.49C103.004 30.49 103.576 30.3167 104.061 29.97C104.547 29.6233 104.789 29.0513 104.789 28.254C104.789 26.85 103.949 26.148 102.267 26.148ZM121.719 40.812C120.28 40.812 119.05 40.5347 118.027 39.98C117.004 39.408 116.233 38.68 115.713 37.796L117.871 34.91C119.032 36.2447 120.228 36.912 121.459 36.912C122.204 36.912 122.768 36.7473 123.149 36.418C123.548 36.0713 123.747 35.6467 123.747 35.144C123.747 33.8093 122.716 33.142 120.653 33.142H119.509V29.242H120.549C121.277 29.242 121.875 29.086 122.343 28.774C122.811 28.462 123.045 28.0113 123.045 27.422C123.045 26.9887 122.906 26.6247 122.629 26.33C122.369 26.0353 121.953 25.888 121.381 25.888C120.168 25.888 119.119 26.434 118.235 27.526L116.103 24.718C117.23 22.898 119.11 21.988 121.745 21.988C123.357 21.988 124.666 22.4127 125.671 23.262C126.694 24.094 127.205 25.2207 127.205 26.642C127.205 27.6993 126.98 28.5747 126.529 29.268C126.096 29.944 125.42 30.49 124.501 30.906V30.984C125.593 31.192 126.434 31.686 127.023 32.466C127.612 33.246 127.907 34.1907 127.907 35.3C127.907 36.9813 127.318 38.3247 126.139 39.33C124.978 40.318 123.504 40.812 121.719 40.812ZM54.7113 70.068L55.5953 71.732C54.9887 72.356 54.1653 72.85 53.1253 73.214C52.0853 73.578 50.9933 73.76 49.8493 73.76C47.1107 73.76 44.8833 72.9107 43.1673 71.212C41.4687 69.496 40.6193 67.2253 40.6193 64.4C40.6193 61.7133 41.434 59.486 43.0633 57.718C44.71 55.9327 46.92 55.04 49.6933 55.04C52.016 55.04 53.862 55.6293 55.2313 56.808L54.2173 58.472C53.004 57.5707 51.5047 57.12 49.7193 57.12C47.7433 57.12 46.1227 57.796 44.8573 59.148C43.592 60.5 42.9593 62.2507 42.9593 64.4C42.9593 66.5667 43.6093 68.326 44.9093 69.678C46.2267 71.0127 47.9427 71.68 50.0573 71.68C51.8427 71.68 53.394 71.1427 54.7113 70.068ZM56.391 76.88V71.42H58.341C58.8956 70.7267 59.485 69.314 60.109 67.182C60.7503 65.0327 61.1576 62.2853 61.331 58.94L61.513 55.3H72.225V71.42H74.695V76.88H72.615V73.5H58.471V76.88H56.391ZM63.411 60.63C63.2203 63.4033 62.8476 65.7607 62.293 67.702C61.7383 69.626 61.2356 70.8653 60.785 71.42H70.015V57.38H63.645L63.411 60.63ZM75.8656 73.5L83.6916 55.196H85.5896L93.4156 73.5H91.0496L88.7096 67.988H80.4156L78.1016 73.5H75.8656ZM84.5756 58.134L81.2996 65.908H87.8516L84.5756 58.134ZM108.758 73.5V65.258H98.7476V73.5H96.5376V55.3H98.7476V63.178H108.758V55.3H110.968V73.5H108.758Z" fill="#F7F7EC"/>
<defs>
<linearGradient id="paint0_linear" x1="77.0039" y1="0" x2="77.0039" y2="112" gradientUnits="userSpaceOnUse">
<stop stop-color="#467637"/>
<stop offset="1" stop-color="#284A2E"/>
</linearGradient>
</defs>
</svg>
