<svg width="154" height="112" viewBox="0 0 154 112" fill="none" xmlns="http://www.w3.org/2000/svg">
<path fill-rule="evenodd" clip-rule="evenodd" d="M154 0H0V98H64.4604L76.9999 112L89.5394 98H154V0Z" fill="black" fill-opacity="0.6"/>
<path d="M36.1869 40.5V26.2H32.1829L31.7929 29.632C31.5156 32.0067 31.1689 33.9567 30.7529 35.482C30.3369 36.99 29.7996 38.1427 29.1409 38.94C28.4996 39.72 27.7889 40.2227 27.0089 40.448C26.2289 40.6733 25.2756 40.6907 24.1489 40.5L24.2269 36.34C24.5736 36.4093 24.8769 36.4093 25.1369 36.34C25.3969 36.2707 25.6829 36.054 25.9949 35.69C26.3069 35.3087 26.5756 34.7627 26.8009 34.052C27.0436 33.324 27.2689 32.2753 27.4769 30.906C27.7022 29.5367 27.8842 27.8813 28.0229 25.94L28.2829 22.3H40.3469V40.5H36.1869ZM48.6773 40.5H45.0373V22.3H49.1973V33.61L57.2573 22.3H60.8973V40.5H56.7373V29.19L48.6773 40.5ZM63.4983 26.2V22.3H78.5783V26.2H73.1183V40.5H68.9583V26.2H63.4983ZM81.1681 40.5V22.3H91.9581V26.2H85.3281V29.398H91.1781V33.298H85.3281V36.6H92.2181V40.5H81.1681ZM100.283 40.5H96.1232V22.3C96.4352 22.3 97.3105 22.2913 98.7492 22.274C100.205 22.2567 101.185 22.248 101.687 22.248C104.27 22.248 106.142 22.82 107.303 23.964C108.465 25.0907 109.045 26.5293 109.045 28.28C109.045 29.9787 108.43 31.426 107.199 32.622C105.969 33.8007 104.339 34.39 102.311 34.39C101.393 34.39 100.717 34.364 100.283 34.312V40.5ZM102.103 26.148C102.034 26.148 101.427 26.1653 100.283 26.2V30.36C100.942 30.4467 101.575 30.49 102.181 30.49C102.84 30.49 103.412 30.3167 103.897 29.97C104.383 29.6233 104.625 29.0513 104.625 28.254C104.625 26.85 103.785 26.148 102.103 26.148ZM123.817 40.5V36.6H115.549V33.688L122.049 22.3H126.521L120.567 32.7H123.817V28.8H127.717V32.7H129.849V36.6H127.717V40.5H123.817ZM42.3438 73.5V71.81C44.8052 69.3833 46.5385 67.546 47.5438 66.298C49.5025 63.854 50.4818 61.7913 50.4818 60.11C50.4818 59.2607 50.2218 58.5587 49.7018 58.004C49.1992 57.4493 48.4712 57.172 47.5178 57.172C46.7378 57.172 46.0445 57.4233 45.4378 57.926C44.8312 58.4287 44.4412 59.148 44.2678 60.084L42.4998 59.356C42.7078 58.0387 43.2972 56.9987 44.2678 56.236C45.2385 55.4733 46.3825 55.092 47.6998 55.092C49.2945 55.092 50.5252 55.5513 51.3918 56.47C52.2585 57.3713 52.6918 58.446 52.6918 59.694C52.6918 60.8727 52.3798 62.1207 51.7558 63.438C51.1492 64.738 50.3432 65.9773 49.3378 67.156C48.3325 68.3173 47.5265 69.2013 46.9198 69.808C46.3305 70.3973 45.7065 70.978 45.0478 71.55H53.4458V73.5H42.3438ZM57.7968 71.212C56.8088 69.5307 56.3148 67.26 56.3148 64.4C56.3148 61.54 56.8001 59.278 57.7708 57.614C58.7588 55.9327 60.2408 55.092 62.2168 55.092C64.1928 55.092 65.6661 55.9327 66.6368 57.614C67.6248 59.278 68.1188 61.54 68.1188 64.4C68.1188 67.2773 67.6334 69.548 66.6628 71.212C65.7094 72.876 64.2448 73.708 62.2688 73.708C60.2928 73.708 58.8021 72.876 57.7968 71.212ZM62.2168 57.042C59.7554 57.042 58.5248 59.4947 58.5248 64.4C58.5248 69.3053 59.7728 71.758 62.2688 71.758C63.5514 71.758 64.4788 71.1427 65.0508 69.912C65.6228 68.6813 65.9088 66.844 65.9088 64.4C65.9088 61.9733 65.6141 60.1447 65.0248 58.914C64.4354 57.666 63.4994 57.042 62.2168 57.042ZM70.7305 73.5V71.81C73.1919 69.3833 74.9252 67.546 75.9305 66.298C77.8892 63.854 78.8685 61.7913 78.8685 60.11C78.8685 59.2607 78.6085 58.5587 78.0885 58.004C77.5859 57.4493 76.8579 57.172 75.9045 57.172C75.1245 57.172 74.4312 57.4233 73.8245 57.926C73.2179 58.4287 72.8279 59.148 72.6545 60.084L70.8865 59.356C71.0945 58.0387 71.6839 56.9987 72.6545 56.236C73.6252 55.4733 74.7692 55.092 76.0865 55.092C77.6812 55.092 78.9119 55.5513 79.7785 56.47C80.6452 57.3713 81.0785 58.446 81.0785 59.694C81.0785 60.8727 80.7665 62.1207 80.1425 63.438C79.5359 64.738 78.7299 65.9773 77.7245 67.156C76.7192 68.3173 75.9132 69.2013 75.3065 69.808C74.7172 70.3973 74.0932 70.978 73.4345 71.55H81.8325V73.5H70.7305ZM84.1815 58.576L88.5495 55.196H90.0055V73.5H87.9255V58.186L85.2735 60.266L84.1815 58.576ZM100.835 73.5V61.8H108.245V63.75H102.915V73.5H100.835ZM108.667 72.096C108.667 71.732 108.806 71.4113 109.083 71.134C109.361 70.8567 109.716 70.718 110.149 70.718C110.531 70.718 110.851 70.8653 111.111 71.16C111.389 71.4373 111.527 71.7493 111.527 72.096C111.527 72.4947 111.397 72.8413 111.137 73.136C110.877 73.4307 110.548 73.578 110.149 73.578C109.716 73.578 109.361 73.4307 109.083 73.136C108.806 72.8413 108.667 72.4947 108.667 72.096Z" fill="#F7F7EC"/>
</svg>
