<svg width="154" height="112" viewBox="0 0 154 112" fill="none" xmlns="http://www.w3.org/2000/svg">
<path fill-rule="evenodd" clip-rule="evenodd" d="M154 0H0V98H64.4604L76.9999 112L89.5394 98H154V0Z" fill="black" fill-opacity="0.6"/>
<path d="M37.0756 40.5V26.2H33.0716L32.6816 29.632C32.4042 32.0067 32.0576 33.9567 31.6416 35.482C31.2256 36.99 30.6882 38.1427 30.0296 38.94C29.3882 39.72 28.6776 40.2227 27.8976 40.448C27.1176 40.6733 26.1642 40.6907 25.0376 40.5L25.1156 36.34C25.4622 36.4093 25.7656 36.4093 26.0256 36.34C26.2856 36.2707 26.5716 36.054 26.8836 35.69C27.1956 35.3087 27.4642 34.7627 27.6896 34.052C27.9322 33.324 28.1576 32.2753 28.3656 30.906C28.5909 29.5367 28.7729 27.8813 28.9116 25.94L29.1716 22.3H41.2356V40.5H37.0756ZM49.5659 40.5H45.9259V22.3H50.0859V33.61L58.1459 22.3H61.7859V40.5H57.6259V29.19L49.5659 40.5ZM64.387 26.2V22.3H79.467V26.2H74.007V40.5H69.847V26.2H64.387ZM82.0568 40.5V22.3H92.8468V26.2H86.2168V29.398H92.0668V33.298H86.2168V36.6H93.1068V40.5H82.0568ZM101.172 40.5H97.0119V22.3C97.3239 22.3 98.1992 22.2913 99.6379 22.274C101.094 22.2567 102.073 22.248 102.576 22.248C105.159 22.248 107.031 22.82 108.192 23.964C109.353 25.0907 109.934 26.5293 109.934 28.28C109.934 29.9787 109.319 31.426 108.088 32.622C106.857 33.8007 105.228 34.39 103.2 34.39C102.281 34.39 101.605 34.364 101.172 34.312V40.5ZM102.992 26.148C102.923 26.148 102.316 26.1653 101.172 26.2V30.36C101.831 30.4467 102.463 30.49 103.07 30.49C103.729 30.49 104.301 30.3167 104.786 29.97C105.271 29.6233 105.514 29.0513 105.514 28.254C105.514 26.85 104.673 26.148 102.992 26.148ZM117.816 32.492L119.064 22.3H128.06V26.2H122.496L122.132 28.514H122.756C124.385 28.514 125.737 29.0513 126.812 30.126C127.904 31.2007 128.45 32.6393 128.45 34.442C128.45 36.418 127.826 37.978 126.578 39.122C125.33 40.2487 123.744 40.812 121.82 40.812C120.814 40.812 119.792 40.5953 118.752 40.162C117.729 39.7113 116.958 39.1133 116.438 38.368L118.622 35.378C118.986 35.8113 119.48 36.1753 120.104 36.47C120.728 36.7647 121.334 36.912 121.924 36.912C122.617 36.912 123.18 36.704 123.614 36.288C124.064 35.8547 124.29 35.3 124.29 34.624C124.29 33.8613 123.995 33.2373 123.406 32.752C122.816 32.2667 121.993 32.024 120.936 32.024C119.514 32.024 118.474 32.18 117.816 32.492ZM42.3438 73.5V71.81C44.8052 69.3833 46.5385 67.546 47.5438 66.298C49.5025 63.854 50.4818 61.7913 50.4818 60.11C50.4818 59.2607 50.2218 58.5587 49.7018 58.004C49.1992 57.4493 48.4712 57.172 47.5178 57.172C46.7378 57.172 46.0445 57.4233 45.4378 57.926C44.8312 58.4287 44.4412 59.148 44.2678 60.084L42.4998 59.356C42.7078 58.0387 43.2972 56.9987 44.2678 56.236C45.2385 55.4733 46.3825 55.092 47.6998 55.092C49.2945 55.092 50.5252 55.5513 51.3918 56.47C52.2585 57.3713 52.6918 58.446 52.6918 59.694C52.6918 60.8727 52.3798 62.1207 51.7558 63.438C51.1492 64.738 50.3432 65.9773 49.3378 67.156C48.3325 68.3173 47.5265 69.2013 46.9198 69.808C46.3305 70.3973 45.7065 70.978 45.0478 71.55H53.4458V73.5H42.3438ZM57.7968 71.212C56.8088 69.5307 56.3148 67.26 56.3148 64.4C56.3148 61.54 56.8001 59.278 57.7708 57.614C58.7588 55.9327 60.2408 55.092 62.2168 55.092C64.1928 55.092 65.6661 55.9327 66.6368 57.614C67.6248 59.278 68.1188 61.54 68.1188 64.4C68.1188 67.2773 67.6334 69.548 66.6628 71.212C65.7094 72.876 64.2448 73.708 62.2688 73.708C60.2928 73.708 58.8021 72.876 57.7968 71.212ZM62.2168 57.042C59.7554 57.042 58.5248 59.4947 58.5248 64.4C58.5248 69.3053 59.7728 71.758 62.2688 71.758C63.5514 71.758 64.4788 71.1427 65.0508 69.912C65.6228 68.6813 65.9088 66.844 65.9088 64.4C65.9088 61.9733 65.6141 60.1447 65.0248 58.914C64.4354 57.666 63.4994 57.042 62.2168 57.042ZM70.7305 73.5V71.81C73.1919 69.3833 74.9252 67.546 75.9305 66.298C77.8892 63.854 78.8685 61.7913 78.8685 60.11C78.8685 59.2607 78.6085 58.5587 78.0885 58.004C77.5859 57.4493 76.8579 57.172 75.9045 57.172C75.1245 57.172 74.4312 57.4233 73.8245 57.926C73.2179 58.4287 72.8279 59.148 72.6545 60.084L70.8865 59.356C71.0945 58.0387 71.6839 56.9987 72.6545 56.236C73.6252 55.4733 74.7692 55.092 76.0865 55.092C77.6812 55.092 78.9119 55.5513 79.7785 56.47C80.6452 57.3713 81.0785 58.446 81.0785 59.694C81.0785 60.8727 80.7665 62.1207 80.1425 63.438C79.5359 64.738 78.7299 65.9773 77.7245 67.156C76.7192 68.3173 75.9132 69.2013 75.3065 69.808C74.7172 70.3973 74.0932 70.978 73.4345 71.55H81.8325V73.5H70.7305ZM84.1815 58.576L88.5495 55.196H90.0055V73.5H87.9255V58.186L85.2735 60.266L84.1815 58.576ZM100.835 73.5V61.8H108.245V63.75H102.915V73.5H100.835ZM108.667 72.096C108.667 71.732 108.806 71.4113 109.083 71.134C109.361 70.8567 109.716 70.718 110.149 70.718C110.531 70.718 110.851 70.8653 111.111 71.16C111.389 71.4373 111.527 71.7493 111.527 72.096C111.527 72.4947 111.397 72.8413 111.137 73.136C110.877 73.4307 110.548 73.578 110.149 73.578C109.716 73.578 109.361 73.4307 109.083 73.136C108.806 72.8413 108.667 72.4947 108.667 72.096Z" fill="#F7F7EC"/>
</svg>
