<svg width="154" height="112" viewBox="0 0 154 112" fill="none" xmlns="http://www.w3.org/2000/svg">
<path fill-rule="evenodd" clip-rule="evenodd" d="M154 0H0V98H64.4604L76.9999 112L89.5394 98H154V0Z" fill="black" fill-opacity="0.6"/>
<path d="M37.101 40.5V26.2H33.097L32.707 29.632C32.4296 32.0067 32.083 33.9567 31.667 35.482C31.251 36.99 30.7136 38.1427 30.055 38.94C29.4136 39.72 28.703 40.2227 27.923 40.448C27.143 40.6733 26.1896 40.6907 25.063 40.5L25.141 36.34C25.4876 36.4093 25.791 36.4093 26.051 36.34C26.311 36.2707 26.597 36.054 26.909 35.69C27.221 35.3087 27.4896 34.7627 27.715 34.052C27.9576 33.324 28.183 32.2753 28.391 30.906C28.6163 29.5367 28.7983 27.8813 28.937 25.94L29.197 22.3H41.261V40.5H37.101ZM49.5913 40.5H45.9513V22.3H50.1113V33.61L58.1713 22.3H61.8113V40.5H57.6513V29.19L49.5913 40.5ZM64.4123 26.2V22.3H79.4923V26.2H74.0323V40.5H69.8723V26.2H64.4123ZM82.0822 40.5V22.3H92.8722V26.2H86.2422V29.398H92.0922V33.298H86.2422V36.6H93.1322V40.5H82.0822ZM101.197 40.5H97.0373V22.3C97.3493 22.3 98.2246 22.2913 99.6633 22.274C101.119 22.2567 102.099 22.248 102.601 22.248C105.184 22.248 107.056 22.82 108.217 23.964C109.379 25.0907 109.959 26.5293 109.959 28.28C109.959 29.9787 109.344 31.426 108.113 32.622C106.883 33.8007 105.253 34.39 103.225 34.39C102.307 34.39 101.631 34.364 101.197 34.312V40.5ZM103.017 26.148C102.948 26.148 102.341 26.1653 101.197 26.2V30.36C101.856 30.4467 102.489 30.49 103.095 30.49C103.754 30.49 104.326 30.3167 104.811 29.97C105.297 29.6233 105.539 29.0513 105.539 28.254C105.539 26.85 104.699 26.148 103.017 26.148ZM116.723 26.2V22.3H128.683V24.952L122.521 40.5H118.257L124.029 26.2H116.723ZM40.4141 73.5V71.81C42.8755 69.3833 44.6088 67.546 45.6141 66.298C47.5728 63.854 48.5521 61.7913 48.5521 60.11C48.5521 59.2607 48.2921 58.5587 47.7721 58.004C47.2695 57.4493 46.5415 57.172 45.5881 57.172C44.8081 57.172 44.1148 57.4233 43.5081 57.926C42.9015 58.4287 42.5115 59.148 42.3381 60.084L40.5701 59.356C40.7781 58.0387 41.3675 56.9987 42.3381 56.236C43.3088 55.4733 44.4528 55.092 45.7701 55.092C47.3648 55.092 48.5955 55.5513 49.4621 56.47C50.3288 57.3713 50.7621 58.446 50.7621 59.694C50.7621 60.8727 50.4501 62.1207 49.8261 63.438C49.2195 64.738 48.4135 65.9773 47.4081 67.156C46.4028 68.3173 45.5968 69.2013 44.9901 69.808C44.4008 70.3973 43.7768 70.978 43.1181 71.55H51.5161V73.5H40.4141ZM55.8671 71.212C54.8791 69.5307 54.3851 67.26 54.3851 64.4C54.3851 61.54 54.8704 59.278 55.8411 57.614C56.8291 55.9327 58.3111 55.092 60.2871 55.092C62.2631 55.092 63.7364 55.9327 64.7071 57.614C65.6951 59.278 66.1891 61.54 66.1891 64.4C66.1891 67.2773 65.7037 69.548 64.7331 71.212C63.7797 72.876 62.3151 73.708 60.3391 73.708C58.3631 73.708 56.8724 72.876 55.8671 71.212ZM60.2871 57.042C57.8257 57.042 56.5951 59.4947 56.5951 64.4C56.5951 69.3053 57.8431 71.758 60.3391 71.758C61.6217 71.758 62.5491 71.1427 63.1211 69.912C63.6931 68.6813 63.9791 66.844 63.9791 64.4C63.9791 61.9733 63.6844 60.1447 63.0951 58.914C62.5057 57.666 61.5697 57.042 60.2871 57.042ZM68.8009 73.5V71.81C71.2622 69.3833 72.9955 67.546 74.0009 66.298C75.9595 63.854 76.9389 61.7913 76.9389 60.11C76.9389 59.2607 76.6789 58.5587 76.1589 58.004C75.6562 57.4493 74.9282 57.172 73.9749 57.172C73.1949 57.172 72.5015 57.4233 71.8949 57.926C71.2882 58.4287 70.8982 59.148 70.7249 60.084L68.9569 59.356C69.1649 58.0387 69.7542 56.9987 70.7249 56.236C71.6955 55.4733 72.8395 55.092 74.1569 55.092C75.7515 55.092 76.9822 55.5513 77.8489 56.47C78.7155 57.3713 79.1489 58.446 79.1489 59.694C79.1489 60.8727 78.8369 62.1207 78.2129 63.438C77.6062 64.738 76.8002 65.9773 75.7949 67.156C74.7895 68.3173 73.9835 69.2013 73.3769 69.808C72.7875 70.3973 72.1635 70.978 71.5049 71.55H79.9029V73.5H68.8009ZM82.5118 73.5V71.81C84.9731 69.3833 86.7065 67.546 87.7118 66.298C89.6705 63.854 90.6498 61.7913 90.6498 60.11C90.6498 59.2607 90.3898 58.5587 89.8698 58.004C89.3671 57.4493 88.6391 57.172 87.6858 57.172C86.9058 57.172 86.2125 57.4233 85.6058 57.926C84.9991 58.4287 84.6091 59.148 84.4358 60.084L82.6678 59.356C82.8758 58.0387 83.4651 56.9987 84.4358 56.236C85.4065 55.4733 86.5505 55.092 87.8678 55.092C89.4625 55.092 90.6931 55.5513 91.5598 56.47C92.4265 57.3713 92.8598 58.446 92.8598 59.694C92.8598 60.8727 92.5478 62.1207 91.9238 63.438C91.3171 64.738 90.5111 65.9773 89.5058 67.156C88.5005 68.3173 87.6945 69.2013 87.0878 69.808C86.4985 70.3973 85.8745 70.978 85.2158 71.55H93.6138V73.5H82.5118ZM102.765 73.5V61.8H110.175V63.75H104.845V73.5H102.765ZM110.597 72.096C110.597 71.732 110.736 71.4113 111.013 71.134C111.29 70.8567 111.646 70.718 112.079 70.718C112.46 70.718 112.781 70.8653 113.041 71.16C113.318 71.4373 113.457 71.7493 113.457 72.096C113.457 72.4947 113.327 72.8413 113.067 73.136C112.807 73.4307 112.478 73.578 112.079 73.578C111.646 73.578 111.29 73.4307 111.013 73.136C110.736 72.8413 110.597 72.4947 110.597 72.096Z" fill="#F7F7EC"/>
</svg>
