<svg width="77" height="54" viewBox="0 0 77 54" fill="none" xmlns="http://www.w3.org/2000/svg">
<path d="M12.8347 42.3891C13.5732 40.3065 14.1115 39.1847 14.4495 39.0237C14.8683 38.8242 15.1844 38.9485 15.3979 39.3967C15.6569 39.9403 15.6899 40.7855 15.497 41.9321C15.3041 43.0786 14.8678 44.2916 14.1882 45.5709C13.4148 46.994 12.53 48.2493 11.5338 49.3369C10.5483 50.4284 9.76909 51.1106 9.19603 51.3836C9.07113 51.4431 8.80542 51.5381 8.39888 51.6687C8.00318 51.8031 7.64371 51.9473 7.32044 52.1013C7.1882 52.1643 7.05578 52.2364 6.92319 52.3176C6.80145 52.4027 6.73323 52.4487 6.71853 52.4557C5.4916 53.0402 4.35661 53.1933 3.31357 52.915C2.27053 52.6366 1.53375 52.0456 1.10325 51.142C0.623737 50.1355 0.359841 48.607 0.311558 46.5567C0.255928 44.51 0.528133 42.4512 1.12818 40.3805C1.5733 38.7983 2.22539 37.2436 3.08444 35.7166C3.94349 34.1896 4.79768 32.9173 5.64701 31.8997C6.49285 30.8747 7.11781 30.266 7.52189 30.0735C8.18311 29.7585 8.96508 29.697 9.86781 29.8889C10.7705 30.0808 11.3181 30.3788 11.5107 30.7829C11.7802 31.3486 11.894 31.966 11.8521 32.6349C11.8176 33.3004 11.624 33.7172 11.2713 33.8852C11.1979 33.9202 10.9857 33.9762 10.6348 34.0532C10.2838 34.1303 9.99451 34.223 9.76675 34.3315C8.18717 35.084 7.2136 36.9856 6.84604 40.0363C6.67521 41.551 6.63801 42.9299 6.73444 44.173C6.82737 45.4087 7.00683 46.3058 7.27284 46.8642C7.54584 47.4372 7.95051 47.596 8.48683 47.3405C8.75867 47.211 9.32923 46.6868 10.1985 45.7678C11.0643 44.8415 11.943 43.7153 12.8347 42.3891ZM23.6168 22.1355C20.1433 18.7422 17.0719 16.789 14.4026 16.2758C13.7717 16.1437 13.1794 16.0924 12.6255 16.1218C12.0716 16.1513 11.479 16.2128 10.8474 16.3064C10.2124 16.3925 9.77682 16.4243 9.54064 16.4016C9.30447 16.3789 9.13038 16.25 9.01838 16.0149C8.88538 15.7357 9.01965 15.2796 9.42121 14.6466C9.83011 14.0101 10.3463 13.3811 10.9696 12.7596C11.5969 12.1272 12.1603 11.6921 12.6599 11.4541C13.4239 11.0901 14.5262 10.9345 15.9667 10.9875C17.4036 11.0331 18.8935 11.3599 20.4362 11.9681C24.3681 13.4663 27.356 16.3607 29.4001 20.6513C31.0206 24.0529 31.6309 27.9358 31.2311 32.3C31.1685 32.9067 31.0355 33.4884 30.832 34.045C30.6249 34.5944 30.2313 35.5752 29.6511 36.9874C28.9562 38.6886 28.1025 40.1229 27.0902 41.2903C26.0817 42.4468 25.1917 43.2089 24.4203 43.5764C23.1787 44.1679 22.016 44.244 20.9324 43.8047C19.8414 43.369 18.9861 42.5009 18.3666 41.2005C18.1216 40.6862 17.8518 39.6564 17.5573 38.111C17.2593 36.5583 17.1293 35.3582 17.1673 34.5108C17.2119 33.507 17.4801 32.3291 17.9718 30.977C18.4673 29.6142 19.1994 28.1612 20.1679 26.618C21.1438 25.0714 22.2935 23.5772 23.6168 22.1355ZM25.1239 24.1353C23.8854 26.8527 23.173 29.4727 22.9866 31.9954C22.7967 34.5107 22.98 36.3525 23.5365 37.5206C23.995 38.4831 24.643 38.7648 25.4806 38.3658C26.3622 37.9458 27.033 37.1304 27.4929 35.9198C27.9566 34.6982 28.1239 33.2709 27.9949 31.6377C27.8732 30.0009 27.4379 28.3965 26.6889 26.8242C26.2583 25.9205 25.7367 25.0242 25.1239 24.1353ZM48.1693 24.2306C47.2959 27.4682 45.989 29.9567 44.2486 31.6963C43.139 32.8108 42.1646 33.7078 41.3253 34.387C40.4934 35.0628 39.993 35.4409 39.824 35.5214C39.1701 35.8329 38.4779 35.7706 37.7472 35.3344C37.0131 34.8909 36.4571 34.2724 36.079 33.4789C35.624 32.5238 35.6036 30.5414 36.0177 27.5317C36.4723 23.9257 37.9341 20.1824 40.4033 16.3018C41.3452 14.8164 42.3154 13.57 43.3138 12.5625C44.316 11.5442 45.1955 10.8548 45.9523 10.4943C47.1351 9.93075 48.2919 9.68162 49.4228 9.74685C50.5501 9.80474 51.2468 10.1129 51.5128 10.6712C51.5968 10.8476 51.767 11.6589 52.0233 13.1053C52.2835 14.5408 52.5358 15.8178 52.7802 16.9363C53.9179 22.1816 54.653 25.1531 54.9855 25.8511C55.129 26.1523 55.353 26.4332 55.6574 26.6938C55.9692 26.951 56.1618 27.1566 56.2353 27.3109C56.3578 27.5681 56.3273 27.9297 56.1437 28.3958C55.9674 28.8583 55.6479 29.1999 55.185 29.4204C55.0013 29.5079 54.7363 29.5665 54.3899 29.5963C54.0544 29.63 53.7874 29.694 53.5891 29.7885C53.4862 29.8375 53.3498 29.9296 53.1798 30.0647C53.0097 30.1997 52.8807 30.2883 52.7925 30.3303C51.7125 30.8448 50.5057 29.7025 49.1722 26.9033C48.8572 26.2421 48.5229 25.3512 48.1693 24.2306ZM42.7515 29.4619C43.3613 29.1713 44.0693 28.2166 44.8754 26.5975C45.6816 24.9785 46.3485 22.9346 46.8761 20.4657C47.2669 18.675 47.5 17.1396 47.5754 15.8598C47.6581 14.5764 47.612 13.751 47.4369 13.3837C47.3529 13.2074 47.1603 13.1909 46.8591 13.3344C46.3816 13.5619 45.7161 14.4829 44.8626 16.0974C44.0057 17.7046 43.2195 19.7062 42.5041 22.1023C41.5523 25.4404 41.3914 27.7706 42.0214 29.093C42.2069 29.4824 42.4502 29.6054 42.7515 29.4619ZM63.7583 12.7611C64.3053 11.9416 64.9646 11.3481 65.736 10.9805C66.1034 10.8055 66.5302 10.6608 67.0165 10.5463C67.4993 10.4245 67.8068 10.332 67.9391 10.269C68.2403 10.1255 68.3893 9.85173 68.3861 9.44762C68.3503 8.84268 68.2526 8.14556 68.0929 7.35625C67.9406 6.56345 67.8119 5.86756 67.7068 5.26858C67.6056 4.65876 67.5691 4.18485 67.5974 3.84686C67.6553 3.0981 67.8323 2.40986 68.1281 1.78212C68.4279 1.14354 68.8239 0.706995 69.3161 0.472491C70.4255 -0.0560188 71.4457 0.656864 72.3767 2.61114C72.7897 3.47807 73.113 4.37424 73.3465 5.29963C73.5839 6.21418 73.8159 7.31609 74.0425 8.60536C74.2729 9.88379 74.4534 10.8209 74.584 11.4167C74.7185 12.0017 74.9187 12.5734 75.1847 13.1318C75.4122 13.6093 75.7258 13.9647 76.1254 14.198C76.5288 14.4205 76.7621 14.5978 76.8251 14.7301C76.9511 14.9946 76.8446 15.5185 76.5057 16.302C76.1742 17.0819 75.7191 17.8486 75.1405 18.602C74.5658 19.3445 74.0213 19.8383 73.507 20.0833C72.3021 20.6573 71.1187 19.7247 69.9566 17.2856C69.5996 16.5362 69.4116 15.517 69.3925 14.228C69.3139 13.382 69.2607 12.9297 69.2327 12.8709C69.2012 12.8048 69.156 12.7857 69.0973 12.8137C69.0413 12.6961 68.9398 12.6724 68.7929 12.7424C68.8076 12.7354 68.5371 12.7921 67.9815 12.9126C67.4224 13.0257 66.9115 13.1925 66.4486 13.413C65.4935 13.868 64.8469 14.5637 64.5087 15.5C64.4153 15.8149 64.393 16.4115 64.4418 17.2896C64.4906 18.1678 64.5749 19.2815 64.6948 20.6306C64.8112 21.9724 64.854 22.6867 64.8233 22.7734C64.804 22.8277 64.4241 23.2791 63.6836 24.1277C62.9504 24.9728 62.5654 25.4041 62.5287 25.4216C62.367 25.4986 61.965 25.3926 61.3226 25.1037C60.6693 24.811 60.2884 24.5507 60.1799 24.323C60.1274 24.2128 59.9504 23.3776 59.6489 21.8176C59.3365 20.2537 59.0271 18.4405 58.7206 16.378C57.9682 11.3548 57.6601 8.4187 57.7965 7.56951C57.8402 7.37742 58.1751 6.89785 58.8012 6.13081C59.4347 5.36026 59.8764 4.91549 60.1262 4.79649C60.7286 4.50948 61.3544 4.43223 62.0034 4.56472C62.6563 4.68637 63.086 4.96392 63.2925 5.39739C63.3975 5.6178 63.4372 6.21189 63.4114 7.17966C63.3931 8.14394 63.3936 8.97753 63.4129 9.68044C63.4323 10.3833 63.5474 11.4102 63.7583 12.7611Z" fill="#284A2E"/>
</svg>
