<svg width="47" height="49" viewBox="0 0 47 49" fill="none" xmlns="http://www.w3.org/2000/svg">
<path d="M32.2546 39.5835H28.8946L29.3954 38.8243H30.72C30.7764 38.836 30.8347 38.835 30.8906 38.8213C30.9466 38.8077 30.9988 38.7817 31.0434 38.7454C31.0881 38.709 31.1241 38.6632 31.1488 38.6112C31.1736 38.5592 31.1864 38.5023 31.1864 38.4447C31.1864 38.3871 31.1736 38.3302 31.1488 38.2782C31.1241 38.2262 31.0881 38.1804 31.0434 38.144C30.9988 38.1077 30.9466 38.0817 30.8906 38.0681C30.8347 38.0544 30.7764 38.0534 30.72 38.0651H29.2015C29.1384 38.0623 29.0756 38.0757 29.019 38.1039C28.9625 38.1322 28.9141 38.1744 28.8785 38.2266L28.0546 39.4705V38.4366C28.0538 38.3601 28.0304 38.2855 27.9873 38.2222C27.9442 38.159 27.8833 38.1099 27.8123 38.0812C27.739 38.0559 27.6598 38.0532 27.585 38.0733C27.5101 38.0935 27.443 38.1356 27.3923 38.1943C27.1177 38.5174 25.777 39.6966 25.147 39.5674C25.147 39.5674 24.9208 39.5674 24.7754 39.2605C25.4377 38.3397 25.987 37.4351 25.8739 36.9505C25.8544 36.8607 25.8134 36.777 25.7542 36.7066C25.6951 36.6362 25.6198 36.5813 25.5347 36.5466C25.3399 36.4681 25.1258 36.4508 24.9209 36.497C24.716 36.5431 24.53 36.6506 24.3877 36.8051C24.1112 37.1169 23.921 37.4957 23.836 37.9037C23.751 38.3117 23.7741 38.7349 23.9031 39.1312L23.5316 39.5835H21.577C21.5206 39.5718 21.4623 39.5728 21.4064 39.5865C21.3504 39.6002 21.2982 39.6261 21.2536 39.6625C21.2089 39.6988 21.1729 39.7447 21.1482 39.7967C21.1234 39.8487 21.1106 39.9055 21.1106 39.9631C21.1106 40.0207 21.1234 40.0776 21.1482 40.1296C21.1729 40.1816 21.2089 40.2275 21.2536 40.2638C21.2982 40.3002 21.3504 40.3261 21.4064 40.3398C21.4623 40.3534 21.5206 40.3544 21.577 40.3428H22.9178L22.8047 40.472C22.7628 40.5085 22.7292 40.5536 22.7062 40.6042C22.6833 40.6549 22.6715 40.7098 22.6716 40.7654C22.6718 40.821 22.6839 40.8759 22.7071 40.9264C22.7304 40.9769 22.7642 41.0218 22.8063 41.0581C22.8485 41.0944 22.8979 41.1212 22.9513 41.1367C23.0047 41.1521 23.0608 41.156 23.1158 41.1479C23.1708 41.1398 23.2234 41.12 23.2701 41.0897C23.3167 41.0595 23.3563 41.0196 23.3862 40.9727L23.9193 40.3428H27.2954V40.7304C27.2953 40.8136 27.3219 40.8947 27.3713 40.9616C27.4208 41.0285 27.4904 41.0777 27.57 41.102H27.6831C27.746 41.1033 27.8083 41.0893 27.8646 41.0611C27.9209 41.033 27.9695 40.9916 28.0062 40.9404L28.3777 40.2781H32.2546C32.3419 40.26 32.4203 40.2124 32.4765 40.1433C32.5328 40.0741 32.5635 39.9877 32.5635 39.8985C32.5635 39.8094 32.5328 39.7229 32.4765 39.6538C32.4203 39.5847 32.3419 39.537 32.2546 39.5189V39.5835ZM24.9208 37.3705C24.9729 37.3145 25.0403 37.2752 25.1147 37.2574C24.9774 37.5961 24.7984 37.9163 24.5816 38.2105C24.59 37.894 24.7102 37.5907 24.9208 37.3543V37.3705ZM26.9723 39.5997L27.2954 39.3574V39.5997H26.9723Z" fill="#467637"/>
<path d="M46.3728 13.2689C46.4559 12.6307 46.3466 11.9823 46.0588 11.4067C45.771 10.8311 45.3178 10.3545 44.7574 10.0382C44.74 9.98542 44.7105 9.93748 44.6712 9.89821C44.632 9.85893 44.584 9.82941 44.5313 9.81201H42.9159C42.8504 9.81525 42.787 9.83659 42.7328 9.87366C42.6786 9.91073 42.6358 9.96208 42.609 10.022C42.0486 10.3384 41.5954 10.8149 41.3076 11.3905C41.0198 11.9661 40.9105 12.6146 40.9936 13.2527L41.7529 32.3302V33.8164V38.3878C41.7529 38.4907 41.7937 38.5893 41.8664 38.662C41.9391 38.7347 42.0377 38.7755 42.1405 38.7755H42.5282V39.0986L41.7852 41.3278C41.7594 41.3806 41.7461 41.4386 41.7461 41.4974C41.7461 41.5562 41.7594 41.6142 41.7852 41.667L43.3198 43.9608C43.3883 43.981 43.4612 43.981 43.5298 43.9608C43.5932 43.978 43.6601 43.978 43.7236 43.9608H43.8044L45.339 41.667C45.3659 41.6145 45.3799 41.5564 45.3799 41.4974C45.3799 41.4384 45.3659 41.3803 45.339 41.3278L44.5959 39.0986V38.7755H44.9836C45.0864 38.7755 45.185 38.7347 45.2577 38.662C45.3304 38.5893 45.3713 38.4907 45.3713 38.3878V33.8164V32.3141L46.3728 13.2689ZM43.7074 10.5712C44.9674 10.5712 45.6136 11.4597 45.6136 13.2366L44.8544 31.9425H42.5444L41.8013 13.2527C41.8013 11.4758 42.4313 10.5712 43.7074 10.5712ZM44.4667 38.0325H42.5605V34.2363H44.8544V38.0486L44.4667 38.0325ZM44.8544 32.6856V33.4448H42.5605V32.6856H44.8544ZM44.1113 39.2924L44.822 41.4086L43.7236 43.0239L42.6251 41.4086L43.3359 39.2924C43.3431 39.2497 43.3431 39.206 43.3359 39.1632V38.7755H44.0951V39.1632C44.086 39.2112 44.086 39.2606 44.0951 39.3086L44.1113 39.2924Z" fill="#467637"/>
<path d="M43.7075 23.5588C43.8103 23.5588 43.9089 23.5179 43.9816 23.4452C44.0543 23.3725 44.0952 23.2739 44.0952 23.1711V11.7181C44.0771 11.6308 44.0294 11.5525 43.9603 11.4962C43.8911 11.4399 43.8047 11.4092 43.7155 11.4092C43.6264 11.4092 43.54 11.4399 43.4708 11.4962C43.4017 11.5525 43.354 11.6308 43.3359 11.7181V23.1711C43.3359 23.2712 43.3745 23.3674 43.4437 23.4397C43.513 23.5119 43.6075 23.5546 43.7075 23.5588Z" fill="#467637"/>
<path d="M37.1005 4.57836L32.529 0.0068758C32.481 -0.00229193 32.4317 -0.00229193 32.3836 0.0068758C32.3836 0.0068758 32.3836 0.0068758 32.2544 0.0068758H4.01781C3.91499 0.0068758 3.81638 0.0477214 3.74368 0.120427C3.67097 0.193132 3.63013 0.291742 3.63013 0.394564V45.3017C3.63013 45.4046 3.67097 45.5032 3.74368 45.5759C3.81638 45.6486 3.91499 45.6894 4.01781 45.6894H36.8259C36.9287 45.6894 37.0273 45.6486 37.1 45.5759C37.1727 45.5032 37.2136 45.4046 37.2136 45.3017V4.91759C37.2136 4.91759 37.2136 4.91759 37.2136 4.80451C37.2049 4.71782 37.1646 4.63733 37.1005 4.57836ZM32.0929 0.653022L36.4544 5.01451V44.914H4.4055V0.653022H32.0929Z" fill="#467637"/>
<path d="M31.4949 5.99964H35.3071C35.3944 5.98154 35.4728 5.9339 35.5291 5.86475C35.5854 5.79561 35.6161 5.70918 35.6161 5.62003C35.6161 5.53088 35.5854 5.44445 35.5291 5.3753C35.4728 5.30616 35.3944 5.25852 35.3071 5.24042H31.8664V1.79969C31.8483 1.71239 31.8007 1.634 31.7315 1.57773C31.6624 1.52145 31.5759 1.49072 31.4868 1.49072C31.3976 1.49072 31.3112 1.52145 31.2421 1.57773C31.1729 1.634 31.1253 1.71239 31.1072 1.79969V5.61195C31.1072 5.71477 31.148 5.81338 31.2207 5.88609C31.2934 5.95879 31.392 5.99964 31.4949 5.99964Z" fill="#467637"/>
<path d="M8.58948 20.5053H32.2546C32.3419 20.4872 32.4203 20.4396 32.4766 20.3704C32.5328 20.3013 32.5636 20.2149 32.5636 20.1257C32.5636 20.0366 32.5328 19.9501 32.4766 19.881C32.4203 19.8118 32.3419 19.7642 32.2546 19.7461H8.58948C8.50219 19.7642 8.4238 19.8118 8.36752 19.881C8.31124 19.9501 8.28052 20.0366 8.28052 20.1257C8.28052 20.2149 8.31124 20.3013 8.36752 20.3704C8.4238 20.4396 8.50219 20.4872 8.58948 20.5053Z" fill="#467637"/>
<path d="M8.58948 23.559H32.2546C32.3419 23.5409 32.4203 23.4933 32.4766 23.4241C32.5328 23.355 32.5636 23.2686 32.5636 23.1794C32.5636 23.0903 32.5328 23.0038 32.4766 22.9347C32.4203 22.8655 32.3419 22.8179 32.2546 22.7998H8.58948C8.50219 22.8179 8.4238 22.8655 8.36752 22.9347C8.31124 23.0038 8.28052 23.0903 8.28052 23.1794C8.28052 23.2686 8.31124 23.355 8.36752 23.4241C8.4238 23.4933 8.50219 23.5409 8.58948 23.559Z" fill="#467637"/>
<path d="M8.58948 26.6118H32.2546C32.3419 26.5937 32.4203 26.546 32.4766 26.4769C32.5328 26.4077 32.5636 26.3213 32.5636 26.2322C32.5636 26.143 32.5328 26.0566 32.4766 25.9874C32.4203 25.9183 32.3419 25.8706 32.2546 25.8525H8.58948C8.50219 25.8706 8.4238 25.9183 8.36752 25.9874C8.31124 26.0566 8.28052 26.143 8.28052 26.2322C8.28052 26.3213 8.31124 26.4077 8.36752 26.4769C8.4238 26.546 8.50219 26.5937 8.58948 26.6118Z" fill="#467637"/>
<path d="M8.58948 29.665H32.2546C32.3419 29.6469 32.4203 29.5992 32.4766 29.5301C32.5328 29.461 32.5636 29.3745 32.5636 29.2854C32.5636 29.1962 32.5328 29.1098 32.4766 29.0406C32.4203 28.9715 32.3419 28.9239 32.2546 28.9058H8.58948C8.50219 28.9239 8.4238 28.9715 8.36752 29.0406C8.31124 29.1098 8.28052 29.1962 8.28052 29.2854C8.28052 29.3745 8.31124 29.461 8.36752 29.5301C8.4238 29.5992 8.50219 29.6469 8.58948 29.665Z" fill="#467637"/>
<path d="M20.8016 31.9429H8.58948C8.50219 31.961 8.4238 32.0086 8.36752 32.0778C8.31124 32.1469 8.28052 32.2333 8.28052 32.3225C8.28052 32.4116 8.31124 32.4981 8.36752 32.5672C8.4238 32.6364 8.50219 32.684 8.58948 32.7021H20.8016C20.8889 32.684 20.9673 32.6364 21.0236 32.5672C21.0799 32.4981 21.1106 32.4116 21.1106 32.3225C21.1106 32.2333 21.0799 32.1469 21.0236 32.0778C20.9673 32.0086 20.8889 31.961 20.8016 31.9429Z" fill="#467637"/>
<path d="M12.789 15.1586C13.6925 15.1586 14.5757 14.8909 15.3271 14.3893C16.0785 13.8877 16.6645 13.1746 17.0109 12.3403C17.3574 11.5059 17.4489 10.5875 17.2738 9.70118C17.0987 8.81485 16.6649 8.00026 16.0272 7.36029C15.3895 6.72032 14.5764 6.28366 13.6907 6.10545C12.805 5.92723 11.8864 6.01546 11.0507 6.35899C10.2151 6.70252 9.50006 7.28594 8.9958 8.03559C8.49155 8.78524 8.22072 9.6675 8.21753 10.571C8.21752 11.7849 8.69864 12.9493 9.5555 13.8092C10.4124 14.6691 11.5751 15.1543 12.789 15.1586ZM12.789 6.7587C13.5437 6.7555 14.2823 6.97636 14.9114 7.39331C15.5404 7.81026 16.0316 8.40453 16.3226 9.10084C16.6136 9.79715 16.6914 10.5642 16.5461 11.3047C16.4009 12.0453 16.0391 12.7261 15.5066 13.2609C14.9741 13.7956 14.2948 14.1603 13.5549 14.3087C12.8149 14.4572 12.0476 14.3826 11.35 14.0945C10.6525 13.8065 10.0561 13.3179 9.63653 12.6906C9.21691 12.0633 8.99291 11.3256 8.9929 10.571C8.99712 9.56397 9.39791 8.59919 10.1084 7.88563C10.819 7.17207 11.7821 6.76718 12.789 6.7587Z" fill="#467637"/>
<path d="M11.384 13.5111C11.4201 13.5471 11.4629 13.5756 11.51 13.595C11.5572 13.6144 11.6076 13.6243 11.6586 13.6242C11.7096 13.6243 11.76 13.6144 11.8072 13.595C11.8543 13.5756 11.8971 13.5471 11.9332 13.5111L14.324 11.1204L15.1963 11.9927C15.2683 12.0608 15.3636 12.0988 15.4628 12.0988C15.5619 12.0988 15.6573 12.0608 15.7293 11.9927C15.7975 11.9207 15.8355 11.8253 15.8355 11.7261C15.8355 11.627 15.7975 11.5316 15.7293 11.4596L14.5824 10.3127C14.5104 10.2445 14.415 10.2065 14.3159 10.2065C14.2167 10.2065 14.1213 10.2445 14.0493 10.3127L11.384 12.9781C11.3158 13.0501 11.2778 13.1454 11.2778 13.2446C11.2778 13.3437 11.3158 13.4391 11.384 13.5111Z" fill="#467637"/>
<path d="M10.3985 11.9925L10.8993 11.4918L11.4001 11.9925C11.4721 12.0607 11.5675 12.0987 11.6666 12.0987C11.7658 12.0987 11.8611 12.0607 11.9331 11.9925C12.0013 11.9205 12.0393 11.8251 12.0393 11.726C12.0393 11.6268 12.0013 11.5315 11.9331 11.4595L11.1739 10.7002C11.1739 10.7002 11.0932 10.7002 11.0447 10.7002C10.9931 10.6705 10.9346 10.6548 10.8751 10.6548C10.8155 10.6548 10.757 10.6705 10.7055 10.7002H10.6085L9.84932 11.4595C9.78115 11.5315 9.74316 11.6268 9.74316 11.726C9.74316 11.8251 9.78115 11.9205 9.84932 11.9925C9.88486 12.0292 9.92758 12.0582 9.97484 12.0777C10.0221 12.0972 10.0728 12.1067 10.1239 12.1056C10.175 12.1067 10.2258 12.0972 10.273 12.0777C10.3203 12.0582 10.363 12.0292 10.3985 11.9925Z" fill="#467637"/>
<path d="M11.6425 9.81237C11.8694 9.81237 12.0911 9.74511 12.2797 9.61909C12.4683 9.49306 12.6153 9.31394 12.7021 9.10437C12.7889 8.8948 12.8116 8.66419 12.7674 8.44171C12.7231 8.21924 12.6139 8.01488 12.4535 7.85448C12.2931 7.69408 12.0887 7.58485 11.8663 7.54059C11.6438 7.49634 11.4132 7.51905 11.2036 7.60586C10.994 7.69267 10.8149 7.83967 10.6889 8.02828C10.5629 8.21688 10.4956 8.43863 10.4956 8.66546C10.4956 8.96964 10.6164 9.26137 10.8315 9.47645C11.0466 9.69154 11.3383 9.81237 11.6425 9.81237ZM11.6425 8.27778C11.7192 8.27778 11.7941 8.30051 11.8579 8.34311C11.9217 8.38571 11.9713 8.44626 12.0007 8.5171C12.03 8.58794 12.0377 8.6659 12.0228 8.7411C12.0078 8.8163 11.9709 8.88538 11.9167 8.9396C11.8624 8.99382 11.7934 9.03074 11.7181 9.0457C11.6429 9.06066 11.565 9.05298 11.4942 9.02364C11.4233 8.9943 11.3628 8.94461 11.3202 8.88085C11.2776 8.8171 11.2548 8.74214 11.2548 8.66546C11.259 8.56547 11.3017 8.47096 11.3739 8.40171C11.4462 8.33246 11.5424 8.29384 11.6425 8.29393V8.27778Z" fill="#467637"/>
<path d="M34.112 47.6439H1.6755V2.99522C1.6872 2.93883 1.68618 2.88054 1.67253 2.82459C1.65888 2.76864 1.63293 2.71644 1.59658 2.67177C1.56022 2.6271 1.51437 2.5911 1.46236 2.56637C1.41035 2.54164 1.35348 2.52881 1.29589 2.52881C1.2383 2.52881 1.18143 2.54164 1.12942 2.56637C1.07741 2.5911 1.03156 2.6271 0.995207 2.67177C0.958853 2.71644 0.932907 2.76864 0.919254 2.82459C0.905602 2.88054 0.904586 2.93883 0.91628 2.99522V48.0155C0.928146 48.1097 0.974174 48.1963 1.04563 48.2588C1.11709 48.3213 1.20902 48.3554 1.30397 48.3547H34.112C34.1993 48.3366 34.2777 48.289 34.334 48.2198C34.3903 48.1507 34.421 48.0642 34.421 47.9751C34.421 47.8859 34.3903 47.7995 34.334 47.7304C34.2777 47.6612 34.1993 47.6136 34.112 47.5955V47.6439Z" fill="#467637"/>
</svg>
