<svg width="46" height="49" viewBox="0 0 46 49" fill="none" xmlns="http://www.w3.org/2000/svg">
<path d="M25.8456 3.0043H34.4878V41.4985L30.9501 45.0361H3.0043V3.03661H10.8873C10.988 3.03661 11.0845 2.99661 11.1557 2.92542C11.2269 2.85423 11.2669 2.75767 11.2669 2.657C11.2669 2.55632 11.2269 2.45976 11.1557 2.38857C11.0845 2.31738 10.988 2.27738 10.8873 2.27738H2.63276C2.53423 2.27738 2.43973 2.31653 2.37005 2.3862C2.30037 2.45588 2.26123 2.55038 2.26123 2.64892V45.4077C2.26123 45.5062 2.30037 45.6007 2.37005 45.6704C2.43973 45.74 2.53423 45.7792 2.63276 45.7792H31.144C31.2416 45.7769 31.3345 45.7363 31.4024 45.6661L35.1662 41.9992C35.2233 41.937 35.2575 41.8573 35.2632 41.7731V2.63276C35.2632 2.53423 35.224 2.43973 35.1543 2.37005C35.0847 2.30037 34.9902 2.26123 34.8916 2.26123H25.8456C25.7449 2.26123 25.6483 2.30123 25.5771 2.37242C25.506 2.44361 25.466 2.54016 25.466 2.64084C25.466 2.74152 25.506 2.83808 25.5771 2.90927C25.6483 2.98046 25.7449 3.02045 25.8456 3.02045V3.0043Z" fill="#467637"/>
<path d="M15.3942 2.246H21.4034C21.5019 2.246 21.5964 2.20685 21.6661 2.13718C21.7358 2.0675 21.7749 1.973 21.7749 1.87446C21.7749 1.77593 21.7358 1.68143 21.6661 1.61175C21.5964 1.54207 21.5019 1.50293 21.4034 1.50293H15.3942C15.2957 1.50293 15.2012 1.54207 15.1315 1.61175C15.0618 1.68143 15.0227 1.77593 15.0227 1.87446C15.0227 1.973 15.0618 2.0675 15.1315 2.13718C15.2012 2.20685 15.2957 2.246 15.3942 2.246Z" fill="#467637"/>
<path d="M30.4012 44.2936C30.4997 44.2936 30.5942 44.2544 30.6639 44.1848C30.7336 44.1151 30.7727 44.0206 30.7727 43.9221V41.289H33.4058C33.5064 41.289 33.603 41.249 33.6742 41.1778C33.7454 41.1066 33.7854 41.0101 33.7854 40.9094C33.7854 40.8087 33.7454 40.7122 33.6742 40.641C33.603 40.5698 33.5064 40.5298 33.4058 40.5298H30.4012C30.3026 40.5298 30.2081 40.5689 30.1385 40.6386C30.0688 40.7083 30.0296 40.8028 30.0296 40.9013V43.9059C30.0275 43.956 30.0355 44.0061 30.0532 44.053C30.0708 44.1 30.0979 44.1429 30.1326 44.1791C30.1673 44.2153 30.209 44.2442 30.2552 44.2638C30.3013 44.2835 30.351 44.2936 30.4012 44.2936Z" fill="#467637"/>
<path d="M37.1534 0H0.371534C0.272997 0 0.178496 0.0391437 0.10882 0.10882C0.0391437 0.178496 0 0.272997 0 0.371534L0 47.6694C0.00185407 47.7232 0.0159038 47.7759 0.0410886 47.8235C0.0662735 47.8711 0.101935 47.9123 0.145383 47.9441C0.207571 48.0011 0.28733 48.0353 0.371534 48.041H37.1534C37.2376 48.0353 37.3174 48.0011 37.3796 47.9441C37.423 47.9123 37.4587 47.8711 37.4839 47.8235C37.509 47.7759 37.5231 47.7232 37.5249 47.6694V0.371534C37.5249 0.272997 37.4858 0.178496 37.4161 0.10882C37.3465 0.0391437 37.252 0 37.1534 0V0ZM11.3076 1.34075L12.8099 3.58611C12.844 3.63597 12.8898 3.67674 12.9433 3.70489C12.9968 3.73304 13.0563 3.74772 13.1168 3.74765H23.6328C23.7305 3.7454 23.8233 3.70478 23.8913 3.63457L26.1689 1.38921C26.2248 1.33365 26.2616 1.26175 26.274 1.1839C26.2863 1.10605 26.2736 1.02629 26.2376 0.956147C26.2017 0.886009 26.1443 0.829127 26.0739 0.793727C26.0035 0.758327 25.9236 0.746243 25.8459 0.759222H36.7334V47.2979H0.743068V0.759222H25.8459C25.7482 0.761467 25.6553 0.802091 25.5874 0.872298L23.4874 3.00458H13.3429L11.9537 0.920758C11.9261 0.878332 11.8905 0.841752 11.8488 0.813109C11.807 0.784465 11.7601 0.764318 11.7106 0.753818C11.6611 0.743318 11.61 0.742671 11.5603 0.751913C11.5105 0.761155 11.4631 0.780106 11.4206 0.807683C11.3782 0.83526 11.3416 0.870924 11.313 0.912638C11.2843 0.954352 11.2642 1.0013 11.2537 1.0508C11.2432 1.1003 11.2425 1.15138 11.2518 1.20113C11.261 1.25088 11.28 1.29833 11.3076 1.34075Z" fill="#467637"/>
<path d="M45.7955 12.4056C45.8949 11.766 45.7928 11.1114 45.5033 10.5324C45.2139 9.95352 44.7514 9.47905 44.1801 9.17484C44.1533 9.11491 44.1105 9.06356 44.0563 9.02649C44.0021 8.98942 43.9388 8.96809 43.8732 8.96484H42.3709C42.3053 8.96809 42.242 8.98942 42.1878 9.02649C42.1336 9.06356 42.0908 9.11491 42.064 9.17484C41.4927 9.47905 41.0302 9.95352 40.7408 10.5324C40.4513 11.1114 40.3492 11.766 40.4486 12.4056L41.2078 31.1761V32.6623V37.153C41.1899 37.2163 41.1899 37.2835 41.2078 37.3468C41.2742 37.4074 41.3603 37.4418 41.4501 37.4437H41.9994V37.7507L41.2725 39.9476C41.2481 39.9979 41.2355 40.0532 41.2355 40.1091C41.2355 40.165 41.2481 40.2203 41.2725 40.2706L42.7747 42.5321C42.8433 42.5523 42.9162 42.5523 42.9847 42.5321C43.0534 42.5515 43.1261 42.5515 43.1947 42.5321L44.9716 40.3837C44.996 40.3333 45.0086 40.2781 45.0086 40.2222C45.0086 40.1662 44.996 40.111 44.9716 40.0606L44.2447 37.8637V37.5568H44.6163C44.7082 37.5391 44.7928 37.4943 44.859 37.428C44.9253 37.3618 44.9701 37.2773 44.9878 37.1853V32.6461V31.1438L45.7955 12.4056ZM43.9217 36.7814H41.9994V33.0338H44.2447V36.7814H43.9217ZM44.2932 31.5315V32.3069H41.9994V31.5638L44.2932 31.5315ZM43.1624 9.69176C44.4063 9.69176 45.0363 10.5802 45.0363 12.3087L44.3093 30.7077H41.9994L41.2886 12.3733C41.2886 10.6448 41.9186 9.69176 43.1624 9.69176ZM43.6147 38.0253L44.3093 40.1091L43.2271 41.7245L42.1448 40.1091L42.8394 38.0253C42.8445 37.9878 42.8445 37.9497 42.8394 37.9122V37.5407H43.6147V37.9122C43.609 37.9497 43.609 37.9878 43.6147 38.0253Z" fill="#467637"/>
<path d="M43.163 22.5184C43.2616 22.5184 43.3561 22.4793 43.4258 22.4096C43.4954 22.3399 43.5346 22.2454 43.5346 22.1469V10.8393C43.5346 10.7408 43.4954 10.6463 43.4258 10.5766C43.3561 10.5069 43.2616 10.4678 43.163 10.4678C43.0645 10.4678 42.97 10.5069 42.9003 10.5766C42.8306 10.6463 42.7915 10.7408 42.7915 10.8393V22.1469C42.7915 22.2454 42.8306 22.3399 42.9003 22.4096C42.97 22.4793 43.0645 22.5184 43.163 22.5184Z" fill="#467637"/>
<path d="M5.9126 10.8876C5.9126 11.0976 6.17106 11.2592 6.51028 11.2592H30.1915C30.5146 11.2592 30.7892 11.0815 30.7892 10.8876C30.7892 10.6938 30.5308 10.5161 30.1915 10.5161H6.46182C6.17106 10.5161 5.9126 10.6776 5.9126 10.8876Z" fill="#467637"/>
<path d="M30.1909 12.7617H6.46121C6.13814 12.7617 5.86353 12.9233 5.86353 13.1333C5.86353 13.3433 6.12198 13.5048 6.46121 13.5048H30.1909C30.514 13.5048 30.7886 13.3433 30.7886 13.1333C30.7886 12.9233 30.514 12.7617 30.1909 12.7617Z" fill="#467637"/>
<path d="M6.46121 15.766H18.3018C18.6249 15.766 18.8995 15.6045 18.8995 15.3945C18.8995 15.1845 18.6411 15.0229 18.3018 15.0229H6.46121C6.13814 15.0229 5.86353 15.1845 5.86353 15.3945C5.86353 15.6045 6.17044 15.766 6.46121 15.766Z" fill="#467637"/>
<path d="M6.46121 21.7753H30.1909C30.514 21.7753 30.7886 21.6138 30.7886 21.4038C30.7886 21.1938 30.5302 21.0322 30.1909 21.0322H6.46121C6.13814 21.0322 5.86353 21.1938 5.86353 21.4038C5.86353 21.6138 6.17044 21.7753 6.46121 21.7753Z" fill="#467637"/>
<path d="M6.46121 24.0214H30.1909C30.514 24.0214 30.7886 23.8599 30.7886 23.6499C30.7886 23.4399 30.5302 23.2783 30.1909 23.2783H6.46121C6.13814 23.2783 5.86353 23.4399 5.86353 23.6499C5.86353 23.8599 6.17044 24.0214 6.46121 24.0214Z" fill="#467637"/>
<path d="M6.46121 25.5229C6.13814 25.5229 5.86353 25.6845 5.86353 25.8945C5.86353 26.1045 6.12198 26.266 6.46121 26.266H18.3018C18.6249 26.266 18.8995 26.1045 18.8995 25.8945C18.8995 25.6845 18.6411 25.5229 18.3018 25.5229H6.46121Z" fill="#467637"/>
<path d="M6.46121 32.3075H30.1909C30.514 32.3075 30.7886 32.146 30.7886 31.936C30.7886 31.726 30.5302 31.5645 30.1909 31.5645H6.46121C6.13814 31.5645 5.86353 31.726 5.86353 31.936C5.86353 32.146 6.17044 32.3075 6.46121 32.3075Z" fill="#467637"/>
<path d="M30.7725 34.1494C30.7725 33.9394 30.514 33.7778 30.1748 33.7778H6.46121C6.13814 33.7778 5.86353 33.9394 5.86353 34.1494C5.86353 34.3594 6.12198 34.5209 6.46121 34.5209H30.1909C30.514 34.5371 30.7725 34.3594 30.7725 34.1494Z" fill="#467637"/>
<path d="M6.46121 36.0229C6.13814 36.0229 5.86353 36.1845 5.86353 36.3945C5.86353 36.6045 6.12198 36.766 6.46121 36.766H18.3018C18.6249 36.766 18.8995 36.6045 18.8995 36.3945C18.8995 36.1845 18.6411 36.0229 18.3018 36.0229H6.46121Z" fill="#467637"/>
</svg>
