<svg width="46" height="48" viewBox="0 0 46 48" fill="none" xmlns="http://www.w3.org/2000/svg">
<path d="M6.13834 13.4079C6.19188 13.3983 6.24292 13.3779 6.28842 13.3481C6.33391 13.3183 6.37292 13.2796 6.40309 13.2344C6.43326 13.1891 6.45398 13.1382 6.464 13.0848C6.47402 13.0313 6.47314 12.9764 6.46141 12.9233V0.82416H27.8004V12.9233C27.8004 13.0325 27.8438 13.1373 27.921 13.2145C27.9983 13.2918 28.1031 13.3352 28.2123 13.3352C28.3216 13.3352 28.4263 13.2918 28.5036 13.2145C28.5808 13.1373 28.6242 13.0325 28.6242 12.9233V0.404165C28.6243 0.349744 28.6133 0.295877 28.592 0.245797C28.5707 0.195717 28.5395 0.150458 28.5003 0.112739C28.4611 0.07502 28.4146 0.0456184 28.3637 0.0263004C28.3129 0.00698235 28.2586 -0.00185361 28.2042 0.000323225H6.13834C6.03123 0.000323225 5.92851 0.0428707 5.85278 0.118606C5.77704 0.194341 5.73449 0.297059 5.73449 0.404165V12.9233C5.72237 12.9826 5.72375 13.0439 5.73853 13.1027C5.75332 13.1614 5.78114 13.2161 5.81992 13.2626C5.8587 13.3092 5.90746 13.3464 5.96258 13.3715C6.0177 13.3967 6.07777 13.4091 6.13834 13.4079Z" fill="#467637"/>
<path d="M3.68267 14.2319C3.57342 14.2319 3.46865 14.2753 3.3914 14.3526C3.31415 14.4298 3.27075 14.5346 3.27075 14.6439C3.27075 14.7531 3.31415 14.8579 3.3914 14.9351C3.46865 15.0124 3.57342 15.0558 3.68267 15.0558H38.0254C38.1346 15.0558 38.2394 15.0124 38.3166 14.9351C38.3939 14.8579 38.4373 14.7531 38.4373 14.6439C38.4373 14.5346 38.3939 14.4298 38.3166 14.3526C38.2394 14.2753 38.1346 14.2319 38.0254 14.2319H3.68267Z" fill="#467637"/>
<path d="M44.5675 26.4927H36.0868C35.4678 26.5303 34.888 26.8086 34.4715 27.2681L31.4346 30.9188C31.2354 31.1721 31.1272 31.485 31.1272 31.8072C31.1272 32.1295 31.2354 32.4423 31.4346 32.6957L34.4715 36.3464C34.888 36.8059 35.4678 37.0842 36.0868 37.1218H44.5675C44.8931 37.1218 45.2054 36.9924 45.4356 36.7622C45.6658 36.532 45.7952 36.2197 45.7952 35.8941V27.7204C45.7952 27.3948 45.6658 27.0825 45.4356 26.8523C45.2054 26.622 44.8931 26.4927 44.5675 26.4927ZM44.9713 35.8941C44.9713 36.0012 44.9288 36.1039 44.8531 36.1797C44.7773 36.2554 44.6746 36.2979 44.5675 36.2979H36.0868C35.6947 36.2676 35.3271 36.0953 35.053 35.8133L32.0161 32.1626C31.9387 32.0572 31.8969 31.9299 31.8969 31.7992C31.8969 31.6684 31.9387 31.5411 32.0161 31.4357L35.053 27.785C35.3271 27.503 35.6947 27.3307 36.0868 27.3004H44.5675C44.6746 27.3004 44.7773 27.3429 44.8531 27.4186C44.9288 27.4944 44.9713 27.5971 44.9713 27.7042V35.8941Z" fill="#467637"/>
<path d="M38.0257 28.9482C37.4602 28.9482 36.9074 29.1159 36.4372 29.4301C35.967 29.7443 35.6006 30.1908 35.3841 30.7133C35.1677 31.2357 35.1111 31.8106 35.2214 32.3652C35.3318 32.9199 35.6041 33.4293 36.0039 33.8292C36.4038 34.2291 36.9133 34.5014 37.4679 34.6117C38.0225 34.722 38.5974 34.6654 39.1199 34.449C39.6423 34.2326 40.0889 33.8661 40.403 33.3959C40.7172 32.9257 40.8849 32.3729 40.8849 31.8074C40.8849 31.0491 40.5837 30.3219 40.0475 29.7857C39.5113 29.2495 38.784 28.9482 38.0257 28.9482ZM38.0257 33.7943C37.62 33.7943 37.2233 33.674 36.8859 33.4486C36.5486 33.2232 36.2856 32.9028 36.1303 32.5279C35.9751 32.153 35.9344 31.7405 36.0136 31.3426C36.0928 30.9446 36.2882 30.5791 36.5751 30.2922C36.862 30.0053 37.2275 29.8099 37.6255 29.7307C38.0234 29.6516 38.4359 29.6922 38.8108 29.8475C39.1856 30.0027 39.5061 30.2657 39.7315 30.6031C39.9569 30.9404 40.0772 31.3371 40.0772 31.7428C40.0949 32.0229 40.0549 32.3036 39.9598 32.5676C39.8646 32.8317 39.7163 33.0733 39.524 33.2778C39.3317 33.4822 39.0995 33.6449 38.8418 33.756C38.5841 33.8671 38.3063 33.9241 38.0257 33.9236V33.7943Z" fill="#467637"/>
<path d="M38.0253 30.5791C37.7825 30.5791 37.5451 30.6511 37.3432 30.786C37.1413 30.9209 36.984 31.1126 36.8911 31.337C36.7981 31.5613 36.7738 31.8081 36.8212 32.0463C36.8686 32.2844 36.9855 32.5032 37.1572 32.6749C37.3289 32.8466 37.5476 32.9635 37.7858 33.0109C38.0239 33.0582 38.2708 33.0339 38.4951 32.941C38.7194 32.8481 38.9112 32.6907 39.0461 32.4888C39.181 32.287 39.253 32.0496 39.253 31.8068C39.253 31.4812 39.1236 31.1689 38.8934 30.9387C38.6631 30.7084 38.3509 30.5791 38.0253 30.5791ZM38.0253 32.1945C37.9454 32.1945 37.8673 32.1708 37.8009 32.1264C37.7345 32.082 37.6828 32.019 37.6522 31.9452C37.6216 31.8714 37.6136 31.7902 37.6292 31.7118C37.6448 31.6335 37.6832 31.5615 37.7397 31.5051C37.7962 31.4486 37.8682 31.4101 37.9465 31.3945C38.0248 31.379 38.106 31.387 38.1798 31.4175C38.2536 31.4481 38.3167 31.4999 38.3611 31.5663C38.4054 31.6327 38.4291 31.7108 38.4291 31.7906C38.4313 31.845 38.4225 31.8993 38.4031 31.9501C38.3838 32.001 38.3544 32.0475 38.3167 32.0867C38.279 32.1259 38.2337 32.1571 38.1837 32.1784C38.1336 32.1997 38.0797 32.2107 38.0253 32.2106V32.1945Z" fill="#467637"/>
<path d="M29.432 4.34502L37.5088 6.445L35.7481 13.1488C35.7335 13.2007 35.7295 13.2551 35.7363 13.3087C35.7431 13.3622 35.7606 13.4139 35.7877 13.4606C35.8148 13.5072 35.851 13.548 35.8941 13.5805C35.9372 13.6129 35.9865 13.6364 36.0388 13.6495H36.1519C36.2414 13.6486 36.328 13.6179 36.3982 13.5623C36.4684 13.5068 36.5181 13.4295 36.5396 13.3426L38.4134 6.235C38.428 6.18302 38.432 6.12864 38.4252 6.07509C38.4184 6.02154 38.4009 5.96989 38.3738 5.9232C38.3467 5.87652 38.3105 5.83574 38.2674 5.80328C38.2242 5.77083 38.175 5.74735 38.1226 5.73424L29.642 3.55349C29.5371 3.52844 29.4267 3.54466 29.3335 3.59878C29.2403 3.6529 29.1714 3.74079 29.1412 3.84426C29.1266 3.89624 29.1226 3.95061 29.1294 4.00417C29.1362 4.05772 29.1537 4.10937 29.1808 4.15606C29.2079 4.20274 29.2441 4.24352 29.2873 4.27597C29.3304 4.30843 29.3796 4.33191 29.432 4.34502Z" fill="#467637"/>
<path d="M37.6219 12.1802C37.6219 12.2873 37.6645 12.39 37.7402 12.4658C37.8159 12.5415 37.9186 12.5841 38.0257 12.5841H38.7688C39.7456 12.5841 40.6824 12.9721 41.3731 13.6628C42.0638 14.3535 42.4519 15.2903 42.4519 16.2671V17.5594C42.4519 17.6686 42.4953 17.7734 42.5725 17.8506C42.6498 17.9279 42.7545 17.9713 42.8638 17.9713C42.973 17.9713 43.0778 17.9279 43.155 17.8506C43.2323 17.7734 43.2757 17.6686 43.2757 17.5594V16.2671C43.2714 15.0746 42.7947 13.9324 41.95 13.0907C41.1052 12.249 39.9613 11.7764 38.7688 11.7764H37.945C37.8524 11.7952 37.7694 11.846 37.7103 11.9198C37.6513 11.9936 37.62 12.0857 37.6219 12.1802Z" fill="#467637"/>
<path d="M4.49035 19.1426H3.68267C3.57342 19.1426 3.46865 19.186 3.3914 19.2632C3.31415 19.3405 3.27075 19.4452 3.27075 19.5545C3.27075 19.6637 3.31415 19.7685 3.3914 19.8458C3.46865 19.923 3.57342 19.9664 3.68267 19.9664H4.50651C4.61575 19.9664 4.72053 19.923 4.79778 19.8458C4.87503 19.7685 4.91843 19.6637 4.91843 19.5545C4.91843 19.4452 4.87503 19.3405 4.79778 19.2632C4.72053 19.186 4.61575 19.1426 4.50651 19.1426H4.49035Z" fill="#467637"/>
<path d="M20.4667 19.1426H18.8514C18.7421 19.1426 18.6374 19.186 18.5601 19.2632C18.4829 19.3405 18.4395 19.4452 18.4395 19.5545C18.4395 19.6637 18.4829 19.7685 18.5601 19.8458C18.6374 19.923 18.7421 19.9664 18.8514 19.9664H20.4667C20.576 19.9664 20.6808 19.923 20.758 19.8458C20.8353 19.7685 20.8787 19.6637 20.8787 19.5545C20.8787 19.4452 20.8353 19.3405 20.758 19.2632C20.6808 19.186 20.576 19.1426 20.4667 19.1426Z" fill="#467637"/>
<path d="M17.2685 19.1426H15.6531C15.5439 19.1426 15.4391 19.186 15.3619 19.2632C15.2846 19.3405 15.2412 19.4452 15.2412 19.5545C15.2412 19.6637 15.2846 19.7685 15.3619 19.8458C15.4391 19.923 15.5439 19.9664 15.6531 19.9664H17.2685C17.3777 19.9664 17.4825 19.923 17.5598 19.8458C17.637 19.7685 17.6804 19.6637 17.6804 19.5545C17.6804 19.4452 17.637 19.3405 17.5598 19.2632C17.4825 19.186 17.3777 19.1426 17.2685 19.1426Z" fill="#467637"/>
<path d="M14.0703 19.1426H12.4549C12.3456 19.1426 12.2409 19.186 12.1636 19.2632C12.0864 19.3405 12.043 19.4452 12.043 19.5545C12.043 19.6637 12.0864 19.7685 12.1636 19.8458C12.2409 19.923 12.3456 19.9664 12.4549 19.9664H14.0703C14.1795 19.9664 14.2843 19.923 14.3615 19.8458C14.4388 19.7685 14.4822 19.6637 14.4822 19.5545C14.4822 19.4452 14.4388 19.3405 14.3615 19.2632C14.2843 19.186 14.1795 19.1426 14.0703 19.1426Z" fill="#467637"/>
<path d="M10.8871 19.1426H9.27178C9.16253 19.1426 9.05776 19.186 8.98051 19.2632C8.90326 19.3405 8.85986 19.4452 8.85986 19.5545C8.85986 19.6637 8.90326 19.7685 8.98051 19.8458C9.05776 19.923 9.16253 19.9664 9.27178 19.9664H10.8871C10.9964 19.9664 11.1012 19.923 11.1784 19.8458C11.2557 19.7685 11.2991 19.6637 11.2991 19.5545C11.2991 19.4452 11.2557 19.3405 11.1784 19.2632C11.1012 19.186 10.9964 19.1426 10.8871 19.1426Z" fill="#467637"/>
<path d="M7.68891 19.1426H6.07354C5.96429 19.1426 5.85952 19.186 5.78227 19.2632C5.70502 19.3405 5.66162 19.4452 5.66162 19.5545C5.66162 19.6637 5.70502 19.7685 5.78227 19.8458C5.85952 19.923 5.96429 19.9664 6.07354 19.9664H7.68891C7.79815 19.9664 7.90293 19.923 7.98018 19.8458C8.05743 19.7685 8.10082 19.6637 8.10082 19.5545C8.10082 19.4452 8.05743 19.3405 7.98018 19.2632C7.90293 19.186 7.79815 19.1426 7.68891 19.1426Z" fill="#467637"/>
<path d="M34.8277 19.1426C34.7184 19.1426 34.6137 19.186 34.5364 19.2632C34.4592 19.3405 34.4158 19.4452 34.4158 19.5545C34.4158 19.6637 34.4592 19.7685 34.5364 19.8458C34.6137 19.923 34.7184 19.9664 34.8277 19.9664H36.4431C36.5523 19.9664 36.6571 19.923 36.7343 19.8458C36.8116 19.7685 36.855 19.6637 36.855 19.5545C36.855 19.4452 36.8116 19.3405 36.7343 19.2632C36.6571 19.186 36.5523 19.1426 36.4431 19.1426H34.8277Z" fill="#467637"/>
<path d="M31.629 19.1426C31.5197 19.1426 31.4149 19.186 31.3377 19.2632C31.2604 19.3405 31.217 19.4452 31.217 19.5545C31.217 19.6637 31.2604 19.7685 31.3377 19.8458C31.4149 19.923 31.5197 19.9664 31.629 19.9664H33.2443C33.3536 19.9664 33.4583 19.923 33.5356 19.8458C33.6128 19.7685 33.6562 19.6637 33.6562 19.5545C33.6562 19.4452 33.6128 19.3405 33.5356 19.2632C33.4583 19.186 33.3536 19.1426 33.2443 19.1426H31.629Z" fill="#467637"/>
<path d="M30.0461 19.1426H28.4307C28.3215 19.1426 28.2167 19.186 28.1394 19.2632C28.0622 19.3405 28.0188 19.4452 28.0188 19.5545C28.0188 19.6637 28.0622 19.7685 28.1394 19.8458C28.2167 19.923 28.3215 19.9664 28.4307 19.9664H30.0461C30.1553 19.9664 30.2601 19.923 30.3374 19.8458C30.4146 19.7685 30.458 19.6637 30.458 19.5545C30.458 19.4452 30.4146 19.3405 30.3374 19.2632C30.2601 19.186 30.1553 19.1426 30.0461 19.1426Z" fill="#467637"/>
<path d="M26.8478 19.1426H25.2325C25.1232 19.1426 25.0185 19.186 24.9412 19.2632C24.864 19.3405 24.8206 19.4452 24.8206 19.5545C24.8206 19.6637 24.864 19.7685 24.9412 19.8458C25.0185 19.923 25.1232 19.9664 25.2325 19.9664H26.8478C26.9571 19.9664 27.0619 19.923 27.1391 19.8458C27.2164 19.7685 27.2598 19.6637 27.2598 19.5545C27.2598 19.4452 27.2164 19.3405 27.1391 19.2632C27.0619 19.186 26.9571 19.1426 26.8478 19.1426Z" fill="#467637"/>
<path d="M23.6486 19.1426H22.0333C21.924 19.1426 21.8192 19.186 21.742 19.2632C21.6647 19.3405 21.6213 19.4452 21.6213 19.5545C21.6213 19.6637 21.6647 19.7685 21.742 19.8458C21.8192 19.923 21.924 19.9664 22.0333 19.9664H23.6486C23.7579 19.9664 23.8626 19.923 23.9399 19.8458C24.0171 19.7685 24.0605 19.6637 24.0605 19.5545C24.0605 19.4452 24.0171 19.3405 23.9399 19.2632C23.8626 19.186 23.7579 19.1426 23.6486 19.1426Z" fill="#467637"/>
<path d="M38.0262 19.1426C37.9169 19.1426 37.8122 19.186 37.7349 19.2632C37.6577 19.3405 37.6143 19.4452 37.6143 19.5545C37.6143 19.6637 37.6577 19.7685 37.7349 19.8458C37.8122 19.923 37.9169 19.9664 38.0262 19.9664H38.7692C38.8785 19.9664 38.9833 19.923 39.0605 19.8458C39.1378 19.7685 39.1812 19.6637 39.1812 19.5545C39.1812 19.4452 39.1378 19.3405 39.0605 19.2632C38.9833 19.186 38.8785 19.1426 38.7692 19.1426H38.0262Z" fill="#467637"/>
<path d="M4.49035 44.4873H3.68267C3.57342 44.4873 3.46865 44.5307 3.3914 44.6079C3.31415 44.6852 3.27075 44.79 3.27075 44.8992C3.27075 45.0085 3.31415 45.1132 3.3914 45.1905C3.46865 45.2677 3.57342 45.3111 3.68267 45.3111H4.50651C4.61575 45.3111 4.72053 45.2677 4.79778 45.1905C4.87503 45.1132 4.91843 45.0085 4.91843 44.8992C4.91843 44.79 4.87503 44.6852 4.79778 44.6079C4.72053 44.5307 4.61575 44.4873 4.50651 44.4873H4.49035Z" fill="#467637"/>
<path d="M14.0703 44.4873H12.4549C12.3456 44.4873 12.2409 44.5307 12.1636 44.6079C12.0864 44.6852 12.043 44.79 12.043 44.8992C12.043 45.0085 12.0864 45.1132 12.1636 45.1905C12.2409 45.2677 12.3456 45.3111 12.4549 45.3111H14.0703C14.1795 45.3111 14.2843 45.2677 14.3615 45.1905C14.4388 45.1132 14.4822 45.0085 14.4822 44.8992C14.4822 44.79 14.4388 44.6852 14.3615 44.6079C14.2843 44.5307 14.1795 44.4873 14.0703 44.4873Z" fill="#467637"/>
<path d="M17.2685 44.4873H15.6531C15.5439 44.4873 15.4391 44.5307 15.3619 44.6079C15.2846 44.6852 15.2412 44.79 15.2412 44.8992C15.2412 45.0085 15.2846 45.1132 15.3619 45.1905C15.4391 45.2677 15.5439 45.3111 15.6531 45.3111H17.2685C17.3777 45.3111 17.4825 45.2677 17.5598 45.1905C17.637 45.1132 17.6804 45.0085 17.6804 44.8992C17.6804 44.79 17.637 44.6852 17.5598 44.6079C17.4825 44.5307 17.3777 44.4873 17.2685 44.4873Z" fill="#467637"/>
<path d="M7.68891 44.4873H6.07354C5.96429 44.4873 5.85952 44.5307 5.78227 44.6079C5.70502 44.6852 5.66162 44.79 5.66162 44.8992C5.66162 45.0085 5.70502 45.1132 5.78227 45.1905C5.85952 45.2677 5.96429 45.3111 6.07354 45.3111H7.68891C7.79815 45.3111 7.90293 45.2677 7.98018 45.1905C8.05743 45.1132 8.10082 45.0085 8.10082 44.8992C8.10082 44.79 8.05743 44.6852 7.98018 44.6079C7.90293 44.5307 7.79815 44.4873 7.68891 44.4873Z" fill="#467637"/>
<path d="M10.8871 44.4873H9.27178C9.16253 44.4873 9.05776 44.5307 8.98051 44.6079C8.90326 44.6852 8.85986 44.79 8.85986 44.8992C8.85986 45.0085 8.90326 45.1132 8.98051 45.1905C9.05776 45.2677 9.16253 45.3111 9.27178 45.3111H10.8871C10.9964 45.3111 11.1012 45.2677 11.1784 45.1905C11.2557 45.1132 11.2991 45.0085 11.2991 44.8992C11.2991 44.79 11.2557 44.6852 11.1784 44.6079C11.1012 44.5307 10.9964 44.4873 10.8871 44.4873Z" fill="#467637"/>
<path d="M20.4667 44.4873H18.8514C18.7421 44.4873 18.6374 44.5307 18.5601 44.6079C18.4829 44.6852 18.4395 44.79 18.4395 44.8992C18.4395 45.0085 18.4829 45.1132 18.5601 45.1905C18.6374 45.2677 18.7421 45.3111 18.8514 45.3111H20.4667C20.576 45.3111 20.6808 45.2677 20.758 45.1905C20.8353 45.1132 20.8787 45.0085 20.8787 44.8992C20.8787 44.79 20.8353 44.6852 20.758 44.6079C20.6808 44.5307 20.576 44.4873 20.4667 44.4873Z" fill="#467637"/>
<path d="M23.6486 44.4873H22.0333C21.924 44.4873 21.8192 44.5307 21.742 44.6079C21.6647 44.6852 21.6213 44.79 21.6213 44.8992C21.6213 45.0085 21.6647 45.1132 21.742 45.1905C21.8192 45.2677 21.924 45.3111 22.0333 45.3111H23.6486C23.7579 45.3111 23.8626 45.2677 23.9399 45.1905C24.0171 45.1132 24.0605 45.0085 24.0605 44.8992C24.0605 44.79 24.0171 44.6852 23.9399 44.6079C23.8626 44.5307 23.7579 44.4873 23.6486 44.4873Z" fill="#467637"/>
<path d="M33.2282 45.2311C33.3375 45.2311 33.4422 45.1877 33.5195 45.1104C33.5967 45.0332 33.6401 44.9284 33.6401 44.8191C33.6401 44.7099 33.5967 44.6051 33.5195 44.5279C33.4422 44.4506 33.3375 44.4072 33.2282 44.4072H31.6128C31.5036 44.4072 31.3988 44.4506 31.3216 44.5279C31.2443 44.6051 31.2009 44.7099 31.2009 44.8191C31.2009 44.9284 31.2443 45.0332 31.3216 45.1104C31.3988 45.1877 31.5036 45.2311 31.6128 45.2311H33.2282Z" fill="#467637"/>
<path d="M36.4265 45.2311C36.5357 45.2311 36.6405 45.1877 36.7177 45.1104C36.795 45.0332 36.8384 44.9284 36.8384 44.8191C36.8384 44.7099 36.795 44.6051 36.7177 44.5279C36.6405 44.4506 36.5357 44.4072 36.4265 44.4072H34.8111C34.7018 44.4072 34.5971 44.4506 34.5198 44.5279C34.4426 44.6051 34.3992 44.7099 34.3992 44.8191C34.3992 44.9284 34.4426 45.0332 34.5198 45.1104C34.5971 45.1877 34.7018 45.2311 34.8111 45.2311H36.4265Z" fill="#467637"/>
<path d="M26.8478 44.4873H25.2325C25.1232 44.4873 25.0185 44.5307 24.9412 44.6079C24.864 44.6852 24.8206 44.79 24.8206 44.8992C24.8206 45.0085 24.864 45.1132 24.9412 45.1905C25.0185 45.2677 25.1232 45.3111 25.2325 45.3111H26.8478C26.9571 45.3111 27.0619 45.2677 27.1391 45.1905C27.2164 45.1132 27.2598 45.0085 27.2598 44.8992C27.2598 44.79 27.2164 44.6852 27.1391 44.6079C27.0619 44.5307 26.9571 44.4873 26.8478 44.4873Z" fill="#467637"/>
<path d="M30.0461 44.4873H28.4307C28.3215 44.4873 28.2167 44.5307 28.1394 44.6079C28.0622 44.6852 28.0188 44.79 28.0188 44.8992C28.0188 45.0085 28.0622 45.1132 28.1394 45.1905C28.2167 45.2677 28.3215 45.3111 28.4307 45.3111H30.0461C30.1553 45.3111 30.2601 45.2677 30.3374 45.1905C30.4146 45.1132 30.458 45.0085 30.458 44.8992C30.458 44.79 30.4146 44.6852 30.3374 44.6079C30.2601 44.5307 30.1553 44.4873 30.0461 44.4873Z" fill="#467637"/>
<path d="M38.7685 45.2311C38.8777 45.2311 38.9825 45.1877 39.0597 45.1104C39.137 45.0332 39.1804 44.9284 39.1804 44.8191C39.1804 44.7099 39.137 44.6051 39.0597 44.5279C38.9825 44.4506 38.8777 44.4072 38.7685 44.4072H37.9446C37.8354 44.4072 37.7306 44.4506 37.6534 44.5279C37.5761 44.6051 37.5327 44.7099 37.5327 44.8191C37.5327 44.9284 37.5761 45.0332 37.6534 45.1104C37.7306 45.1877 37.8354 45.2311 37.9446 45.2311H38.7685Z" fill="#467637"/>
<path d="M42.9203 37.9453C42.8132 37.9453 42.7104 37.9878 42.6347 38.0636C42.559 38.1393 42.5164 38.242 42.5164 38.3491V43.1952C42.523 43.6884 42.4304 44.178 42.2442 44.6347C42.058 45.0915 41.7819 45.5062 41.4324 45.8542C41.0829 46.2022 40.667 46.4765 40.2094 46.6607C39.7519 46.845 39.262 46.9354 38.7688 46.9267H2.8592C2.32069 46.9225 1.80544 46.7067 1.42465 46.3259C1.04386 45.9451 0.82806 45.4299 0.823837 44.8914V16.6386C1.08938 16.9147 1.40799 17.1343 1.76053 17.2842C2.11307 17.4341 2.49227 17.5112 2.87535 17.5109H38.7688C39.7456 17.5109 40.6824 17.8989 41.3731 18.5897C42.0638 19.2804 42.4518 20.2171 42.4518 21.194V25.2808C42.4518 25.3901 42.4952 25.4948 42.5725 25.5721C42.6497 25.6493 42.7545 25.6927 42.8637 25.6927C42.973 25.6927 43.0778 25.6493 43.155 25.5721C43.2323 25.4948 43.2757 25.3901 43.2757 25.2808V21.1778C43.2714 19.9853 42.7947 18.8431 41.9499 18.0014C41.1052 17.1597 39.9613 16.6871 38.7688 16.6871H2.8592C2.31791 16.6828 1.80024 16.4648 1.41899 16.0805C1.03774 15.6963 0.82382 15.1769 0.823837 14.6356C0.82806 14.0971 1.04386 13.5818 1.42465 13.201C1.80544 12.8202 2.32069 12.6044 2.8592 12.6002H4.47456C4.58381 12.6002 4.68858 12.5568 4.76583 12.4796C4.84308 12.4023 4.88648 12.2975 4.88648 12.1883C4.88648 12.079 4.84308 11.9743 4.76583 11.897C4.68858 11.8198 4.58381 11.7764 4.47456 11.7764H2.8592C2.10089 11.7764 1.37364 12.0776 0.83744 12.6138C0.301236 13.15 0 13.8773 0 14.6356H0V44.8914C0 45.6497 0.301236 46.3769 0.83744 46.9131C1.37364 47.4493 2.10089 47.7506 2.8592 47.7506H38.7688C39.9585 47.7463 41.0982 47.2718 41.9395 46.4306C42.7807 45.5893 43.2552 44.4496 43.2595 43.2599V38.4138C43.2687 38.3606 43.2672 38.3062 43.255 38.2537C43.2428 38.2012 43.2203 38.1516 43.1887 38.108C43.1571 38.0643 43.117 38.0274 43.0709 37.9995C43.0248 37.9716 42.9736 37.9531 42.9203 37.9453Z" fill="#467637"/>
</svg>
