<svg width="190" height="52" viewBox="0 0 190 52" fill="none" xmlns="http://www.w3.org/2000/svg">
<g clip-path="url(#clip0)">
<path d="M70.8598 35.4903V40.184C70.8598 41.5729 70.2299 42.435 68.8249 42.435C67.4199 42.435 66.79 41.525 66.79 40.184V39.2261H67.759V40.2798C67.759 41.094 68.0982 41.5729 68.8249 41.5729C69.5516 41.5729 69.8908 41.094 69.8908 40.2798V38.1724H68.292V37.2624H69.8908V35.4424C69.8908 34.6282 69.5516 34.1492 68.8249 34.1492C68.0982 34.1492 67.759 34.6282 67.759 35.4424V36.1608H66.8385V35.4903C66.8385 34.1013 67.4683 33.2392 68.8734 33.2392C70.1815 33.1913 70.8598 34.1013 70.8598 35.4903Z" fill="#0B1A0D"/>
<path d="M73.379 38.4116L72.846 39.3216V42.339H71.8286V33.2869H72.846V37.6453L75.2685 33.2869H76.2859L73.9604 37.4058L76.3344 42.339H75.2685L73.379 38.4116Z" fill="#0B1A0D"/>
<path d="M77.061 35.4899C77.061 34.101 77.7393 33.2389 79.1443 33.2389C80.5494 33.2389 81.2277 34.1489 81.2277 35.4899V40.1836C81.2277 41.5726 80.5494 42.4347 79.1443 42.4347C77.7393 42.4347 77.061 41.5247 77.061 40.1836V35.4899ZM78.0785 40.1836C78.0785 40.9978 78.4176 41.4768 79.1443 41.4768C79.8711 41.4768 80.2102 40.9978 80.2102 40.1836V35.442C80.2102 34.6278 79.8711 34.1489 79.1443 34.1489C78.4176 34.1489 78.0785 34.6278 78.0785 35.442V40.1836Z" fill="#0B1A0D"/>
<path d="M84.1832 34.1969L83.9895 40.0879C83.941 41.5248 83.5534 42.339 82.1484 42.339H81.9546V41.429C82.8267 41.429 82.9236 40.9979 82.972 40.1358L83.2143 33.2869H86.9448V42.339H85.9274V34.1969H84.1832Z" fill="#0B1A0D"/>
<path d="M87.9624 35.4899C87.9624 34.101 88.6407 33.2389 90.0457 33.2389C91.4507 33.2389 92.129 34.1489 92.129 35.4899V40.1836C92.129 41.5726 91.4507 42.4347 90.0457 42.4347C88.6407 42.4347 87.9624 41.5247 87.9624 40.1836V35.4899ZM88.9798 40.1836C88.9798 40.9978 89.319 41.4768 90.0457 41.4768C90.7724 41.4768 91.1116 40.9978 91.1116 40.1836V35.442C91.1116 34.6278 90.7724 34.1489 90.0457 34.1489C89.319 34.1489 88.9798 34.6278 88.9798 35.442V40.1836Z" fill="#0B1A0D"/>
<path d="M94.1639 34.1969V42.339H93.1465V33.2869H96.7802V34.1969H94.1639Z" fill="#0B1A0D"/>
<path d="M100.171 38.1721L98.8149 42.339H97.749V33.2869H98.6696V40.04L99.4932 37.5495L100.947 33.2869H102.061V42.339H101.14V35.1548L100.171 38.1721Z" fill="#0B1A0D"/>
<path d="M106.276 38.3158C105.937 38.7948 105.404 39.0342 104.871 39.0342C103.66 39.0342 103.079 38.1242 103.079 36.879V33.2869H104.096V36.8311C104.096 37.5974 104.484 38.1242 105.21 38.1242C105.84 38.1242 106.179 37.7411 106.325 37.0705V33.2869H107.342V42.339H106.325V38.3158H106.276Z" fill="#0B1A0D"/>
<path d="M109.377 38.2679V42.339H108.359V33.2869H109.377V37.3579H111.605V33.2869H112.623V42.339H111.605V38.2679H109.377Z" fill="#0B1A0D"/>
<path d="M113.592 35.4899C113.592 34.101 114.27 33.2389 115.675 33.2389C117.08 33.2389 117.758 34.1489 117.758 35.4899V40.1836C117.758 41.5726 117.08 42.4347 115.675 42.4347C114.27 42.4347 113.592 41.5247 113.592 40.1836V35.4899ZM114.609 40.1836C114.609 40.9978 114.948 41.4768 115.675 41.4768C116.402 41.4768 116.741 40.9978 116.741 40.1836V35.442C116.741 34.6278 116.402 34.1489 115.675 34.1489C114.948 34.1489 114.609 34.6278 114.609 35.442V40.1836Z" fill="#0B1A0D"/>
<path d="M122.022 37.31V38.22H119.793V41.429H122.555V42.339H118.776V33.2869H122.555V34.1969H119.793V37.2621H122.022V37.31Z" fill="#0B1A0D"/>
<path d="M129.532 35.49V36.3042H128.563V35.4421C128.563 34.6279 128.224 34.1489 127.497 34.1489C126.77 34.1489 126.431 34.6279 126.431 35.4421V40.2316C126.431 41.0458 126.77 41.5247 127.497 41.5247C128.224 41.5247 128.563 41.0458 128.563 40.2316V39.0342H129.532V40.1358C129.532 41.5247 128.902 42.3868 127.448 42.3868C126.043 42.3868 125.414 41.4768 125.414 40.1358V35.4421C125.414 34.0531 126.043 33.191 127.448 33.191C128.853 33.191 129.532 34.101 129.532 35.49Z" fill="#0B1A0D"/>
<path d="M131.857 42.339V34.1969H130.162V33.2869H134.57V34.1969H132.875V42.339H131.857Z" fill="#0B1A0D"/>
<path d="M137.332 33.2869C138.786 33.2869 139.367 34.149 139.367 35.49V36.5916C139.367 38.0284 138.689 38.7948 137.235 38.7948H136.315V42.339H135.297V33.2869H137.332ZM137.235 37.8848C138.011 37.8848 138.35 37.5495 138.35 36.6874V35.4421C138.35 34.6279 138.059 34.1969 137.284 34.1969H136.315V37.8369H137.235V37.8848Z" fill="#0B1A0D"/>
<path d="M140.094 35.4899C140.094 34.101 140.772 33.2389 142.177 33.2389C143.582 33.2389 144.26 34.1489 144.26 35.4899V40.1836C144.26 41.5726 143.582 42.4347 142.177 42.4347C140.772 42.4347 140.094 41.5247 140.094 40.1836V35.4899ZM141.063 40.1836C141.063 40.9978 141.402 41.4768 142.129 41.4768C142.855 41.4768 143.195 40.9978 143.195 40.1836V35.442C143.195 34.6278 142.855 34.1489 142.129 34.1489C141.402 34.1489 141.063 34.6278 141.063 35.442V40.1836Z" fill="#0B1A0D"/>
<path d="M147.651 38.1721L146.295 42.339H145.229V33.2869H146.15V40.04L146.973 37.5495L148.427 33.2869H149.541V42.339H148.62V35.1548L147.651 38.1721Z" fill="#0B1A0D"/>
<path d="M151.964 42.339V34.1969H150.268V33.2869H154.677V34.1969H152.981V42.339H151.964Z" fill="#0B1A0D"/>
<path d="M158.698 37.31V38.22H156.47V41.429H159.231V42.339H155.452V33.2869H159.231V34.1969H156.47V37.2621H158.698V37.31Z" fill="#0B1A0D"/>
<path d="M162.089 34.1969L161.896 40.0879C161.847 41.5248 161.46 42.339 160.055 42.339H159.909V41.429C160.781 41.429 160.878 40.9979 160.927 40.1358L161.169 33.2869H164.899V42.339H163.882V34.1969H162.089Z" fill="#0B1A0D"/>
<path d="M167.855 36.879C169.308 36.879 169.987 37.6453 169.987 39.0821V40.1837C169.987 41.5727 169.357 42.3869 167.952 42.3869H165.965V33.2869H166.983V36.879H167.855ZM167.952 41.429C168.678 41.429 169.018 40.9979 169.018 40.1837V38.9863C169.018 38.1242 168.63 37.789 167.903 37.789H166.983V41.429H167.952Z" fill="#0B1A0D"/>
<path d="M174.977 35.49V36.3042H174.008V35.4421C174.008 34.6279 173.669 34.1489 172.942 34.1489C172.215 34.1489 171.876 34.6279 171.876 35.4421V40.2316C171.876 41.0458 172.215 41.5247 172.942 41.5247C173.669 41.5247 174.008 41.0458 174.008 40.2316V39.0342H174.977V40.1358C174.977 41.5247 174.347 42.3868 172.894 42.3868C171.489 42.3868 170.859 41.4768 170.859 40.1358V35.4421C170.859 34.0531 171.489 33.191 172.894 33.191C174.299 33.191 174.977 34.101 174.977 35.49Z" fill="#0B1A0D"/>
<path d="M177.303 42.339V34.1969H175.607V33.2869H180.016V34.1969H178.32V42.339H177.303Z" fill="#0B1A0D"/>
<path d="M182.777 33.2869C184.182 33.2869 184.763 33.9574 184.763 35.2984V35.7295C184.763 36.6874 184.473 37.2621 183.698 37.5016C184.57 37.7411 184.909 38.4595 184.909 39.4174V40.2316C184.909 41.5727 184.231 42.339 182.825 42.339H180.742V33.2869H182.777ZM182.535 37.1184C183.358 37.1184 183.746 36.879 183.746 35.9211V35.3942C183.746 34.58 183.455 34.1969 182.729 34.1969H181.711V37.1184H182.535ZM182.825 41.429C183.552 41.429 183.891 41.0458 183.891 40.1837V39.3695C183.891 38.3637 183.504 38.0284 182.632 38.0284H181.76V41.3811H182.825V41.429Z" fill="#0B1A0D"/>
<path d="M185.781 35.4899C185.781 34.101 186.46 33.2389 187.865 33.2389C189.27 33.2389 189.948 34.1489 189.948 35.4899V40.1836C189.948 41.5726 189.27 42.4347 187.865 42.4347C186.46 42.4347 185.781 41.5247 185.781 40.1836V35.4899ZM186.799 40.1836C186.799 40.9978 187.138 41.4768 187.865 41.4768C188.591 41.4768 188.93 40.9978 188.93 40.1836V35.442C188.93 34.6278 188.591 34.1489 187.865 34.1489C187.138 34.1489 186.799 34.6278 186.799 35.442V40.1836Z" fill="#0B1A0D"/>
<path d="M66.7412 25.7194V11.4468H76.0919V13.2189H68.8245V25.7194H66.7412Z" fill="#04260E"/>
<path d="M77.8843 25.7194V11.4468H84.861C88.0101 11.4468 88.9307 13.602 88.9307 16.2363C88.9307 18.5831 87.8164 20.7384 84.9579 20.7384H79.9676V25.7194H77.8843ZM84.4734 18.9663C85.8784 18.9663 86.6051 17.9126 86.6051 16.1884C86.6051 14.2726 85.8784 13.2189 84.5703 13.2189H79.9676V18.9663H84.4734Z" fill="#04260E"/>
<path d="M103.223 25.7194H101.14V14.512C99.0569 18.2957 96.7313 22.2231 94.3573 25.7194H91.5957V11.4468H93.679V23.181C96.1984 19.3015 98.5724 15.3263 100.704 11.4468H103.272V25.7194H103.223Z" fill="#04260E"/>
<path d="M109.231 25.7194H107.148V11.4468H109.231V17.1463H116.159V11.4468H118.243V25.7194H116.159V19.062H109.231V25.7194Z" fill="#04260E"/>
<path d="M129.58 11.1116C130.888 11.1116 132.584 11.351 133.65 11.6384L133.117 13.5063C132.293 13.2189 130.84 13.0274 129.822 13.0274C126.431 13.0274 125.171 13.6979 125.171 18.4874C125.171 23.2768 126.431 24.091 129.822 24.091C130.888 24.091 132.293 23.8995 133.117 23.6121L133.65 25.48C132.535 25.8153 130.888 26.0068 129.58 26.0068C125.026 26.0068 122.894 24.2826 122.894 18.4395C122.894 12.5963 125.074 11.1116 129.58 11.1116Z" fill="#257134"/>
<path d="M139.706 25.7195V13.219H134.764V11.4469H146.78V13.219H141.838V25.7195H139.706Z" fill="#257134"/>
<path d="M148.814 25.7195V11.4469H155.791C158.94 11.4469 159.861 13.6022 159.861 16.2364C159.861 18.5832 158.747 20.7385 155.888 20.7385H150.946V25.7195H148.814ZM155.404 18.9664C156.809 18.9664 157.535 17.9127 157.535 16.1885C157.535 14.2727 156.809 13.219 155.5 13.219H150.946V18.9664H155.404Z" fill="#257134"/>
<path d="M175.171 18.4874C175.171 24.3784 173.039 26.0068 168.485 26.0068C163.931 26.0068 161.799 24.3784 161.799 18.4874C161.799 12.6921 163.979 11.1116 168.485 11.1116C172.991 11.1116 175.171 12.6921 175.171 18.4874ZM172.942 18.5353C172.942 13.7458 171.925 12.9316 168.485 12.9316C165.045 12.9316 164.076 13.7458 164.076 18.5353C164.076 23.181 165.093 24.1389 168.485 24.1389C171.925 24.1389 172.942 23.1331 172.942 18.5353Z" fill="#257134"/>
<path d="M189.996 25.7195H187.913V14.5121C185.829 18.2958 183.504 22.2232 181.13 25.7195H178.32V11.4468H180.403V23.1811C182.922 19.3016 185.296 15.3263 187.428 11.4468H189.996V25.7195ZM182.729 7.85474C182.729 8.90842 183.213 9.14789 184.231 9.14789C185.2 9.14789 185.733 8.90842 185.733 7.85474H187.089C187.089 9.72263 186.072 10.5368 184.182 10.5368C182.293 10.5368 181.275 9.67474 181.275 7.85474H182.729Z" fill="#257134"/>
<path d="M31.1314 14.2726C30.7922 12.1653 30.55 10.2495 30.2593 8.33368C30.2108 8.33368 30.1624 8.33368 30.1139 8.33368C29.7748 10.2495 29.4357 12.1653 29.0965 14.1289C25.9958 13.3147 24.5908 10.5368 25.4144 7.04053C26.0927 4.16684 27.8368 2.01158 30.0655 0C33.1178 2.58632 35.2496 5.60368 34.9589 9.67474C34.862 11.83 33.6023 13.4105 31.1314 14.2726Z" fill="#257134"/>
<path d="M16.4996 18.679C15.5306 17.6732 14.707 16.8111 13.6411 15.6616C14.271 17.0984 14.707 18.2 15.1915 19.3974C13.6411 19.9242 12.4299 19.5411 11.5094 18.4874C9.52296 16.1884 9.66831 13.5542 10.4435 10.6805C13.2051 11.1595 15.6275 12.0695 16.9841 14.56C17.7109 15.9011 17.614 17.29 16.4996 18.679Z" fill="#257134"/>
<path d="M44.9393 19.4931C45.5207 18.1521 46.0537 16.9547 46.6835 15.5179C45.5692 16.7152 44.6971 17.6252 43.7281 18.6789C42.7107 17.5773 42.42 16.4279 42.9529 15.1826C44.1642 12.261 46.6835 11.3031 49.6874 10.7284C50.6563 13.3626 50.6079 15.8531 49.0091 18.1521C48.0885 19.3973 46.8289 19.8284 44.9393 19.4931Z" fill="#257134"/>
<path d="M49.3971 29.4553C50.5114 25.8632 55.5017 25.9111 59.2322 30.0779C57.5365 32.0895 55.5501 33.5263 52.6916 33.4306C51.1412 33.3827 50.0269 32.6163 49.3486 30.94C50.7052 30.6527 51.9649 30.4132 53.3215 30.1737C51.9649 29.9342 50.7052 29.7427 49.3971 29.4553Z" fill="#257134"/>
<path d="M10.8312 29.4553C9.47458 29.6947 8.2149 29.9342 6.80988 30.1737C8.16645 30.4132 9.42613 30.6526 10.7343 30.8921C10.4436 32.3768 9.52303 33.1432 8.26335 33.3347C5.21106 33.8137 3.03085 32.3768 1.04443 30.1258C2.83705 28.0663 4.92036 26.6774 7.73041 26.8689C9.13544 26.9647 10.2982 27.731 10.8312 29.4553Z" fill="#257134"/>
<path d="M39.0286 13.8894C39.0286 12.8836 39.0286 11.9736 39.0286 10.5847C38.4472 11.782 38.0596 12.6441 37.672 13.5062C36.4608 13.0273 35.9763 12.0694 36.0248 11.0157C36.0732 8.23783 37.9143 6.6573 40.1914 5.22046C41.7418 7.18414 42.5654 9.29151 41.7902 11.782C41.3542 13.0752 40.4821 13.7936 39.0286 13.8894Z" fill="#257134"/>
<path d="M21.0539 10.441C21.1508 11.7821 21.2477 12.8358 21.2962 13.9373C19.8427 13.8415 18.9221 13.171 18.4861 12.0215C17.614 9.57892 18.3408 7.42365 19.8911 5.31628C22.0713 6.46576 23.7671 7.95049 24.1547 10.441C24.3484 11.7342 23.864 12.7879 22.5558 13.5542C22.1198 12.6442 21.6837 11.6863 21.0539 10.441Z" fill="#257134"/>
<path d="M10.589 22.9415C9.95916 22.7021 9.47467 22.5105 8.79638 22.2231C9.32932 22.8457 9.66847 23.2768 10.0561 23.7557C7.7305 24.9052 5.84099 23.2289 5.55029 19.9721C8.84483 19.1578 11.1219 20.4031 10.589 22.9415Z" fill="#257134"/>
<path d="M54.5324 19.9243C54.6293 22.9416 52.4491 24.9053 50.1236 23.7559C50.5112 23.2769 50.8988 22.8459 51.4317 22.2711C50.705 22.5106 50.1236 22.7022 49.5422 22.9416C49.2515 20.3553 51.2863 19.2059 54.5324 19.9243Z" fill="#257134"/>
<path d="M38.7865 17.6252C38.2536 17.7689 37.9144 17.8647 37.5269 17.9605C37.2362 15.7094 39.0288 14.7037 41.9357 15.3742C41.7419 18.2479 40.1431 19.6847 38.1082 18.7268C38.2536 18.3915 38.4474 18.1042 38.7865 17.6252Z" fill="#257134"/>
<path d="M22.7014 17.9605C22.2169 17.769 21.7808 17.6253 21.0541 17.3379C21.5386 17.8648 21.8293 18.2479 22.1684 18.5832C20.2789 19.7326 18.4378 18.2 18.2925 15.3742C20.9572 14.6079 22.992 15.7095 22.7014 17.9605Z" fill="#257134"/>
<path d="M46.6354 33.9095C46.3932 33.5263 46.1994 33.2389 46.054 32.9037C47.992 31.9937 49.5908 33.4305 49.6877 36.0647C47.3137 36.879 45.5211 35.9211 45.4727 33.7179C45.8118 33.7658 46.1994 33.8137 46.6354 33.9095Z" fill="#257134"/>
<path d="M14.2229 32.8558C13.9322 33.239 13.7384 33.5742 13.3992 34.0053C13.9322 33.8616 14.2713 33.7658 14.9012 33.5742C14.8043 34.149 14.8043 34.58 14.6589 34.9153C14.0291 36.2084 12.188 36.6874 10.4438 36.0169C10.8314 33.2869 12.0911 32.1374 14.2229 32.8558Z" fill="#257134"/>
<path d="M16.2092 23.6121C15.8216 23.6121 15.5309 23.6121 15.1433 23.6121C15.3856 23.8995 15.5794 24.0911 15.8701 24.4263C15.5309 24.57 15.2887 24.7616 14.998 24.7616C13.4961 24.8095 12.9147 23.8037 12.4302 22.6542C14.0774 21.4568 15.4825 21.7442 16.2092 23.6121Z" fill="#257134"/>
<path d="M45.5209 7.66321C46.0538 9.00426 46.2961 10.1537 44.9395 10.8243C44.6488 10.9679 43.6314 10.4411 43.5829 10.1058C43.2922 8.71689 44.4066 8.23794 45.5209 7.66321Z" fill="#257134"/>
<path d="M15.0465 8.04626C14.5135 9.38732 14.2713 10.5368 15.5794 11.2073C15.8701 11.351 16.8875 10.8242 16.936 10.4889C17.2751 9.14784 16.1608 8.6689 15.0465 8.04626Z" fill="#257134"/>
<path d="M29.1933 24.4264C29.8231 24.2827 30.2591 24.3785 30.6952 24.618C31.5673 25.0969 31.8095 25.049 32.294 24.139C34.1835 20.499 39.8036 19.3016 43.292 22.7979C45.3268 24.8574 45.8598 27.9706 44.6001 30.509C43.3404 33.1432 40.6272 34.6758 37.6719 34.4364C35.3947 34.2448 33.5537 33.239 32.3909 31.2274C32.0518 30.6527 31.6157 30.4132 30.9374 30.4132C26.141 30.4611 21.3445 30.4611 16.4996 30.509C16.112 30.509 15.7729 30.4132 15.5306 30.1258C15.143 29.6948 14.7554 29.3116 14.3194 28.9285C14.0771 28.689 14.0771 28.5453 14.3194 28.3058C15.0461 27.6353 15.7244 26.9169 16.4027 26.2464C16.6934 25.959 16.9356 25.9111 17.2263 26.2464C17.4686 26.4858 17.7108 26.4858 17.9531 26.2464C18.3407 25.959 19.0189 25.9111 19.4065 26.1985C19.7941 26.4858 20.0848 26.4858 20.424 26.1506C20.5209 26.0548 20.7631 26.0069 20.9085 26.0069C21.9743 25.8632 22.9918 26.1027 23.8154 26.8211C24.2514 27.2043 24.6875 27.2522 25.0751 26.8211C25.172 26.7253 25.3173 26.6774 25.4142 26.5816C25.7049 26.3422 25.9472 26.3422 26.2863 26.5337C27.1584 26.9648 26.9646 26.869 27.5944 26.3901C28.0305 26.0069 28.5634 25.7195 29.0479 25.3843C29.1448 25.2885 29.2417 25.1448 29.2902 25.0011C29.2902 24.8574 29.2417 24.618 29.1933 24.4264ZM41.8869 28.8327C42.5652 28.1622 42.6137 27.1085 41.9354 26.3901C41.2571 25.7195 40.1428 25.7195 39.4645 26.3422C38.7862 27.0127 38.7377 28.1143 39.416 28.7848C40.1428 29.5032 41.2086 29.5032 41.8869 28.8327ZM15.2399 28.4495C15.3368 28.4495 15.3853 28.4974 15.4822 28.4974C20.424 28.4974 25.3658 28.4495 30.3076 28.4016C30.4529 28.4016 30.5983 28.2101 30.7921 28.1143C30.6467 28.0185 30.4529 27.8748 30.3076 27.8748C25.608 27.8748 20.86 27.9227 16.1604 27.9227C15.676 27.9227 15.4337 28.0664 15.2399 28.4495Z" fill="#04260E"/>
<path d="M40.8698 40.4232C40.0462 40.2795 39.1741 40.0879 38.2535 39.9442C39.6586 39.4174 40.9182 38.6989 42.3717 38.5553C42.9047 38.5074 43.4376 38.5074 43.8252 39.0821C44.2128 38.8905 44.6004 38.6511 44.988 38.4595C45.424 38.2679 45.8601 38.0763 46.2961 37.8847C47.0228 37.6453 47.7011 37.7411 48.1856 38.3637C48.3794 38.6032 48.5732 38.6032 48.8154 38.5074C49.3968 38.2679 49.9782 38.1242 50.6081 38.3158C51.3348 38.5553 51.7224 39.13 51.577 39.8963C51.577 40.04 51.5286 40.1837 51.5286 40.3274C51.6255 41.2374 51.1894 41.9079 50.4627 42.3868C50.2689 42.5305 50.0751 42.6742 49.9298 42.8179C48.2825 44.59 46.2476 45.8832 44.1643 47.0326C42.5171 47.9905 40.676 48.6611 38.8834 49.3316C37.2361 50.0021 35.5404 50.529 33.8447 51.0558C32.9726 51.3432 32.0521 51.4868 31.1315 51.5826C30.6955 51.6305 30.2594 51.4869 29.8234 51.439C28.5153 51.1995 27.1587 51.0079 25.899 50.6247C24.3002 50.1458 22.7498 49.619 21.2479 48.9963C17.9049 47.6553 14.7073 47.8468 11.655 49.9063C11.6065 49.9542 11.5581 49.9542 11.4612 50.0021C11.1705 49.3795 10.8798 48.8047 10.5891 48.23C9.81391 46.4579 9.03873 44.7337 8.69958 42.8179C8.36044 40.9979 8.89338 39.9442 10.6375 39.1779C12.091 38.5553 13.5929 37.9326 15.0464 37.3579C17.2751 36.4479 19.5037 36.5437 21.7324 37.2621C23.525 37.8368 25.3176 38.5074 27.0133 39.2737C29.6296 40.4711 32.2459 40.6626 35.0559 40.2316C37.1392 39.8963 39.2225 40.2316 41.1605 41.0937C41.7903 41.3811 42.3233 41.86 42.4686 42.5784C42.6624 43.5842 42.2264 44.2547 41.2574 44.4463C40.1431 44.6379 38.9803 44.6379 37.9628 44.9732C35.7342 45.6916 33.4086 45.7874 31.0831 45.8832C29.8718 45.9311 28.7575 46.1226 27.5947 46.5537C26.9164 46.7932 26.1897 46.9847 25.5114 47.2242C25.9475 47.1763 26.432 47.1763 26.868 47.0326C28.9029 46.3621 30.9862 46.3621 33.0695 46.3621C34.6199 46.3621 36.1218 46.2663 37.6237 45.7874C38.7865 45.4042 40.0462 45.3563 41.2574 45.1647C42.8078 44.9253 43.6314 43.5363 42.9531 42.0995C42.614 41.3811 42.0326 40.9021 41.3543 40.5668C41.1605 40.6147 41.0151 40.5189 40.8698 40.4232C41.3543 40.2316 41.8872 39.9921 42.3717 39.8005C42.7593 39.6568 43.0984 39.4653 43.486 39.2737C42.7593 39.2737 41.3058 39.9442 40.8698 40.4232ZM43.4376 42.77C43.4376 42.8179 43.486 42.8658 43.486 42.9137C44.019 42.6742 44.5519 42.5305 45.0364 42.2432C46.0054 41.6684 46.9744 41.0458 47.8949 40.4232C48.767 39.8484 49.6875 39.5132 50.7534 39.9921C50.7534 39.9921 50.8019 39.9921 50.8503 39.9442C50.2689 39.4174 49.1546 39.2258 48.331 39.7526C47.3135 40.4232 46.1023 40.8542 45.2302 41.7642C45.0849 41.9558 44.7942 42.0516 44.6004 42.1474C44.2612 42.3868 43.8252 42.5784 43.4376 42.77ZM42.9047 41.3811C42.9047 41.4289 42.9531 41.4768 42.9531 41.5247C43.8736 41.1416 44.7457 40.7584 45.6663 40.3753C46.5868 39.9921 47.7496 39.2258 48.0887 38.7468C46.3445 39.6568 44.6004 40.5189 42.9047 41.3811Z" fill="#257134"/>
</g>
<defs>
<clipPath id="clip0">
<rect width="189" height="51.7263" fill="white" transform="translate(0.996094)"/>
</clipPath>
</defs>
</svg>
