<svg width="110" height="110" viewBox="0 0 110 110" fill="none" xmlns="http://www.w3.org/2000/svg">
<path d="M55 0C24.6247 0 0 24.6243 0 55C0 85.3757 24.6247 110 55 110C85.3753 110 110 85.3757 110 55C110 24.6243 85.3753 0 55 0ZM74.0094 57.9154L46.5094 75.1029C45.9529 75.4503 45.3202 75.625 44.6875 75.625C44.1143 75.625 43.5402 75.4823 43.0207 75.1936C41.928 74.5877 41.25 73.4379 41.25 72.1875V37.8125C41.25 36.5621 41.928 35.4123 43.0207 34.8064C44.1134 34.1971 45.4496 34.2341 46.5094 34.8971L74.0094 52.0846C75.014 52.7141 75.625 53.8151 75.625 55C75.625 56.1849 75.014 57.2862 74.0094 57.9154Z" fill="#284A2E"/>
</svg>
