<svg width="35" height="35" viewBox="0 0 35 35" fill="none" xmlns="http://www.w3.org/2000/svg">
<rect width="35" height="35" fill="#E89714"/>
<path fill-rule="evenodd" clip-rule="evenodd" d="M23.8887 12.0216C24.832 13.5914 25.6177 15.2507 26.2344 16.9753L23.1788 18.6728C23.1596 18.6823 23.1385 18.6873 23.1171 18.6873C23.0957 18.6873 23.0745 18.6823 23.0553 18.6728L22.4689 17.3148V28.6419C22.4514 28.7129 22.4148 28.7777 22.3631 28.8293C22.3115 28.881 22.2467 28.9176 22.1757 28.9351C22.1586 28.9423 22.1403 28.9461 22.1217 28.9461C22.1032 28.9461 22.0848 28.9423 22.0677 28.9351H11.8979C11.8071 28.9306 11.7202 28.8965 11.6505 28.838C11.5808 28.7795 11.5322 28.6998 11.5121 28.6111C11.5049 28.594 11.5012 28.5756 11.5012 28.557C11.5012 28.5385 11.5049 28.5201 11.5121 28.503V17.3765L10.9257 18.7345C10.9065 18.744 10.8854 18.749 10.864 18.749C10.8426 18.749 10.8215 18.744 10.8023 18.7345L7.85474 16.8518C8.47141 15.1273 9.25713 13.468 10.2004 11.8981C11.5379 11.2422 12.9537 10.7599 14.4134 10.4629L16.9751 9.25921V7.82402C16.9669 7.80719 16.9627 7.78872 16.9627 7.77001C16.9627 7.75129 16.9669 7.73282 16.9751 7.716C16.9939 7.70516 17.0152 7.69946 17.0368 7.69946C17.0585 7.69946 17.0798 7.70516 17.0986 7.716C17.3638 7.78921 17.6448 7.78198 17.906 7.69523C18.1671 7.60848 18.3966 7.4461 18.5653 7.22872C18.734 7.01133 18.8344 6.74873 18.8536 6.47423C18.8728 6.19972 18.8101 5.9257 18.6733 5.68691C18.5366 5.44813 18.332 5.25535 18.0855 5.13303C17.839 5.01072 17.5617 4.96438 17.2888 4.9999C17.0159 5.03543 16.7598 5.1512 16.5528 5.33255C16.3458 5.51389 16.1974 5.75263 16.1263 6.01847C16.1228 6.03494 16.1158 6.05052 16.106 6.06422C16.0962 6.07792 16.0837 6.08947 16.0692 6.09815C16.0547 6.10682 16.0387 6.11244 16.0219 6.11466C16.0052 6.11688 15.9882 6.11566 15.972 6.11106C15.9555 6.10748 15.94 6.10057 15.9263 6.09074C15.9126 6.08092 15.901 6.06839 15.8923 6.05393C15.8837 6.03947 15.878 6.02338 15.8758 6.00667C15.8736 5.98995 15.8748 5.97296 15.8794 5.95674C15.9948 5.53979 16.2707 5.18553 16.6467 4.97151C17.0227 4.75749 17.4682 4.70113 17.8856 4.81476C18.2646 4.92189 18.5922 5.16214 18.8083 5.4914C19.0243 5.82066 19.1144 6.21682 19.0618 6.60712C19.0093 6.99743 18.8177 7.35568 18.5222 7.61608C18.2268 7.87648 17.8473 8.02154 17.4535 8.02464H17.1757V9.25921L19.6757 10.5864C21.1354 10.8833 22.5512 11.3656 23.8887 12.0216ZM23.1479 18.1327L23.2868 18.4413L25.8949 16.8672L25.7868 16.5894L23.1479 18.1327ZM19.3362 10.5709L16.9751 9.50612L14.7375 10.5709C14.7375 10.9413 15.1695 12.1141 17.0368 12.1141C18.9041 12.1141 19.3362 10.9876 19.3362 10.5709ZM8.16338 16.8672L10.8023 18.4104L10.9103 18.1327L8.2714 16.5894L8.16338 16.8672ZM11.9751 28.5802H22.0677C22.0822 28.6094 22.1066 28.6325 22.1365 28.6455C22.1664 28.6585 22.1999 28.6606 22.2312 28.6514C22.2625 28.6422 22.2895 28.6223 22.3076 28.5952C22.3256 28.5681 22.3336 28.5354 22.33 28.503V16.6049H22.4844L23.0553 17.9166L25.7097 16.3734C25.1933 14.9064 24.5207 13.4991 23.7035 12.1759C22.3974 11.5498 21.0185 11.0884 19.5986 10.8024C19.4905 11.5277 18.7652 12.4999 17.0214 12.4999C15.2776 12.4999 14.5523 11.5277 14.4442 10.8024C13.0271 11.0689 11.6483 11.5095 10.3393 12.1141C9.56413 13.4423 8.93298 14.8495 8.45659 16.3117L11.1109 17.8549L11.6819 16.5432H11.8362V28.4413C11.8362 28.4781 11.8508 28.5135 11.8769 28.5395C11.9029 28.5656 11.9383 28.5802 11.9751 28.5802ZM12.2535 28.0093H21.7751C21.814 28.0093 21.8513 28.0247 21.8788 28.0522C21.9063 28.0797 21.9217 28.117 21.9217 28.1559C21.9217 28.1948 21.9063 28.2321 21.8788 28.2595C21.8513 28.287 21.814 28.3025 21.7751 28.3025H12.2535C12.2147 28.3025 12.1774 28.287 12.1499 28.2595C12.1224 28.2321 12.1069 28.1948 12.1069 28.1559C12.1069 28.117 12.1224 28.0797 12.1499 28.0522C12.1774 28.0247 12.2147 28.0093 12.2535 28.0093Z" fill="white"/>
</svg>
