<svg width="35" height="35" viewBox="0 0 35 35" fill="none" xmlns="http://www.w3.org/2000/svg">
<rect width="35" height="35" fill="#12234C"/>
<path d="M28.4257 14.9225V14.7836L24.9226 12.0521V9.22801C24.9226 8.93741 24.8071 8.65872 24.6017 8.45325C24.3962 8.24777 24.1175 8.13234 23.8269 8.13234H19.7374L18.1942 6.89777C18.0045 6.7501 17.771 6.66992 17.5306 6.66992C17.2902 6.66992 17.0567 6.7501 16.867 6.89777L15.3238 8.13234H11.296C11.0054 8.13234 10.7267 8.24777 10.5213 8.45325C10.3158 8.65872 10.2004 8.93741 10.2004 9.22801V12.0521L6.69727 14.7836V14.9225V27.2681C6.69727 27.5019 6.77307 27.7293 6.91331 27.9163C6.99589 28.0625 7.11142 28.1874 7.25071 28.2812C7.39001 28.3749 7.54925 28.4349 7.71578 28.4564H27.3454C27.5129 28.4552 27.6779 28.4157 27.8277 28.3408C27.9775 28.2659 28.1082 28.1576 28.2096 28.0243C28.3498 27.8373 28.4257 27.6099 28.4257 27.3762V15.0305V14.9225ZM17.2683 7.36074C17.3302 7.31318 17.4062 7.28741 17.4843 7.28741C17.5624 7.28741 17.6384 7.31318 17.7003 7.36074L18.5491 8.00888H16.4349L17.2683 7.36074ZM7.71578 27.7002L17.2528 20.2928C17.3148 20.2453 17.3907 20.2195 17.4689 20.2195C17.547 20.2195 17.6229 20.2453 17.6849 20.2928L27.222 27.7002H7.71578ZM27.7775 27.1292L18.2405 19.7218C18.0508 19.5742 17.8173 19.494 17.5769 19.494C17.3365 19.494 17.103 19.5742 16.9133 19.7218L7.37628 27.1292V15.4935L13.3485 20.1231C13.384 20.165 13.4285 20.1986 13.4786 20.2212C13.5287 20.2439 13.5832 20.2551 13.6382 20.254C13.6931 20.253 13.7472 20.2397 13.7964 20.2152C13.8456 20.1907 13.8887 20.1555 13.9226 20.1122C13.9566 20.0689 13.9804 20.0187 13.9925 19.965C14.0046 19.9114 14.0045 19.8557 13.9924 19.8021C13.9803 19.7484 13.9564 19.6982 13.9224 19.6549C13.8884 19.6117 13.8453 19.5766 13.796 19.5521L7.71578 14.8453L10.2775 12.8546V15.6786C10.2663 15.7325 10.2673 15.7882 10.2804 15.8416C10.2934 15.8951 10.3182 15.945 10.3529 15.9876C10.3876 16.0303 10.4314 16.0647 10.4811 16.0883C10.5308 16.112 10.5851 16.1242 10.6402 16.1242C10.6952 16.1242 10.7495 16.112 10.7992 16.0883C10.8489 16.0647 10.8927 16.0303 10.9274 15.9876C10.9621 15.945 10.9869 15.8951 11 15.8416C11.013 15.7882 11.014 15.7325 11.0028 15.6786V9.11999C11.0028 9.07136 11.0124 9.0232 11.031 8.97826C11.0496 8.93333 11.0769 8.89249 11.1113 8.8581C11.1457 8.82371 11.1865 8.79644 11.2315 8.77782C11.2764 8.75921 11.3246 8.74961 11.3732 8.74961H23.7189C23.7675 8.74961 23.8157 8.75921 23.8606 8.77782C23.9055 8.79644 23.9464 8.82371 23.9808 8.8581C24.0152 8.89249 24.0424 8.93333 24.061 8.97826C24.0797 9.0232 24.0892 9.07136 24.0892 9.11999V15.6786C24.0781 15.7325 24.079 15.7882 24.0921 15.8416C24.1051 15.8951 24.1299 15.945 24.1646 15.9876C24.1994 16.0303 24.2432 16.0647 24.2929 16.0883C24.3425 16.112 24.3969 16.1242 24.4519 16.1242C24.5069 16.1242 24.5612 16.112 24.6109 16.0883C24.6606 16.0647 24.7044 16.0303 24.7391 15.9876C24.7739 15.945 24.7987 15.8951 24.8117 15.8416C24.8247 15.7882 24.8257 15.7325 24.8145 15.6786V12.8546L27.3763 14.8453L21.296 19.5675C21.2468 19.592 21.2036 19.6271 21.1697 19.6704C21.1357 19.7136 21.1118 19.7639 21.0997 19.8175C21.0875 19.8711 21.0875 19.9268 21.0996 19.9804C21.1116 20.0341 21.1355 20.0844 21.1694 20.1276C21.2033 20.1709 21.2465 20.2061 21.2957 20.2306C21.3449 20.2552 21.3989 20.2684 21.4539 20.2695C21.5089 20.2705 21.5634 20.2593 21.6135 20.2367C21.6636 20.214 21.708 20.1805 21.7436 20.1385L27.7312 15.5089L27.7775 27.1292Z" fill="white"/>
</svg>
