<svg width="36" height="35" viewBox="0 0 36 35" fill="none" xmlns="http://www.w3.org/2000/svg">
<rect x="0.192383" width="35" height="35" fill="#3353A3"/>
<path fill-rule="evenodd" clip-rule="evenodd" d="M13.2174 7.02188H12.9705C12.9528 7.05864 12.9263 7.09045 12.8934 7.11447C12.8696 7.09144 12.8506 7.06386 12.8377 7.03337C12.8248 7.00288 12.8181 6.9701 12.8181 6.93699C12.8181 6.90387 12.8248 6.8711 12.8377 6.84061C12.8506 6.81012 12.8696 6.78256 12.8934 6.75954L13.881 5.77188C13.9311 5.75539 13.9852 5.75539 14.0353 5.77188H21.4119C21.4667 5.75182 21.5268 5.75182 21.5816 5.77188L22.5693 6.75954C22.5778 6.79504 22.5778 6.83204 22.5693 6.86755C22.5858 6.91767 22.5858 6.97176 22.5693 7.02188C22.5145 7.04194 22.4543 7.04194 22.3995 7.02188H22.1526V27.0836C22.1526 27.1491 22.1266 27.2119 22.0803 27.2582C22.034 27.3045 21.9712 27.3305 21.9057 27.3305C21.8402 27.3305 21.7774 27.3045 21.7311 27.2582C21.6848 27.2119 21.6588 27.1491 21.6588 27.0836V7.02188H13.7113V27.0836C13.7113 27.1491 13.6852 27.2119 13.6389 27.2582C13.5926 27.3045 13.5298 27.3305 13.4643 27.3305C13.3989 27.3305 13.3361 27.3045 13.2898 27.2582C13.2434 27.2119 13.2174 27.1491 13.2174 27.0836V7.02188ZM21.3193 6.03423H14.0662L13.5724 6.52804H21.8131L21.3193 6.03423ZM20.2079 10.8023C20.2079 10.7369 20.1818 10.674 20.1355 10.6277C20.0892 10.5814 20.0264 10.5554 19.9609 10.5554H18.6647V9.25913C18.6647 9.19364 18.6386 9.13083 18.5923 9.08452C18.546 9.03822 18.4832 9.01221 18.4177 9.01221H16.8745C16.809 9.01221 16.7462 9.03822 16.6999 9.08452C16.6536 9.13083 16.6276 9.19364 16.6276 9.25913V10.4937H15.3776C15.3323 10.4804 15.2841 10.4804 15.2387 10.4937C15.2254 10.539 15.2254 10.5872 15.2387 10.6326V12.1758C15.2387 12.2413 15.2647 12.3041 15.311 12.3504C15.3574 12.3967 15.4202 12.4227 15.4856 12.4227H16.7356V13.6573C16.7356 13.7228 16.7617 13.7856 16.808 13.8319C16.8543 13.8782 16.9171 13.9042 16.9826 13.9042H18.5258C18.5862 13.8909 18.6416 13.8606 18.6853 13.8168C18.7291 13.7731 18.7594 13.7177 18.7727 13.6573V12.4227H20.0227C20.0574 12.4246 20.092 12.4186 20.1241 12.4052C20.1561 12.3919 20.1848 12.3715 20.2079 12.3455V10.8023ZM18.464 12.0523C18.3985 12.0523 18.3357 12.0783 18.2894 12.1246C18.2431 12.171 18.2171 12.2338 18.2171 12.2993V13.5492H17.1214V12.2993C17.1214 12.2338 17.0954 12.171 17.0491 12.1246C17.0028 12.0783 16.94 12.0523 16.8745 12.0523H15.6245V11.0647H16.8745C16.9083 11.0647 16.9417 11.0579 16.9727 11.0445C17.0037 11.0312 17.0317 11.0116 17.0548 10.987C17.078 10.9624 17.0958 10.9333 17.1073 10.9016C17.1187 10.8698 17.1236 10.836 17.1214 10.8023V9.56776H18.1091V10.8023C18.1091 10.8678 18.1351 10.9306 18.1814 10.9769C18.2277 11.0232 18.2905 11.0493 18.356 11.0493H19.606V12.0369L18.464 12.0523ZM15.7021 27.1447C15.7021 27.2102 15.7282 27.273 15.7745 27.3193C15.8208 27.3656 15.8836 27.3916 15.9491 27.3916C16.0145 27.3916 16.0773 27.3656 16.1237 27.3193C16.17 27.273 16.196 27.2102 16.196 27.1447V23.4101H17.446V27.1447C17.446 27.2102 17.472 27.273 17.5183 27.3193C17.5646 27.3656 17.6274 27.3916 17.6929 27.3916C17.7584 27.3916 17.8212 27.3656 17.8675 27.3193C17.9138 27.273 17.9398 27.2102 17.9398 27.1447V23.4101H19.1898V27.1447C19.1898 27.2102 19.2158 27.273 19.2621 27.3193C19.3084 27.3656 19.3712 27.3916 19.4367 27.3916C19.5022 27.3916 19.565 27.3656 19.6113 27.3193C19.6576 27.273 19.6836 27.2102 19.6836 27.1447V23.1478C19.6836 23.0823 19.6576 23.0195 19.6113 22.9732C19.565 22.9269 19.5022 22.9009 19.4367 22.9009H15.9491C15.8836 22.9009 15.8208 22.9269 15.7745 22.9732C15.7282 23.0195 15.7021 23.0823 15.7021 23.1478V27.1447ZM12.1571 12.5567C12.2034 12.603 12.2294 12.6658 12.2294 12.7313V14.2745C12.2294 14.34 12.2034 14.4028 12.1571 14.4491C12.1108 14.4954 12.048 14.5214 11.9825 14.5214H10.4393C10.3738 14.5214 10.311 14.4954 10.2647 14.4491C10.2184 14.4028 10.1924 14.34 10.1924 14.2745V12.7313C10.1924 12.6658 10.2184 12.603 10.2647 12.5567C10.311 12.5104 10.3738 12.4844 10.4393 12.4844H11.9825C12.048 12.4844 12.1108 12.5104 12.1571 12.5567ZM10.7479 13.9813H11.7356V12.9936H10.7479V13.9813ZM12.2294 16.2191C12.2294 16.1536 12.2034 16.0908 12.1571 16.0445C12.1108 15.9982 12.048 15.9722 11.9825 15.9722H10.4393C10.3738 15.9722 10.311 15.9982 10.2647 16.0445C10.2184 16.0908 10.1924 16.1536 10.1924 16.2191V17.7623C10.1924 17.8278 10.2184 17.8906 10.2647 17.9369C10.311 17.9832 10.3738 18.0092 10.4393 18.0092H11.9825C12.048 18.0092 12.1108 17.9832 12.1571 17.9369C12.2034 17.8906 12.2294 17.8278 12.2294 17.7623V16.2191ZM11.7356 17.4691H10.7479V16.4814H11.7356V17.4691ZM12.1571 19.5167C12.2034 19.563 12.2294 19.6257 12.2294 19.6912V21.2344C12.2294 21.2999 12.2034 21.3627 12.1571 21.409C12.1108 21.4554 12.048 21.4814 11.9825 21.4814H10.4393C10.3738 21.4814 10.311 21.4554 10.2647 21.409C10.2184 21.3627 10.1924 21.2999 10.1924 21.2344V19.6912C10.1924 19.6257 10.2184 19.563 10.2647 19.5167C10.311 19.4703 10.3738 19.4443 10.4393 19.4443H11.9825C12.048 19.4443 12.1108 19.4703 12.1571 19.5167ZM10.7479 20.9413H11.7356V19.9382H10.7479V20.9413ZM11.9825 22.9321H10.4393C10.3738 22.9321 10.311 22.9581 10.2647 23.0044C10.2184 23.0507 10.1924 23.1136 10.1924 23.179V24.7223C10.1924 24.7877 10.2184 24.8505 10.2647 24.8968C10.311 24.9431 10.3738 24.9692 10.4393 24.9692H11.9825C12.048 24.9692 12.1108 24.9431 12.1571 24.8968C12.2034 24.8505 12.2294 24.7877 12.2294 24.7223V23.179C12.2294 23.1136 12.2034 23.0507 12.1571 23.0044C12.1108 22.9581 12.048 22.9321 11.9825 22.9321ZM11.7356 24.4753H10.7479V23.4877H11.7356V24.4753ZM25.0736 12.5567C25.1199 12.603 25.1459 12.6658 25.1459 12.7313V14.2745C25.1459 14.34 25.1199 14.4028 25.0736 14.4491C25.0273 14.4954 24.9645 14.5214 24.899 14.5214H23.3558C23.2903 14.5214 23.2275 14.4954 23.1812 14.4491C23.1349 14.4028 23.1089 14.34 23.1089 14.2745V12.7313C23.1089 12.6658 23.1349 12.603 23.1812 12.5567C23.2275 12.5104 23.2903 12.4844 23.3558 12.4844H24.899C24.9645 12.4844 25.0273 12.5104 25.0736 12.5567ZM23.6644 13.9813H24.6521V12.9936H23.6644V13.9813ZM25.1459 16.2191C25.1459 16.1536 25.1199 16.0908 25.0736 16.0445C25.0273 15.9982 24.9645 15.9722 24.899 15.9722H23.3558C23.2903 15.9722 23.2275 15.9982 23.1812 16.0445C23.1349 16.0908 23.1089 16.1536 23.1089 16.2191V17.7623C23.1089 17.8278 23.1349 17.8906 23.1812 17.9369C23.2275 17.9832 23.2903 18.0092 23.3558 18.0092H24.899C24.9645 18.0092 25.0273 17.9832 25.0736 17.9369C25.1199 17.8906 25.1459 17.8278 25.1459 17.7623V16.2191ZM24.6521 17.4691H23.6644V16.4814H24.6521V17.4691ZM25.0736 19.5167C25.1199 19.563 25.1459 19.6257 25.1459 19.6912V21.2344C25.1459 21.2999 25.1199 21.3627 25.0736 21.409C25.0273 21.4554 24.9645 21.4814 24.899 21.4814H23.3558C23.2903 21.4814 23.2275 21.4554 23.1812 21.409C23.1349 21.3627 23.1089 21.2999 23.1089 21.2344V19.6912C23.1089 19.6257 23.1349 19.563 23.1812 19.5167C23.2275 19.4703 23.2903 19.4443 23.3558 19.4443H24.899C24.9645 19.4443 25.0273 19.4703 25.0736 19.5167ZM23.6644 20.9413H24.6521V19.9382H23.6644V20.9413ZM24.8375 22.9321H23.2943C23.2288 22.9321 23.166 22.9581 23.1197 23.0044C23.0734 23.0507 23.0474 23.1136 23.0474 23.179V24.7223C23.0474 24.7877 23.0734 24.8505 23.1197 24.8968C23.166 24.9431 23.2288 24.9692 23.2943 24.9692H24.8375C24.903 24.9692 24.9658 24.9431 25.0121 24.8968C25.0584 24.8505 25.0844 24.7877 25.0844 24.7223V23.179C25.0844 23.1136 25.0584 23.0507 25.0121 23.0044C24.9658 22.9581 24.903 22.9321 24.8375 22.9321ZM24.5906 24.4753H23.6029V23.4877H24.5906V24.4753ZM15.2801 28.3229C15.2338 28.2766 15.2078 28.2138 15.2078 28.1483C15.2078 28.0828 15.2338 28.02 15.2801 27.9737C15.3264 27.9274 15.3892 27.9014 15.4547 27.9014H19.93C19.9955 27.9014 20.0583 27.9274 20.1046 27.9737C20.1509 28.02 20.1769 28.0828 20.1769 28.1483C20.1769 28.2138 20.1509 28.2766 20.1046 28.3229C20.0583 28.3692 19.9955 28.3952 19.93 28.3952H15.4547C15.3892 28.3952 15.3264 28.3692 15.2801 28.3229ZM20.9334 28.8887H14.4674C14.4019 28.8887 14.3391 28.9147 14.2928 28.961C14.2465 29.0073 14.2205 29.0701 14.2205 29.1356C14.2205 29.2011 14.2465 29.2639 14.2928 29.3102C14.3391 29.3565 14.4019 29.3825 14.4674 29.3825H20.9334C20.9989 29.3825 21.0617 29.3565 21.108 29.3102C21.1543 29.2639 21.1803 29.2011 21.1803 29.1356C21.1803 29.0701 21.1543 29.0073 21.108 28.961C21.0617 28.9147 20.9989 28.8887 20.9334 28.8887ZM14.7143 28.1484C14.7143 28.2873 14.6371 28.3953 14.5599 28.3953L10.8562 28.3336L10.5785 28.6114C10.5388 28.6269 10.4947 28.6269 10.455 28.6114C10.4151 28.6255 10.3715 28.6255 10.3316 28.6114C10.3147 28.5955 10.3013 28.5764 10.2922 28.5552C10.283 28.5339 10.2783 28.5111 10.2783 28.4879C10.2783 28.4648 10.283 28.442 10.2922 28.4207C10.3013 28.3995 10.3147 28.3804 10.3316 28.3645H6.95193C6.79761 28.3645 6.79761 28.2565 6.79761 28.1176C6.79761 27.9787 6.87477 27.8707 6.95193 27.8707H7.52291C7.51206 27.8491 7.50641 27.8253 7.50641 27.8012C7.50641 27.7771 7.51206 27.7533 7.52291 27.7318L8.20193 27.0528C8.2178 27.0359 8.23693 27.0225 8.25816 27.0134C8.27939 27.0042 8.30226 26.9995 8.32538 26.9995C8.3485 26.9995 8.37138 27.0042 8.39261 27.0134C8.41384 27.0225 8.43297 27.0359 8.44884 27.0528C8.46566 27.0686 8.47905 27.0878 8.48821 27.109C8.49736 27.1302 8.50208 27.1531 8.50208 27.1762C8.50208 27.1993 8.49736 27.2222 8.48821 27.2434C8.47905 27.2647 8.46566 27.2838 8.44884 27.2997L7.86242 27.8861H9.62168C9.61082 27.8646 9.60517 27.8408 9.60517 27.8166C9.60517 27.7925 9.61082 27.7687 9.62168 27.7472L10.3007 27.0682C10.3166 27.0514 10.3357 27.038 10.3569 27.0288C10.3782 27.0197 10.401 27.0149 10.4241 27.0149C10.4473 27.0149 10.4701 27.0197 10.4914 27.0288C10.5126 27.038 10.5317 27.0514 10.5476 27.0682C10.5644 27.084 10.5778 27.1032 10.587 27.1244C10.5961 27.1456 10.6008 27.1685 10.6008 27.1916C10.6008 27.2148 10.5961 27.2376 10.587 27.2589C10.5778 27.2801 10.5644 27.2992 10.5476 27.3151L9.96119 27.9015H10.8408L10.9797 27.7626C10.9956 27.7458 11.0147 27.7324 11.0359 27.7233C11.0572 27.7141 11.08 27.7094 11.1032 27.7094C11.1263 27.7094 11.1492 27.7141 11.1704 27.7233C11.1916 27.7324 11.2107 27.7458 11.2266 27.7626C11.2375 27.7842 11.2431 27.808 11.2431 27.8321C11.2431 27.8562 11.2375 27.88 11.2266 27.9015H14.5599C14.7143 27.9015 14.7143 28.0096 14.7143 28.1484ZM15.9491 17.9477H19.4367C19.5022 17.9477 19.565 17.9217 19.6113 17.8754C19.6576 17.829 19.6836 17.7663 19.6836 17.7008V16.1576C19.6836 16.0921 19.6576 16.0293 19.6113 15.983C19.565 15.9367 19.5022 15.9106 19.4367 15.9106H15.9491C15.8836 15.9106 15.8208 15.9367 15.7745 15.983C15.7282 16.0293 15.7021 16.0921 15.7021 16.1576V17.7008C15.7021 17.7663 15.7282 17.829 15.7745 17.8754C15.8208 17.9217 15.8836 17.9477 15.9491 17.9477ZM19.1744 17.4539H17.9398V16.4662H19.1744V17.4539ZM16.196 16.4662H17.4305V17.4539H16.196V16.4662ZM15.7745 21.3627C15.7282 21.3164 15.7021 21.2535 15.7021 21.1881V19.6448C15.7021 19.5794 15.7282 19.5166 15.7745 19.4703C15.8208 19.424 15.8836 19.3979 15.9491 19.3979H19.4367C19.5022 19.3979 19.565 19.424 19.6113 19.4703C19.6576 19.5166 19.6836 19.5794 19.6836 19.6448V21.1881C19.6836 21.2535 19.6576 21.3164 19.6113 21.3627C19.565 21.409 19.5022 21.435 19.4367 21.435H15.9491C15.8836 21.435 15.8208 21.409 15.7745 21.3627ZM17.9552 20.9412H19.1898V19.9381H17.9552V20.9412ZM17.446 19.9381H16.2114V20.9412H17.446V19.9381ZM28.479 27.9014H20.763C20.6858 27.9014 20.6086 28.0094 20.6086 28.1483C20.6086 28.2872 20.6086 28.3952 20.763 28.3952H28.479C28.5562 28.3952 28.6333 28.2872 28.6333 28.1483C28.6333 28.0094 28.5562 27.9014 28.479 27.9014ZM8.32548 10.9257C8.38028 10.9458 8.44043 10.9458 8.49523 10.9257H8.74215V27.0831C8.74215 27.1486 8.76816 27.2114 8.81447 27.2577C8.86077 27.304 8.92357 27.33 8.98906 27.33C9.05454 27.33 9.11735 27.304 9.16365 27.2577C9.20996 27.2114 9.23597 27.1486 9.23597 27.0831V11.0029H12.4921C12.5576 11.0029 12.6204 10.9769 12.6667 10.9305C12.713 10.8842 12.7391 10.8215 12.7391 10.756C12.7391 10.6905 12.713 10.6277 12.6667 10.5814C12.6204 10.5351 12.5576 10.509 12.4921 10.509H9.09708L9.59091 10.0152H12.4921C12.5246 10.0152 12.5567 10.0088 12.5866 9.99642C12.6166 9.98401 12.6438 9.96582 12.6667 9.94289C12.6897 9.91997 12.7079 9.89277 12.7203 9.86281C12.7327 9.83285 12.7391 9.80074 12.7391 9.76831C12.7391 9.73589 12.7327 9.70377 12.7203 9.67382C12.7079 9.64386 12.6897 9.61664 12.6667 9.59371C12.6438 9.57078 12.6166 9.55259 12.5866 9.54019C12.5567 9.52778 12.5246 9.52139 12.4921 9.52139H9.49832C9.44352 9.50133 9.38337 9.50133 9.32857 9.52139L8.34091 10.509C8.32085 10.5639 8.32085 10.624 8.34091 10.6788C8.31685 10.715 8.30275 10.7568 8.30004 10.8002C8.29733 10.8435 8.30611 10.8868 8.32548 10.9257ZM25.7943 10.0003H22.9085V10.0928C22.843 10.0928 22.7802 10.0668 22.7339 10.0205C22.6876 9.97423 22.6616 9.91144 22.6616 9.84595C22.6616 9.78046 22.6876 9.71765 22.7339 9.67135C22.7802 9.62504 22.843 9.59903 22.9085 9.59903H25.9641C26.0189 9.57897 26.079 9.57897 26.1338 9.59903L27.1215 10.5867C27.1416 10.6415 27.1416 10.7016 27.1215 10.7564C27.1215 10.8219 27.0955 10.8847 27.0492 10.931C27.0029 10.9773 26.9401 11.0034 26.8746 11.0034H26.6277V27.1453C26.6277 27.2108 26.6017 27.2736 26.5553 27.3199C26.509 27.3662 26.4462 27.3922 26.3808 27.3922C26.3153 27.3922 26.2525 27.3662 26.2062 27.3199C26.1599 27.2736 26.1338 27.2108 26.1338 27.1453V10.9879H22.9085C22.843 10.9879 22.7802 10.9619 22.7339 10.9156C22.6876 10.8693 22.6616 10.8065 22.6616 10.741C22.6616 10.6755 22.6876 10.6127 22.7339 10.5664C22.7802 10.5201 22.843 10.4941 22.9085 10.4941H26.2882L25.7943 10.0003Z" fill="white"/>
</svg>
