<svg width="35" height="35" viewBox="0 0 35 35" fill="none" xmlns="http://www.w3.org/2000/svg">
<rect width="35" height="35" fill="#3DA684"/>
<path fill-rule="evenodd" clip-rule="evenodd" d="M14.2441 11.8211C14.2664 11.8211 14.2885 11.8167 14.3091 11.8082C14.3297 11.7997 14.3484 11.7872 14.3642 11.7714C14.3799 11.7556 14.3924 11.7369 14.401 11.7164C14.4095 11.6958 14.4139 11.6737 14.4139 11.6514V10.6329C14.4139 10.5878 14.396 10.5447 14.3642 10.5128C14.3323 10.481 14.2892 10.4631 14.2441 10.4631H14.8662C14.8484 10.4714 14.832 10.4828 14.8178 10.497C14.786 10.5288 14.7681 10.572 14.7681 10.617V11.6355C14.7681 11.6805 14.786 11.7237 14.8178 11.7556C14.8496 11.7874 14.8928 11.8053 14.9378 11.8053C14.9828 11.8053 15.026 11.7874 15.0579 11.7556C15.0897 11.7237 15.1076 11.6805 15.1076 11.6355V10.617C15.1076 10.572 15.0897 10.5288 15.0579 10.497C15.0437 10.4828 15.0273 10.4714 15.0094 10.4631H19.3115C19.2937 10.4714 19.2773 10.4828 19.2631 10.497C19.2313 10.5288 19.2134 10.572 19.2134 10.617V11.6355C19.2134 11.6805 19.2313 11.7237 19.2631 11.7556C19.2949 11.7874 19.3381 11.8053 19.3831 11.8053C19.4282 11.8053 19.4713 11.7874 19.5032 11.7556C19.535 11.7237 19.5529 11.6805 19.5529 11.6355V10.617C19.5529 10.572 19.535 10.5288 19.5032 10.497C19.489 10.4828 19.4726 10.4714 19.4547 10.4631H20.062C20.017 10.4631 19.9738 10.481 19.942 10.5128C19.9102 10.5447 19.8923 10.5878 19.8923 10.6329V11.6514C19.8923 11.6964 19.9102 11.7396 19.942 11.7714C19.9738 11.8032 20.017 11.8211 20.062 11.8211C20.1071 11.8211 20.1502 11.8032 20.1821 11.7714C20.2139 11.7396 20.2318 11.6964 20.2318 11.6514V10.6329C20.2318 10.5878 20.2139 10.5447 20.1821 10.5128C20.1633 10.4941 20.1407 10.4802 20.116 10.4719C20.1343 10.4719 20.1525 10.469 20.1701 10.4631C20.1786 10.4436 20.183 10.4226 20.183 10.4014C20.183 10.3801 20.1786 10.3591 20.1701 10.3396C20.1661 10.0257 20.0396 9.72581 19.8176 9.50383C19.5956 9.28184 19.2957 9.15537 18.9818 9.15137H15.2781C14.9615 9.15134 14.6577 9.27605 14.4324 9.49846C14.2071 9.72087 14.0784 10.0231 14.0744 10.3396C14.0649 10.3698 14.0649 10.4021 14.0744 10.4322C14.0919 10.4381 14.1102 10.4411 14.1284 10.4411C14.1038 10.4493 14.0811 10.4632 14.0624 10.482C14.0305 10.5138 14.0127 10.557 14.0127 10.602V11.6205C14.0042 11.6514 14.0046 11.6841 14.0139 11.7147C14.0232 11.7454 14.041 11.7728 14.0652 11.7938C14.0894 11.8148 14.119 11.8285 14.1507 11.8333C14.1824 11.8381 14.2148 11.8339 14.2441 11.8211ZM15.2781 9.42916H19.0281C19.2214 9.43229 19.4078 9.5013 19.5565 9.62477C19.7052 9.74824 19.8074 9.91877 19.846 10.1082H14.4602C14.4988 9.91877 14.601 9.74824 14.7497 9.62477C14.8984 9.5013 15.0848 9.43229 15.2781 9.42916ZM27.5775 10.8027H20.741C20.696 10.8027 20.6528 10.8206 20.621 10.8524C20.5892 10.8843 20.5713 10.9275 20.5713 10.9725C20.5713 11.0175 20.5892 11.0607 20.621 11.0925C20.6528 11.1243 20.696 11.1422 20.741 11.1422H27.5775C27.7125 11.1422 27.8421 11.1959 27.9376 11.2914C28.0331 11.3869 28.0867 11.5164 28.0867 11.6515V23.2719C28.1439 23.6488 28.0844 24.0342 27.9161 24.3763C27.7478 24.7184 27.4789 25.0007 27.1454 25.1855C27.1162 25.2059 27.0942 25.2351 27.0825 25.2688C27.0708 25.3025 27.07 25.339 27.0803 25.3732C27.0905 25.4073 27.1113 25.4374 27.1396 25.4591C27.1679 25.4808 27.2023 25.4931 27.238 25.4941H27.3305C27.7078 25.2764 28.0129 24.9527 28.2077 24.5631C28.4025 24.1734 28.4785 23.7352 28.4262 23.3027V11.6824C28.4304 11.5683 28.4115 11.4546 28.3707 11.3481C28.3299 11.2415 28.268 11.1442 28.1888 11.0621C28.1096 10.98 28.0146 10.9147 27.9096 10.8702C27.8045 10.8256 27.6916 10.8027 27.5775 10.8027ZM26.2342 12.1603H21.8978L22.5768 11.4813C22.593 11.4651 22.6059 11.4458 22.6147 11.4247C22.6234 11.4035 22.628 11.3808 22.628 11.3579C22.628 11.3349 22.6234 11.3122 22.6147 11.291C22.6059 11.2699 22.593 11.2506 22.5768 11.2344C22.5606 11.2182 22.5414 11.2053 22.5202 11.1966C22.499 11.1878 22.4763 11.1832 22.4534 11.1832C22.4304 11.1832 22.4077 11.1878 22.3865 11.1966C22.3654 11.2053 22.3461 11.2182 22.3299 11.2344L21.6509 11.9134C21.6341 11.9293 21.6207 11.9484 21.6115 11.9696C21.6024 11.9909 21.5976 12.0137 21.5976 12.0369C21.5976 12.06 21.6024 12.0829 21.6115 12.1041C21.6207 12.1253 21.6341 12.1445 21.6509 12.1603H11.9904L12.6694 11.4813C12.6862 11.4654 12.6996 11.4463 12.7088 11.4251C12.7179 11.4039 12.7227 11.381 12.7227 11.3579C12.7227 11.3347 12.7179 11.3119 12.7088 11.2906C12.6996 11.2694 12.6862 11.2503 12.6694 11.2344C12.6643 11.229 12.6589 11.224 12.6532 11.2193H13.5649C13.6099 11.2193 13.6531 11.2014 13.685 11.1696C13.7168 11.1378 13.7347 11.0946 13.7347 11.0496C13.7347 11.0045 13.7168 10.9614 13.685 10.9295C13.6531 10.8977 13.6099 10.8798 13.5649 10.8798H9.12048C8.68803 10.8276 8.24977 10.9036 7.86016 11.0984C7.47056 11.2932 7.1468 11.5982 6.92912 11.9755C6.89983 12.0069 6.88354 12.0483 6.88354 12.0912C6.88354 12.1342 6.89983 12.1755 6.92912 12.207L7.06801 12.1607C7.08985 12.1705 7.11352 12.1755 7.13745 12.1755C7.16139 12.1755 7.18506 12.1705 7.2069 12.1607C7.39162 11.8272 7.674 11.5582 8.01608 11.3899C8.35816 11.2217 8.74356 11.1621 9.12048 11.2193H9.69278C9.68673 11.224 9.68099 11.229 9.67558 11.2344L8.99657 11.9134C8.97975 11.9293 8.96636 11.9484 8.9572 11.9696C8.94805 11.9909 8.94333 12.0137 8.94333 12.0369C8.94333 12.06 8.94805 12.0829 8.9572 12.1041C8.96636 12.1253 8.97975 12.1445 8.99657 12.1603H7.4225C7.19863 12.1643 6.98504 12.255 6.82671 12.4133C6.66839 12.5716 6.57769 12.7852 6.57373 13.0091V24.969C6.57769 25.1928 6.66839 25.4064 6.82671 25.5647C6.98504 25.7231 7.19863 25.8138 7.4225 25.8177H26.2342C26.4581 25.8138 26.6717 25.7231 26.83 25.5647C26.9883 25.4064 27.079 25.1928 27.083 24.969V13.0091C27.079 12.7852 26.9883 12.5716 26.83 12.4133C26.6717 12.255 26.4581 12.1643 26.2342 12.1603ZM9.9053 11.2193C9.91134 11.224 9.91709 11.229 9.92249 11.2344C9.93871 11.2506 9.95157 11.2699 9.96034 11.291C9.96912 11.3122 9.97363 11.3349 9.97363 11.3579C9.97363 11.3808 9.96912 11.4035 9.96034 11.4247C9.95157 11.4458 9.93871 11.4651 9.92249 11.4813L9.24348 12.1603H11.7435C11.7267 12.1445 11.7133 12.1253 11.7041 12.1041C11.695 12.0829 11.6902 12.06 11.6902 12.0369C11.6902 12.0137 11.695 11.9909 11.7041 11.9696C11.7133 11.9484 11.7267 11.9293 11.7435 11.9134L12.4225 11.2344C12.4276 11.229 12.433 11.224 12.4387 11.2193H9.9053ZM26.7435 24.969C26.7435 25.104 26.6898 25.2336 26.5943 25.3291C26.4988 25.4246 26.3693 25.4782 26.2342 25.4782H7.4225C7.28743 25.4782 7.1579 25.4246 7.06239 25.3291C6.96689 25.2336 6.91324 25.104 6.91324 24.969V13.0091C6.91324 12.874 6.96689 12.7445 7.06239 12.649C7.1579 12.5535 7.28743 12.4998 7.4225 12.4998H26.2342C26.3693 12.4998 26.4988 12.5535 26.5943 12.649C26.6898 12.7445 26.7435 12.874 26.7435 13.0091V24.969ZM22.7935 11.8205H24.167C24.212 11.8205 24.2552 11.8026 24.287 11.7707C24.3189 11.7389 24.3367 11.6957 24.3367 11.6507C24.3367 11.6057 24.3189 11.5625 24.287 11.5307C24.2552 11.4988 24.212 11.481 24.167 11.481H22.7935C22.7485 11.481 22.7053 11.4988 22.6735 11.5307C22.6417 11.5625 22.6238 11.6057 22.6238 11.6507C22.6238 11.6957 22.6417 11.7389 22.6735 11.7707C22.7053 11.8026 22.7485 11.8205 22.7935 11.8205ZM10.0346 11.5307C10.0664 11.4988 10.1096 11.481 10.1546 11.481H11.5281C11.5731 11.481 11.6163 11.4988 11.6481 11.5307C11.6799 11.5625 11.6978 11.6057 11.6978 11.6507C11.6978 11.6957 11.6799 11.7389 11.6481 11.7707C11.6163 11.8026 11.5731 11.8205 11.5281 11.8205H10.1546C10.1096 11.8205 10.0664 11.8026 10.0346 11.7707C10.0027 11.7389 9.98486 11.6957 9.98486 11.6507C9.98486 11.6057 10.0027 11.5625 10.0346 11.5307ZM14.5409 15.5834C15.216 15.1324 16.0096 14.8916 16.8215 14.8916C17.9102 14.8916 18.9543 15.3241 19.7241 16.0939C20.4939 16.8637 20.9264 17.9078 20.9264 18.9965C20.9264 19.8084 20.6857 20.6021 20.2346 21.2771C19.7836 21.9522 19.1425 22.4783 18.3924 22.789C17.6423 23.0997 16.8169 23.181 16.0207 23.0226C15.2244 22.8642 14.4929 22.4733 13.9189 21.8992C13.3448 21.3251 12.9538 20.5937 12.7954 19.7974C12.637 19.0011 12.7183 18.1757 13.029 17.4257C13.3397 16.6756 13.8659 16.0345 14.5409 15.5834ZM14.7295 22.1119C15.3488 22.5257 16.0768 22.7466 16.8215 22.7466V22.762C17.3173 22.762 17.8082 22.6641 18.266 22.4739C18.7239 22.2837 19.1397 22.005 19.4895 21.6537C19.8394 21.3024 20.1164 20.8854 20.3047 20.4268C20.4931 19.9682 20.589 19.4769 20.5869 18.9811C20.5869 18.2364 20.3661 17.5084 19.9523 16.8892C19.5386 16.2699 18.9505 15.7873 18.2625 15.5023C17.5744 15.2173 16.8173 15.1428 16.0869 15.288C15.3565 15.4333 14.6855 15.792 14.1589 16.3186C13.6323 16.8452 13.2737 17.5161 13.1284 18.2465C12.9831 18.9769 13.0577 19.734 13.3427 20.4221C13.6277 21.1101 14.1103 21.6982 14.7295 22.1119ZM16.8208 14.2124C15.8746 14.2124 14.9497 14.493 14.163 15.0186C13.3763 15.5443 12.7631 16.2915 12.401 17.1656C12.0389 18.0398 11.9442 19.0016 12.1288 19.9296C12.3134 20.8576 12.769 21.7101 13.4381 22.3791C14.1071 23.0482 14.9595 23.5038 15.8875 23.6884C16.8155 23.873 17.7774 23.7782 18.6516 23.4161C19.5257 23.054 20.2729 22.4409 20.7985 21.6542C21.3242 20.8675 21.6048 19.9425 21.6048 18.9963C21.6048 17.7276 21.1007 16.5107 20.2036 15.6136C19.3064 14.7164 18.0896 14.2124 16.8208 14.2124ZM16.8208 23.4717C15.9418 23.4717 15.0825 23.211 14.3516 22.7226C13.6207 22.2343 13.0511 21.5401 12.7147 20.728C12.3783 19.9159 12.2903 19.0223 12.4618 18.1601C12.6333 17.298 13.0566 16.5061 13.6781 15.8845C14.2997 15.2629 15.0916 14.8397 15.9537 14.6682C16.8159 14.4967 17.7095 14.5847 18.5216 14.9211C19.3337 15.2575 20.0279 15.8271 20.5162 16.558C21.0046 17.2889 21.2653 18.1482 21.2653 19.0272C21.2571 20.2006 20.7853 21.3231 19.9527 22.15C19.12 22.9768 17.9942 23.4408 16.8208 23.4408V23.4717ZM7.30314 12.889C7.33497 12.8572 7.37815 12.8393 7.42317 12.8393C7.45176 12.8373 7.48038 12.8425 7.50638 12.8546C7.53238 12.8667 7.5549 12.8851 7.57184 12.9082C7.58879 12.9313 7.59961 12.9584 7.6033 12.9868C7.60698 13.0152 7.60341 13.0441 7.59292 13.0707V24.6911C7.59292 24.7361 7.57504 24.7793 7.5432 24.8112C7.51137 24.843 7.46819 24.8609 7.42317 24.8609C7.37815 24.8609 7.33497 24.843 7.30314 24.8112C7.2713 24.7793 7.25342 24.7361 7.25342 24.6911V13.009C7.25342 12.964 7.2713 12.9208 7.30314 12.889ZM26.2347 12.8393C26.1897 12.8393 26.1465 12.8572 26.1147 12.889C26.0828 12.9208 26.0649 12.964 26.0649 13.009V24.6911C26.0649 24.7361 26.0828 24.7793 26.1147 24.8112C26.1465 24.843 26.1897 24.8609 26.2347 24.8609C26.2797 24.8609 26.3229 24.843 26.3547 24.8112C26.3866 24.7793 26.4044 24.7361 26.4044 24.6911V13.0707C26.4149 13.0441 26.4185 13.0152 26.4148 12.9868C26.4111 12.9584 26.4003 12.9313 26.3834 12.9082C26.3664 12.8851 26.3439 12.8667 26.3179 12.8546C26.2919 12.8425 26.2633 12.8373 26.2347 12.8393ZM17.716 18.1176H18.858C18.9193 18.1176 18.9782 18.142 19.0216 18.1854C19.065 18.2288 19.0894 18.2877 19.0894 18.3491V19.7225C19.0894 19.7839 19.065 19.8428 19.0216 19.8862C18.9782 19.9296 18.9193 19.954 18.858 19.954H17.716V21.096C17.716 21.1574 17.6916 21.2162 17.6482 21.2597C17.6048 21.3031 17.5459 21.3275 17.4845 21.3275H16.111C16.0496 21.3275 15.9908 21.3031 15.9474 21.2597C15.9039 21.2162 15.8796 21.1574 15.8796 21.096V19.954H14.7376C14.6762 19.954 14.6173 19.9296 14.5739 19.8862C14.5305 19.8428 14.5061 19.7839 14.5061 19.7225V18.3491C14.5061 18.2877 14.5305 18.2288 14.5739 18.1854C14.6173 18.142 14.6762 18.1176 14.7376 18.1176H15.8796V16.9756C15.8796 16.9142 15.9039 16.8553 15.9474 16.8119C15.9908 16.7685 16.0496 16.7441 16.111 16.7441H17.4845C17.5459 16.7441 17.6048 16.7685 17.6482 16.8119C17.6916 16.8553 17.716 16.9142 17.716 16.9756V18.1176ZM17.3959 19.5087C17.424 19.497 17.4541 19.4911 17.4845 19.4911L18.5493 19.3367V18.4262H17.4073C17.3574 18.4439 17.3029 18.4439 17.253 18.4262C17.2388 18.381 17.2388 18.3326 17.253 18.2873V17.1454H16.3425V18.2873C16.3425 18.3487 16.3181 18.4076 16.2747 18.451C16.2313 18.4944 16.1724 18.5188 16.111 18.5188H14.9691V19.4911H16.111C16.1414 19.4911 16.1715 19.497 16.1996 19.5087C16.2277 19.5203 16.2532 19.5373 16.2747 19.5588C16.2962 19.5803 16.3133 19.6059 16.3249 19.6339C16.3365 19.662 16.3425 19.6921 16.3425 19.7225V20.8645H17.253V19.7225C17.253 19.6921 17.259 19.662 17.2706 19.6339C17.2823 19.6059 17.2993 19.5803 17.3208 19.5588C17.3423 19.5373 17.3678 19.5203 17.3959 19.5087Z" fill="white"/>
</svg>
