<svg width="35" height="35" viewBox="0 0 35 35" fill="none" xmlns="http://www.w3.org/2000/svg">
<rect width="35" height="35" fill="#481183"/>
<path fill-rule="evenodd" clip-rule="evenodd" d="M24.9848 10.9727L23.6576 8.05606V6.17335C23.6598 6.13223 23.6534 6.0911 23.6386 6.05264C23.6239 6.01419 23.6013 5.97928 23.5722 5.95016C23.543 5.92105 23.5081 5.89839 23.4697 5.88367C23.4312 5.86894 23.3901 5.86246 23.349 5.86469H11.636C11.5949 5.86246 11.5538 5.86894 11.5153 5.88367C11.4768 5.89839 11.4419 5.92105 11.4128 5.95016C11.3837 5.97928 11.361 6.01419 11.3463 6.05264C11.3316 6.0911 11.3251 6.13223 11.3274 6.17335V7.96348L9.96933 10.9419C9.75048 11.4272 9.63486 11.9527 9.62982 12.4851V28.6888C9.6276 28.7299 9.63405 28.771 9.64878 28.8095C9.6635 28.8479 9.68616 28.8828 9.71527 28.9119C9.74439 28.9411 9.77931 28.9637 9.81777 28.9784C9.85622 28.9932 9.89735 28.9997 9.93847 28.9974H25.0311C25.0722 28.9997 25.1133 28.9932 25.1518 28.9784C25.1902 28.9637 25.2251 28.9411 25.2542 28.9119C25.2834 28.8828 25.306 28.8479 25.3207 28.8095C25.3355 28.771 25.3419 28.7299 25.3397 28.6888V12.4851C25.3239 11.9623 25.2032 11.448 24.9848 10.9727ZM11.9446 6.51285H23.0403V7.7474H11.9446V6.51285ZM24.6916 28.411H10.2625V12.5159C10.2601 12.0688 10.3549 11.6265 10.5403 11.2196L11.8366 8.36472H23.1483L24.4446 11.2196C24.63 11.6265 24.7248 12.0688 24.7224 12.5159L24.6916 28.411ZM18.5184 16.0803C18.2908 15.938 18.0357 15.8453 17.7698 15.808C17.504 15.7708 17.2332 15.79 16.9752 15.8642C16.7277 15.9224 16.4953 16.0322 16.2932 16.1865C16.0911 16.3407 15.9238 16.5359 15.8024 16.7593C15.6583 16.9862 15.5645 17.2413 15.5272 17.5075C15.49 17.7737 15.5101 18.0447 15.5863 18.3025C15.6476 18.5527 15.7584 18.7882 15.9121 18.9949C16.0658 19.2016 16.2594 19.3755 16.4814 19.5062C16.7792 19.687 17.1207 19.783 17.4691 19.784C17.623 19.7991 17.7781 19.7991 17.932 19.784C18.1819 19.7219 18.417 19.6108 18.6237 19.4572C18.8303 19.3035 19.0043 19.1104 19.1357 18.8889C19.2798 18.662 19.3736 18.4069 19.4109 18.1407C19.4482 17.8745 19.428 17.6034 19.3518 17.3457C19.3055 17.0894 19.2078 16.8452 19.0646 16.6277C18.9213 16.4102 18.7356 16.224 18.5184 16.0803ZM18.6728 18.4414C18.5583 18.625 18.4011 18.7782 18.2147 18.888C18.0282 18.9978 17.818 19.0608 17.6019 19.0719C17.3858 19.0829 17.1702 19.0415 16.9735 18.9513C16.7769 18.861 16.6049 18.7246 16.4724 18.5536C16.3398 18.3826 16.2505 18.1821 16.2122 17.9691C16.1738 17.7562 16.1875 17.5371 16.252 17.3306C16.3165 17.124 16.43 16.9362 16.5828 16.7829C16.7356 16.6297 16.9232 16.5157 17.1296 16.4506H17.4691C17.7064 16.4519 17.9392 16.516 18.1437 16.6365C18.3482 16.757 18.517 16.9296 18.6331 17.1367C18.7492 17.3437 18.8083 17.5778 18.8044 17.8152C18.8005 18.0525 18.7338 18.2846 18.611 18.4877L18.6728 18.4414ZM14.8147 17.0844C14.7331 17.0995 14.6494 17.0995 14.5678 17.0844C14.3954 17.085 14.2257 17.0426 14.0739 16.9609C13.966 16.8974 13.8721 16.8128 13.7978 16.712C13.7235 16.6112 13.6705 16.4964 13.6418 16.3745C13.5887 16.1208 13.6328 15.8565 13.7653 15.6338C13.8288 15.5258 13.9134 15.4319 14.0142 15.3576C14.115 15.2833 14.2298 15.2303 14.3517 15.2017C14.6054 15.1485 14.8697 15.1926 15.0925 15.3251C15.2004 15.3886 15.2943 15.4732 15.3686 15.574C15.4429 15.6748 15.4959 15.7896 15.5246 15.9115C15.5777 16.1652 15.5336 16.4296 15.4011 16.6523C15.337 16.7596 15.2521 16.8531 15.1514 16.9273C15.0507 17.0015 14.9362 17.0549 14.8147 17.0844ZM14.4752 15.7572C14.3826 15.7572 14.2591 15.8189 14.2591 15.9115V15.927C14.2362 16.0129 14.2362 16.1033 14.2591 16.1893C14.2591 16.2819 14.3209 16.4054 14.4134 16.4054C14.5035 16.4359 14.6012 16.4359 14.6912 16.4054C14.7838 16.4054 14.9073 16.3436 14.9073 16.251C14.9378 16.161 14.9378 16.0633 14.9073 15.9733C14.9073 15.8807 14.8455 15.7572 14.753 15.7572C14.692 15.7438 14.6288 15.7438 14.5678 15.7572H14.4752ZM15.8177 15.2782C15.9662 15.3713 16.1363 15.4244 16.3115 15.4325C16.3931 15.4476 16.4768 15.4476 16.5584 15.4325C16.6803 15.4039 16.7951 15.3508 16.8959 15.2765C16.9967 15.2023 17.0814 15.1084 17.1448 15.0004C17.2773 14.7777 17.3214 14.5133 17.2683 14.2597C17.2396 14.1378 17.1866 14.023 17.1123 13.9222C17.038 13.8214 16.9441 13.7367 16.8362 13.6732C16.6135 13.5407 16.3491 13.4967 16.0954 13.5498C15.9735 13.5784 15.8587 13.6315 15.7579 13.7058C15.6572 13.7801 15.5725 13.874 15.509 13.9819C15.435 14.0886 15.3856 14.2104 15.3643 14.3385C15.3429 14.4665 15.3502 14.5977 15.3856 14.7227C15.4508 14.9575 15.6061 15.1571 15.8177 15.2782ZM16.0028 14.2597C16.0028 14.1671 16.1263 14.1054 16.2189 14.1054H16.3115C16.3726 14.0929 16.4356 14.0929 16.4967 14.1054C16.5893 14.1054 16.651 14.2288 16.651 14.3214C16.6816 14.4115 16.6816 14.5091 16.651 14.5992C16.651 14.6918 16.5275 14.7535 16.4349 14.7535C16.3904 14.7675 16.3434 14.7721 16.2969 14.7671C16.2505 14.762 16.2056 14.7475 16.165 14.7243C16.1245 14.7011 16.0891 14.6698 16.0612 14.6324C16.0333 14.5949 16.0134 14.5521 16.0028 14.5066C15.9826 14.4255 15.9826 14.3407 16.0028 14.2597ZM18.7807 15.4325C18.6056 15.4244 18.4355 15.3713 18.2869 15.2782C18.0753 15.1571 17.9201 14.9575 17.8548 14.7227C17.8194 14.5977 17.8122 14.4665 17.8335 14.3385C17.8548 14.2104 17.9043 14.0886 17.9782 13.9819C18.0417 13.874 18.1264 13.7801 18.2272 13.7058C18.328 13.6315 18.4428 13.5784 18.5647 13.5498C18.8183 13.4967 19.0827 13.5407 19.3054 13.6732C19.4133 13.7367 19.5073 13.8214 19.5815 13.9222C19.6558 14.023 19.7089 14.1378 19.7375 14.2597C19.7906 14.5133 19.7466 14.7777 19.6141 15.0004C19.5506 15.1084 19.4659 15.2023 19.3651 15.2765C19.2643 15.3508 19.1495 15.4039 19.0276 15.4325C18.946 15.4476 18.8623 15.4476 18.7807 15.4325ZM18.719 14.1054C18.6264 14.1054 18.5029 14.1671 18.5029 14.2597H18.5184C18.4838 14.3375 18.4783 14.4251 18.5029 14.5066C18.5135 14.5521 18.5334 14.5949 18.5613 14.6324C18.5892 14.6698 18.6246 14.7011 18.6651 14.7243C18.7057 14.7475 18.7506 14.762 18.797 14.7671C18.8435 14.7721 18.8905 14.7675 18.935 14.7535C19.0276 14.7535 19.1511 14.6918 19.1511 14.5992C19.1817 14.5091 19.1817 14.4115 19.1511 14.3214C19.1511 14.2288 19.0894 14.1054 18.9968 14.1054C18.9357 14.0929 18.8727 14.0929 18.8116 14.1054H18.719ZM21.08 15.2465C20.8573 15.114 20.5929 15.0699 20.3393 15.123C20.2174 15.1517 20.1026 15.2047 20.0018 15.279C19.901 15.3533 19.8163 15.4472 19.7528 15.5551C19.6203 15.7779 19.5763 16.0422 19.6294 16.2959C19.658 16.4178 19.7111 16.5326 19.7854 16.6334C19.8596 16.7342 19.9536 16.8189 20.0615 16.8823C20.2101 16.9754 20.3802 17.0286 20.5553 17.0367C20.6369 17.0517 20.7206 17.0517 20.8022 17.0367C20.9241 17.008 21.0389 16.9549 21.1397 16.8807C21.2405 16.8064 21.3252 16.7125 21.3886 16.6046C21.5212 16.3818 21.5652 16.1175 21.5121 15.8638C21.4523 15.6104 21.2977 15.3895 21.08 15.2465ZM20.8948 16.265C20.8948 16.3576 20.7714 16.4194 20.6788 16.4194C20.5887 16.4499 20.4911 16.4499 20.401 16.4194C20.3084 16.4194 20.2467 16.2959 20.2467 16.2033C20.2161 16.1132 20.2161 16.0156 20.2467 15.9255C20.2467 15.8329 20.3701 15.7712 20.4627 15.7712H20.5553C20.6163 15.7578 20.6795 15.7578 20.7405 15.7712C20.8331 15.7712 20.8948 15.8946 20.8948 15.9872C20.9154 16.0306 20.9261 16.0781 20.9261 16.1262C20.9261 16.1742 20.9154 16.2216 20.8948 16.265ZM14.1973 22.1914H20.9566C21.0384 22.1914 21.1169 22.2239 21.1748 22.2818C21.2327 22.3397 21.2652 22.4182 21.2652 22.5C21.2652 22.5819 21.2327 22.6604 21.1748 22.7183C21.1169 22.7762 21.0384 22.8087 20.9566 22.8087H14.1973C14.1568 22.8087 14.1166 22.8007 14.0792 22.7852C14.0418 22.7697 14.0077 22.747 13.9791 22.7183C13.9504 22.6896 13.9277 22.6556 13.9122 22.6181C13.8967 22.5807 13.8887 22.5406 13.8887 22.5C13.8887 22.4595 13.8967 22.4194 13.9122 22.3819C13.9277 22.3445 13.9504 22.3104 13.9791 22.2818C14.0077 22.2531 14.0418 22.2304 14.0792 22.2149C14.1166 22.1994 14.1568 22.1914 14.1973 22.1914Z" fill="white"/>
</svg>
