<svg width="36" height="35" viewBox="0 0 36 35" fill="none" xmlns="http://www.w3.org/2000/svg">
<rect x="0.192383" width="35" height="35" fill="#0C2670"/>
<path fill-rule="evenodd" clip-rule="evenodd" d="M26.8904 14.3836H26.7052V9.15207C26.7052 8.74279 26.5426 8.35029 26.2532 8.06088C25.9638 7.77147 25.5713 7.60886 25.162 7.60886H24.4984V7.42368C24.4984 7.34183 24.4659 7.26333 24.408 7.20545C24.3501 7.14756 24.2716 7.11502 24.1897 7.11502H23.2947C23.1805 7.09206 23.0626 7.0948 22.9495 7.12293C22.8364 7.15107 22.731 7.20396 22.6409 7.27778C22.5508 7.3516 22.4782 7.44451 22.4283 7.5498C22.3784 7.6551 22.3526 7.77012 22.3526 7.88663C22.3526 8.00313 22.3784 8.1182 22.4283 8.2235C22.4782 8.32879 22.5508 8.4217 22.6409 8.49552C22.731 8.56934 22.8364 8.62223 22.9495 8.65037C23.0626 8.67851 23.1805 8.68119 23.2947 8.65823H24.1126C24.1531 8.65823 24.1933 8.65029 24.2307 8.63478C24.2681 8.61927 24.3022 8.59652 24.3308 8.56786C24.3595 8.5392 24.3822 8.50518 24.3977 8.46773C24.4132 8.43029 24.4212 8.39015 24.4212 8.34962V8.16444H25.0848C25.3508 8.16444 25.606 8.2701 25.7941 8.45822C25.9822 8.64633 26.0879 8.90148 26.0879 9.16752V14.399H25.9027C25.8209 14.399 25.7423 14.4315 25.6845 14.4894C25.6266 14.5473 25.5941 14.6258 25.5941 14.7076V15.2015C25.59 15.851 25.3302 16.4727 24.8709 16.932C24.4116 17.3913 23.7899 17.6511 23.1404 17.6552H19.236C18.5865 17.6511 17.9648 17.3913 17.5055 16.932C17.0462 16.4727 16.7864 15.851 16.7823 15.2015V14.7076C16.7823 14.6671 16.7744 14.627 16.7588 14.5895C16.7433 14.5521 16.7206 14.5181 16.6919 14.4894C16.6633 14.4607 16.6293 14.438 16.5918 14.4225C16.5544 14.407 16.5142 14.399 16.4737 14.399H16.2885V9.16752C16.2885 8.90148 16.3942 8.64633 16.5823 8.45822C16.7704 8.2701 17.0256 8.16444 17.2916 8.16444H17.9552V8.34962C17.9552 8.43148 17.9877 8.50998 18.0456 8.56786C18.1035 8.62574 18.182 8.65823 18.2638 8.65823H19.0817C19.26 8.6224 19.4203 8.52598 19.5355 8.38532C19.6507 8.24466 19.7137 8.06844 19.7137 7.88663C19.7137 7.70481 19.6507 7.52865 19.5355 7.38799C19.4203 7.24733 19.26 7.15085 19.0817 7.11502H18.2638C18.182 7.11502 18.1035 7.14756 18.0456 7.20545C17.9877 7.26333 17.9552 7.34183 17.9552 7.42368V7.60886H17.2916C16.8823 7.60886 16.4898 7.77147 16.2004 8.06088C15.911 8.35029 15.7484 8.74279 15.7484 9.15207V14.3836H15.5632C15.4813 14.3836 15.4028 14.4161 15.345 14.4739C15.2871 14.5318 15.2546 14.6103 15.2546 14.6922V15.186C15.2546 16.2584 15.6805 17.2868 16.4388 18.045C17.197 18.8033 18.2254 19.2292 19.2978 19.2292H20.4552V20.7724C20.4552 20.8543 20.4877 20.9328 20.5456 20.9907C20.6035 21.0486 20.682 21.0811 20.7638 21.0811H20.949V22.7323C20.949 23.9602 20.4612 25.1377 19.593 26.006C18.7248 26.8742 17.5472 27.362 16.3194 27.362H15.6712C14.4434 27.362 13.2658 26.8742 12.3976 26.006C11.5294 25.1377 11.0416 23.9602 11.0416 22.7323V20.3095C11.0416 20.2276 11.0091 20.1491 10.9512 20.0913C10.8933 20.0334 10.8148 20.0008 10.733 20.0008C10.6511 20.0008 10.5726 20.0334 10.5147 20.0913C10.4568 20.1491 10.4243 20.2276 10.4243 20.3095V22.7323C10.4607 24.0914 11.0293 25.3817 12.0078 26.3256C12.9863 27.2694 14.2963 27.7912 15.6558 27.7786H16.3039C17.6791 27.7786 18.998 27.2323 19.9704 26.2599C20.9428 25.2875 21.4891 23.9687 21.4891 22.5935V20.9422H21.7515C21.8333 20.9422 21.9118 20.9097 21.9697 20.8518C22.0276 20.7939 22.0601 20.7154 22.0601 20.6336V19.0903H23.2175C24.2886 19.0863 25.3146 18.659 26.072 17.9016C26.8294 17.1442 27.2567 16.1182 27.2607 15.0471V14.5533C27.2301 14.4849 27.1757 14.4299 27.1075 14.3986C27.0394 14.3674 26.9622 14.3621 26.8904 14.3836ZM23.8039 8.04096H23.2947C23.2456 8.04096 23.1985 8.02148 23.1637 7.98675C23.129 7.95202 23.1095 7.90489 23.1095 7.85578C23.1095 7.80667 23.129 7.75959 23.1637 7.72486C23.1985 7.69013 23.2456 7.6706 23.2947 7.6706H23.8039V8.04096ZM18.557 7.6706H19.0663C19.1154 7.6706 19.1625 7.69013 19.1972 7.72486C19.232 7.75959 19.2515 7.80667 19.2515 7.85578C19.2515 7.90489 19.232 7.95202 19.1972 7.98675C19.1625 8.02148 19.1154 8.04096 19.0663 8.04096H18.557V7.6706ZM26.5663 15.1706C26.5663 15.6225 26.4773 16.07 26.3043 16.4875C26.1314 16.9051 25.8779 17.2845 25.5583 17.604C25.2388 17.9236 24.8594 18.1771 24.4419 18.35C24.0244 18.523 23.5769 18.612 23.1249 18.612H21.7515C21.6696 18.612 21.5911 18.6445 21.5332 18.7024C21.4753 18.7603 21.4428 18.8388 21.4428 18.9206V20.4638H21.0725V18.9206C21.0725 18.8388 21.0399 18.7603 20.9821 18.7024C20.9242 18.6445 20.8457 18.612 20.7638 18.612H19.2978C18.8458 18.612 18.3983 18.523 17.9808 18.35C17.5633 18.1771 17.1839 17.9236 16.8644 17.604C16.5448 17.2845 16.2913 16.9051 16.1184 16.4875C15.9454 16.07 15.8564 15.6225 15.8564 15.1706V14.9854H16.2268V15.1706C16.2268 15.9891 16.552 16.7742 17.1308 17.353C17.7096 17.9318 18.4946 18.257 19.3132 18.257H23.1404C23.9589 18.257 24.744 17.9318 25.3228 17.353C25.9016 16.7742 26.2268 15.9891 26.2268 15.1706V14.9854H26.5972L26.5663 15.1706ZM10.5611 18.9834C10.5032 18.9255 10.4707 18.847 10.4707 18.7652V16.7744C9.81865 16.6958 9.22127 16.3712 8.80051 15.8669C8.37976 15.3626 8.1674 14.7168 8.20679 14.0612C8.24619 13.4057 8.53438 12.7899 9.01249 12.3396C9.4906 11.8894 10.1226 11.6387 10.7793 11.6387C11.4361 11.6387 12.068 11.8894 12.5461 12.3396C13.0242 12.7899 13.3124 13.4057 13.3518 14.0612C13.3912 14.7168 13.1789 15.3626 12.7581 15.8669C12.3374 16.3712 11.74 16.6958 11.088 16.7744V18.7652C11.088 18.847 11.0554 18.9255 10.9976 18.9834C10.9397 19.0413 10.8612 19.0738 10.7793 19.0738C10.6975 19.0738 10.6189 19.0413 10.5611 18.9834ZM9.1369 13.0381C8.91985 13.363 8.80401 13.7449 8.80401 14.1356V14.2127C8.82396 14.7231 9.04084 15.2059 9.40915 15.5598C9.77745 15.9138 10.2685 16.1113 10.7793 16.1109C11.17 16.1109 11.5519 15.995 11.8767 15.7779C12.2016 15.5609 12.4548 15.2524 12.6043 14.8915C12.7538 14.5305 12.7929 14.1333 12.7167 13.7502C12.6404 13.367 12.4523 13.0151 12.1761 12.7388C11.8998 12.4626 11.5479 12.2744 11.1647 12.1982C10.7815 12.122 10.3843 12.1611 10.0234 12.3106C9.66245 12.4601 9.35395 12.7133 9.1369 13.0381ZM11.8442 13.5019C11.9849 13.7125 12.06 13.9602 12.06 14.2135C12.06 14.5532 11.9251 14.879 11.6849 15.1192C11.4447 15.3594 11.1189 15.4944 10.7792 15.4944C10.5258 15.4944 10.2782 15.4192 10.0675 15.2785C9.85691 15.1377 9.69274 14.9377 9.59579 14.7036C9.49885 14.4696 9.47348 14.2121 9.5229 13.9636C9.57232 13.7151 9.69432 13.4869 9.87345 13.3078C10.0526 13.1287 10.2808 13.0066 10.5293 12.9572C10.7777 12.9078 11.0353 12.9332 11.2693 13.0301C11.5034 13.1271 11.7034 13.2912 11.8442 13.5019ZM10.212 13.8448C10.1391 13.954 10.1001 14.0822 10.1001 14.2135H10.1156C10.1193 14.3857 10.1883 14.55 10.3087 14.6732C10.429 14.7964 10.5917 14.8693 10.7637 14.8771C10.895 14.8771 11.0233 14.8382 11.1324 14.7653C11.2415 14.6923 11.3266 14.5887 11.3768 14.4674C11.427 14.3462 11.4402 14.2127 11.4146 14.084C11.389 13.9553 11.3257 13.8371 11.2329 13.7443C11.1401 13.6515 11.0219 13.5883 10.8932 13.5627C10.7645 13.5371 10.631 13.5502 10.5098 13.6004C10.3885 13.6507 10.2849 13.7357 10.212 13.8448ZM21.1645 16.4515C19.6059 16.4515 18.6646 15.7107 18.6646 14.4453C18.6646 13.7823 18.9279 13.1464 19.3968 12.6775C19.8656 12.2087 20.5015 11.9453 21.1645 11.9453C21.8276 11.9453 22.4635 12.2087 22.9323 12.6775C23.4012 13.1464 23.6646 13.7823 23.6646 14.4453C23.6646 15.6953 22.7232 16.4515 21.1645 16.4515ZM22.4968 13.1086C22.1441 12.753 21.6653 12.5513 21.1645 12.5472L21.1954 12.5626C20.9449 12.5586 20.696 12.6041 20.4631 12.6967C20.2303 12.7893 20.018 12.9271 19.8387 13.1021C19.6594 13.2771 19.5165 13.486 19.4182 13.7165C19.32 13.947 19.2684 14.1947 19.2664 14.4453C19.2664 15.6644 20.4701 15.8496 21.1645 15.8496C21.859 15.8496 23.0473 15.6644 23.0473 14.4453C23.0473 13.9445 22.8494 13.4641 22.4968 13.1086ZM18.9429 10.8028C18.9429 11.077 19.0518 11.34 19.2457 11.5339C19.4396 11.7278 19.7026 11.8368 19.9768 11.8368C20.251 11.8368 20.514 11.7278 20.7079 11.5339C20.9018 11.34 21.0108 11.077 21.0108 10.8028C21.0108 10.2936 20.5941 9.52197 19.9768 9.52197C19.3595 9.52197 18.9429 10.2781 18.9429 10.8028ZM19.9768 10.1392C20.162 10.1392 20.4089 10.525 20.4089 10.8028C20.39 10.9015 20.3373 10.9906 20.2598 11.0546C20.1824 11.1186 20.085 11.1536 19.9845 11.1536C19.884 11.1536 19.7867 11.1186 19.7092 11.0546C19.6318 10.9906 19.5791 10.9015 19.5602 10.8028C19.5447 10.5096 19.7916 10.1238 19.9768 10.1238V10.1392ZM22.81 11.743C22.6846 11.7949 22.5501 11.8217 22.4143 11.8217C22.1401 11.8217 21.8771 11.7127 21.6832 11.5188C21.4893 11.3249 21.3804 11.0619 21.3804 10.7877C21.3804 10.2784 21.797 9.50684 22.4143 9.50684C23.0316 9.50684 23.4483 10.2784 23.4483 10.7877C23.4483 10.9235 23.4215 11.0579 23.3696 11.1834C23.3176 11.3088 23.2415 11.4228 23.1454 11.5188C23.0494 11.6148 22.9354 11.691 22.81 11.743ZM22.8464 10.7723C22.8464 10.4945 22.5995 10.1087 22.4143 10.1087V10.1241C22.2291 10.1241 21.9822 10.5099 21.9977 10.7723C22.0166 10.871 22.0693 10.96 22.1467 11.024C22.2242 11.088 22.3215 11.1231 22.422 11.1231C22.5225 11.1231 22.6199 11.088 22.6973 11.024C22.7748 10.96 22.8275 10.871 22.8464 10.7723ZM24.3591 13.2875C24.4949 13.2875 24.6294 13.2607 24.7548 13.2088C24.8803 13.1568 24.9942 13.0807 25.0903 12.9846C25.1863 12.8886 25.2624 12.7747 25.3144 12.6492C25.3664 12.5238 25.3931 12.3893 25.3931 12.2535C25.3931 11.7443 24.9764 10.9727 24.3591 10.9727C23.7419 10.9727 23.3252 11.7443 23.3252 12.2535C23.3252 12.3893 23.3519 12.5238 23.4039 12.6492C23.4559 12.7747 23.532 12.8886 23.628 12.9846C23.724 13.0807 23.838 13.1568 23.9635 13.2088C24.0889 13.2607 24.2234 13.2875 24.3591 13.2875ZM24.3591 11.5745C24.5443 11.5745 24.7912 11.9603 24.7912 12.2381C24.8032 12.3006 24.8012 12.365 24.7854 12.4266C24.7697 12.4883 24.7404 12.5457 24.6999 12.5947C24.6594 12.6437 24.6085 12.6832 24.5509 12.7103C24.4933 12.7374 24.4305 12.7515 24.3669 12.7515C24.3032 12.7515 24.2404 12.7374 24.1828 12.7103C24.1252 12.6832 24.0744 12.6437 24.0338 12.5947C23.9933 12.5457 23.9641 12.4883 23.9483 12.4266C23.9325 12.365 23.9305 12.3006 23.9425 12.2381C23.9425 11.9603 24.174 11.59 24.3591 11.59V11.5745ZM16.9832 12.2535C16.9832 11.7443 17.3998 10.9727 18.0171 10.9727C18.6653 10.9727 19.0665 11.7443 19.0511 12.2535C19.0511 12.5278 18.9421 12.7907 18.7482 12.9846C18.5543 13.1786 18.2913 13.2875 18.0171 13.2875C17.7429 13.2875 17.4799 13.1786 17.286 12.9846C17.0921 12.7907 16.9832 12.5278 16.9832 12.2535ZM17.7116 12.5591C17.7926 12.6401 17.9025 12.6856 18.0171 12.6856C18.1317 12.6856 18.2416 12.6401 18.3226 12.5591C18.4037 12.4781 18.4492 12.3681 18.4492 12.2535C18.4492 11.9758 18.2023 11.59 18.0171 11.59C17.8319 11.59 17.585 11.9603 17.585 12.2535C17.585 12.3681 17.6305 12.4781 17.7116 12.5591Z" fill="white"/>
</svg>
