<svg width="35" height="35" viewBox="0 0 35 35" fill="none" xmlns="http://www.w3.org/2000/svg">
<rect width="35" height="35" fill="#1C191B"/>
<path fill-rule="evenodd" clip-rule="evenodd" d="M19.0587 9.53702C19.4917 8.79745 20.0964 8.17295 20.8216 7.71632C21.5468 7.2597 22.3713 6.98435 23.2254 6.91354L21.605 9.81478L21.0186 10.2314C20.9882 10.2526 20.9655 10.2832 20.9541 10.3185C20.9427 10.3537 20.9432 10.3918 20.9555 10.4268C20.9677 10.4618 20.9911 10.4918 21.022 10.5122C21.0529 10.5327 21.0896 10.5425 21.1266 10.5401H21.2192L21.8056 10.1234L22.747 11.0185C22.7867 11.034 22.8307 11.034 22.8704 11.0185C22.905 11.0199 22.9392 11.0108 22.9685 10.9923C22.9977 10.9737 23.0205 10.9466 23.034 10.9147C23.0474 10.8828 23.0508 10.8476 23.0436 10.8137C23.0364 10.7799 23.0191 10.749 22.9939 10.7253L22.0062 9.78394L23.7192 6.69752C23.7341 6.67171 23.7419 6.6424 23.7419 6.61261C23.7419 6.58281 23.7341 6.55355 23.7192 6.52774C23.706 6.50165 23.6863 6.47944 23.6619 6.46322C23.6376 6.447 23.6095 6.43731 23.5803 6.43515C22.6118 6.42946 21.6595 6.68433 20.8233 7.17304C19.9871 7.66174 19.2976 8.36627 18.8272 9.21291C18.8116 9.24937 18.8092 9.29017 18.8205 9.3282C18.8318 9.36622 18.8561 9.39907 18.8891 9.42107C18.9221 9.44307 18.9617 9.45282 19.0012 9.44862C19.0406 9.44442 19.0774 9.42659 19.105 9.39813L19.0587 9.53702ZM17.5695 14.4432C17.5455 14.4432 17.5219 14.4381 17.5 14.4283V14.3048C17.4832 14.289 17.4698 14.2698 17.4607 14.2486C17.4515 14.2274 17.4468 14.2045 17.4468 14.1814C17.4468 14.1582 17.4515 14.1354 17.4607 14.1142C17.4698 14.0929 17.4832 14.0738 17.5 14.0579C17.5892 13.9479 17.6668 13.829 17.7315 13.703C18.0493 12.6065 18.1644 11.4612 18.071 10.3233C18.0244 10.0527 18.0244 9.77607 18.071 9.50544H18.1945L22.0679 11.3419H24.5679L26.8827 7.85424C26.9046 7.84445 26.9282 7.83936 26.9522 7.83936C26.9761 7.83936 26.9998 7.84445 27.0216 7.85424C27.0662 7.83622 27.116 7.83622 27.1605 7.85424C27.9439 8.86573 28.3689 10.1088 28.3689 11.3882C28.3689 12.6675 27.9439 13.9106 27.1605 14.9221C26.6301 15.5167 25.9814 15.994 25.256 16.3235C24.5305 16.653 23.7443 16.8274 22.9475 16.8357C22.2145 16.8301 21.4996 17.063 20.9105 17.4993L19.5525 18.8882C19.5128 18.9037 19.4687 18.9037 19.429 18.8882C19.3893 18.9037 19.3453 18.9037 19.3056 18.8882C19.2888 18.8723 19.2754 18.8532 19.2662 18.8319C19.2571 18.8107 19.2523 18.7878 19.2523 18.7647C19.2523 18.7416 19.2571 18.7187 19.2662 18.6975C19.2754 18.6763 19.2888 18.6571 19.3056 18.6413L20.6636 17.2369C21.3016 16.7356 22.0899 16.4638 22.9013 16.4653C23.643 16.48 24.3797 16.3409 25.0649 16.0567C25.7502 15.7725 26.3691 15.3494 26.8827 14.8141C27.3954 14.172 27.7515 13.4194 27.9229 12.6158C28.0944 11.8123 28.0764 10.9798 27.8704 10.1845C27.6994 9.53406 27.4175 8.91805 27.0371 8.36348L24.7994 11.7277C24.7776 11.7375 24.7539 11.7425 24.73 11.7425C24.706 11.7425 24.6824 11.7375 24.6605 11.7277H22.0371H21.9599L18.2716 9.98383V10.4777C18.3681 11.6684 18.2425 12.8667 17.9013 14.0116C17.8286 14.1593 17.7406 14.2989 17.6389 14.4283C17.6171 14.4381 17.5934 14.4432 17.5695 14.4432ZM17.4537 20.6326L13.7963 24.4444L10.9413 27.4227C10.5116 27.8504 9.92955 28.0899 9.32324 28.0885C8.71693 28.087 8.13603 27.8448 7.70832 27.415C7.28062 26.9853 7.04115 26.4032 7.0426 25.7969C7.04405 25.1906 7.28629 24.6097 7.71604 24.182L8.84258 23.1172C9.89196 22.1295 11.4969 20.6172 13.0555 19.1048C13.0724 19.089 13.0858 19.0698 13.0949 19.0486C13.1041 19.0274 13.1088 19.0045 13.1088 18.9814C13.1088 18.9583 13.1041 18.9354 13.0949 18.9141C13.0858 18.8929 13.0724 18.8738 13.0555 18.8579C13.0397 18.8411 13.0205 18.8277 12.9993 18.8186C12.9781 18.8094 12.9552 18.8047 12.9321 18.8047C12.909 18.8047 12.8861 18.8094 12.8649 18.8186C12.8436 18.8277 12.8245 18.8411 12.8086 18.8579L12.8084 18.8581L12.8084 18.8581C11.2653 20.4013 9.72216 21.9444 8.59567 22.8703L7.46913 23.9505C7.02467 24.4506 6.78809 25.1016 6.80778 25.7704C6.82746 26.4392 7.10193 27.0752 7.57503 27.5483C8.04814 28.0214 8.68412 28.2959 9.3529 28.3156C10.0217 28.3353 10.6727 28.0987 11.1728 27.6542L14.0432 24.6604L17.7006 20.8487C17.7174 20.8328 17.7308 20.8137 17.74 20.7924C17.7491 20.7712 17.7538 20.7483 17.7538 20.7252C17.7538 20.7021 17.7491 20.6792 17.74 20.658C17.7308 20.6367 17.7174 20.6176 17.7006 20.6017C17.6827 20.5867 17.6619 20.5756 17.6395 20.569C17.6171 20.5624 17.5936 20.5604 17.5704 20.5633C17.5472 20.5662 17.5249 20.5739 17.5048 20.5858C17.4847 20.5977 17.4673 20.6137 17.4537 20.6326ZM8.36414 24.8455C8.15572 25.1096 8.05149 25.441 8.07121 25.7769C8.09093 26.1127 8.23323 26.4296 8.47112 26.6675C8.70902 26.9054 9.02594 27.0477 9.36179 27.0674C9.69764 27.0872 10.0291 26.9829 10.2931 26.7745C10.5467 26.5175 10.6888 26.171 10.6888 25.81C10.6888 25.449 10.5467 25.1025 10.2931 24.8455C10.0324 24.5991 9.68734 24.4619 9.32864 24.4619C8.96995 24.4619 8.62485 24.5991 8.36414 24.8455ZM10.0617 26.543C9.86638 26.7298 9.60658 26.834 9.33636 26.834C9.06614 26.834 8.80633 26.7298 8.61105 26.543C8.47006 26.4 8.37449 26.2185 8.33636 26.0214C8.29824 25.8242 8.31925 25.6201 8.39676 25.4349C8.47427 25.2496 8.60483 25.0914 8.77201 24.9801C8.93919 24.8688 9.13553 24.8095 9.33636 24.8095C9.53718 24.8095 9.73353 24.8688 9.90071 24.9801C10.0679 25.0914 10.1984 25.2496 10.276 25.4349C10.3535 25.6201 10.3745 25.8242 10.3364 26.0214C10.2982 26.2185 10.2027 26.4 10.0617 26.543ZM11.4354 25.7253C11.3957 25.7408 11.3517 25.7408 11.312 25.7253C11.2547 25.7375 11.1948 25.7265 11.1456 25.6947C11.0964 25.6629 11.0619 25.6128 11.0496 25.5555C11.0373 25.4982 11.0483 25.4384 11.0802 25.3892C11.112 25.34 11.1621 25.3055 11.2194 25.2932C11.2665 25.0568 11.2499 24.8122 11.1713 24.5844C11.0926 24.3566 10.9548 24.1538 10.7718 23.9969C10.6201 23.8167 10.4221 23.6812 10.1991 23.6051C9.97618 23.5289 9.73669 23.515 9.50641 23.5648H9.41382L13.3336 19.537C13.3663 19.5042 13.4107 19.4858 13.457 19.4858C13.5033 19.4858 13.5477 19.5042 13.5805 19.537C13.6132 19.5697 13.6316 19.6142 13.6316 19.6605C13.6316 19.7068 13.6132 19.7512 13.5805 19.7839L9.81505 23.4722C10.2399 23.5188 10.634 23.7159 10.9262 24.0277C11.2437 24.3239 11.446 24.7231 11.4972 25.1543L15.2009 21.2963C15.2155 21.278 15.2337 21.2629 15.2545 21.252C15.2752 21.2411 15.2979 21.2346 15.3213 21.2329C15.3447 21.2312 15.3681 21.2344 15.3902 21.2422C15.4123 21.2501 15.4325 21.2624 15.4496 21.2784C15.4666 21.2944 15.4802 21.3138 15.4895 21.3353C15.4987 21.3568 15.5034 21.38 15.5032 21.4035C15.503 21.4269 15.498 21.45 15.4885 21.4714C15.4789 21.4928 15.4651 21.512 15.4478 21.5277L11.4354 25.7253ZM14.3672 19.0587C14.4069 19.0742 14.4509 19.0742 14.4906 19.0587L15.6943 18.8118C15.7168 18.8081 15.7383 18.7999 15.7575 18.7877C15.7767 18.7756 15.7933 18.7597 15.8063 18.7409C15.8192 18.7222 15.8283 18.7011 15.8329 18.6788C15.8376 18.6565 15.8377 18.6335 15.8332 18.6112C15.8295 18.5887 15.8213 18.5672 15.8092 18.548C15.797 18.5287 15.7811 18.5122 15.7623 18.4992C15.7436 18.4862 15.7225 18.4772 15.7002 18.4725C15.6779 18.4679 15.6549 18.4678 15.6326 18.4723L14.5215 18.7038L7.08321 10.9877C7.03375 10.9397 6.99457 10.882 6.96804 10.8184C6.94151 10.7547 6.92819 10.6863 6.92889 10.6173C6.93162 10.4833 6.98707 10.3558 7.08321 10.2624L9.25914 8.08649C9.30652 8.03843 9.36298 8.00026 9.42523 7.97421C9.48749 7.94816 9.55431 7.93475 9.62179 7.93475C9.68928 7.93475 9.75609 7.94816 9.81835 7.97421C9.88061 8.00026 9.93707 8.03843 9.98445 8.08649L17.4227 15.8025L17.2067 16.929C17.2067 16.9741 17.2246 17.0173 17.2564 17.0491C17.2882 17.0809 17.3314 17.0988 17.3764 17.0988C17.4214 17.0988 17.4646 17.0809 17.4965 17.0491C17.5283 17.0173 17.5462 16.9741 17.5462 16.929L17.7931 15.7253C17.8053 15.7015 17.8116 15.675 17.8116 15.6482C17.8116 15.6214 17.8053 15.595 17.7931 15.5711L10.2931 7.71608C10.2142 7.63676 10.1204 7.57386 10.0171 7.53091C9.91386 7.48795 9.8031 7.46582 9.69124 7.46582C9.57937 7.46582 9.46862 7.48795 9.36533 7.53091C9.26204 7.57386 9.16826 7.63676 9.08939 7.71608L6.91346 9.89201C6.75696 10.0533 6.66943 10.2692 6.66943 10.4939C6.66943 10.7186 6.75696 10.9345 6.91346 11.0957L14.3672 19.0587ZM15.3503 16.8655C15.2369 16.939 15.1041 16.977 14.969 16.9746C14.7893 16.9736 14.6173 16.9015 14.4906 16.774L8.67273 10.6011C8.54645 10.4739 8.47559 10.302 8.47559 10.1227C8.47559 9.94351 8.54645 9.7715 8.67273 9.64431C8.80254 9.51707 8.97707 9.4458 9.15884 9.4458C9.34061 9.4458 9.51514 9.51707 9.64495 9.64431L15.4629 15.8171C15.5581 15.913 15.6225 16.0351 15.648 16.1679C15.6734 16.3006 15.6587 16.4379 15.6056 16.5621C15.5526 16.6864 15.4637 16.7921 15.3503 16.8655ZM8.89563 9.8981C8.83196 9.96177 8.79619 10.0481 8.79619 10.1381H8.81162C8.80918 10.222 8.83651 10.304 8.88878 10.3696L14.7067 16.5425C14.7721 16.6021 14.8574 16.6352 14.9459 16.6352C15.0344 16.6352 15.1197 16.6021 15.1851 16.5425C15.2482 16.4789 15.2836 16.3929 15.2836 16.3033C15.2836 16.2136 15.2482 16.1277 15.1851 16.0641L9.36718 9.89123C9.30455 9.83212 9.2218 9.79903 9.13569 9.79864C9.04565 9.79864 8.9593 9.83443 8.89563 9.8981ZM13.9969 18.0088C14.0369 18.0229 14.0804 18.0229 14.1204 18.0088C14.1601 18.0243 14.2042 18.0243 14.2438 18.0088C14.3714 17.8822 14.4435 17.7101 14.4445 17.5304C14.4449 17.4413 14.4273 17.353 14.3928 17.2708C14.3584 17.1886 14.3077 17.1142 14.2438 17.052L8.42595 10.8792C8.29614 10.7519 8.12161 10.6807 7.93984 10.6807C7.75806 10.6807 7.58354 10.7519 7.45372 10.8792C7.43751 10.8954 7.42465 10.9146 7.41588 10.9358C7.4071 10.957 7.40259 10.9797 7.40259 11.0026C7.40259 11.0255 7.4071 11.0483 7.41588 11.0694C7.42465 11.0906 7.43751 11.1099 7.45372 11.1261C7.46994 11.1423 7.48919 11.1551 7.51037 11.1639C7.53155 11.1727 7.55425 11.1772 7.57718 11.1772C7.60011 11.1772 7.62281 11.1727 7.644 11.1639C7.66518 11.1551 7.68443 11.1423 7.70064 11.1261C7.76602 11.0664 7.85133 11.0334 7.93984 11.0334C8.02834 11.0334 8.11365 11.0664 8.17903 11.1261L13.9969 17.2989C14.0601 17.3625 14.0955 17.4485 14.0955 17.5381C14.0955 17.6277 14.0601 17.7137 13.9969 17.7773C13.9676 17.8087 13.9514 17.8501 13.9514 17.893C13.9514 17.936 13.9676 17.9774 13.9969 18.0088ZM16.6511 15.5704C16.5245 15.698 16.3524 15.7701 16.1727 15.771C16.08 15.7706 15.9884 15.7512 15.9034 15.7141C15.8185 15.6769 15.7421 15.6228 15.6789 15.555L9.86096 9.38212C9.73468 9.25492 9.66382 9.08296 9.66382 8.90373C9.66382 8.72449 9.73468 8.55253 9.86096 8.42533C9.87683 8.40852 9.89597 8.39512 9.9172 8.38596C9.93843 8.37681 9.9613 8.37207 9.98442 8.37207C10.0075 8.37207 10.0304 8.37681 10.0516 8.38596C10.0729 8.39512 10.092 8.40852 10.1079 8.42533C10.1247 8.4412 10.1381 8.46034 10.1472 8.48157C10.1564 8.5028 10.1611 8.52565 10.1611 8.54877C10.1611 8.57189 10.1564 8.59479 10.1472 8.61602C10.1381 8.63725 10.1247 8.65639 10.1079 8.67225C10.0447 8.73585 10.0093 8.82183 10.0093 8.91145C10.0093 9.00107 10.0447 9.08705 10.1079 9.15065L15.9258 15.3235C15.9894 15.3866 16.0754 15.4221 16.165 15.4221C16.2546 15.4221 16.3406 15.3866 16.4042 15.3235C16.4369 15.2907 16.4813 15.2723 16.5276 15.2723C16.5739 15.2723 16.6183 15.2907 16.6511 15.3235C16.6838 15.3562 16.7022 15.4006 16.7022 15.4469C16.7022 15.4932 16.6838 15.5377 16.6511 15.5704ZM16.173 20.8013C16.2129 20.8154 16.2565 20.8154 16.2964 20.8013L19.3829 17.7149C19.3997 17.699 19.4131 17.6799 19.4222 17.6587C19.4314 17.6374 19.4361 17.6146 19.4361 17.5914C19.4361 17.5683 19.4314 17.5454 19.4222 17.5242C19.4131 17.503 19.3997 17.4838 19.3829 17.468L18.5187 16.4649C18.5028 16.4481 18.4837 16.4347 18.4624 16.4255C18.4412 16.4164 18.4183 16.4116 18.3952 16.4116C18.3721 16.4116 18.3492 16.4164 18.328 16.4255C18.3067 16.4347 18.2876 16.4481 18.2717 16.4649L15.1853 19.5513C15.1685 19.5672 15.1551 19.5863 15.146 19.6075C15.1368 19.6288 15.1321 19.6516 15.1321 19.6747C15.1321 19.6979 15.1368 19.7208 15.146 19.742C15.1551 19.7632 15.1685 19.7824 15.1853 19.7982L16.1575 20.7705C16.1616 20.7812 16.1668 20.7916 16.173 20.8013ZM18.3489 16.7581L19.0742 17.4834L16.173 20.3847L15.4477 19.6593L18.3489 16.7581ZM26.0033 25.0767L27.4539 27.4996C27.4969 27.5037 27.5365 27.5247 27.5639 27.558C27.5914 27.5913 27.6046 27.6341 27.6005 27.6771C27.5964 27.7201 27.5754 27.7596 27.5421 27.7871C27.5088 27.8146 27.466 27.8278 27.423 27.8237L26.6977 28.549C26.658 28.5645 26.614 28.5645 26.5743 28.549H26.4817L24.0588 27.0984C24.0529 27.073 24.0529 27.0466 24.0588 27.0212L23.5959 25.6169L17.8243 20.1848C17.806 20.1702 17.7909 20.1519 17.78 20.1312C17.7691 20.1105 17.7626 20.0877 17.7609 20.0643C17.7593 20.041 17.7624 20.0175 17.7703 19.9955C17.7781 19.9734 17.7904 19.9532 17.8064 19.9361C17.8224 19.919 17.8418 19.9054 17.8633 19.8962C17.8848 19.887 17.908 19.8823 17.9315 19.8824C17.9549 19.8826 17.978 19.8876 17.9994 19.8971C18.0208 19.9067 18.04 19.9206 18.0557 19.9379L23.8582 25.4009L24.3212 26.7897L26.5743 28.1323L27.1144 27.5922L25.7718 25.3391L24.3829 24.8762L18.5804 19.4132C18.5621 19.3986 18.5471 19.3803 18.5362 19.3596C18.5253 19.3389 18.5188 19.3161 18.5171 19.2927C18.5154 19.2694 18.5186 19.2459 18.5264 19.2239C18.5343 19.2018 18.5466 19.1816 18.5626 19.1645C18.5786 19.1474 18.598 19.1338 18.6195 19.1246C18.641 19.1154 18.6642 19.1107 18.6876 19.1108C18.7111 19.111 18.7342 19.116 18.7556 19.1255C18.777 19.1351 18.7961 19.149 18.8119 19.1663L24.5835 24.5984L26.0033 25.0767Z" fill="white"/>
</svg>
