<svg width="36" height="35" viewBox="0 0 36 35" fill="none" xmlns="http://www.w3.org/2000/svg">
<rect x="0.193115" width="35" height="35" fill="#78736F"/>
<path fill-rule="evenodd" clip-rule="evenodd" d="M33.5113 19.599L33.7428 20.525C33.7308 20.5592 33.7104 20.5899 33.6834 20.6142C33.6565 20.6384 33.6238 20.6555 33.5885 20.6639H31.1502C31.0888 20.6639 31.03 20.6394 30.9865 20.596C30.9431 20.5526 30.9187 20.4938 30.9187 20.4324C30.9187 20.371 30.9431 20.3121 30.9865 20.2687C31.03 20.2253 31.0888 20.2009 31.1502 20.2009H33.2799L33.1101 19.5527V19.383H32.1533C32.0899 19.383 32.029 19.3578 31.9842 19.3129C31.9393 19.2681 31.9141 19.2072 31.9141 19.1438C31.9141 19.0803 31.9393 19.0195 31.9842 18.9746C32.029 18.9298 32.0899 18.9046 32.1533 18.9046H33.2723L33.2721 18.9123C33.2721 18.9757 33.2973 19.0366 33.3422 19.0815C33.3871 19.1263 33.4479 19.1515 33.5113 19.1515V19.599ZM33.2728 18.8941C33.2949 18.901 33.3181 18.9046 33.3416 18.9046H33.2723L33.2728 18.8941ZM33.2728 18.8941C33.2373 18.8831 33.2047 18.8636 33.1779 18.8368C33.1345 18.7934 33.1101 18.7345 33.1101 18.6731V17.7781L32.8941 17.346L32.6626 17.0065C30.3169 16.991 29.6996 16.5898 29.5762 16.4818C29.5718 16.4562 29.5718 16.4301 29.5762 16.4046C29.5657 16.3485 29.5657 16.291 29.5762 16.2348L31.1194 15.9262C29.2589 15.2827 27.3146 14.9137 25.3478 14.8305C25.3024 14.8438 25.2542 14.8438 25.2089 14.8305L25.2006 14.8248C25.1423 14.7848 24.7941 14.5453 24.249 14.2116C24.256 14.2343 24.2596 14.258 24.2596 14.2822C24.2596 14.3456 24.2344 14.4065 24.1896 14.4513C24.1447 14.4962 24.0839 14.5214 24.0204 14.5214H12.1068C10.5515 14.5214 8.55056 13.5072 8.54205 12.3835C8.44428 12.4065 8.34659 12.43 8.249 12.454H6.70579L7.01444 13.0558C7.02718 13.085 7.03376 13.1166 7.03376 13.1484C7.03376 13.1803 7.02718 13.2118 7.01444 13.241C7.00202 13.2724 6.98328 13.301 6.95939 13.3248C6.9355 13.3487 6.90697 13.3675 6.87555 13.3799L5.37506 13.984C5.39066 13.9935 5.4052 14.0049 5.41833 14.018C5.46174 14.0614 5.48613 14.1203 5.48613 14.1817V15.6169C5.50378 15.6668 5.50378 15.7212 5.48613 15.7712C5.46473 15.7951 5.43859 15.8144 5.40936 15.8276C5.38014 15.8409 5.34847 15.848 5.31638 15.8484H3.88119C3.94258 15.8484 4.00146 15.8727 4.04487 15.9161C4.08828 15.9595 4.11267 16.0184 4.11267 16.0798V17.515C4.11267 17.5784 4.08747 17.6393 4.04261 17.6842C3.99775 17.729 3.93691 17.7542 3.87348 17.7542C3.81004 17.7542 3.7492 17.729 3.70434 17.6842C3.65948 17.6393 3.63428 17.5784 3.63428 17.515V16.0798C3.63428 16.0184 3.65867 15.9595 3.70208 15.9161C3.74549 15.8727 3.80437 15.8484 3.86576 15.8484H3.7886C3.78397 15.8228 3.78397 15.7967 3.7886 15.7712C3.77317 15.7403 3.75773 15.3854 3.75773 15.3854L3.98921 13.9502H4.06638H4.23865C4.24233 13.9462 4.24614 13.9424 4.25008 13.9387C4.27296 13.9171 4.29986 13.9003 4.32925 13.8891L6.47431 13.0249L6.11938 12.2996C6.09906 12.2644 6.08836 12.2246 6.08836 12.1839C6.08836 12.1433 6.09906 12.1034 6.11938 12.0682C6.14066 12.0344 6.17032 12.0067 6.20547 11.9878C6.24062 11.9688 6.28007 11.9593 6.31999 11.9601H8.37246C11.345 11.2309 14.4028 10.909 17.462 11.0033C20.9959 11.2811 25.0546 13.9663 25.6255 14.3676C27.9125 14.4953 30.1663 14.9741 32.3076 15.7873L33.2644 17.2071L33.5113 17.7163V18.6731C33.4479 18.6731 33.3871 18.6983 33.3422 18.7432C33.3016 18.7837 33.2772 18.8373 33.2728 18.8941ZM30.4766 18.9748C30.7649 19.4063 30.9187 19.9135 30.9187 20.4324C30.9187 21.1282 30.6424 21.7955 30.1504 22.2875C29.6584 22.7794 28.9911 23.0558 28.2953 23.0558C27.7764 23.0558 27.2692 22.902 26.8378 22.6137C26.4064 22.3254 26.0701 21.9157 25.8715 21.4363C25.673 20.9569 25.621 20.4295 25.7222 19.9206C25.8235 19.4117 26.0733 18.9442 26.4402 18.5773C26.8071 18.2104 27.2746 17.9606 27.7835 17.8593C28.2924 17.7581 28.8199 17.81 29.2992 18.0086C29.7786 18.2072 30.1884 18.5434 30.4766 18.9748ZM17.2305 11.5126C19.6189 11.6586 22.402 13.1087 23.9697 14.043H12.0914C10.7179 14.0275 9.02042 13.117 9.00499 12.3609C9.00499 12.3334 9.00009 12.3064 8.99078 12.281C11.0183 11.8327 13.0825 11.5753 15.1561 11.5116L15.6253 13.8425C15.6308 13.8732 15.6425 13.9025 15.6595 13.9285C15.6766 13.9546 15.6988 13.977 15.7248 13.9943C15.7507 14.0116 15.7799 14.0234 15.8105 14.0292C15.8412 14.0349 15.8726 14.0344 15.9031 14.0277C15.9338 14.0222 15.963 14.0106 15.9891 13.9935C16.0152 13.9764 16.0376 13.9542 16.0548 13.9283C16.0721 13.9023 16.084 13.8731 16.0898 13.8425C16.0955 13.8119 16.095 13.7804 16.0883 13.7499L15.6354 11.5004C16.1668 11.4917 16.6986 11.4958 17.2305 11.5126ZM27.1036 22.2777C27.4563 22.5134 27.871 22.6392 28.2953 22.6392C28.8642 22.6392 29.4098 22.4131 29.8121 22.0109C30.2144 21.6086 30.4404 21.063 30.4404 20.4941C30.4404 20.0698 30.3146 19.6551 30.0789 19.3024C29.8431 18.9496 29.5081 18.6747 29.1162 18.5123C28.7242 18.35 28.2929 18.3075 27.8768 18.3902C27.4607 18.473 27.0785 18.6773 26.7785 18.9773C26.4785 19.2773 26.2742 19.6595 26.1915 20.0756C26.1087 20.4917 26.1512 20.923 26.3135 21.315C26.4759 21.7069 26.7508 22.042 27.1036 22.2777ZM30.6866 16.2659C31.2157 16.3716 31.7528 16.4335 32.2922 16.4509L31.999 16.0034L30.6866 16.2659ZM3.75823 19.7838L6.41255 20.2313L6.39712 20.1542C6.46055 20.1542 6.5214 20.1794 6.56626 20.2242C6.5885 20.2465 6.60591 20.2726 6.61781 20.3011C6.62505 20.1841 6.64016 20.0673 6.6632 19.9515C6.76443 19.4426 7.01429 18.9751 7.38119 18.6082C7.74809 18.2413 8.21554 17.9915 8.72444 17.8903C9.23334 17.789 9.76083 17.841 10.2402 18.0395C10.7196 18.2381 11.1293 18.5744 11.4176 19.0058C11.7058 19.4372 11.8597 19.9444 11.8597 20.4633C11.8597 21.1591 11.5833 21.8264 11.0913 22.3184C10.5993 22.8104 9.93203 23.0868 9.23625 23.0868C8.71738 23.0868 8.21016 22.9329 7.77874 22.6446C7.34731 22.3564 7.01106 21.9466 6.81249 21.4673C6.68428 21.1577 6.61719 20.8281 6.613 20.4964C6.6014 20.5207 6.58567 20.5431 6.56626 20.5625C6.5214 20.6074 6.46055 20.6326 6.39712 20.6326L3.54218 20.1542C3.48756 20.1438 3.43805 20.1153 3.40164 20.0733C3.36523 20.0313 3.34406 19.9782 3.34156 19.9227V18.4875C3.32007 18.4329 3.32007 18.3723 3.34156 18.3178L3.81996 17.8394C3.8745 17.8179 3.93517 17.8179 3.98971 17.8394H5.4249C5.48833 17.8394 5.54918 17.8645 5.59403 17.9094C5.63889 17.9543 5.66409 18.0151 5.66409 18.0786C5.66409 18.142 5.63889 18.2028 5.59403 18.2477C5.54918 18.2925 5.48833 18.3178 5.4249 18.3178H4.09773L3.75823 18.6573V19.7838ZM11.8597 20.4633C11.8597 20.4019 11.8841 20.343 11.9275 20.2996C11.9709 20.2562 12.0298 20.2318 12.0912 20.2318H25.44L25.4245 20.2164C25.488 20.2164 25.5488 20.2416 25.5937 20.2864C25.6385 20.3313 25.6637 20.3921 25.6637 20.4556C25.6637 20.519 25.6385 20.5799 25.5937 20.6247C25.5488 20.6696 25.488 20.6948 25.4245 20.6948H12.0912C12.0298 20.6948 11.9709 20.6704 11.9275 20.627C11.8841 20.5836 11.8597 20.5247 11.8597 20.4633ZM4.43675 14.5058H5.19292V15.4626H4.28243L4.43675 14.5058ZM8.04452 22.2777C8.39727 22.5134 8.812 22.6392 9.23625 22.6392C9.80516 22.6392 10.3508 22.4132 10.753 22.0109C11.1553 21.6086 11.3813 21.063 11.3813 20.4941C11.3813 20.0699 11.2555 19.6552 11.0198 19.3024C10.7841 18.9497 10.4491 18.6747 10.0571 18.5124C9.66517 18.35 9.23387 18.3075 8.81777 18.3903C8.40167 18.4731 8.01945 18.6774 7.71946 18.9774C7.41947 19.2774 7.21517 19.6596 7.1324 20.0757C7.04964 20.4918 7.09212 20.9231 7.25447 21.3151C7.41683 21.707 7.69176 22.042 8.04452 22.2777ZM28.3108 20.2318C28.2494 20.2318 28.1906 20.2562 28.1471 20.2996C28.1037 20.343 28.0793 20.4018 28.0793 20.4632C28.0833 20.526 28.111 20.5849 28.1569 20.6279C28.2028 20.6709 28.2634 20.6948 28.3263 20.6947C28.3897 20.6947 28.4505 20.6695 28.4954 20.6247C28.5403 20.5798 28.5655 20.5189 28.5655 20.4555C28.5655 20.3921 28.5403 20.3312 28.4954 20.2864C28.4505 20.2415 28.3897 20.2163 28.3263 20.2163L28.3108 20.2318ZM28.3875 19.7336C28.3584 19.7462 28.327 19.7527 28.2953 19.7526C28.2363 19.757 28.1778 19.7387 28.1319 19.7014C28.0859 19.6641 28.0561 19.6106 28.0483 19.552V19.0273C28.0483 18.9638 28.0735 18.903 28.1184 18.8581C28.1633 18.8133 28.2241 18.7881 28.2875 18.7881C28.351 18.7881 28.4118 18.8133 28.4567 18.8581C28.5015 18.903 28.5267 18.9638 28.5267 19.0273V19.5057C28.5288 19.5373 28.5244 19.5691 28.5137 19.599C28.5031 19.6289 28.4864 19.6562 28.4646 19.6794C28.4429 19.7026 28.4167 19.721 28.3875 19.7336ZM28.295 21.1729C28.2336 21.1729 28.1747 21.1973 28.1313 21.2407C28.0879 21.2841 28.0635 21.343 28.0635 21.4044V21.8828C28.0635 21.9462 28.0887 22.007 28.1335 22.0519C28.1784 22.0968 28.2392 22.122 28.3027 22.122C28.3661 22.122 28.427 22.0968 28.4718 22.0519C28.5167 22.007 28.5419 21.9462 28.5419 21.8828V21.4044C28.5419 21.3727 28.5355 21.3412 28.5229 21.3121C28.5103 21.283 28.4919 21.2567 28.4687 21.235C28.4456 21.2133 28.4182 21.1966 28.3883 21.1859C28.3584 21.1752 28.3266 21.1708 28.295 21.1729ZM27.5016 20.2988C27.545 20.3422 27.5694 20.401 27.5694 20.4624C27.5716 20.4941 27.5671 20.5259 27.5565 20.5558C27.5458 20.5857 27.5291 20.6131 27.5073 20.6362C27.4856 20.6594 27.4594 20.6778 27.4303 20.6904C27.4011 20.703 27.3697 20.7094 27.338 20.7093H26.8596C26.7961 20.7093 26.7353 20.6841 26.6904 20.6393C26.6456 20.5944 26.6204 20.5336 26.6204 20.4702C26.6204 20.4067 26.6456 20.3459 26.6904 20.301C26.7353 20.2562 26.7961 20.231 26.8596 20.231H27.338C27.3993 20.231 27.4582 20.2554 27.5016 20.2988ZM29.2363 20.231C29.1728 20.231 29.112 20.2562 29.0671 20.301C29.0223 20.3459 28.9971 20.4067 28.9971 20.4702C28.9971 20.5336 29.0223 20.5944 29.0671 20.6393C29.112 20.6841 29.1728 20.7093 29.2363 20.7093H29.7147C29.7781 20.7093 29.8389 20.6841 29.8838 20.6393C29.9287 20.5944 29.9539 20.5336 29.9539 20.4702C29.9539 20.4067 29.9287 20.3459 29.8838 20.301C29.8389 20.2562 29.7781 20.231 29.7147 20.231H29.2363ZM27.2764 19.2192C27.3401 19.2192 27.4012 19.2445 27.4462 19.2896L27.7857 19.5674C27.8207 19.5997 27.8449 19.642 27.855 19.6886C27.865 19.7352 27.8605 19.7838 27.8419 19.8277C27.8233 19.8716 27.7917 19.9086 27.7512 19.9339C27.7108 19.9591 27.6635 19.9712 27.616 19.9686C27.5614 19.9901 27.5007 19.9901 27.4462 19.9686L27.1067 19.6291C27.0617 19.584 27.0364 19.523 27.0364 19.4593C27.0364 19.3957 27.0617 19.3346 27.1067 19.2896C27.1517 19.2445 27.2128 19.2192 27.2764 19.2192ZM29.1288 20.9722C29.0838 20.9271 29.0227 20.9019 28.9591 20.9019C28.8954 20.9019 28.8343 20.9271 28.7893 20.9722C28.7443 21.0172 28.719 21.0782 28.719 21.1419C28.719 21.2056 28.7443 21.2667 28.7893 21.3117L29.1288 21.6511C29.1511 21.6734 29.1776 21.6911 29.2067 21.7032C29.2358 21.7152 29.267 21.7215 29.2986 21.7215C29.3301 21.7215 29.3613 21.7152 29.3904 21.7032C29.4196 21.6911 29.446 21.6734 29.4683 21.6511C29.4906 21.6288 29.5083 21.6024 29.5204 21.5733C29.5324 21.5442 29.5386 21.5129 29.5386 21.4814C29.5386 21.4499 29.5324 21.4187 29.5204 21.3895C29.5083 21.3604 29.4906 21.334 29.4683 21.3117L29.1288 20.9722ZM27.1067 21.3116L27.4462 20.9721C27.4679 20.9487 27.4941 20.9301 27.5233 20.9173C27.5525 20.9046 27.5841 20.8979 27.616 20.8979C27.6478 20.8979 27.6794 20.9046 27.7086 20.9173C27.7378 20.9301 27.764 20.9487 27.7857 20.9721C27.8091 20.9937 27.8277 21.02 27.8405 21.0492C27.8532 21.0784 27.8598 21.1099 27.8598 21.1418C27.8598 21.1737 27.8532 21.2052 27.8405 21.2344C27.8277 21.2637 27.8091 21.2899 27.7857 21.3116L27.4462 21.651C27.4012 21.6961 27.3401 21.7214 27.2764 21.7214C27.2128 21.7214 27.1517 21.6961 27.1067 21.651C27.0617 21.606 27.0364 21.545 27.0364 21.4813C27.0364 21.4176 27.0617 21.3566 27.1067 21.3116ZM28.9588 20.0308C29.0136 20.0509 29.0737 20.0509 29.1285 20.0308L29.4681 19.5524C29.5131 19.5074 29.5384 19.4463 29.5384 19.3827C29.5384 19.319 29.5131 19.2579 29.4681 19.2129C29.423 19.1679 29.362 19.1426 29.2983 19.1426C29.2346 19.1426 29.1736 19.1679 29.1285 19.2129L28.789 19.5524C28.7456 19.5983 28.7214 19.659 28.7214 19.7221C28.7214 19.7853 28.7456 19.8461 28.789 19.8919C28.8047 19.9266 28.8282 19.9572 28.8577 19.9812C28.8871 20.0053 28.9217 20.0223 28.9588 20.0308ZM9.08831 20.2996C9.13172 20.2562 9.1906 20.2318 9.25199 20.2318L9.26742 20.2163C9.33086 20.2163 9.3917 20.2415 9.43656 20.2864C9.48142 20.3312 9.50662 20.3921 9.50662 20.4555C9.50662 20.5189 9.48142 20.5798 9.43656 20.6247C9.3917 20.6695 9.33086 20.6947 9.26742 20.6947C9.20452 20.6948 9.14395 20.6709 9.09806 20.6279C9.05218 20.5849 9.02444 20.526 9.02051 20.4632C9.02051 20.4018 9.0449 20.343 9.08831 20.2996ZM9.23638 19.7532C9.28167 19.7409 9.32217 19.7151 9.35248 19.6793C9.3828 19.6435 9.40151 19.5993 9.40613 19.5525V19.0742C9.40613 19.0107 9.38093 18.9498 9.33607 18.905C9.29121 18.8601 9.23037 18.835 9.16694 18.835C9.1035 18.835 9.04265 18.8601 8.99779 18.905C8.95294 18.9498 8.92773 19.0107 8.92773 19.0742V19.5525C8.93041 19.5881 8.94125 19.6225 8.95941 19.6531C8.97756 19.6838 9.00254 19.7098 9.03241 19.7292C9.06227 19.7487 9.09622 19.7609 9.1316 19.765C9.16697 19.7692 9.20283 19.7651 9.23638 19.7532ZM9.07317 21.2407C9.11658 21.1973 9.17546 21.1729 9.23685 21.1729C9.26852 21.1708 9.30029 21.1752 9.33018 21.1859C9.36007 21.1966 9.38744 21.2133 9.4106 21.235C9.43376 21.2567 9.4522 21.283 9.46479 21.3121C9.47738 21.3412 9.48383 21.3727 9.48376 21.4044V21.8828C9.48376 21.9462 9.45856 22.007 9.4137 22.0519C9.36884 22.0968 9.30801 22.122 9.24457 22.122C9.18113 22.122 9.12028 22.0968 9.07543 22.0519C9.03057 22.007 9.00537 21.9462 9.00537 21.8828V21.4044C9.00537 21.343 9.02976 21.2841 9.07317 21.2407ZM8.52704 20.4624C8.52704 20.401 8.50266 20.3422 8.45924 20.2988C8.41583 20.2554 8.35695 20.231 8.29556 20.231H7.86346C7.80002 20.231 7.73919 20.2562 7.69433 20.301C7.64947 20.3459 7.62427 20.4067 7.62427 20.4702C7.62427 20.5336 7.64947 20.5944 7.69433 20.6393C7.73919 20.6841 7.80002 20.7093 7.86346 20.7093H8.34186C8.39769 20.6982 8.44745 20.6668 8.48161 20.6213C8.51577 20.5757 8.53195 20.5192 8.52704 20.4624ZM10.0244 20.301C10.0693 20.2562 10.1301 20.231 10.1935 20.231H10.6719C10.7354 20.231 10.7962 20.2562 10.8411 20.301C10.8859 20.3459 10.9111 20.4067 10.9111 20.4702C10.9111 20.5336 10.8859 20.5944 10.8411 20.6393C10.7962 20.6841 10.7354 20.7093 10.6719 20.7093H10.1935C10.1301 20.7093 10.0693 20.6841 10.0244 20.6393C9.97955 20.5944 9.95435 20.5336 9.95435 20.4702C9.95435 20.4067 9.97955 20.3459 10.0244 20.301ZM8.38736 19.2896C8.34234 19.2445 8.28128 19.2192 8.21761 19.2192C8.15394 19.2192 8.09287 19.2445 8.04785 19.2896C8.00283 19.3346 7.97754 19.3957 7.97754 19.4593C7.97754 19.523 8.00283 19.584 8.04785 19.6291L8.38736 19.9686C8.4419 19.9901 8.50257 19.9901 8.55711 19.9686C8.6047 19.9712 8.65194 19.9591 8.69238 19.9339C8.73282 19.9086 8.76449 19.8716 8.78306 19.8277C8.80163 19.7838 8.8062 19.7352 8.79614 19.6886C8.78608 19.642 8.76189 19.5997 8.72687 19.5674L8.38736 19.2896ZM9.91561 20.9019C9.97928 20.9019 10.0403 20.9271 10.0854 20.9722L10.4249 21.3117C10.4482 21.3333 10.4669 21.3596 10.4796 21.3888C10.4924 21.418 10.499 21.4495 10.499 21.4814C10.499 21.5133 10.4924 21.5448 10.4796 21.574C10.4669 21.6032 10.4482 21.6295 10.4249 21.6511C10.3703 21.6726 10.3097 21.6726 10.2551 21.6511C10.2006 21.6726 10.1399 21.6726 10.0854 21.6511L9.74586 21.3117C9.70083 21.2667 9.67554 21.2056 9.67554 21.1419C9.67554 21.0782 9.70083 21.0172 9.74586 20.9722C9.79088 20.9271 9.85194 20.9019 9.91561 20.9019ZM8.38736 20.9722L8.04785 21.3117C8.00283 21.3567 7.97754 21.4177 7.97754 21.4814C7.97754 21.5451 8.00283 21.6061 8.04785 21.6511C8.09287 21.6962 8.15394 21.7215 8.21761 21.7215C8.28128 21.7215 8.34234 21.6962 8.38736 21.6511L8.72687 21.3117C8.74916 21.2894 8.76684 21.2629 8.77891 21.2338C8.79097 21.2047 8.79718 21.1734 8.79718 21.1419C8.79718 21.1104 8.79097 21.0791 8.77891 21.05C8.76684 21.0209 8.74916 20.9945 8.72687 20.9722C8.70458 20.9499 8.67811 20.9322 8.64898 20.9201C8.61986 20.9081 8.58864 20.9019 8.55711 20.9019C8.52559 20.9019 8.49437 20.9081 8.46524 20.9201C8.43612 20.9322 8.40965 20.9499 8.38736 20.9722ZM10.0856 20.0304C10.0308 20.0505 9.97064 20.0505 9.91583 20.0304C9.86103 20.0505 9.80088 20.0505 9.74608 20.0304C9.70266 19.9846 9.67847 19.9239 9.67847 19.8607C9.67847 19.7976 9.70266 19.7368 9.74608 19.6909L10.0856 19.3514C10.1072 19.3281 10.1335 19.3094 10.1627 19.2967C10.1919 19.2839 10.2235 19.2773 10.2553 19.2773C10.2872 19.2773 10.3187 19.2839 10.3479 19.2967C10.3772 19.3094 10.4034 19.3281 10.4251 19.3514C10.4485 19.3731 10.4671 19.3994 10.4799 19.4286C10.4926 19.4578 10.4992 19.4893 10.4992 19.5212C10.4992 19.5531 10.4926 19.5846 10.4799 19.6138C10.4671 19.643 10.4485 19.6693 10.4251 19.6909L10.0856 20.0304ZM16.4431 15.4629C16.3796 15.4629 16.3188 15.4881 16.2739 15.5329C16.2291 15.5778 16.2039 15.6386 16.2039 15.7021C16.2039 15.7655 16.2291 15.8263 16.2739 15.8712C16.3188 15.9161 16.3796 15.9413 16.4431 15.9413H17.3381C17.4016 15.9413 17.4624 15.9161 17.5073 15.8712C17.5521 15.8263 17.5773 15.7655 17.5773 15.7021C17.5773 15.6386 17.5521 15.5778 17.5073 15.5329C17.4624 15.4881 17.4016 15.4629 17.3381 15.4629H16.4431ZM9.57665 15.5329C9.62151 15.4881 9.68235 15.4629 9.74579 15.4629H10.6409C10.7043 15.4629 10.7651 15.4881 10.81 15.5329C10.8549 15.5778 10.8801 15.6386 10.8801 15.7021C10.8801 15.7655 10.8549 15.8263 10.81 15.8712C10.7651 15.9161 10.7043 15.9413 10.6409 15.9413H9.74579C9.68235 15.9413 9.62151 15.9161 9.57665 15.8712C9.53179 15.8263 9.50659 15.7655 9.50659 15.7021C9.50659 15.6386 9.53179 15.5778 9.57665 15.5329Z" fill="white"/>
</svg>
