<svg width="36" height="36" viewBox="0 0 36 36" fill="none" xmlns="http://www.w3.org/2000/svg">
<rect x="0.192383" y="0.621582" width="35" height="35" fill="#763900"/>
<path fill-rule="evenodd" clip-rule="evenodd" d="M15.3003 12.3012C15.1116 12.3012 14.9587 12.1402 14.9587 11.9416C14.9556 11.5247 15.1047 11.1225 15.3751 10.8178C15.5459 10.6395 15.642 10.3968 15.642 10.1435C15.642 9.89032 15.5459 9.64759 15.3751 9.46926C15.1047 9.16461 14.9556 8.76237 14.9587 8.34546C14.9587 8.14685 15.1116 7.98584 15.3003 7.98584C15.489 7.98584 15.6419 8.14685 15.6419 8.34546C15.6397 8.59914 15.7361 8.84276 15.9087 9.01974C16.464 9.65494 16.464 10.6322 15.9087 11.2673C15.7361 11.4443 15.6397 11.6879 15.6419 11.9416C15.6419 12.1402 15.489 12.3012 15.3003 12.3012ZM24.8339 23.4492H27.1382C27.3355 23.4315 27.5313 23.4976 27.6821 23.6327C27.8328 23.7677 27.9261 23.9606 27.941 24.1685V24.8877C27.941 25.6943 27.1833 26.3262 26.2158 26.3262H10.5347C9.56716 26.3262 8.80942 25.6943 8.80942 24.8877V24.1685C8.82438 23.9606 8.91762 23.7677 9.0684 23.6327C9.21918 23.4976 9.41498 23.4315 9.61226 23.4492H12.4523C11.7988 22.9654 11.3099 22.2737 11.0577 21.4756C10.6787 21.5898 10.2866 21.6489 9.8924 21.6511C8.40424 21.6511 7.44287 20.3058 7.44287 18.224C7.44287 17.2926 7.44287 14.4588 9.8924 14.4588C10.2186 14.4588 10.5435 14.5026 10.8592 14.589V14.0992C10.8592 13.702 11.1651 13.3799 11.5425 13.3799H19.7418C20.1191 13.3799 20.425 13.702 20.425 14.0992V18.2179C20.5124 18.2588 20.6021 18.2941 20.6936 18.3236C20.7582 18.1593 20.8313 17.9988 20.9126 17.8428C20.9848 17.7072 21.0997 17.6023 21.2375 17.5461L22.9918 16.8405C23.1327 16.7842 23.2883 16.7836 23.4297 16.8387C23.5784 16.9001 23.7236 16.9705 23.8646 17.0495C23.9833 16.8664 24.078 16.6673 24.1461 16.4575C24.2527 16.121 24.5176 15.8668 24.8458 15.7861C24.8561 15.615 24.8612 15.4434 24.8612 15.2755V15.2754C24.8639 14.5738 24.867 13.778 25.7129 13.4389C25.9276 13.3488 26.1696 13.3669 26.3702 13.4878C26.528 13.5803 26.9944 13.8597 27.3408 15.6096C27.6455 15.7204 27.8622 16.0062 27.8973 16.3435C27.9836 17.1401 27.9476 17.9461 27.7907 18.7307C27.605 19.4547 27.3028 20.1398 26.8973 20.7564C26.9288 20.8269 26.9568 20.8916 26.9793 20.9456C27.0649 21.149 27.051 21.3835 26.9421 21.5742C26.4312 22.4051 25.6975 23.0577 24.8339 23.4492ZM26.0361 14.1128C26.0121 14.0957 25.981 14.0941 25.9554 14.1085C25.5817 14.2585 25.5472 14.5307 25.5455 15.2758C25.5451 15.3978 25.5441 15.5287 25.5397 15.6628C25.9732 15.6038 26.3456 15.5772 26.6329 15.5646C26.375 14.3739 26.0945 14.147 26.0361 14.1128ZM25.0269 16.4723C24.9208 16.4904 24.8328 16.5685 24.798 16.6755C24.7129 16.9407 24.5949 17.1929 24.4471 17.4256C25.3063 18.1267 26.0172 19.0085 26.5345 20.0149C26.799 19.563 26.999 19.0726 27.1279 18.5595C27.2669 17.8539 27.2975 17.1295 27.2188 16.4137C27.2069 16.3266 27.1331 16.2638 27.0497 16.2698H27.0272C26.4222 16.2745 25.8185 16.3302 25.222 16.4363C25.2008 16.4402 25.1802 16.4438 25.1601 16.4473C25.1143 16.4552 25.0708 16.4628 25.0269 16.4723ZM23.2138 17.5191L21.5012 18.2078H21.4998C20.6495 19.8326 20.9334 22.0712 21.096 22.9619C21.1223 23.1072 21.1486 23.2281 21.1681 23.3162C21.3954 23.3929 21.6314 23.4377 21.8698 23.4492H22.3204C22.8952 23.4056 23.4603 23.2704 23.9965 23.0482C25.5598 22.4204 26.1679 21.5526 26.3569 21.2088C26.1519 20.7456 25.0426 18.2761 23.2138 17.5191ZM20.4674 23.3158C20.1075 23.2074 19.7571 23.0664 19.4203 22.8943C19.2392 23.1012 19.0378 23.2872 18.8194 23.4492H20.4958L20.4868 23.4075L20.4868 23.4074L20.4867 23.4072C20.4807 23.379 20.4742 23.3491 20.4674 23.3158ZM19.0517 21.8148C19.441 22.1181 19.8736 22.3542 20.3335 22.5142C20.157 21.3448 20.2035 20.15 20.4701 18.9997C20.2273 18.9241 19.9956 18.8134 19.7817 18.6706C19.7 18.6199 19.5979 18.6222 19.5183 18.6767C19.4718 18.7052 19.431 18.7327 19.3919 18.7591L19.3919 18.7592L19.3919 18.7592C19.3756 18.7701 19.3597 18.7809 19.3438 18.7915C18.8162 19.1378 18.3147 19.5262 17.8436 19.9534C17.8399 19.9577 17.8355 19.962 17.831 19.9663L17.831 19.9663C17.7545 20.0278 17.7289 20.137 17.7695 20.2288C18.1088 20.8298 18.5423 21.3661 19.0517 21.8148ZM17.4508 17.5173C17.4149 17.5295 17.387 17.5595 17.3763 17.5975C17.3045 17.7924 17.3681 18.2905 17.7234 19.1241C17.955 18.9278 18.2615 18.6839 18.6338 18.4211C18.5505 18.3164 18.4729 18.2121 18.4005 18.1147C17.9786 17.5454 17.8129 17.3735 17.4508 17.5173ZM9.8924 19.4934C10.2259 19.4885 10.5549 19.4117 10.8592 19.268V16.9491C10.5854 16.7196 10.2422 16.6015 9.8924 16.6165C9.72363 16.6165 9.49269 16.6165 9.49269 18.224C9.49269 18.8393 9.63276 19.4934 9.8924 19.4934ZM9.8924 15.178C8.32726 15.178 8.1262 16.8055 8.12614 18.2244C8.12625 19.9198 8.78662 20.9319 9.8924 20.9319C10.2344 20.9291 10.5743 20.876 10.9023 20.774C10.8751 20.5882 10.8607 20.4006 10.8592 20.2127V20.0329C10.5485 20.1484 10.2219 20.2091 9.8924 20.2127C9.21425 20.2127 8.80942 19.4693 8.80942 18.224C8.80942 16.9981 8.89209 15.8973 9.8924 15.8973C10.2255 15.8929 10.5555 15.9653 10.8592 16.1094V15.3366C10.547 15.2298 10.2206 15.1763 9.8924 15.178ZM11.5425 20.2127C11.5422 20.4577 11.5689 20.702 11.6221 20.9405V20.9395C11.9379 22.4118 13.1833 23.4554 14.6172 23.4492H16.667C17.4719 23.4505 18.2446 23.1167 18.8166 22.5207L18.8058 22.5129L18.8058 22.5129L18.8058 22.5129C18.7476 22.4709 18.6895 22.429 18.6332 22.3833C18.0593 21.8818 17.5708 21.2812 17.1884 20.6072C17.0192 20.3107 17.0252 19.9387 17.2038 19.6484C16.7166 18.5796 16.5615 17.8187 16.7395 17.3357C16.8204 17.1082 16.9914 16.929 17.2079 16.8449C18.0699 16.4992 18.5504 17.1474 18.9371 17.6691L18.9393 17.672C19.0298 17.7942 19.1248 17.9165 19.2235 18.0352C19.3827 17.9472 19.5627 17.9097 19.7418 17.9273V14.0992H11.5425L11.5425 20.2127ZM26.2158 25.6069C26.7795 25.6069 27.2578 25.2775 27.2578 24.8877V24.2012C27.2217 24.1784 27.1802 24.167 27.1382 24.1685H9.61226C9.57024 24.167 9.52871 24.1784 9.49269 24.2012V24.8877C9.49269 25.2775 9.97098 25.6069 10.5347 25.6069H26.2158ZM12.9089 11.9416C12.9089 12.1402 13.0618 12.3012 13.2505 12.3012C13.4392 12.3012 13.5921 12.1402 13.5921 11.9416C13.5899 11.6879 13.6863 11.4443 13.8589 11.2673C14.4142 10.6322 14.4142 9.65494 13.8589 9.01974C13.6863 8.84276 13.5899 8.59914 13.5921 8.34546C13.5921 8.14685 13.4392 7.98584 13.2505 7.98584C13.0618 7.98584 12.9089 8.14685 12.9089 8.34546C12.9058 8.76237 13.0549 9.16461 13.3253 9.46926C13.4961 9.64759 13.5922 9.89032 13.5922 10.1435C13.5922 10.3968 13.4961 10.6395 13.3253 10.8178C13.0549 11.1225 12.9058 11.5247 12.9089 11.9416ZM17.3503 12.3012C17.1616 12.3012 17.0087 12.1402 17.0087 11.9416C17.0057 11.5247 17.1547 11.1225 17.4251 10.8178C17.5959 10.6395 17.692 10.3968 17.692 10.1435C17.692 9.89032 17.5959 9.64759 17.4251 9.46926C17.1547 9.16461 17.0057 8.76237 17.0087 8.34546C17.0087 8.14685 17.1616 7.98584 17.3503 7.98584C17.539 7.98584 17.692 8.14685 17.692 8.34546C17.6897 8.59914 17.7861 8.84276 17.9588 9.01974C18.5141 9.65494 18.5141 10.6322 17.9588 11.2673C17.7861 11.4443 17.6897 11.6879 17.692 11.9416C17.692 12.1402 17.539 12.3012 17.3503 12.3012Z" fill="white"/>
</svg>
