<svg width="36" height="35" viewBox="0 0 36 35" fill="none" xmlns="http://www.w3.org/2000/svg">
<rect x="0.193115" width="35" height="35" fill="#BC0923"/>
<path fill-rule="evenodd" clip-rule="evenodd" d="M28.4648 12.083C28.5045 12.0675 28.5485 12.0675 28.5882 12.083C28.5934 12.107 28.5934 12.1319 28.5881 12.1558C28.5827 12.1798 28.5723 12.2024 28.5574 12.2219L27.1839 20.7713C27.1772 20.8082 27.1584 20.8419 27.1305 20.8671C27.1025 20.8922 27.0671 20.9074 27.0296 20.9102L14.1284 21.8824L13.187 23.8423C13.2179 24.0892 13.6345 24.3361 14.0358 24.3361H26.3969C26.534 24.3361 26.6655 24.3906 26.7624 24.4875C26.8594 24.5845 26.9138 24.716 26.9138 24.8531C26.9138 24.9902 26.8594 25.1217 26.7624 25.2186C26.6655 25.3156 26.534 25.37 26.3969 25.37H25.1007C25.1008 25.3701 25.1008 25.3701 25.1009 25.3701C25.1221 25.3772 25.1418 25.3884 25.1588 25.4031C25.1757 25.4178 25.1896 25.4357 25.1996 25.4557C25.2097 25.4758 25.2156 25.4976 25.2172 25.52C25.2188 25.5424 25.216 25.5649 25.2089 25.5861C24.9465 26.3423 24.5762 27.2374 24.1904 27.2374C23.8046 27.2374 23.4188 26.3423 23.1719 25.5861C23.1575 25.5432 23.1609 25.4963 23.1811 25.4557C23.2014 25.4152 23.2369 25.3844 23.2799 25.3701C23.2799 25.3701 23.28 25.3701 23.28 25.37H16.211L16.2119 25.3704C16.2333 25.3773 16.2531 25.3885 16.2701 25.4032C16.2871 25.4178 16.3011 25.4357 16.3111 25.4558C16.3211 25.4759 16.3271 25.4978 16.3286 25.5202C16.3302 25.5427 16.3272 25.5652 16.32 25.5864C16.0576 26.3426 15.6873 27.2377 15.3015 27.2377C14.9157 27.2377 14.5453 26.3426 14.2829 25.5864C14.2758 25.5651 14.273 25.5427 14.2746 25.5203C14.2762 25.4979 14.2822 25.4761 14.2922 25.456C14.3022 25.436 14.3161 25.4181 14.3331 25.4034C14.35 25.3887 14.3697 25.3775 14.391 25.3704L14.392 25.37H14.0512C13.5981 25.4091 13.1477 25.2696 12.796 24.9813C12.4443 24.693 12.2191 24.2788 12.1685 23.8268L13.1561 21.7898L9.45243 8.00893H7.18391C7.06113 8.00893 6.94337 7.96016 6.85655 7.87333C6.76972 7.78651 6.72095 7.66876 6.72095 7.54597C6.72095 7.42318 6.76972 7.30543 6.85655 7.21861C6.94337 7.13178 7.06113 7.08301 7.18391 7.08301H7.2765H10.3166L11.6592 12.083H28.4648ZM23.3877 25.37C23.3954 25.3726 23.403 25.3757 23.4103 25.3794C23.4508 25.3996 23.4816 25.4351 23.4959 25.4781C23.6303 25.9959 23.8722 26.4797 24.2058 26.8979C24.5165 26.4698 24.7466 25.9887 24.8848 25.4781C24.8919 25.4568 24.9031 25.4372 24.9178 25.4202C24.9325 25.4033 24.9504 25.3894 24.9705 25.3794C24.9778 25.3757 24.9853 25.3726 24.993 25.37H23.3877ZM14.498 25.37C14.506 25.3727 14.5138 25.3759 14.5214 25.3796C14.5414 25.3897 14.5593 25.4036 14.574 25.4205C14.5887 25.4374 14.5999 25.4571 14.607 25.4784C14.7414 25.9962 14.9833 26.48 15.3169 26.8982C15.6276 26.4701 15.8577 25.989 15.9959 25.4784C16.0029 25.457 16.014 25.4373 16.0287 25.4203C16.0434 25.4032 16.0613 25.3893 16.0814 25.3792C16.0886 25.3757 16.096 25.3726 16.1036 25.37H14.498ZM26.3814 24.691H14.0358C13.5728 24.691 13.0018 24.3361 12.9247 23.9812V23.8731L13.9123 21.8361L10.0234 7.37622H7.2765C7.23148 7.37622 7.18831 7.3941 7.15647 7.42594C7.12464 7.45777 7.10675 7.50095 7.10675 7.54597C7.10675 7.59099 7.12464 7.63417 7.15647 7.666C7.18831 7.69784 7.23148 7.71572 7.2765 7.71572H9.8228L13.4339 21.7435C13.4505 21.7687 13.4593 21.7982 13.4593 21.8284C13.4593 21.8585 13.4505 21.8881 13.4339 21.9133L12.4926 23.8731C12.5533 24.2266 12.747 24.5435 13.034 24.7587C13.3209 24.9739 13.6794 25.0712 14.0358 25.0305H26.3814C26.4265 25.0305 26.4696 25.0127 26.5015 24.9808C26.5333 24.949 26.5512 24.9058 26.5512 24.8608C26.5512 24.8158 26.5333 24.7726 26.5015 24.7407C26.4696 24.7089 26.4265 24.691 26.3814 24.691ZM14.2209 21.6046L26.8753 20.6015L28.2642 12.3454H11.7518L14.2209 21.6046ZM15.3015 14.4135H13.2027C13.1577 14.4135 13.1145 14.3957 13.0827 14.3638C13.0508 14.332 13.033 14.2888 13.033 14.2438C13.033 14.1988 13.0508 14.1556 13.0827 14.1238C13.1145 14.0919 13.1577 14.074 13.2027 14.074H15.2397V13.5648C15.2397 13.5198 15.2576 13.4766 15.2895 13.4447C15.3213 13.4129 15.3645 13.395 15.4095 13.395C15.4545 13.395 15.4977 13.4129 15.5295 13.4447C15.5614 13.4766 15.5793 13.5198 15.5793 13.5648V14.074H17.6935V13.5648C17.6935 13.5198 17.7113 13.4766 17.7432 13.4447C17.775 13.4129 17.8182 13.395 17.8632 13.395C17.9082 13.395 17.9514 13.4129 17.9832 13.4447C18.0151 13.4766 18.033 13.5198 18.033 13.5648V14.074H20.0854V13.5648C20.0854 13.5198 20.1033 13.4766 20.1351 13.4447C20.167 13.4129 20.2102 13.395 20.2552 13.395C20.3002 13.395 20.3434 13.4129 20.3752 13.4447C20.407 13.4766 20.4249 13.5198 20.4249 13.5648V14.074H22.4774V13.5648C22.4774 13.5198 22.4953 13.4766 22.5271 13.4447C22.559 13.4129 22.6021 13.395 22.6472 13.395C22.6922 13.395 22.7354 13.4129 22.7672 13.4447C22.799 13.4766 22.8169 13.5198 22.8169 13.5648V14.074H24.8694V13.5648C24.8694 13.5198 24.8873 13.4766 24.9191 13.4447C24.9509 13.4129 24.9941 13.395 25.0391 13.395C25.0842 13.395 25.1273 13.4129 25.1592 13.4447C25.191 13.4766 25.2089 13.5198 25.2089 13.5648V14.074H27.0607C27.1058 14.074 27.1489 14.0919 27.1808 14.1238C27.2126 14.1556 27.2305 14.1988 27.2305 14.2438C27.2305 14.2888 27.2126 14.332 27.1808 14.3638C27.1489 14.3957 27.1058 14.4135 27.0607 14.4135H25.178V16.466H26.3817C26.4267 16.466 26.4699 16.4839 26.5018 16.5157C26.5336 16.5476 26.5515 16.5907 26.5515 16.6358C26.5515 16.6808 26.5336 16.724 26.5018 16.7558C26.4699 16.7876 26.4267 16.8055 26.3817 16.8055H25.178V18.858H25.6873C25.7323 18.858 25.7755 18.8759 25.8073 18.9077C25.8391 18.9395 25.857 18.9827 25.857 19.0277C25.857 19.0728 25.8391 19.1159 25.8073 19.1478C25.7755 19.1796 25.7323 19.1975 25.6873 19.1975H25.178V19.7067C25.178 19.729 25.1736 19.7511 25.1651 19.7717C25.1566 19.7923 25.1441 19.811 25.1283 19.8268C25.1125 19.8425 25.0938 19.855 25.0732 19.8636C25.0526 19.8721 25.0306 19.8765 25.0083 19.8765C24.986 19.8765 24.9639 19.8721 24.9433 19.8636C24.9227 19.855 24.904 19.8425 24.8882 19.8268C24.8725 19.811 24.86 19.7923 24.8514 19.7717C24.8429 19.7511 24.8385 19.729 24.8385 19.7067V19.1975H22.8169V19.7067C22.8169 19.7518 22.799 19.7949 22.7672 19.8268C22.7354 19.8586 22.6922 19.8765 22.6472 19.8765C22.6021 19.8765 22.559 19.8586 22.5271 19.8268C22.4953 19.7949 22.4774 19.7518 22.4774 19.7067V19.1975H20.4249V19.7067C20.4249 19.7518 20.407 19.7949 20.3752 19.8268C20.3434 19.8586 20.3002 19.8765 20.2552 19.8765C20.2102 19.8765 20.167 19.8586 20.1351 19.8268C20.1033 19.7949 20.0854 19.7518 20.0854 19.7067V19.1975H18.033V19.7067C18.033 19.7518 18.0151 19.7949 17.9832 19.8268C17.9514 19.8586 17.9082 19.8765 17.8632 19.8765C17.8182 19.8765 17.775 19.8586 17.7432 19.8268C17.7113 19.7949 17.6935 19.7518 17.6935 19.7067V19.1975H15.641V19.7067C15.641 19.729 15.6366 19.7511 15.6281 19.7717C15.6195 19.7923 15.607 19.811 15.5913 19.8268C15.5755 19.8425 15.5568 19.855 15.5362 19.8636C15.5156 19.8721 15.4935 19.8765 15.4712 19.8765C15.4489 19.8765 15.4269 19.8721 15.4063 19.8636C15.3857 19.855 15.367 19.8425 15.3512 19.8268C15.3354 19.811 15.3229 19.7923 15.3144 19.7717C15.3059 19.7511 15.3015 19.729 15.3015 19.7067V19.1975H14.9002C14.8552 19.1975 14.812 19.1796 14.7802 19.1478C14.7484 19.1159 14.7305 19.0728 14.7305 19.0277C14.7305 18.9827 14.7484 18.9395 14.7802 18.9077C14.812 18.8759 14.8552 18.858 14.9002 18.858H15.3015V16.8055H14.2212C14.1762 16.8055 14.133 16.7876 14.1012 16.7558C14.0694 16.724 14.0515 16.6808 14.0515 16.6358C14.0515 16.5907 14.0694 16.5476 14.1012 16.5157C14.133 16.4839 14.1762 16.466 14.2212 16.466H15.3015V14.4135ZM15.5793 16.8055V18.858H17.6317V16.8055H15.5793ZM17.9712 16.8055V18.858H20.0237V16.8055H17.9712ZM20.3632 16.8055V18.858H22.4157V16.8055H20.3632ZM22.8169 18.858H24.8076L24.8385 16.8055H22.8169V18.858ZM24.8076 16.466V14.4135H22.8169V16.466H24.8076ZM22.4157 16.466V14.4135H20.4249V16.466H22.4157ZM20.0237 16.466V14.4135H18.033V16.466H20.0237ZM17.6317 16.466V14.4135H15.5793V16.466H17.6317ZM16.397 26.2345C16.3756 26.2415 16.3558 26.2527 16.3388 26.2673C16.3218 26.282 16.3079 26.2999 16.2978 26.32C16.2878 26.3401 16.2818 26.362 16.2803 26.3844C16.2788 26.4068 16.2817 26.4293 16.2889 26.4506C16.3027 26.5478 16.3027 26.6465 16.2889 26.7438C16.2889 27.016 16.1808 27.277 15.9884 27.4695C15.7959 27.6619 15.5349 27.77 15.2627 27.77C14.9905 27.77 14.7295 27.6619 14.537 27.4695C14.3446 27.277 14.2365 27.016 14.2365 26.7438C14.2227 26.6465 14.2227 26.5478 14.2365 26.4506C14.2437 26.4293 14.2466 26.4068 14.2451 26.3844C14.2436 26.362 14.2376 26.3401 14.2276 26.32C14.2175 26.2999 14.2036 26.282 14.1866 26.2673C14.1696 26.2527 14.1498 26.2415 14.1284 26.2345C14.1072 26.2273 14.0847 26.2244 14.0623 26.2259C14.0398 26.2274 14.0179 26.2334 13.9978 26.2434C13.9777 26.2535 13.9598 26.2674 13.9452 26.2844C13.9305 26.3014 13.9194 26.3212 13.9124 26.3426C13.8944 26.4705 13.8944 26.6004 13.9124 26.7284C13.9483 27.0656 14.1076 27.3775 14.3598 27.6043C14.6119 27.831 14.939 27.9564 15.2781 27.9564C15.6172 27.9564 15.9443 27.831 16.1965 27.6043C16.4486 27.3775 16.608 27.0656 16.6439 26.7284C16.6618 26.6004 16.6618 26.4705 16.6439 26.3426C16.6376 26.3173 16.6257 26.2937 16.6089 26.2738C16.5921 26.2539 16.571 26.2381 16.5471 26.2276C16.5232 26.2172 16.4972 26.2124 16.4712 26.2136C16.4452 26.2148 16.4198 26.2219 16.397 26.2345ZM25.2859 26.234C25.2645 26.241 25.2447 26.2521 25.2277 26.2668C25.2107 26.2815 25.1967 26.2994 25.1867 26.3195C25.1767 26.3396 25.1707 26.3614 25.1692 26.3839C25.1676 26.4063 25.1706 26.4288 25.1778 26.45C25.1915 26.5473 25.1915 26.646 25.1778 26.7433C25.1778 27.0154 25.0697 27.2765 24.8772 27.4689C24.6848 27.6614 24.4238 27.7695 24.1516 27.7695C23.8794 27.7695 23.6184 27.6614 23.4259 27.4689C23.2335 27.2765 23.1254 27.0154 23.1254 26.7433C23.1116 26.646 23.1116 26.5473 23.1254 26.45C23.1347 26.4279 23.1392 26.4041 23.1386 26.3801C23.1381 26.356 23.1324 26.3324 23.122 26.3108C23.1116 26.2891 23.0968 26.2699 23.0784 26.2544C23.0601 26.2389 23.0387 26.2275 23.0156 26.2209C22.9925 26.2143 22.9682 26.2127 22.9445 26.2161C22.9207 26.2196 22.898 26.2281 22.8777 26.241C22.8574 26.2539 22.8402 26.2709 22.827 26.291C22.8138 26.3111 22.8051 26.3337 22.8013 26.3575C22.7827 26.4854 22.7827 26.6153 22.8013 26.7433C22.8372 27.0804 22.9965 27.3924 23.2487 27.6192C23.5008 27.8459 23.8279 27.9713 24.167 27.9713C24.5061 27.9713 24.8332 27.8459 25.0854 27.6192C25.3375 27.3924 25.4969 27.0804 25.5328 26.7433C25.5507 26.6153 25.5507 26.4854 25.5328 26.3575C25.5285 26.3308 25.518 26.3055 25.502 26.2838C25.4861 26.262 25.4652 26.2443 25.441 26.2323C25.4169 26.2202 25.3902 26.2141 25.3632 26.2144C25.3362 26.2147 25.3097 26.2214 25.2859 26.234Z" fill="white"/>
</svg>
