<svg width="35" height="35" viewBox="0 0 35 35" fill="none" xmlns="http://www.w3.org/2000/svg">
<rect width="35" height="35" fill="#0E2380"/>
<path fill-rule="evenodd" clip-rule="evenodd" d="M9.98481 13.4574C10.0104 13.4596 10.0361 13.4564 10.0604 13.448C10.0847 13.4397 10.107 13.4264 10.1259 13.409C10.1447 13.3916 10.1598 13.3704 10.17 13.3469C10.1803 13.3233 10.1855 13.2979 10.1854 13.2723V11.7291C10.1833 11.2435 10.2779 10.7625 10.4637 10.3139C10.6495 9.86532 10.9227 9.45823 11.2675 9.11635C11.6122 8.77448 12.0216 8.50467 12.4717 8.32265C12.9218 8.14064 13.4037 8.05006 13.8891 8.05621H20.8336C21.8036 8.05621 22.7339 8.44154 23.4198 9.12744C24.1056 9.81334 24.491 10.7436 24.491 11.7136V13.2568C24.503 13.2987 24.5283 13.3356 24.5631 13.3619C24.5979 13.3881 24.6403 13.4023 24.6839 13.4023C24.7275 13.4023 24.7699 13.3881 24.8047 13.3619C24.8395 13.3356 24.8648 13.2987 24.8768 13.2568V11.7136C24.8768 10.6413 24.4508 9.61289 23.6926 8.85464C22.9343 8.09639 21.9059 7.67041 20.8336 7.67041H13.8891C12.8168 7.67041 11.7884 8.09639 11.0302 8.85464C10.2719 9.61289 9.84592 10.6413 9.84592 11.7136V13.2568C9.84083 13.3014 9.85211 13.3463 9.87765 13.3832C9.9032 13.4201 9.94128 13.4465 9.98481 13.4574ZM13.0711 17.6855H21.9291L21.7439 17.7163C21.7858 17.7283 21.8227 17.7536 21.849 17.7884C21.8752 17.8232 21.8894 17.8656 21.8894 17.9092C21.8894 17.9528 21.8752 17.9952 21.849 18.03C21.8227 18.0648 21.7858 18.0901 21.7439 18.1021H12.8859C12.8368 18.1021 12.7897 18.0826 12.755 18.0479C12.7202 18.0131 12.7007 17.966 12.7007 17.9169L11.5433 19.8459C11.5263 19.8755 11.5014 19.8998 11.4715 19.9162C11.4415 19.9325 11.4076 19.9402 11.3736 19.9385H11.281C11.2688 19.9264 11.2584 19.9127 11.2501 19.8978V27.2533C11.2416 27.2741 11.229 27.293 11.2131 27.3089C11.1972 27.3248 11.1783 27.3374 11.1575 27.3459H8.07108C8.01787 27.3459 7.96685 27.3248 7.92922 27.2872C7.8916 27.2496 7.87046 27.1985 7.87046 27.1453V21.7441C7.88244 21.7022 7.90775 21.6653 7.94255 21.639C7.97736 21.6128 8.01977 21.5986 8.06337 21.5986C8.10696 21.5986 8.14937 21.6128 8.18418 21.639C8.21899 21.6653 8.24429 21.7022 8.25627 21.7441V26.9138H10.9723V18.4416C10.9723 18.087 10.9025 17.7358 10.7667 17.4081C10.631 17.0805 10.4321 16.7828 10.1813 16.532C9.93055 16.2812 9.63283 16.0823 9.30518 15.9466C8.97753 15.8109 8.62635 15.741 8.2717 15.741C7.79928 15.7435 7.33599 15.8713 6.92911 16.1114L6.57417 16.3583C6.14366 16.7084 5.83217 17.1832 5.68254 17.7175C5.53291 18.2519 5.55249 18.8194 5.73858 19.3422C5.92467 19.8649 6.26813 20.3172 6.72174 20.6367C7.17535 20.9563 7.71682 21.1275 8.2717 21.1268C8.32286 21.1268 8.37193 21.1471 8.4081 21.1833C8.44428 21.2195 8.4646 21.2685 8.4646 21.3197C8.4646 21.3709 8.44428 21.4199 8.4081 21.4561C8.37193 21.4923 8.32286 21.5126 8.2717 21.5126C7.65682 21.5073 7.05756 21.3184 6.55076 20.9701C6.04395 20.6219 5.65271 20.1303 5.42721 19.5582C5.2017 18.9862 5.15221 18.3598 5.28507 17.7594C5.41794 17.159 5.72711 16.612 6.17293 16.1885L6.32725 16.0805L6.69763 15.8182L9.53713 13.8737C9.90249 13.6011 10.3467 13.4548 10.8026 13.4571C11.3553 13.4651 11.8828 13.6893 12.2722 14.0816C12.6616 14.4739 12.8819 15.0031 12.8859 15.5558V17.8706C12.8859 17.8215 12.9054 17.7744 12.9401 17.7397C12.9749 17.705 13.022 17.6855 13.0711 17.6855ZM11.2501 19.7169C11.2584 19.702 11.2688 19.6883 11.281 19.6762L12.4075 17.7935V15.5404C12.4104 15.2168 12.3224 14.8988 12.1535 14.6228C11.9846 14.3467 11.7416 14.1236 11.4521 13.9789C11.1627 13.8342 10.8384 13.7736 10.5162 13.8041C10.194 13.8346 9.88687 13.955 9.62972 14.1515L7.87046 15.3706H8.16367C8.98224 15.3706 9.76729 15.6958 10.3461 16.2746C10.9249 16.8534 11.2501 17.6385 11.2501 18.4571V19.7169ZM26.607 21.2146C26.6421 21.1795 26.6893 21.1593 26.7388 21.1581C27.2912 21.1598 27.8308 20.991 28.2839 20.6747C28.74 20.3563 29.086 19.9042 29.274 19.3807C29.462 18.8573 29.4829 18.2883 29.3337 17.7525C29.1844 17.2167 28.8725 16.7404 28.4409 16.3895L28.0706 16.1272C27.6682 15.8897 27.2106 15.762 26.7434 15.7568C26.0271 15.7568 25.3402 16.0414 24.8338 16.5478C24.3273 17.0543 24.0428 17.7412 24.0428 18.4574V26.9142H26.6971V21.7136C26.7091 21.6717 26.7344 21.6348 26.7692 21.6086C26.804 21.5823 26.8464 21.5681 26.89 21.5681C26.9336 21.5681 26.976 21.5823 27.0108 21.6086C27.0456 21.6348 27.0709 21.6717 27.0829 21.7136V27.1148C27.079 27.1653 27.0562 27.2125 27.019 27.2468C26.9817 27.2812 26.9329 27.3002 26.8823 27.3H23.7959C23.7577 27.2902 23.7236 27.2685 23.6986 27.2379C23.6736 27.2074 23.659 27.1697 23.657 27.1303V25.5871C23.657 25.6362 23.6375 25.6833 23.6027 25.718C23.568 25.7527 23.5209 25.7723 23.4718 25.7723H11.5273C11.4854 25.7603 11.4485 25.735 11.4223 25.7002C11.396 25.6654 11.3818 25.6229 11.3818 25.5794C11.3818 25.5358 11.396 25.4933 11.4223 25.4585C11.4485 25.4237 11.4854 25.3984 11.5273 25.3864H23.4718C23.5209 25.3864 23.568 25.406 23.6027 25.4407C23.6375 25.4754 23.657 25.5225 23.657 25.5716V23.6426C23.657 23.6917 23.6375 23.7388 23.6027 23.7736C23.568 23.8083 23.5209 23.8278 23.4718 23.8278H11.5273C11.4854 23.8158 11.4485 23.7905 11.4223 23.7557C11.396 23.7209 11.3818 23.6785 11.3818 23.6349C11.3818 23.5913 11.396 23.5489 11.4223 23.5141C11.4485 23.4793 11.4854 23.454 11.5273 23.442H23.4101C23.4592 23.442 23.5063 23.4615 23.541 23.4962C23.5757 23.531 23.5952 23.5781 23.5952 23.6272V19.8982C23.5869 19.9131 23.5765 19.9268 23.5644 19.9389H23.4718C23.4377 19.9406 23.4038 19.9329 23.3739 19.9165C23.3439 19.9002 23.3191 19.8759 23.302 19.8463L22.1446 17.9173V15.6025C22.1446 15.3249 22.1993 15.0499 22.3056 14.7934C22.4118 14.5369 22.5675 14.3039 22.7639 14.1075C22.9602 13.9112 23.1933 13.7555 23.4498 13.6492C23.7063 13.543 23.9812 13.4883 24.2588 13.4883C24.7147 13.4861 25.1589 13.6323 25.5243 13.905L28.3175 15.8494L28.6878 16.1118L28.8422 16.2198C29.288 16.6433 29.5972 17.1903 29.73 17.7907C29.8629 18.391 29.8134 19.0174 29.5879 19.5895C29.3624 20.1615 28.9711 20.6532 28.4643 21.0014C27.9575 21.3496 27.3583 21.5385 26.7434 21.5439C26.6922 21.5439 26.6432 21.5235 26.607 21.4874C26.5708 21.4512 26.5505 21.4021 26.5505 21.351C26.5505 21.2998 26.5708 21.2507 26.607 21.2146ZM26.7388 21.1581L26.7434 21.1581H26.728L26.7388 21.1581ZM23.5952 19.7173C23.5869 19.7024 23.5765 19.6887 23.5644 19.6766L22.4378 17.7939V15.5716C22.4349 15.248 22.5229 14.9301 22.6918 14.654C22.8607 14.378 23.1037 14.1549 23.3932 14.0101C23.6827 13.8654 24.007 13.8049 24.3291 13.8354C24.6513 13.8659 24.9585 13.9862 25.2156 14.1828L26.9749 15.4019H26.6817C25.8631 15.4019 25.0781 15.7271 24.4992 16.3059C23.9204 16.8847 23.5952 17.6697 23.5952 18.4883V19.7173ZM22.8057 19.9285C22.7794 19.9633 22.7426 19.9886 22.7006 20.0005H12.3457C12.3038 19.9886 12.2669 19.9633 12.2407 19.9285C12.2144 19.8937 12.2002 19.8512 12.2002 19.8076C12.2002 19.764 12.2144 19.7216 12.2407 19.6868C12.2669 19.652 12.3038 19.6267 12.3457 19.6147H22.7006C22.7426 19.6267 22.7794 19.652 22.8057 19.6868C22.832 19.7216 22.8462 19.764 22.8462 19.8076C22.8462 19.8512 22.832 19.8937 22.8057 19.9285Z" fill="white"/>
</svg>
