<svg width="36" height="35" viewBox="0 0 36 35" fill="none" xmlns="http://www.w3.org/2000/svg">
<rect x="0.192383" width="35" height="35" fill="#79C785"/>
<path d="M24.9613 14.2754V12.7322C24.9613 12.3761 24.8199 12.0346 24.5681 11.7828C24.3163 11.531 23.9748 11.3896 23.6187 11.3896H10.6249C10.2688 11.3896 9.92731 11.531 9.67553 11.7828C9.42375 12.0346 9.28229 12.3761 9.28229 12.7322V13.118C9.28229 13.0688 9.26279 13.0217 9.22806 12.987C9.19333 12.9523 9.14622 12.9328 9.09711 12.9328H8.71131C8.66219 12.9328 8.61509 12.9523 8.58036 12.987C8.54564 13.0217 8.52612 13.0688 8.52612 13.118V13.8741C8.52612 13.9233 8.54564 13.9704 8.58036 14.0051C8.61509 14.0398 8.66219 14.0593 8.71131 14.0593H9.09711C9.14622 14.0593 9.19333 14.0398 9.22806 14.0051C9.26279 13.9704 9.28229 13.9233 9.28229 13.8741V14.2599C9.28229 14.616 9.42375 14.9575 9.67553 15.2093C9.92731 15.4611 10.2688 15.6025 10.6249 15.6025H23.6187C23.9721 15.6026 24.3113 15.4632 24.5627 15.2148C24.814 14.9663 24.9572 14.6288 24.9613 14.2754ZM9.09711 13.7044H8.91193V13.3186H9.09711C9.14622 13.3186 9.19333 13.2991 9.22806 13.2643C9.26279 13.2296 9.28229 13.1825 9.28229 13.1334V13.8896C9.28229 13.8405 9.26279 13.7934 9.22806 13.7586C9.19333 13.7239 9.14622 13.7044 9.09711 13.7044ZM9.66809 14.2754V12.7322C9.66809 12.4784 9.7689 12.235 9.94833 12.0556C10.1278 11.8762 10.3711 11.7754 10.6249 11.7754H23.6187C23.8725 11.7754 24.1158 11.8762 24.2953 12.0556C24.4747 12.235 24.5755 12.4784 24.5755 12.7322V14.2754C24.5755 14.5291 24.4747 14.7725 24.2953 14.9519C24.1158 15.1314 23.8725 15.2322 23.6187 15.2322H10.6249C10.3711 15.2322 10.1278 15.1314 9.94833 14.9519C9.7689 14.7725 9.66809 14.5291 9.66809 14.2754Z" fill="white"/>
<path d="M26.8592 13.118C26.8592 13.0688 26.8397 13.0217 26.8049 12.987C26.7702 12.9523 26.7231 12.9328 26.674 12.9328H25.532C25.4809 12.9328 25.4318 12.9531 25.3956 12.9893C25.3594 13.0255 25.3391 13.0745 25.3391 13.1257C25.3391 13.1768 25.3594 13.2259 25.3956 13.2621C25.4318 13.2983 25.4809 13.3186 25.532 13.3186H26.4888V17.2075L17.1215 21.3587V22.9019C17.1215 22.9531 17.1419 23.0021 17.178 23.0383C17.2142 23.0745 17.2633 23.0948 17.3144 23.0948C17.3656 23.0948 17.4147 23.0745 17.4508 23.0383C17.487 23.0021 17.5073 22.9531 17.5073 22.9019V21.4976L26.9363 17.3464V13.118H26.8592Z" fill="white"/>
<path d="M26.1029 13.8896C26.1029 13.8405 26.0834 13.7934 26.0487 13.7586C26.014 13.7239 25.9669 13.7044 25.9178 13.7044H25.532C25.4808 13.7044 25.4317 13.7247 25.3956 13.7609C25.3594 13.7971 25.3391 13.8461 25.3391 13.8973C25.3391 13.9484 25.3594 13.9975 25.3956 14.0337C25.4317 14.0699 25.4808 14.0902 25.532 14.0902H25.7171V16.8371L16.2881 20.9883V23.0562C16.2881 23.1074 16.3085 23.1565 16.3446 23.1926C16.3808 23.2288 16.4299 23.2491 16.481 23.2491C16.5322 23.2491 16.5813 23.2288 16.6174 23.1926C16.6536 23.1565 16.6739 23.1074 16.6739 23.0562V21.2044L26.1029 17.0532V13.8896Z" fill="white"/>
<path d="M17.5071 23.6267H15.9639C15.9148 23.6267 15.8677 23.6463 15.833 23.681C15.7983 23.7157 15.7788 23.7628 15.7788 23.8119V28.7811C15.7788 29.0348 15.8796 29.2782 16.059 29.4576C16.2384 29.637 16.4818 29.7378 16.7355 29.7378C16.9893 29.7378 17.2327 29.637 17.4121 29.4576C17.5915 29.2782 17.6923 29.0348 17.6923 28.7811V23.8274C17.6945 23.8018 17.6913 23.776 17.6829 23.7517C17.6746 23.7275 17.6613 23.7052 17.6439 23.6863C17.6265 23.6674 17.6053 23.6524 17.5818 23.6422C17.5582 23.6319 17.5328 23.6266 17.5071 23.6267ZM17.322 28.7811C17.322 28.9325 17.2618 29.0777 17.1547 29.1848C17.0476 29.2919 16.9024 29.352 16.751 29.352C16.5995 29.352 16.4543 29.2919 16.3472 29.1848C16.2401 29.0777 16.18 28.9325 16.18 28.7811V24.0125H17.322V28.7811Z" fill="white"/>
<path d="M12.2607 11.0189C12.3098 11.0189 12.3569 10.9994 12.3916 10.9646C12.4263 10.9299 12.4458 10.8828 12.4458 10.8337V8.73492C12.4636 8.6477 12.5109 8.56929 12.5798 8.51297C12.6487 8.45665 12.7349 8.42589 12.8239 8.42589C12.9129 8.42589 12.9992 8.45665 13.0681 8.51297C13.137 8.56929 13.1843 8.6477 13.202 8.73492C13.2046 8.76795 13.2159 8.79969 13.2349 8.82684C13.2539 8.85398 13.2799 8.87553 13.31 8.88924H13.4798C13.5039 8.87744 13.5248 8.8601 13.5409 8.83864C13.557 8.81718 13.5678 8.79221 13.5724 8.76578V6.06516C13.5901 5.97795 13.6374 5.89954 13.7063 5.84322C13.7752 5.7869 13.8615 5.75614 13.9505 5.75614C14.0395 5.75614 14.1257 5.7869 14.1946 5.84322C14.2635 5.89954 14.3108 5.97795 14.3286 6.06516V10.2627C14.3105 10.3072 14.3105 10.357 14.3286 10.4016C14.3731 10.4196 14.4229 10.4196 14.4674 10.4016C14.5074 10.4157 14.551 10.4157 14.5909 10.4016C14.6089 10.357 14.6089 10.3072 14.5909 10.2627C14.6086 10.1755 14.6559 10.0971 14.7248 10.0408C14.7937 9.98443 14.88 9.95367 14.969 9.95367C15.058 9.95367 15.1442 9.98443 15.2131 10.0408C15.2821 10.0971 15.3294 10.1755 15.3471 10.2627C15.3471 10.3118 15.3666 10.3589 15.4013 10.3936C15.436 10.4284 15.4831 10.4479 15.5323 10.4479C15.5705 10.4381 15.6046 10.4163 15.6295 10.3858C15.6545 10.3552 15.6691 10.3175 15.6712 10.2781V9.13615C15.6889 9.04894 15.7362 8.97053 15.8051 8.91421C15.874 8.85789 15.9602 8.82712 16.0492 8.82712C16.1382 8.82712 16.2245 8.85789 16.2934 8.91421C16.3623 8.97053 16.4096 9.04894 16.4273 9.13615C16.4302 9.17767 16.447 9.217 16.475 9.2478C16.503 9.2786 16.5406 9.29907 16.5816 9.30591C16.628 9.30203 16.6713 9.28082 16.7027 9.2465C16.7342 9.21218 16.7516 9.16727 16.7514 9.12072V7.97874C16.7514 7.87642 16.792 7.77829 16.8644 7.70594C16.9367 7.63359 17.0349 7.59294 17.1372 7.59294C17.2395 7.59294 17.3376 7.63359 17.41 7.70594C17.4824 7.77829 17.523 7.87642 17.523 7.97874V10.6485C17.5293 10.6954 17.5509 10.7389 17.5843 10.7723C17.6178 10.8058 17.6613 10.8273 17.7082 10.8337H17.8008C17.8309 10.82 17.8569 10.7984 17.8759 10.7713C17.8949 10.7441 17.9062 10.7124 17.9088 10.6794C17.9265 10.5921 17.9738 10.5137 18.0427 10.4574C18.1116 10.4011 18.1979 10.3703 18.2869 10.3703C18.3759 10.3703 18.4621 10.4011 18.531 10.4574C18.5999 10.5137 18.6473 10.5921 18.665 10.6794C18.665 10.7285 18.6845 10.7756 18.7192 10.8103C18.7539 10.845 18.801 10.8645 18.8502 10.8645C18.8981 10.861 18.9432 10.8403 18.9771 10.8063C19.0111 10.7724 19.0318 10.7273 19.0353 10.6794V8.34911C19.0353 8.24679 19.076 8.14866 19.1483 8.07631C19.2207 8.00396 19.3188 7.96331 19.4212 7.96331C19.5235 7.96331 19.6216 8.00396 19.694 8.07631C19.7663 8.14866 19.807 8.24679 19.807 8.34911V9.89232C19.807 9.94348 19.8273 9.99255 19.8634 10.0287C19.8996 10.0649 19.9487 10.0852 19.9999 10.0852C20.051 10.0852 20.1001 10.0649 20.1363 10.0287C20.1724 9.99255 20.1928 9.94348 20.1928 9.89232V8.34911C20.1928 8.14447 20.1115 7.94821 19.9668 7.80351C19.822 7.6588 19.6258 7.57751 19.4212 7.57751C19.2165 7.57751 19.0202 7.6588 18.8755 7.80351C18.7308 7.94821 18.6495 8.14447 18.6495 8.34911V10.0003C18.5377 9.92538 18.4061 9.88535 18.2715 9.88535C18.1368 9.88535 18.0052 9.92538 17.8934 10.0003V7.96331C17.8934 7.75867 17.8121 7.56241 17.6674 7.4177C17.5227 7.273 17.3264 7.19171 17.1218 7.19171C16.9171 7.19171 16.7209 7.273 16.5762 7.4177C16.4315 7.56241 16.3502 7.75867 16.3502 7.96331V8.45714C16.2355 8.38094 16.1019 8.33819 15.9644 8.33368C15.7624 8.33364 15.5684 8.41281 15.4241 8.5542C15.2799 8.69558 15.1968 8.8879 15.1928 9.08985V9.58368C15.0809 9.50871 14.9493 9.46868 14.8147 9.46868C14.68 9.46868 14.5484 9.50871 14.4366 9.58368V6.0343C14.4366 5.82966 14.3553 5.6334 14.2106 5.48869C14.0659 5.34399 13.8696 5.2627 13.665 5.2627C13.4603 5.2627 13.2641 5.34399 13.1194 5.48869C12.9747 5.6334 12.8934 5.82966 12.8934 6.0343V8.08677C12.7787 8.01057 12.6451 7.96782 12.5076 7.96331C12.3083 7.96726 12.1182 8.0482 11.9772 8.18916C11.8363 8.33012 11.7553 8.52017 11.7514 8.71948V10.8183C11.7248 10.8858 11.7261 10.9611 11.755 11.0277C11.784 11.0942 11.8382 11.1466 11.9057 11.1732C11.9732 11.1998 12.0486 11.1985 12.1151 11.1695C12.1817 11.1406 12.2341 11.0864 12.2607 11.0189Z" fill="white"/>
<path d="M23.8037 12.3614C23.8037 12.3123 23.7842 12.2652 23.7494 12.2305C23.7147 12.1958 23.6676 12.1762 23.6185 12.1762H10.6247C10.5735 12.1762 10.5244 12.1966 10.4883 12.2327C10.4521 12.2689 10.4318 12.318 10.4318 12.3691C10.4318 12.4203 10.4521 12.4694 10.4883 12.5055C10.5244 12.5417 10.5735 12.562 10.6247 12.562H23.6185C23.6442 12.5621 23.6696 12.5569 23.6931 12.5466C23.7167 12.5364 23.7378 12.5213 23.7552 12.5025C23.7726 12.4836 23.7859 12.4613 23.7943 12.437C23.8026 12.4128 23.8058 12.387 23.8037 12.3614Z" fill="white"/>
</svg>
