<svg width="36" height="36" viewBox="0 0 36 36" fill="none" xmlns="http://www.w3.org/2000/svg">
<rect x="0.193115" y="0.882812" width="35" height="35" fill="#2E3623"/>
<path fill-rule="evenodd" clip-rule="evenodd" d="M9.69968 14.7555C9.72897 14.7241 9.74525 14.6828 9.74525 14.6398C9.74525 14.5968 9.72897 14.5555 9.69968 14.5241C9.01309 13.3461 8.58195 12.0369 8.43425 10.6815C8.43425 8.11974 11.891 7.78025 15.2707 7.78025C18.6503 7.78025 22.1071 8.11974 22.1071 10.6815C21.9546 12.038 21.5182 13.3473 20.8262 14.5241C20.7969 14.5555 20.7806 14.5968 20.7806 14.6398C20.7806 14.6828 20.7969 14.7241 20.8262 14.7555H20.9034C20.9352 14.7561 20.9665 14.7477 20.9938 14.7314C21.0211 14.715 21.0432 14.6913 21.0577 14.6629C21.7805 13.4419 22.2281 12.0779 22.3694 10.666C22.3694 7.8111 18.7429 7.42529 15.1935 7.42529C11.6441 7.42529 8.01758 7.8111 8.01758 10.666C8.18999 12.0677 8.66381 13.4155 9.40647 14.6167C9.40128 14.6526 9.40775 14.6892 9.42491 14.7212C9.44207 14.7532 9.46902 14.7788 9.50181 14.7943C9.53461 14.8099 9.57151 14.8145 9.60712 14.8075C9.64273 14.8005 9.67517 14.7823 9.69968 14.7555ZM13.2185 26.2378H14.0673C14.1123 26.2378 14.1554 26.2557 14.1873 26.2875C14.2191 26.3194 14.237 26.3625 14.237 26.4076C14.237 26.4526 14.2191 26.4958 14.1873 26.5276C14.1554 26.5594 14.1123 26.5773 14.0673 26.5773H13.0487C11.6162 26.1129 10.366 25.2096 9.47527 23.9953C8.58457 22.781 8.09847 21.3172 8.08584 19.8113C8.0732 18.3054 8.53467 16.8337 9.40488 15.6046C10.2751 14.3755 11.5099 13.4513 12.9345 12.9629C14.3591 12.4746 15.9012 12.4468 17.3425 12.8835C18.7837 13.3202 20.0511 14.1993 20.965 15.3963C21.8789 16.5932 22.3931 18.0474 22.4347 19.5528C22.4763 21.0582 22.0433 22.5385 21.1969 23.7841L20.95 24.139C20.9213 24.1738 20.88 24.1958 20.8352 24.2002C20.7903 24.2045 20.7456 24.1908 20.7108 24.1622C20.676 24.1335 20.654 24.0923 20.6496 24.0474C20.6453 24.0025 20.659 23.9578 20.6876 23.923L20.9345 23.5835C21.746 22.3973 22.163 20.9856 22.1263 19.5489C22.0896 18.1121 21.601 16.7235 20.7301 15.5804C19.8591 14.4372 18.65 13.5975 17.2745 13.1808C15.8991 12.764 14.4273 12.7913 13.0683 13.2589C11.7093 13.7264 10.5322 14.6103 9.70419 15.785C8.87622 16.9597 8.43953 18.3655 8.45616 19.8026C8.47279 21.2397 8.94189 22.635 9.79682 23.7902C10.6517 24.9455 11.849 25.8019 13.2185 26.2378ZM18.5883 21.8078C18.3632 21.8078 18.1473 21.8972 17.9881 22.0564C17.8289 22.2156 17.7395 22.4315 17.7395 22.6566V28.5053C17.7395 28.7325 17.8298 28.9503 17.9904 29.111C18.151 29.2716 18.3689 29.3618 18.596 29.3618C18.8232 29.3618 19.041 29.2716 19.2016 29.111C19.3622 28.9503 19.4525 28.7325 19.4525 28.5053V22.7029C19.4589 22.5863 19.4411 22.4696 19.4004 22.3602C19.3596 22.2507 19.2967 22.1509 19.2156 22.0669C19.1345 21.9829 19.0369 21.9165 18.929 21.8719C18.821 21.8273 18.705 21.8055 18.5883 21.8078ZM18.5883 28.9837C18.4532 28.9837 18.3237 28.9301 18.2282 28.8346C18.1327 28.7391 18.079 28.6095 18.079 28.4745V22.672C18.079 22.5369 18.1327 22.4074 18.2282 22.3119C18.3237 22.2164 18.4532 22.1627 18.5883 22.1627C18.7234 22.1627 18.8529 22.2164 18.9484 22.3119C19.0439 22.4074 19.0975 22.5369 19.0975 22.672V28.5053C19.0897 28.635 19.0326 28.7567 18.9379 28.8456C18.8432 28.9346 18.7182 28.984 18.5883 28.9837ZM16.5357 22.8267C16.3106 22.8267 16.0947 22.9162 15.9355 23.0753C15.7763 23.2345 15.6869 23.4504 15.6869 23.6755V27.4255C15.6869 27.6526 15.7772 27.8705 15.9378 28.0311C16.0984 28.1917 16.3163 28.282 16.5434 28.282C16.7706 28.282 16.9884 28.1917 17.149 28.0311C17.3097 27.8705 17.3999 27.6526 17.3999 27.4255V23.6755C17.3999 23.5627 17.3775 23.4511 17.3338 23.3471C17.2902 23.2431 17.2263 23.1488 17.1459 23.0698C17.0654 22.9908 16.97 22.9286 16.8652 22.8869C16.7605 22.8451 16.6484 22.8247 16.5357 22.8267ZM16.5357 27.9502C16.4006 27.9502 16.2711 27.8965 16.1756 27.801C16.0801 27.7055 16.0264 27.576 16.0264 27.4409V23.6755C16.0264 23.5404 16.0801 23.4109 16.1756 23.3154C16.2711 23.2199 16.4006 23.1662 16.5357 23.1662C16.6708 23.1662 16.8003 23.2199 16.8958 23.3154C16.9913 23.4109 17.045 23.5404 17.045 23.6755V27.4409C17.045 27.576 16.9913 27.7055 16.8958 27.801C16.8003 27.8965 16.6708 27.9502 16.5357 27.9502ZM27.5564 23.0752C27.7156 22.916 27.9315 22.8266 28.1566 22.8266C28.3831 22.8266 28.6006 22.9155 28.7623 23.0742C28.9239 23.233 29.0167 23.4488 29.0208 23.6753V27.4408C29.0208 27.6679 28.9305 27.8858 28.7699 28.0464C28.6093 28.207 28.3914 28.2973 28.1643 28.2973C27.9371 28.2973 27.7193 28.207 27.5587 28.0464C27.398 27.8858 27.3078 27.6679 27.3078 27.4408V23.6753C27.3078 23.4502 27.3972 23.2344 27.5564 23.0752ZM27.7965 27.8009C27.892 27.8964 28.0215 27.95 28.1566 27.95C28.289 27.9501 28.4163 27.8986 28.5113 27.8064C28.6064 27.7142 28.6618 27.5886 28.6658 27.4562V23.6908C28.6658 23.5557 28.6122 23.4262 28.5167 23.3307C28.4212 23.2352 28.2916 23.1815 28.1566 23.1815C28.0215 23.1815 27.892 23.2352 27.7965 23.3307C27.701 23.4262 27.6473 23.5557 27.6473 23.6908V27.4408C27.6473 27.5758 27.701 27.7054 27.7965 27.8009ZM26.1037 21.8078C25.8786 21.8078 25.6627 21.8972 25.5035 22.0564C25.3444 22.2156 25.2549 22.4315 25.2549 22.6566V28.5053C25.2549 28.7325 25.3452 28.9503 25.5058 29.111C25.6664 29.2716 25.8843 29.3618 26.1114 29.3618C26.3386 29.3618 26.5564 29.2716 26.7171 29.111C26.8777 28.9503 26.9679 28.7325 26.9679 28.5053V22.7029C26.9743 22.5863 26.9566 22.4696 26.9158 22.3602C26.875 22.2507 26.8121 22.1509 26.731 22.0669C26.6499 21.9829 26.5523 21.9165 26.4444 21.8719C26.3364 21.8273 26.2205 21.8055 26.1037 21.8078ZM26.1037 28.9837C25.9686 28.9837 25.8391 28.9301 25.7436 28.8346C25.6481 28.7391 25.5945 28.6095 25.5945 28.4745V22.6566C25.5945 22.5215 25.6481 22.392 25.7436 22.2965C25.8391 22.201 25.9686 22.1473 26.1037 22.1473C26.2388 22.1473 26.3683 22.201 26.4638 22.2965C26.5593 22.392 26.613 22.5215 26.613 22.6566V28.5053C26.6051 28.635 26.548 28.7567 26.4533 28.8456C26.3587 28.9346 26.2336 28.984 26.1037 28.9837ZM19.9466 24.5397H24.7306C24.7756 24.5397 24.8188 24.5576 24.8506 24.5895C24.8825 24.6213 24.9003 24.6645 24.9003 24.7095C24.9003 24.7545 24.8825 24.7977 24.8506 24.8295C24.8188 24.8614 24.7756 24.8792 24.7306 24.8792H19.9466C19.9016 24.8792 19.8584 24.8614 19.8266 24.8295C19.7948 24.7977 19.7769 24.7545 19.7769 24.7095C19.7769 24.6645 19.7948 24.6213 19.8266 24.5895C19.8584 24.5576 19.9016 24.5397 19.9466 24.5397ZM24.7306 26.2371H19.9466C19.9016 26.2371 19.8584 26.255 19.8266 26.2868C19.7948 26.3187 19.7769 26.3618 19.7769 26.4068C19.7769 26.4519 19.7948 26.495 19.8266 26.5269C19.8584 26.5587 19.9016 26.5766 19.9466 26.5766H24.7306C24.7756 26.5766 24.8188 26.5587 24.8506 26.5269C24.8825 26.495 24.9003 26.4519 24.9003 26.4068C24.9003 26.3618 24.8825 26.3187 24.8506 26.2868C24.8188 26.255 24.7756 26.2371 24.7306 26.2371ZM15.2983 24.8295C15.2665 24.8614 15.2233 24.8792 15.1783 24.8792L14.9777 24.8175V26.191H15.1474C15.1925 26.191 15.2356 26.2088 15.2675 26.2407C15.2993 26.2725 15.3172 26.3157 15.3172 26.3607C15.3172 26.4057 15.2993 26.4489 15.2675 26.4807C15.2356 26.5126 15.1925 26.5305 15.1474 26.5305H14.8079C14.7765 26.5288 14.7464 26.5175 14.7216 26.4982C14.6968 26.4789 14.6784 26.4525 14.669 26.4224V24.7095C14.669 24.6645 14.6869 24.6213 14.7188 24.5895C14.7506 24.5576 14.7938 24.5397 14.8388 24.5397H15.1783C15.2233 24.5397 15.2665 24.5576 15.2983 24.5895C15.3302 24.6213 15.348 24.6645 15.348 24.7095C15.348 24.7545 15.3302 24.7977 15.2983 24.8295ZM30.0391 24.7095C30.0391 24.6645 30.0213 24.6213 29.9894 24.5895C29.9576 24.5576 29.9144 24.5397 29.8694 24.5397H29.4682C29.4231 24.5397 29.38 24.5576 29.3481 24.5895C29.3163 24.6213 29.2984 24.6645 29.2984 24.7095C29.2984 24.7545 29.3163 24.7977 29.3481 24.8295C29.38 24.8614 29.4231 24.8792 29.4682 24.8792H29.6379V26.2527H29.4682C29.4231 26.2527 29.38 26.2706 29.3481 26.3024C29.3163 26.3343 29.2984 26.3774 29.2984 26.4224C29.2984 26.4675 29.3163 26.5107 29.3481 26.5425C29.38 26.5743 29.4231 26.5922 29.4682 26.5922H29.8077C29.8527 26.5922 29.8959 26.5743 29.9277 26.5425C29.9595 26.5107 29.9774 26.4675 29.9774 26.4224L30.0391 24.7095ZM18.4682 23.5558C18.5 23.524 18.5432 23.5061 18.5882 23.5061C18.6332 23.5061 18.6764 23.524 18.7083 23.5558C18.7401 23.5876 18.758 23.6308 18.758 23.6758V27.4413C18.758 27.4863 18.7401 27.5295 18.7083 27.5613C18.6764 27.5931 18.6332 27.611 18.5882 27.611C18.5432 27.611 18.5 27.5931 18.4682 27.5613C18.4364 27.5295 18.4185 27.4863 18.4185 27.4413V23.6758C18.4185 23.6308 18.4364 23.5876 18.4682 23.5558ZM16.5354 24.2002C16.4903 24.2002 16.4472 24.2181 16.4153 24.25C16.3835 24.2818 16.3656 24.325 16.3656 24.37V26.762C16.3656 26.807 16.3835 26.8502 16.4153 26.882C16.4472 26.9138 16.4903 26.9317 16.5354 26.9317C16.5804 26.9317 16.6236 26.9138 16.6554 26.882C16.6872 26.8502 16.7051 26.807 16.7051 26.762V24.37C16.7051 24.325 16.6872 24.2818 16.6554 24.25C16.6236 24.2181 16.5804 24.2002 16.5354 24.2002ZM25.9836 23.5558C26.0154 23.524 26.0586 23.5061 26.1036 23.5061C26.1487 23.5061 26.1918 23.524 26.2237 23.5558C26.2555 23.5876 26.2734 23.6308 26.2734 23.6758V27.4413C26.2734 27.4863 26.2555 27.5295 26.2237 27.5613C26.1918 27.5931 26.1487 27.611 26.1036 27.611C26.0586 27.611 26.0154 27.5931 25.9836 27.5613C25.9518 27.5295 25.9339 27.4863 25.9339 27.4413V23.6758C25.9339 23.6308 25.9518 23.5876 25.9836 23.5558ZM28.1565 24.2002C28.1115 24.2002 28.0683 24.2181 28.0365 24.25C28.0046 24.2818 27.9868 24.325 27.9868 24.37V26.762C27.9868 26.807 28.0046 26.8502 28.0365 26.882C28.0683 26.9138 28.1115 26.9317 28.1565 26.9317C28.2015 26.9317 28.2447 26.9138 28.2765 26.882C28.3084 26.8502 28.3263 26.807 28.3263 26.762V24.37C28.3263 24.325 28.3084 24.2818 28.2765 24.25C28.2447 24.2181 28.2015 24.2002 28.1565 24.2002ZM20.0466 13.8452C20.0036 13.8452 19.9622 13.8289 19.9308 13.7996C19.9054 13.8161 19.8761 13.8255 19.8458 13.8269C19.8156 13.8283 19.7855 13.8215 19.7588 13.8074C19.732 13.7932 19.7095 13.7721 19.6936 13.7463C19.6778 13.7205 19.6691 13.691 19.6685 13.6607C20.1783 12.7785 20.5038 11.802 20.6253 10.7903C20.6253 9.75639 18.7888 9.24713 15.1623 9.24713C11.5358 9.24713 9.69934 9.77182 9.69934 10.7903C9.81953 11.8023 10.1451 12.779 10.6561 13.6607C10.6854 13.6921 10.7017 13.7335 10.7017 13.7764C10.7017 13.8194 10.6854 13.8608 10.6561 13.8922C10.6243 13.8928 10.593 13.8844 10.5657 13.868C10.5384 13.8517 10.5163 13.8279 10.5018 13.7996C9.96731 12.8481 9.63132 11.7982 9.51415 10.7132C9.51415 9.91071 10.116 8.83046 15.3321 8.83046C20.5481 8.83046 21.15 9.91071 21.15 10.7132C21.0328 11.7982 20.6968 12.8481 20.1623 13.7996C20.1309 13.8289 20.0895 13.8452 20.0466 13.8452ZM11.6597 15.0184C11.6439 15.0016 11.6247 14.9882 11.6035 14.979C11.5823 14.9699 11.5594 14.9651 11.5363 14.9651C11.5132 14.9651 11.4903 14.9699 11.4691 14.979C11.4478 14.9882 11.4287 15.0016 11.4128 15.0184C10.7165 15.5977 10.1562 16.3231 9.77168 17.1432C9.38716 17.9633 9.18782 18.858 9.18782 19.7638C9.18782 20.6695 9.38716 21.5642 9.77168 22.3843C10.1562 23.2044 10.7165 23.9298 11.4128 24.5091H11.5208C11.5427 24.5189 11.5664 24.524 11.5903 24.524C11.6142 24.524 11.6379 24.5189 11.6597 24.5091C11.6765 24.4933 11.6899 24.4741 11.6991 24.4529C11.7083 24.4317 11.713 24.4088 11.713 24.3857C11.713 24.3625 11.7083 24.3397 11.6991 24.3184C11.6899 24.2972 11.6765 24.2781 11.6597 24.2622C10.9973 23.7179 10.4638 23.0335 10.0975 22.2584C9.73116 21.4832 9.54117 20.6365 9.54117 19.7792C9.54117 18.9218 9.73116 18.0751 10.0975 17.3C10.4638 16.5248 10.9973 15.8405 11.6597 15.2962C11.682 15.2805 11.7002 15.2597 11.7128 15.2355C11.7253 15.2114 11.7319 15.1845 11.7319 15.1573C11.7319 15.13 11.7253 15.1032 11.7128 15.079C11.7002 15.0548 11.682 15.034 11.6597 15.0184ZM19.9461 23.676C19.911 23.6878 19.8731 23.6878 19.838 23.676C19.8107 23.6474 19.7942 23.6102 19.7914 23.5708C19.7886 23.5313 19.7996 23.4921 19.8226 23.46C20.3089 22.8717 20.6744 22.1932 20.8981 21.4634C21.1218 20.7337 21.1993 19.9669 21.1262 19.2072C21.0531 18.4474 20.8308 17.7095 20.472 17.0358C20.1133 16.362 19.6251 15.7657 19.0356 15.2809C19.0183 15.2668 19.0041 15.2493 18.9936 15.2296C18.9831 15.2099 18.9766 15.1884 18.9744 15.1661C18.9723 15.1439 18.9745 15.1215 18.9811 15.1002C18.9876 15.0788 18.9982 15.059 19.0124 15.0417C19.0266 15.0245 19.044 15.0103 19.0637 14.9998C19.0834 14.9893 19.105 14.9828 19.1272 14.9806C19.1494 14.9785 19.1718 14.9807 19.1932 14.9873C19.2145 14.9938 19.2344 15.0044 19.2516 15.0186C20.5049 16.0596 21.2958 17.5539 21.4519 19.1756C21.608 20.7974 21.1167 22.4151 20.0849 23.676C20.0631 23.6858 20.0394 23.6909 20.0155 23.6909C19.9916 23.6909 19.9679 23.6858 19.9461 23.676Z" fill="white"/>
</svg>
