<svg width="35" height="35" viewBox="0 0 35 35" fill="none" xmlns="http://www.w3.org/2000/svg">
<rect width="35" height="35" fill="#EA5316"/>
<path fill-rule="evenodd" clip-rule="evenodd" d="M17.5003 17.9475L29.7379 14.645L29.7842 14.6605C29.8436 14.6441 29.907 14.652 29.9605 14.6824C30.0141 14.7128 30.0534 14.7632 30.0697 14.8225C30.0861 14.8819 30.0782 14.9453 30.0478 14.9988C30.0175 15.0524 29.967 15.0916 29.9077 15.108L17.562 18.4259H17.4386L2.80893 14.4753C2.75956 14.4622 2.7159 14.4332 2.68476 14.3927C2.65361 14.3522 2.63672 14.3026 2.63672 14.2515C2.63672 14.2005 2.65361 14.1508 2.68476 14.1104C2.7159 14.0699 2.75956 14.0408 2.80893 14.0278L17.4386 10.0771H17.5312L29.8768 13.3951C29.9062 13.4032 29.9337 13.417 29.9578 13.4357C29.9818 13.4544 30.0019 13.4777 30.017 13.5042C30.032 13.5308 30.0417 13.56 30.0455 13.5902C30.0492 13.6205 30.047 13.6512 30.0389 13.6805C30.0308 13.7099 30.0169 13.7374 29.9982 13.7615C29.9795 13.7855 29.9562 13.8056 29.9297 13.8207C29.9032 13.8357 29.8739 13.8454 29.8437 13.8492C29.8134 13.8529 29.7828 13.8507 29.7534 13.8426L17.5003 10.5401L3.76572 14.2438L17.5003 17.9475ZM25.0659 16.545C25.094 16.5333 25.1241 16.5273 25.1545 16.5273C25.1709 16.5807 25.1674 16.6383 25.1447 16.6893C25.122 16.7404 25.0817 16.7815 25.031 16.8051V22.8236C25.0377 22.8541 25.0377 22.8857 25.031 22.9162C22.4344 23.2147 19.8844 23.8315 17.4384 24.7527H17.2687C14.8224 23.8324 12.2725 23.2156 9.67609 22.9162H9.59893C9.5943 22.8907 9.5943 22.8646 9.59893 22.8391V16.8051C9.59893 16.7437 9.62332 16.6849 9.66673 16.6414C9.71014 16.598 9.76902 16.5736 9.83041 16.5736C9.89181 16.5736 9.95068 16.598 9.9941 16.6414C10.0375 16.6849 10.0619 16.7437 10.0619 16.8051V22.7002C12.6048 23.0096 15.1019 23.6209 17.5002 24.5212C19.8934 23.6217 22.3852 23.0104 24.923 22.7002V16.7588C24.923 16.7284 24.929 16.6983 24.9406 16.6702C24.9523 16.6422 24.9693 16.6166 24.9908 16.5951C25.0123 16.5737 25.0378 16.5566 25.0659 16.545ZM10.9874 21.9129V17.2832C10.9874 17.2218 10.963 17.163 10.9196 17.1196C10.8762 17.0762 10.8173 17.0518 10.7559 17.0518C10.6945 17.0518 10.6356 17.0762 10.5922 17.1196C10.5488 17.163 10.5244 17.2218 10.5244 17.2832V21.9129C10.5244 21.9743 10.5488 22.0331 10.5922 22.0766C10.6356 22.12 10.6945 22.1444 10.7559 22.1444C10.8173 22.1444 10.8762 22.12 10.9196 22.0766C10.963 22.0331 10.9874 21.9743 10.9874 21.9129ZM24.4595 17.2832V21.9129C24.4595 21.9743 24.4352 22.0331 24.3917 22.0766C24.3483 22.12 24.2895 22.1444 24.2281 22.1444C24.1667 22.1444 24.1078 22.12 24.0644 22.0766C24.021 22.0331 23.9966 21.9743 23.9966 21.9129V17.2832C23.9966 17.2218 24.021 17.163 24.0644 17.1196C24.1078 17.0762 24.1667 17.0518 24.2281 17.0518C24.2895 17.0518 24.3483 17.0762 24.3917 17.1196C24.4352 17.163 24.4595 17.2218 24.4595 17.2832ZM17.7313 23.7655V21.4507C17.7313 21.3893 17.7069 21.3304 17.6635 21.287C17.6201 21.2436 17.5612 21.2192 17.4998 21.2192C17.4384 21.2192 17.3795 21.2436 17.3361 21.287C17.2927 21.3304 17.2683 21.3893 17.2683 21.4507V23.781C17.2683 23.8424 17.2927 23.9012 17.3361 23.9447C17.3795 23.9881 17.4384 24.0124 17.4998 24.0124C17.5612 24.0124 17.6201 23.9881 17.6635 23.9447C17.7069 23.9012 17.7313 23.8424 17.7313 23.781V23.7655ZM11.6354 15.5867L15.3545 14.5836C15.4018 14.5736 15.451 14.5787 15.4953 14.598C15.5396 14.6174 15.5767 14.6501 15.6014 14.6917C15.6107 14.7221 15.6136 14.7541 15.61 14.7856C15.6064 14.8172 15.5963 14.8477 15.5804 14.8752C15.5644 14.9027 15.543 14.9267 15.5174 14.9455C15.4919 14.9644 15.4627 14.9778 15.4317 14.9849L11.6971 16.0343C11.6451 16.0361 11.5939 16.0204 11.5519 15.9896C11.5099 15.9588 11.4795 15.9147 11.4656 15.8645C11.4517 15.8052 11.4617 15.7428 11.4934 15.6907C11.5252 15.6387 11.5762 15.6014 11.6354 15.5867ZM19.6452 13.9043L23.3644 12.9012C23.4237 12.8848 23.4741 12.8456 23.5045 12.792C23.5349 12.7385 23.5428 12.675 23.5264 12.6157C23.51 12.5564 23.4707 12.5059 23.4172 12.4756C23.3637 12.4452 23.3002 12.4373 23.2409 12.4537L19.5218 13.4413C19.4604 13.4413 19.4015 13.4657 19.3581 13.5091C19.3147 13.5525 19.2903 13.6114 19.2903 13.6728C19.2903 13.7342 19.3147 13.7931 19.3581 13.8365C19.4015 13.8799 19.4604 13.9043 19.5218 13.9043H19.6452ZM23.2408 15.9871L19.5216 14.984L19.3982 14.9686C19.3388 14.9522 19.2884 14.9129 19.258 14.8594C19.2276 14.8059 19.2198 14.7424 19.2361 14.6831C19.2525 14.6237 19.2918 14.5733 19.3453 14.543C19.3989 14.5126 19.4623 14.5047 19.5216 14.5211L23.2408 15.5241C23.3022 15.5241 23.361 15.5485 23.4045 15.5919C23.4479 15.6354 23.4723 15.6942 23.4723 15.7556C23.4723 15.817 23.4479 15.8759 23.4045 15.9193C23.361 15.9627 23.3022 15.9871 23.2408 15.9871ZM15.4319 13.4411L11.7128 12.438C11.6535 12.4217 11.59 12.4295 11.5365 12.4599C11.483 12.4903 11.4437 12.5407 11.4273 12.6001C11.4109 12.6594 11.4188 12.7228 11.4492 12.7764C11.4796 12.8299 11.53 12.8692 11.5893 12.8856L15.3085 13.8887C15.3605 13.8905 15.4117 13.8748 15.4537 13.844C15.4957 13.8132 15.5261 13.7691 15.54 13.7189C15.5575 13.6673 15.5564 13.6111 15.5366 13.5603C15.5168 13.5095 15.4798 13.4673 15.4319 13.4411ZM17.4844 15.1699C16.5585 15.1699 15.6326 14.8612 15.6326 14.2439C15.6326 13.0248 19.3517 13.0248 19.3363 14.2439C19.3363 14.8458 18.4103 15.1699 17.4844 15.1699ZM17.4999 14.7069C18.364 14.7069 18.8887 14.4137 18.8887 14.2439C18.8887 14.0896 18.364 13.781 17.4999 13.781C16.6357 13.781 16.111 14.0742 16.111 14.2439C16.111 14.4137 16.6357 14.7069 17.4999 14.7069ZM20.2778 14.2432C20.2778 14.3046 20.3022 14.3635 20.3456 14.4069C20.389 14.4503 20.4479 14.4747 20.5093 14.4747H30.9568V16.6043C30.8225 16.6518 30.706 16.7395 30.6232 16.8554C30.5404 16.9714 30.4952 17.11 30.4939 17.2525C30.5553 17.2525 30.6142 17.2769 30.6576 17.3203C30.701 17.3637 30.7254 17.4226 30.7254 17.484C30.7254 17.5454 30.701 17.6042 30.6576 17.6476C30.6142 17.6911 30.5553 17.7154 30.4939 17.7154V18.6414C30.4939 18.6718 30.4999 18.7019 30.5115 18.73C30.5231 18.758 30.5402 18.7836 30.5617 18.8051C30.5832 18.8265 30.6087 18.8436 30.6368 18.8552C30.6649 18.8669 30.695 18.8728 30.7254 18.8728H31.6513C31.6817 18.8728 31.7118 18.8669 31.7399 18.8552C31.768 18.8436 31.7935 18.8265 31.815 18.8051C31.8365 18.7836 31.8535 18.758 31.8651 18.73C31.8768 18.7019 31.8828 18.6718 31.8828 18.6414V17.7154C31.8214 17.7154 31.7625 17.6911 31.7191 17.6476C31.6794 17.608 31.6557 17.5555 31.6518 17.4999C31.6568 17.4999 31.6618 17.4997 31.6667 17.4994H31.6518C31.6515 17.4943 31.6513 17.4891 31.6513 17.484C31.6513 17.4226 31.6757 17.3637 31.7191 17.3203C31.7625 17.2769 31.8214 17.2525 31.8828 17.2525C31.8814 17.11 31.8363 16.9714 31.7534 16.8554C31.6706 16.7395 31.5541 16.6518 31.4198 16.6043V14.2432C31.4198 14.1818 31.3954 14.123 31.352 14.0795C31.3086 14.0361 31.2497 14.0117 31.1883 14.0117H20.5247C20.4931 14.0096 20.4613 14.0141 20.4314 14.0247C20.4015 14.0354 20.3741 14.0521 20.351 14.0738C20.3278 14.0955 20.3094 14.1218 20.2968 14.1509C20.2842 14.1801 20.2778 14.2115 20.2778 14.2432ZM31.5734 17.4864C31.5936 17.4936 31.6146 17.498 31.6359 17.4994H30.7254C30.7868 17.4994 30.8456 17.475 30.889 17.4316C30.9325 17.3882 30.9568 17.3293 30.9568 17.2679C30.9568 17.2065 30.9812 17.1476 31.0246 17.1042C31.0681 17.0608 31.1269 17.0364 31.1883 17.0364C31.2497 17.0364 31.3086 17.0608 31.352 17.1042C31.3954 17.1476 31.4198 17.2065 31.4198 17.2679C31.4197 17.2997 31.4262 17.3311 31.4388 17.3602C31.4514 17.3894 31.4698 17.4156 31.493 17.4373C31.5161 17.459 31.5435 17.4757 31.5734 17.4864ZM31.4198 18.4253H30.9568V17.9624H31.4198V18.4253ZM31.9442 19.1817L32.4072 22.4379C32.3977 22.4783 32.3769 22.5151 32.3471 22.544C32.3173 22.5729 32.2798 22.5926 32.2391 22.6007C32.1984 22.6088 32.1562 22.6051 32.1176 22.5899C32.079 22.5747 32.0456 22.5487 32.0214 22.515H30.0923C30.0877 22.4895 30.0877 22.4634 30.0923 22.4379L30.5553 19.1817C30.5553 19.1203 30.5797 19.0614 30.6231 19.018C30.6665 18.9746 30.7254 18.9502 30.7868 18.9502C30.8482 18.9502 30.9071 18.9746 30.9505 19.018C30.9939 19.0614 31.0183 19.1203 31.0183 19.1817L30.5862 22.1755H31.0183V21.0181C31.0183 20.9567 31.0427 20.8978 31.0861 20.8544C31.1295 20.811 31.1884 20.7866 31.2497 20.7866C31.3111 20.7866 31.37 20.811 31.4134 20.8544C31.4568 20.8978 31.4812 20.9567 31.4812 21.0181V22.1755H31.9133L31.4812 19.1817C31.4812 19.1203 31.5056 19.0614 31.549 19.018C31.5924 18.9746 31.6513 18.9502 31.7127 18.9502C31.7741 18.9502 31.833 18.9746 31.8764 19.018C31.9198 19.0614 31.9442 19.1203 31.9442 19.1817Z" fill="white"/>
</svg>
