<svg width="36" height="35" viewBox="0 0 36 35" fill="none" xmlns="http://www.w3.org/2000/svg">
<rect x="0.193115" width="35" height="35" fill="#35288F"/>
<path fill-rule="evenodd" clip-rule="evenodd" d="M28.1287 9.00908C28.2664 9.12031 28.3807 9.25769 28.4652 9.41329C28.5447 9.56955 28.5924 9.74001 28.6056 9.91483C28.6189 10.0897 28.5974 10.2654 28.5423 10.4318L27.9096 12.5923C27.8872 12.6659 27.8425 12.7306 27.7817 12.7776C27.7209 12.8247 27.6469 12.8516 27.5701 12.8547C27.4933 12.8516 27.4193 12.8247 27.3585 12.7776C27.2977 12.7306 27.253 12.6659 27.2306 12.5923C27.1372 12.2952 26.9506 12.036 26.6984 11.8532C26.4463 11.6703 26.142 11.5735 25.8305 11.577C25.5191 11.5805 25.217 11.6841 24.969 11.8726C24.7211 12.0611 24.5403 12.3243 24.4536 12.6235C24.3668 12.9226 24.3787 13.2417 24.4873 13.5336C24.596 13.8255 24.7957 14.0747 25.057 14.2443C25.3183 14.4138 25.6272 14.4948 25.938 14.4752C26.2489 14.4557 26.5452 14.3365 26.7831 14.1355C26.8441 14.0877 26.9186 14.0604 26.9961 14.0572C27.0736 14.054 27.1501 14.0752 27.2148 14.1178C27.2796 14.1604 27.3294 14.2223 27.3571 14.2947C27.3848 14.3671 27.3892 14.4463 27.3695 14.5213L26.6442 16.975C26.5946 17.1443 26.5121 17.3021 26.4015 17.4394C26.2908 17.5768 26.1542 17.691 25.9995 17.7756C25.8447 17.8601 25.6748 17.9133 25.4994 17.9322C25.3241 17.9511 25.1467 17.9352 24.9775 17.8855L23.3417 17.4071C23.447 17.7839 23.4495 18.182 23.349 18.56C23.2485 18.9381 23.0486 19.2824 22.77 19.5571C22.4915 19.8318 22.1445 20.027 21.7651 20.1223C21.3857 20.2176 20.9877 20.2096 20.6124 20.0991C20.2371 19.9886 19.8982 19.7797 19.631 19.494C19.3637 19.2084 19.1778 18.8563 19.0925 18.4745C19.0073 18.0927 19.0258 17.6951 19.1461 17.3228C19.2665 16.9506 19.4843 16.6174 19.7769 16.3577L18.4189 15.9565C18.2496 15.9069 18.0918 15.8244 17.9545 15.7138C17.8171 15.6032 17.7029 15.4666 17.6183 15.3118C17.5338 15.157 17.4805 14.9871 17.4617 14.8118C17.4428 14.6364 17.4587 14.4591 17.5084 14.2898L17.9868 12.654C17.6128 12.7532 17.2193 12.7515 16.8462 12.6493C16.4731 12.5471 16.1337 12.3479 15.8625 12.072C15.5913 11.7961 15.3979 11.4533 15.3021 11.0785C15.2063 10.7037 15.2115 10.3102 15.317 9.93799C15.4281 9.56629 15.6359 9.23073 15.9191 8.96561C16.2023 8.70049 16.5508 8.51532 16.9291 8.429C17.3073 8.34269 17.7016 8.35832 18.0718 8.47432C18.442 8.59032 18.7748 8.80251 19.0362 9.08922L19.4374 7.74663C19.487 7.57739 19.5695 7.41958 19.6801 7.28222C19.7907 7.14486 19.9273 7.03064 20.0821 6.94609C20.2369 6.86154 20.4068 6.80831 20.5821 6.78944C20.7575 6.77058 20.9348 6.78644 21.1041 6.83614L27.6627 8.76515C27.8326 8.81494 27.9909 8.89784 28.1287 9.00908ZM27.4775 11.5892L27.8787 10.2312L27.9559 10.3238C27.9796 10.2458 27.9876 10.1638 27.9794 10.0827C27.9713 10.0016 27.9471 9.92288 27.9084 9.85114C27.8697 9.77939 27.8171 9.71603 27.7537 9.66472C27.6904 9.61341 27.6175 9.57517 27.5392 9.55219L20.9806 7.62317C20.9026 7.59948 20.8206 7.59148 20.7395 7.59964C20.6584 7.60779 20.5797 7.63194 20.5079 7.67068C20.4362 7.70942 20.3728 7.76199 20.3215 7.82535C20.2702 7.88871 20.232 7.96161 20.209 8.03984L19.5763 10.2003C19.5539 10.2739 19.5092 10.3387 19.4484 10.3857C19.3875 10.4327 19.3136 10.4596 19.2368 10.4627C19.1599 10.4596 19.086 10.4327 19.0252 10.3857C18.9643 10.3387 18.9196 10.2739 18.8973 10.2003C18.8226 9.96163 18.6876 9.74627 18.5052 9.57516C18.3228 9.40405 18.0992 9.28301 17.8562 9.22378C17.6133 9.16456 17.3591 9.16917 17.1184 9.23715C16.8777 9.30513 16.6587 9.43418 16.4826 9.61178C16.3065 9.78937 16.1793 10.0095 16.1134 10.2507C16.0475 10.492 16.045 10.7462 16.1063 10.9886C16.1676 11.2311 16.2906 11.4536 16.4632 11.6346C16.6359 11.8155 16.8524 11.9487 17.0917 12.0213C17.321 12.0893 17.5636 12.0995 17.7979 12.0511C18.0321 12.0026 18.2508 11.897 18.4343 11.7435C18.4984 11.6869 18.5802 11.6541 18.6658 11.6509C18.7313 11.6317 18.8009 11.6317 18.8664 11.6509C18.9307 11.6935 18.9801 11.755 19.0077 11.8269C19.0354 11.8988 19.0399 11.9776 19.0207 12.0522L18.2954 14.5059C18.2636 14.5816 18.2472 14.6629 18.2472 14.7451C18.2472 14.8272 18.2636 14.9086 18.2954 14.9843C18.3751 15.1273 18.5083 15.2327 18.6658 15.2775L20.7954 15.9565C20.8663 15.9828 20.9274 16.0302 20.9706 16.0923C21.0138 16.1543 21.0369 16.2281 21.0369 16.3037C21.0369 16.3793 21.0138 16.4531 20.9706 16.5152C20.9274 16.5773 20.8663 16.6246 20.7954 16.651C20.6108 16.7183 20.4418 16.8225 20.2987 16.9572C20.1556 17.0919 20.0413 17.2542 19.9628 17.4344C19.8843 17.6146 19.8433 17.8088 19.8422 18.0053C19.841 18.2018 19.8798 18.3965 19.9563 18.5776C20.0327 18.7587 20.1451 18.9223 20.2866 19.0586C20.4282 19.1949 20.596 19.301 20.7798 19.3705C20.9636 19.44 21.1597 19.4714 21.356 19.4629C21.5523 19.4543 21.7449 19.4059 21.922 19.3207C22.1107 19.2179 22.2742 19.0744 22.4006 18.9007C22.5271 18.7269 22.6134 18.5272 22.6533 18.3161C22.6932 18.1049 22.6856 17.8875 22.6312 17.6796C22.5768 17.4717 22.4768 17.2785 22.3386 17.1139C22.2909 17.0528 22.2635 16.9783 22.2603 16.9009C22.2571 16.8234 22.2783 16.7469 22.3209 16.6822C22.3635 16.6174 22.4254 16.5676 22.4978 16.5399C22.5702 16.5121 22.6494 16.5078 22.7244 16.5275L25.1318 17.1911C25.2098 17.2148 25.2918 17.2228 25.3729 17.2146C25.454 17.2065 25.5327 17.1823 25.6045 17.1436C25.6762 17.1048 25.7396 17.0523 25.7909 16.9889C25.8422 16.9255 25.8805 16.8526 25.9034 16.7744L26.3818 15.1386C26.0037 15.2392 25.6055 15.2367 25.2286 15.1314C24.8517 15.026 24.5099 14.8217 24.2387 14.5396C23.9675 14.2575 23.7768 13.9079 23.6864 13.5272C23.596 13.1464 23.6092 12.7484 23.7246 12.3745C23.84 12.0006 24.0535 11.6644 24.3428 11.4009C24.6321 11.1374 24.9866 10.9561 25.3697 10.876C25.7527 10.7958 26.1502 10.8197 26.5208 10.9451C26.8915 11.0706 27.2218 11.293 27.4775 11.5892ZM14.684 16.8983H16.5204C16.7244 16.8982 16.9263 16.9387 17.1146 17.0172C17.3028 17.0957 17.4736 17.2108 17.6171 17.3557C17.7606 17.5006 17.874 17.6726 17.9506 17.8616C18.0273 18.0506 18.0657 18.2529 18.0636 18.4569V21.0341C18.0615 21.1029 18.0403 21.1697 18.0023 21.2272C17.9644 21.2846 17.9111 21.3303 17.8486 21.3591C17.7861 21.388 17.7168 21.3988 17.6485 21.3905C17.5801 21.3821 17.5155 21.3549 17.4618 21.3118C17.1997 21.0777 16.8755 20.9244 16.5282 20.8705C16.1809 20.8165 15.8255 20.8642 15.5047 21.0078C15.1839 21.1513 14.9115 21.3847 14.7204 21.6796C14.5293 21.9745 14.4276 22.3184 14.4276 22.6699C14.4276 23.0213 14.5293 23.3652 14.7204 23.6601C14.9115 23.9551 15.1839 24.1884 15.5047 24.332C15.8255 24.4755 16.1809 24.5232 16.5282 24.4693C16.8755 24.4153 17.1997 24.262 17.4618 24.0279C17.5192 23.9907 17.5862 23.9709 17.6547 23.9709C17.7231 23.9709 17.7901 23.9907 17.8476 24.0279C17.9125 24.0576 17.9674 24.1055 18.0057 24.1657C18.0441 24.226 18.0642 24.296 18.0636 24.3674V26.6513C18.0636 27.0606 17.901 27.4531 17.6116 27.7426C17.3222 28.032 16.9297 28.1945 16.5204 28.1945H8.31054C7.90126 28.1945 7.50874 28.032 7.21933 27.7426C6.92992 27.4531 6.76733 27.0606 6.76733 26.6513V23.9353C6.77234 23.8602 6.80012 23.7883 6.847 23.7294C6.89388 23.6704 6.95762 23.6272 7.02971 23.6054C7.1018 23.5836 7.17882 23.5843 7.2505 23.6074C7.32218 23.6305 7.38512 23.6749 7.43091 23.7347C7.6466 24.0615 7.96187 24.31 8.32996 24.4435C8.69806 24.577 9.09938 24.5883 9.47439 24.4757C9.84939 24.3631 10.1781 24.1326 10.4118 23.8184C10.6455 23.5043 10.7717 23.1231 10.7717 22.7316C10.7717 22.34 10.6455 21.9589 10.4118 21.6448C10.1781 21.3306 9.84939 21.1001 9.47439 20.9875C9.09938 20.8749 8.69806 20.8862 8.32996 21.0197C7.96187 21.1531 7.6466 21.4017 7.43091 21.7285C7.38512 21.7883 7.32218 21.8327 7.2505 21.8558C7.17882 21.8789 7.1018 21.8796 7.02971 21.8578C6.95762 21.836 6.89388 21.7928 6.847 21.7338C6.80012 21.6749 6.77234 21.603 6.76733 21.5279V18.4415C6.76733 18.0322 6.92992 17.6397 7.21933 17.3503C7.50874 17.0608 7.90126 16.8983 8.31054 16.8983H10.4865C10.2238 16.5159 10.0706 16.0691 10.0433 15.606C10.0161 15.1429 10.1159 14.6811 10.3319 14.2706C10.548 13.8601 10.872 13.5164 11.2691 13.2766C11.6663 13.0369 12.1213 12.9102 12.5852 12.9102C13.0491 12.9102 13.5042 13.0369 13.9013 13.2766C14.2984 13.5164 14.6225 13.8601 14.8385 14.2706C15.0546 14.6811 15.1544 15.1429 15.1271 15.606C15.0999 16.0691 14.9467 16.5159 14.684 16.8983ZM16.0984 20.207C16.524 20.177 16.9504 20.2544 17.3383 20.4322V18.4569C17.3383 18.24 17.2521 18.0319 17.0988 17.8786C16.9454 17.7252 16.7373 17.639 16.5204 17.639H13.8044C13.7292 17.634 13.6574 17.6062 13.5984 17.5593C13.5395 17.5125 13.4962 17.4487 13.4744 17.3766C13.4526 17.3045 13.4534 17.2275 13.4765 17.1558C13.4996 17.0841 13.544 17.0212 13.6038 16.9754C13.9305 16.7597 14.1791 16.4445 14.3126 16.0764C14.4461 15.7083 14.4573 15.307 14.3447 14.9319C14.2321 14.5569 14.0017 14.2282 13.6875 13.9945C13.3733 13.7608 12.9922 13.6346 12.6007 13.6346C12.2091 13.6346 11.828 13.7608 11.5138 13.9945C11.1997 14.2282 10.9692 14.5569 10.8566 14.9319C10.744 15.307 10.7553 15.7083 10.8887 16.0764C11.0222 16.4445 11.2708 16.7597 11.5976 16.9754C11.6574 17.0212 11.7018 17.0841 11.7249 17.1558C11.748 17.2275 11.7487 17.3045 11.7269 17.3766C11.7051 17.4487 11.6618 17.5125 11.6029 17.5593C11.5439 17.6062 11.4721 17.634 11.397 17.639H8.31054C8.09362 17.639 7.88559 17.7252 7.7322 17.8786C7.57881 18.0319 7.49264 18.24 7.49264 18.4569V20.6483C7.87454 20.3829 8.32182 20.2272 8.78594 20.198C9.25007 20.1689 9.71332 20.2674 10.1254 20.4828C10.5375 20.6983 10.8828 21.0225 11.1237 21.4203C11.3646 21.8181 11.4919 22.2743 11.4919 22.7393C11.4919 23.2044 11.3646 23.6605 11.1237 24.0583C10.8828 24.4561 10.5375 24.7803 10.1254 24.9958C9.71332 25.2112 9.25007 25.3098 8.78594 25.2806C8.32182 25.2514 7.87454 25.0957 7.49264 24.8304V26.605C7.49264 26.7125 7.51379 26.8188 7.5549 26.918C7.596 27.0173 7.65625 27.1074 7.7322 27.1834C7.80815 27.2593 7.89831 27.3196 7.99754 27.3607C8.09678 27.4018 8.20314 27.4229 8.31054 27.4229H16.5204C16.6278 27.4229 16.7342 27.4018 16.8334 27.3607C16.9326 27.3196 17.0228 27.2593 17.0988 27.1834C17.1747 27.1074 17.235 27.0173 17.2761 26.918C17.3172 26.8188 17.3383 26.7125 17.3383 26.605V25.0618C16.9504 25.2396 16.524 25.317 16.0984 25.287C15.6727 25.257 15.2614 25.1205 14.9023 24.89C14.5432 24.6595 14.2477 24.3425 14.0431 23.9681C13.8385 23.5936 13.7312 23.1737 13.7312 22.747C13.7312 22.3203 13.8385 21.9004 14.0431 21.526C14.2477 21.1515 14.5432 20.8345 14.9023 20.604C15.2614 20.3736 15.6727 20.2371 16.0984 20.207Z" fill="white"/>
</svg>
