<svg width="35" height="36" viewBox="0 0 35 36" fill="none" xmlns="http://www.w3.org/2000/svg">
<rect y="0.882812" width="35" height="35" fill="#80C41C"/>
<path fill-rule="evenodd" clip-rule="evenodd" d="M6.47498 14.7097C6.43435 14.7314 6.38873 14.742 6.3427 14.7404L6.17295 14.617C6.14252 14.5705 6.12762 14.5156 6.1304 14.4602C6.13317 14.4047 6.15347 14.3515 6.18838 14.3083C8.87356 10.0028 10.9723 9.03057 11.0649 9.03057C11.1449 8.99434 11.2317 8.97559 11.3196 8.97559C11.4074 8.97559 11.4942 8.99434 11.5742 9.03057C11.8674 9.18489 11.9908 9.58611 12.1297 10.0799C12.2157 10.6146 12.4307 11.1203 12.7561 11.5532C13.0814 11.9861 13.5074 12.3332 13.997 12.5645C15.4738 13.1275 17.0468 13.3949 18.6266 13.3515C18.6977 13.3514 18.7661 13.3786 18.8178 13.4274C18.8695 13.4762 18.9005 13.5429 18.9044 13.6139C18.9065 13.6496 18.9013 13.6854 18.8891 13.719C18.8768 13.7527 18.8578 13.7834 18.8333 13.8095C18.8087 13.8355 18.7791 13.8562 18.7462 13.8703C18.7133 13.8845 18.6779 13.8917 18.6421 13.8917C16.963 13.9502 15.2892 13.6721 13.7192 13.0738C13.1526 12.8218 12.6557 12.4359 12.2713 11.9494C11.8869 11.4628 11.6265 10.8901 11.5125 10.2806C11.4969 10.2312 11.4808 10.1778 11.4644 10.1232C11.3835 9.85401 11.2936 9.55525 11.2038 9.55525C11.2038 9.55525 9.15134 10.4812 6.57418 14.617C6.54983 14.6561 6.51561 14.688 6.47498 14.7097ZM29.4906 25.2039H29.5831C29.5986 25.2193 29.4906 25.4971 29.4906 25.4971V26.639C29.4968 26.6696 29.4968 26.7011 29.4906 26.7316C27.4673 27.422 25.3473 27.7867 23.2097 27.8119C22.4035 27.8159 21.5984 27.7539 20.8023 27.6267C16.4967 26.9322 8.07081 19.6637 5.50908 16.2995C5.48786 16.2343 5.48786 16.1641 5.50908 16.0989L6.03377 14.9878H6.51216C8.14797 17.5804 16.8825 25.4508 21.1109 26.1452C23.8936 26.4939 26.7193 26.1711 29.3517 25.2039H29.4906ZM5.95661 15.96C8.58007 19.2471 16.6665 26.2841 20.8177 26.9631C23.596 27.3305 26.4217 27.0506 29.0739 26.1452V25.5897C27.1591 26.2387 25.1541 26.5824 23.1325 26.6082C22.3884 26.6124 21.6452 26.5556 20.9103 26.4384C16.7436 25.7594 8.39488 18.3674 6.21896 15.4199L5.95661 15.96ZM13.6269 13.3521C13.0192 13.0812 12.4874 12.665 12.0784 12.1403C11.6693 11.6155 11.3956 10.9982 11.2812 10.3428V10.2039C11.2711 10.1705 11.2544 10.1394 11.2323 10.1123C11.2101 10.0853 11.1829 10.063 11.1521 10.0465C11.1212 10.03 11.0875 10.0197 11.0527 10.0163C11.018 10.0129 10.9828 10.0163 10.9494 10.0264C10.916 10.0366 10.8849 10.0532 10.8578 10.0754C10.8308 10.0975 10.8084 10.1248 10.792 10.1556C10.7755 10.1864 10.7652 10.2202 10.7618 10.2549C10.7584 10.2897 10.7618 10.3248 10.7719 10.3582V10.4971C10.9128 11.2275 11.2276 11.9131 11.6896 12.4961C12.1517 13.079 12.7474 13.542 13.4263 13.8459C14.7468 14.3634 16.1448 14.6555 17.5621 14.7101C17.6337 14.7101 17.7024 14.6816 17.753 14.631C17.8037 14.5803 17.8321 14.5116 17.8321 14.44C17.8321 14.3684 17.8037 14.2997 17.753 14.2491C17.7024 14.1984 17.6337 14.17 17.5621 14.17C16.214 14.1178 14.8841 13.8414 13.6269 13.3521ZM19.2902 14.0924C19.1279 13.52 19.0042 12.9374 18.9198 12.3485L19.0433 12.4103V12.3331C19.0374 12.3025 19.0374 12.2711 19.0433 12.2405H19.1359H20.8025C20.8721 12.2405 20.9388 12.2681 20.988 12.3173C21.0372 12.3665 21.0649 12.4333 21.0649 12.5029C21.1139 14.8623 21.6388 17.1876 22.6081 19.3393C22.6361 19.3991 22.6406 19.4672 22.6206 19.5302C22.6005 19.5931 22.5575 19.6462 22.5001 19.6788L22.9476 20.2189C24.0725 21.2478 25.4716 21.9285 26.9754 22.1788C27.7075 22.3108 28.4055 22.589 29.0278 22.9967C29.2447 23.2463 29.4062 23.539 29.502 23.8555C29.5977 24.172 29.6255 24.5051 29.5834 24.8331C29.5758 24.8972 29.5449 24.9562 29.4965 24.999C29.4481 25.0417 29.3856 25.065 29.3211 25.0646C29.25 25.0531 29.1862 25.0146 29.143 24.957C29.0998 24.8994 29.0807 24.8274 29.0896 24.7559C29.1189 24.5118 29.0985 24.2642 29.0295 24.0281C28.9606 23.7921 28.8445 23.5724 28.6883 23.3825C28.1258 23.0629 27.5165 22.8338 26.8828 22.7035C25.2717 22.4296 23.7784 21.683 22.5927 20.5584C22.2268 20.1477 21.8866 19.7148 21.5741 19.2621L20.7408 19.6942H20.6174C20.5513 19.7067 20.4829 19.6933 20.4264 19.6569C20.3699 19.6204 20.3295 19.5636 20.3137 19.4982C20.2978 19.4329 20.3077 19.3639 20.3412 19.3056C20.3748 19.2473 20.4294 19.2041 20.4939 19.185L21.2809 18.7837L20.9106 18.1819L20.0618 18.6139H19.9383C19.8723 18.6264 19.8039 18.6131 19.7474 18.5766C19.6908 18.5401 19.6505 18.4834 19.6346 18.418C19.6188 18.3526 19.6287 18.2836 19.6622 18.2253C19.6958 18.167 19.7504 18.1238 19.8149 18.1047L20.6482 17.6726L20.3396 17.0399L19.4445 17.4874H19.3211C19.255 17.4999 19.1866 17.4865 19.1301 17.4501C19.0736 17.4136 19.0332 17.3568 19.0174 17.2915C19.0015 17.2261 19.0114 17.1571 19.0449 17.0988C19.0785 17.0405 19.1331 16.9973 19.1976 16.9782L20.1081 16.5152L19.8458 15.867L18.9507 16.33H18.8272C18.7611 16.3425 18.6928 16.3291 18.6363 16.2927C18.5797 16.2562 18.5394 16.1994 18.5235 16.134C18.5077 16.0687 18.5176 15.9997 18.5511 15.9414C18.5846 15.8831 18.6393 15.8399 18.7038 15.8207L19.6606 15.3269C19.636 15.2533 19.6053 15.1797 19.5747 15.1067C19.5091 14.9498 19.4445 14.7953 19.4445 14.6479L18.5032 15.1263H18.3797C18.3136 15.1388 18.2452 15.1254 18.1887 15.089C18.1322 15.0525 18.0918 14.9957 18.076 14.9303C18.0602 14.865 18.07 14.796 18.1036 14.7377C18.1371 14.6794 18.1918 14.6362 18.2562 14.617L19.2902 14.0924ZM19.4445 12.5954C19.8128 14.5994 20.545 16.5189 21.605 18.259C20.9357 16.4417 20.5555 14.5306 20.4785 12.5954H19.4445Z" fill="white"/>
</svg>
