<svg width="36" height="35" viewBox="0 0 36 35" fill="none" xmlns="http://www.w3.org/2000/svg">
<rect x="0.193115" width="35" height="35" fill="#C54203"/>
<path fill-rule="evenodd" clip-rule="evenodd" d="M9.68391 7.02148H25.7179C25.7573 7.02878 25.793 7.04984 25.8184 7.08092C25.8438 7.112 25.8574 7.15109 25.8568 7.19124V27.8548C25.8522 27.8835 25.8396 27.9102 25.8205 27.9321C25.8014 27.9539 25.7765 27.9699 25.7487 27.9783H9.68391C9.63889 27.9783 9.59572 27.9604 9.56388 27.9285C9.53205 27.8967 9.51416 27.8535 9.51416 27.8085V7.19124C9.51416 7.14622 9.53205 7.10303 9.56388 7.07119C9.59572 7.03936 9.63889 7.02148 9.68391 7.02148ZM14.4354 7.34557H9.85367L9.83823 27.577H25.5944V7.28383H20.8567C20.887 7.28774 20.9156 7.29971 20.9396 7.31851C20.9637 7.33731 20.9822 7.36224 20.9932 7.39066C21.0043 7.41908 21.0075 7.44994 21.0024 7.48002C20.9974 7.51011 20.9844 7.5383 20.9648 7.56162L19.9771 8.54927C19.9421 8.56103 19.9041 8.56103 19.8691 8.54927H15.2395C15.2176 8.55906 15.194 8.56411 15.17 8.56411C15.1461 8.56411 15.1224 8.55906 15.1006 8.54927L14.4524 7.56162C14.4351 7.54375 14.4219 7.52226 14.4137 7.49872C14.4056 7.47518 14.4028 7.45014 14.4054 7.42537C14.408 7.4006 14.4161 7.37672 14.429 7.35541C14.431 7.35205 14.4332 7.34877 14.4354 7.34557ZM14.713 7.34557C14.7198 7.35519 14.7255 7.36553 14.7302 7.37642L15.3321 8.2869H19.7765L20.7024 7.34557H14.713ZM18.8511 8.00952H16.2277C16.2023 8.01745 16.1753 8.0193 16.1491 8.01491C16.1228 8.01052 16.098 8 16.0765 7.98423C16.0551 7.96846 16.0376 7.94787 16.0256 7.92411C16.0136 7.90036 16.0073 7.87411 16.0073 7.84749C16.0073 7.82086 16.0136 7.7946 16.0256 7.77084C16.0376 7.74708 16.0551 7.7265 16.0765 7.71072C16.098 7.69495 16.1228 7.68446 16.1491 7.68007C16.1753 7.67567 16.2023 7.6775 16.2277 7.68543H18.8511C18.8765 7.6775 18.9035 7.67567 18.9297 7.68007C18.956 7.68446 18.9808 7.69495 19.0023 7.71072C19.0237 7.7265 19.0412 7.74708 19.0532 7.77084C19.0652 7.7946 19.0715 7.82086 19.0715 7.84749C19.0715 7.87411 19.0652 7.90036 19.0532 7.92411C19.0412 7.94787 19.0237 7.96846 19.0023 7.98423C18.9808 8 18.956 8.01052 18.9297 8.01491C18.9035 8.0193 18.8765 8.01745 18.8511 8.00952ZM22.6503 24.7411C22.6821 24.7093 22.7253 24.6914 22.7703 24.6914L22.7549 24.7069H24.0666C24.092 24.6989 24.119 24.6971 24.1452 24.7015C24.1715 24.7059 24.1964 24.7163 24.2178 24.7321C24.2392 24.7479 24.2567 24.7685 24.2687 24.7922C24.2807 24.816 24.287 24.8423 24.287 24.8689C24.287 24.8955 24.2807 24.9218 24.2687 24.9455C24.2567 24.9693 24.2392 24.9899 24.2178 25.0056C24.1964 25.0214 24.1715 25.0319 24.1452 25.0363C24.119 25.0407 24.092 25.0389 24.0666 25.0309H22.9247V26.1729C22.9139 26.2074 22.8923 26.2376 22.8632 26.2591C22.834 26.2805 22.7988 26.292 22.7626 26.292C22.7264 26.292 22.6912 26.2805 22.6621 26.2591C22.6329 26.2376 22.6114 26.2074 22.6006 26.1729V24.8612C22.6006 24.8161 22.6185 24.773 22.6503 24.7411ZM24.8387 25.2158V8.16331C24.8387 8.11829 24.8208 8.0751 24.789 8.04327C24.7571 8.01143 24.714 7.99356 24.6689 7.99356H20.8109C20.7855 7.98562 20.7586 7.98377 20.7323 7.98816C20.7061 7.99256 20.6812 8.00305 20.6598 8.01882C20.6383 8.0346 20.6209 8.05521 20.6089 8.07896C20.5968 8.10272 20.5906 8.12896 20.5906 8.15559C20.5906 8.18221 20.5968 8.20845 20.6089 8.23221C20.6209 8.25597 20.6383 8.27658 20.6598 8.29235C20.6812 8.30812 20.7061 8.31862 20.7323 8.32301C20.7586 8.3274 20.7855 8.32555 20.8109 8.31762H24.5764V25.1077L23.0331 26.651H10.8264V8.39478H14.2677C14.3023 8.384 14.3324 8.36245 14.3539 8.3333C14.3753 8.30415 14.3869 8.26893 14.3869 8.23275C14.3869 8.19657 14.3753 8.16133 14.3539 8.13218C14.3324 8.10303 14.3023 8.08148 14.2677 8.0707H10.6566C10.6266 8.08009 10.6002 8.09843 10.5809 8.12326C10.5616 8.14808 10.5503 8.17821 10.5486 8.20961V26.867C10.5486 26.912 10.5665 26.9552 10.5983 26.987C10.6301 27.0189 10.6733 27.0368 10.7183 27.0368H23.1566C23.1963 27.0523 23.2404 27.0523 23.2801 27.0368L24.8387 25.3701C24.8509 25.3462 24.8573 25.3197 24.8573 25.2929C24.8573 25.2661 24.8509 25.2397 24.8387 25.2158ZM12.7402 12.6388C12.7272 12.6161 12.7093 12.5967 12.6876 12.5821C12.6659 12.5675 12.6412 12.558 12.6153 12.5545C12.5894 12.551 12.5631 12.5536 12.5383 12.5619C12.5135 12.5703 12.491 12.5843 12.4726 12.6027C12.4541 12.6212 12.4401 12.6437 12.4318 12.6685C12.4234 12.6932 12.4209 12.7196 12.4244 12.7455C12.4279 12.7714 12.4373 12.7961 12.4519 12.8178C12.4665 12.8394 12.486 12.8574 12.5087 12.8703L13.1568 13.5185L14.4686 12.2067C14.4978 12.1753 14.5141 12.134 14.5141 12.091C14.5141 12.0481 14.4978 12.0067 14.4686 11.9753C14.4371 11.946 14.3958 11.9297 14.3528 11.9297C14.3099 11.9297 14.2685 11.946 14.2371 11.9753L13.0488 13.1635L12.7402 12.6388ZM22.7709 11.9289H16.2277C16.2023 11.9369 16.1753 11.9387 16.1491 11.9343C16.1228 11.9299 16.098 11.9195 16.0765 11.9037C16.0551 11.8879 16.0376 11.8673 16.0256 11.8435C16.0136 11.8198 16.0073 11.7935 16.0073 11.7669C16.0073 11.7403 16.0136 11.714 16.0256 11.6903C16.0376 11.6665 16.0551 11.6459 16.0765 11.6302C16.098 11.6144 16.1228 11.6039 16.1491 11.5995C16.1753 11.5951 16.2023 11.5969 16.2277 11.6049H22.7709C22.8054 11.6157 22.8356 11.6372 22.857 11.6663C22.8785 11.6955 22.89 11.7307 22.89 11.7669C22.89 11.8031 22.8785 11.8383 22.857 11.8675C22.8356 11.8966 22.8054 11.9182 22.7709 11.9289ZM16.2277 12.9163H22.7709C22.8054 12.9055 22.8356 12.8839 22.857 12.8548C22.8785 12.8256 22.89 12.7904 22.89 12.7542C22.89 12.718 22.8785 12.6828 22.857 12.6536C22.8356 12.6245 22.8054 12.603 22.7709 12.5922H16.2277C16.2023 12.5843 16.1753 12.5824 16.1491 12.5868C16.1228 12.5912 16.098 12.6017 16.0765 12.6175C16.0551 12.6332 16.0376 12.6538 16.0256 12.6776C16.0136 12.7014 16.0073 12.7276 16.0073 12.7542C16.0073 12.7808 16.0136 12.8071 16.0256 12.8309C16.0376 12.8546 16.0551 12.8752 16.0765 12.891C16.098 12.9068 16.1228 12.9173 16.1491 12.9216C16.1753 12.926 16.2023 12.9242 16.2277 12.9163ZM16.1412 13.6269C16.1626 13.5977 16.1928 13.5762 16.2273 13.5654H19.4989C19.5335 13.5762 19.5636 13.5977 19.5851 13.6269C19.6065 13.656 19.6181 13.6913 19.6181 13.7275C19.6181 13.7636 19.6065 13.7989 19.5851 13.828C19.5636 13.8572 19.5335 13.8787 19.4989 13.8895H16.2273C16.1928 13.8787 16.1626 13.8572 16.1412 13.828C16.1197 13.7989 16.1082 13.7636 16.1082 13.7275C16.1082 13.6913 16.1197 13.656 16.1412 13.6269ZM12.4932 18.4258C12.5126 18.4343 12.5337 18.4387 12.5549 18.4387C12.5761 18.4387 12.5972 18.4343 12.6166 18.4258C12.6515 18.4389 12.6898 18.4389 12.7246 18.4258L13.4345 17.716L14.1444 18.4258C14.1758 18.4551 14.2172 18.4714 14.2601 18.4714C14.3031 18.4714 14.3445 18.4551 14.3759 18.4258C14.4052 18.3944 14.4215 18.3531 14.4215 18.3101C14.4215 18.2671 14.4052 18.2258 14.3759 18.1944L13.666 17.4845L14.3759 16.7746C14.4052 16.7432 14.4215 16.7018 14.4215 16.6589C14.4215 16.6159 14.4052 16.5745 14.3759 16.5431C14.3445 16.5138 14.3031 16.4976 14.2601 16.4976C14.2172 16.4976 14.1758 16.5138 14.1444 16.5431L13.4345 17.253L12.7246 16.5431C12.6923 16.5247 12.6549 16.5175 12.618 16.5224C12.5812 16.5274 12.547 16.5444 12.5207 16.5707C12.4944 16.5969 12.4775 16.6311 12.4725 16.668C12.4675 16.7048 12.4748 16.7423 12.4932 16.7746L13.203 17.4845L12.4932 18.1944C12.4767 18.2088 12.4636 18.2266 12.4546 18.2466C12.4456 18.2666 12.4409 18.2882 12.4409 18.3101C12.4409 18.332 12.4456 18.3536 12.4546 18.3736C12.4636 18.3935 12.4767 18.4114 12.4932 18.4258ZM22.7709 16.5124H16.2277C16.2023 16.5204 16.1753 16.5222 16.1491 16.5178C16.1228 16.5134 16.098 16.5029 16.0765 16.4872C16.0551 16.4714 16.0376 16.4508 16.0256 16.427C16.0136 16.4033 16.0073 16.377 16.0073 16.3504C16.0073 16.3238 16.0136 16.2975 16.0256 16.2738C16.0376 16.25 16.0551 16.2294 16.0765 16.2136C16.098 16.1979 16.1228 16.1874 16.1491 16.183C16.1753 16.1786 16.2023 16.1804 16.2277 16.1884H22.7709C22.8054 16.1992 22.8356 16.2207 22.857 16.2498C22.8785 16.279 22.89 16.3142 22.89 16.3504C22.89 16.3866 22.8785 16.4218 22.857 16.451C22.8356 16.4801 22.8054 16.5017 22.7709 16.5124ZM16.2277 17.5002H22.7709C22.8054 17.4895 22.8356 17.4679 22.857 17.4388C22.8785 17.4096 22.89 17.3744 22.89 17.3382C22.89 17.302 22.8785 17.2668 22.857 17.2376C22.8356 17.2085 22.8054 17.187 22.7709 17.1762H16.2277C16.2023 17.1682 16.1753 17.1664 16.1491 17.1708C16.1228 17.1752 16.098 17.1857 16.0765 17.2014C16.0551 17.2172 16.0376 17.2378 16.0256 17.2616C16.0136 17.2853 16.0073 17.3116 16.0073 17.3382C16.0073 17.3648 16.0136 17.3911 16.0256 17.4148C16.0376 17.4386 16.0551 17.4592 16.0765 17.475C16.098 17.4907 16.1228 17.5012 16.1491 17.5056C16.1753 17.51 16.2023 17.5082 16.2277 17.5002ZM16.1412 18.2089C16.1626 18.1798 16.1928 18.1582 16.2273 18.1475H19.4989C19.5335 18.1582 19.5636 18.1798 19.5851 18.2089C19.6065 18.2381 19.6181 18.2733 19.6181 18.3095C19.6181 18.3457 19.6065 18.3809 19.5851 18.4101C19.5636 18.4392 19.5335 18.4607 19.4989 18.4715H16.2273C16.1928 18.4607 16.1626 18.4392 16.1412 18.4101C16.1197 18.3809 16.1082 18.3457 16.1082 18.3095C16.1082 18.2733 16.1197 18.2381 16.1412 18.2089ZM12.4928 22.0214L13.1409 22.6696C13.1806 22.6851 13.2247 22.6851 13.2644 22.6696C13.3041 22.6851 13.3482 22.6851 13.3878 22.6696L14.6996 21.3578C14.7223 21.3449 14.7417 21.3269 14.7563 21.3053C14.771 21.2836 14.7804 21.2589 14.7839 21.233C14.7874 21.2071 14.7848 21.1807 14.7765 21.156C14.7681 21.1312 14.7542 21.1087 14.7357 21.0903C14.7172 21.0718 14.6947 21.0578 14.67 21.0494C14.6452 21.0411 14.6188 21.0386 14.5929 21.0421C14.567 21.0455 14.5423 21.055 14.5207 21.0696C14.499 21.0842 14.481 21.1036 14.4681 21.1264L13.2798 22.3146L12.7397 21.7745C12.7083 21.7452 12.6669 21.7289 12.624 21.7289C12.581 21.7289 12.5396 21.7452 12.5082 21.7745C12.4904 21.7893 12.4757 21.8076 12.4652 21.8282C12.4547 21.8489 12.4486 21.8715 12.4471 21.8946C12.4457 21.9177 12.449 21.9409 12.4568 21.9627C12.4647 21.9845 12.4769 22.0045 12.4928 22.0214ZM22.7705 21.096H16.2273C16.1928 21.0852 16.1626 21.0637 16.1412 21.0346C16.1197 21.0054 16.1082 20.9702 16.1082 20.934C16.1082 20.8978 16.1197 20.8626 16.1412 20.8334C16.1626 20.8043 16.1928 20.7828 16.2273 20.772H22.7705C22.8051 20.7828 22.8352 20.8043 22.8567 20.8334C22.8781 20.8626 22.8897 20.8978 22.8897 20.934C22.8897 20.9702 22.8781 21.0054 22.8567 21.0346C22.8352 21.0637 22.8051 21.0852 22.7705 21.096ZM16.2277 22.0828H22.7709C22.8054 22.072 22.8356 22.0504 22.857 22.0213C22.8785 21.9921 22.89 21.9569 22.89 21.9207C22.89 21.8845 22.8785 21.8493 22.857 21.8202C22.8356 21.791 22.8054 21.7695 22.7709 21.7587H16.2277C16.2023 21.7508 16.1753 21.7489 16.1491 21.7533C16.1228 21.7577 16.098 21.7682 16.0765 21.784C16.0551 21.7997 16.0376 21.8203 16.0256 21.8441C16.0136 21.8679 16.0073 21.8941 16.0073 21.9207C16.0073 21.9473 16.0136 21.9736 16.0256 21.9973C16.0376 22.0211 16.0551 22.0417 16.0765 22.0575C16.098 22.0733 16.1228 22.0838 16.1491 22.0881C16.1753 22.0925 16.2023 22.0907 16.2277 22.0828ZM16.1412 22.7929C16.1626 22.7638 16.1928 22.7422 16.2273 22.7314H19.4989C19.5335 22.7422 19.5636 22.7638 19.5851 22.7929C19.6065 22.8221 19.6181 22.8573 19.6181 22.8935C19.6181 22.9297 19.6065 22.9649 19.5851 22.994C19.5636 23.0232 19.5335 23.0447 19.4989 23.0555H16.2273C16.1928 23.0447 16.1626 23.0232 16.1412 22.994C16.1197 22.9649 16.1082 22.9297 16.1082 22.8935C16.1082 22.8573 16.1197 22.8221 16.1412 22.7929Z" fill="white"/>
</svg>
