<svg width="55" height="66" viewBox="0 0 55 66" fill="none" xmlns="http://www.w3.org/2000/svg">
<path fill-rule="evenodd" clip-rule="evenodd" d="M54.5479 0H0.00390625V54.544H20.6616L27.2757 66L33.8898 54.544H54.5479V0Z" fill="#467637"/>
<path fill-rule="evenodd" clip-rule="evenodd" d="M8.49945 29.4819C8.95867 29.0643 9.50139 28.6885 10.0859 28.4798C10.9208 28.1875 11.7975 28.0622 12.6742 27.9369C13.2169 27.8952 13.7597 27.9369 14.2606 28.0622C14.8869 28.2292 14.9703 28.8138 14.4276 29.1896C14.0936 29.4401 13.6762 29.5654 13.3004 29.6906C12.0898 30.0664 10.8373 30.4004 9.58489 30.7345C9.4179 30.7762 9.25091 30.818 8.91693 30.9015C8.74993 30.7762 8.33246 30.651 8.24896 30.4004C8.20721 30.1082 8.29071 29.6489 8.49945 29.4819ZM12.549 14.8261C12.6325 14.6173 12.9247 14.4921 13.1752 14.2833C14.0101 14.6173 14.8034 14.8679 15.4713 15.2854C16.2228 15.703 16.8907 16.2458 17.5587 16.7886C17.9344 17.0808 18.0597 17.4566 17.7257 17.8742C17.3917 18.2917 17.0577 18.1247 16.6403 17.9159C15.5966 17.3731 14.5529 16.8721 13.5092 16.2875C13.1752 16.1205 12.8412 15.8282 12.5907 15.5359C12.4655 15.4107 12.4655 15.0766 12.549 14.8261ZM17.0577 8.64648C16.2228 8.64648 15.8888 9.06403 16.0558 9.73209C16.0975 9.8156 16.0975 9.98262 16.1393 10.0661C17.0577 11.4858 17.9762 12.9472 18.9364 14.3251C19.0616 14.4921 19.6043 14.5756 19.8548 14.4503C20.2306 14.3251 20.3558 13.9075 20.2306 13.5317C19.6461 11.8198 18.8529 10.1914 17.4752 8.89701C17.3917 8.77175 17.1412 8.68824 17.0577 8.64648ZM15.6801 33.2815C14.7616 34.2836 13.8014 35.2857 12.5072 35.7867C11.9645 35.9955 11.5053 35.6197 11.5053 34.9099C11.5888 34.7846 11.6723 34.4924 11.8393 34.3671C12.7995 33.699 13.8014 33.031 14.8451 32.4047C15.0121 32.3211 15.4296 32.4464 15.5966 32.6134C15.7218 32.7387 15.7636 33.198 15.6801 33.2815ZM28.9141 43.553C28.6219 42.3839 28.3296 41.2148 28.1209 40.0457C28.0791 39.8369 28.3714 39.5029 28.5801 39.3776C28.7471 39.2941 29.1646 39.4194 29.2481 39.5446C29.8325 40.7555 30.4588 42.0081 30.4588 43.386C30.4588 43.9706 29.9578 44.3046 29.2898 44.0123C29.2063 43.9288 28.9558 43.7618 28.9141 43.553ZM23.0694 43.8036C23.1946 43.0937 23.4034 42.3839 23.6539 41.7158C23.9461 40.8808 24.2801 40.0457 24.6976 39.2523C24.7811 39.0436 25.1568 38.7931 25.3655 38.8348C25.616 38.8766 25.783 39.2106 25.9083 39.3359C25.6995 41.0895 25.4908 42.6344 24.7393 44.0541C24.6558 44.2211 24.5306 44.4716 24.3636 44.5134C24.0296 44.5969 23.6539 44.7222 23.3616 44.5969C23.1529 44.5551 23.0277 44.0541 23.0694 43.8036ZM22.8607 19.5443C22.5684 20.0454 22.2762 20.5464 21.6917 20.6717C20.9403 20.8387 20.1471 20.9222 19.3539 21.0893C18.1014 21.3815 16.849 21.6321 15.6801 22.0078C14.8451 22.2584 14.7616 22.8429 15.3043 23.511C15.9305 24.2208 16.5568 24.9306 17.2247 25.557C18.1014 26.392 19.0199 27.1019 19.8966 27.9369C20.1053 28.104 20.2723 28.4798 20.2306 28.6885C20.1471 29.5236 19.9383 30.3169 19.8131 31.152C19.6043 32.4464 19.3956 33.7408 19.2286 34.7011C19.1869 36.246 19.5626 36.5801 20.6063 36.1625C22.4432 35.3692 24.2801 34.5341 26.0752 33.6573C26.5762 33.4068 26.9519 33.365 27.4112 33.6155C27.7451 33.7825 28.0374 33.9496 28.3714 34.1166C30.2083 34.9934 32.0452 35.8703 33.8821 36.7471C34.5083 37.0394 35.1762 36.5383 35.0927 35.8703C34.8005 33.7825 34.4665 31.7366 34.0908 29.6489C34.0073 29.2313 34.0491 28.9808 34.2995 28.6468C35.0927 27.6864 35.886 26.7261 36.6374 25.724C37.3054 24.8054 37.9316 23.845 38.5161 22.8847C38.85 22.3419 38.7248 21.9243 38.2656 21.7991C36.4287 21.298 34.6335 20.7135 32.7549 20.3794C31.8364 20.2124 31.1685 20.0036 30.751 19.1268C30.7092 19.0433 30.6675 18.9598 30.584 18.8763C29.4568 17.3314 28.3714 15.7865 27.2024 14.2833C26.7432 13.657 26.2422 13.7405 25.8248 14.4086C24.7811 16.1622 23.8209 17.8324 22.8607 19.5443ZM33.2558 14.8261C33.7151 13.5735 34.0908 12.2791 34.5918 11.0265C34.7588 10.6089 35.218 10.2331 35.5937 9.94087C35.719 9.8156 36.0529 9.8156 36.2199 9.89911C36.4287 10.0244 36.5539 10.3167 36.7209 10.5254C36.4704 11.0682 36.2617 11.5693 36.0529 12.0286C35.552 13.1559 35.0928 14.2833 34.5918 15.3689C34.4248 15.7447 34.1743 16.1622 33.7151 15.9535C33.2141 15.7447 33.0889 15.3689 33.2558 14.8261ZM37.2219 16.538C37.4724 16.1205 37.8063 15.703 38.1821 15.3689C38.6831 14.8679 39.2258 14.4086 39.8102 14.0328C40.0607 13.8658 40.52 13.824 40.7704 13.991C41.1462 14.1998 41.1044 14.6173 40.8122 14.9096C40.0607 15.7447 39.2675 16.538 38.5161 17.3314C38.3908 17.4566 38.1403 17.4984 37.9733 17.5819C37.3054 17.5819 36.9296 17.0391 37.2219 16.538ZM43.1083 36.079C42.8161 36.4131 42.4821 36.5801 42.0646 36.2878C41.3967 35.8703 40.7287 35.4945 40.0607 35.0352C39.8102 34.8682 39.5598 34.6176 39.4345 34.3253C39.3093 34.1166 39.3093 33.7408 39.3928 33.532C39.4763 33.3232 39.8102 33.198 40.019 33.0727C40.3112 33.198 40.5617 33.2397 40.7704 33.4068C41.5219 33.9496 42.2734 34.4924 42.9831 35.0769C43.3171 35.3274 43.4423 35.7032 43.1083 36.079ZM46.2394 30.7345C46.0307 31.1938 45.6132 31.2355 45.1539 31.0685C43.6093 30.5257 42.0229 30.0247 40.4782 29.5236C40.1442 29.3983 39.7685 29.1896 39.9355 28.772C40.0607 28.4798 40.4365 28.271 40.5617 28.1457C42.5238 28.438 44.1938 28.8555 45.7384 29.6489C46.1976 29.8994 46.4481 30.2334 46.2394 30.7345Z" fill="white"/>
</svg>
