<svg width="37" height="47" viewBox="0 0 37 47" fill="none" xmlns="http://www.w3.org/2000/svg">
<path d="M6.58876 22.3169C7.02076 22.3169 7.30876 22.0294 7.30876 21.5981V12.2544C7.30876 6.28876 12.1328 1.47314 18.1088 1.47314C24.0848 1.47314 28.9088 6.28876 28.9088 12.2544V21.5262C28.9088 21.9575 29.1968 22.245 29.6288 22.245C30.0608 22.245 30.3488 21.9575 30.3488 21.5262V12.2544C30.3488 5.49814 24.8768 0.0356445 18.1088 0.0356445C11.3408 0.0356445 5.86876 5.49814 5.86876 12.2544V21.5262C5.86876 21.9575 6.15676 22.3169 6.58876 22.3169Z" fill="#444444"/>
<path fill-rule="evenodd" clip-rule="evenodd" d="M17.3889 39.5669V37.3387C15.7329 37.0512 14.5089 35.6138 14.5089 33.8169C14.5089 31.8044 16.0929 30.2231 18.1089 30.2231C20.1249 30.2231 21.7089 31.8044 21.7089 33.8169C21.7089 35.5419 20.4849 36.9794 18.8289 37.3387V39.5669H17.3889ZM20.2689 33.8169C20.2689 32.595 19.3329 31.6606 18.1089 31.6606C16.8849 31.6606 15.9489 32.595 15.9489 33.8169C15.9489 35.0387 16.8849 35.9731 18.1089 35.9731C19.3329 35.9731 20.2689 35.0387 20.2689 33.8169Z" fill="#444444"/>
<path fill-rule="evenodd" clip-rule="evenodd" d="M0.108887 23.0357V46.0356H36.1089V23.0357H0.108887ZM34.6689 44.5981H1.54889V24.4732H34.6689V44.5981Z" fill="#444444"/>
</svg>
