<svg width="46" height="36" viewBox="0 0 46 36" fill="none" xmlns="http://www.w3.org/2000/svg">
<path d="M45.9841 12.0709L23.5049 0L0.00390625 12.2154L23.4319 22.8407L36.861 16.4077V26.5993C36.861 32.0926 29.8545 34.0442 25.1835 34.0442H20.6585C15.9875 34.0442 8.98099 32.0203 8.98099 26.5993V17.781C8.98099 17.3474 8.68905 17.0582 8.25115 17.0582C7.81324 17.0582 7.5213 17.3474 7.5213 17.781V26.527C7.5213 32.3817 14.1629 35.4175 20.6585 35.4175H25.1835C31.6791 35.4175 38.3207 32.3817 38.3207 26.527V15.6849L40.2913 14.7453V31.7312C40.2913 32.1649 40.5833 32.454 41.0212 32.454C41.4591 32.454 41.751 32.1649 41.751 31.7312V14.0224L45.9841 12.0709ZM23.4319 21.1782L3.36119 12.0709L23.5049 1.59017L42.7728 11.9263L40.8022 12.866L22.2642 11.5649C21.8262 11.5649 21.5343 11.854 21.4613 12.2154C21.4613 12.6491 21.7533 12.9382 22.1182 13.0105L38.1018 14.167L23.4319 21.1782Z" fill="#444444"/>
</svg>
