<svg width="39" height="46" viewBox="0 0 39 46" fill="none" xmlns="http://www.w3.org/2000/svg">
<path d="M11.2436 6.7616C11.9005 7.99037 12.1924 8.64089 11.5355 9.43598C11.3166 9.7251 11.3166 10.2311 11.6815 10.4479C11.8275 10.5202 11.9734 10.5925 12.1194 10.5925C12.3384 10.5925 12.5573 10.5202 12.7033 10.3033C13.88 8.79517 13.2185 7.41703 12.6491 6.2306C12.6181 6.16611 12.5874 6.10213 12.5573 6.03879C12.5014 5.92802 12.4455 5.82198 12.3908 5.71823C12.2313 5.41579 12.0821 5.13293 11.9734 4.81002C11.5355 3.50897 11.8275 2.42476 12.8493 1.19598C13.1412 0.906862 13.0682 0.400897 12.7763 0.184055C12.4843 -0.105067 11.9734 -0.0327867 11.7545 0.256336C10.3678 1.84651 10.0029 3.50897 10.5867 5.2437C10.7327 5.82195 10.9517 6.32791 11.2436 6.7616Z" fill="#444444"/>
<path d="M18.1042 6.7616C18.761 7.99037 19.053 8.64089 18.3961 9.43598C18.1772 9.7251 18.1772 10.2311 18.5421 10.4479C18.6881 10.5202 18.834 10.5925 18.98 10.5925C19.1989 10.5925 19.4179 10.5202 19.5639 10.3033C20.7406 8.79516 20.0791 7.41702 19.5097 6.23058C19.4788 6.1663 19.4479 6.10193 19.4179 6.03879C19.362 5.92802 19.3061 5.82197 19.2513 5.71822C19.0919 5.41579 18.9427 5.13292 18.834 4.81002C18.3961 3.50897 18.6881 2.42476 19.7098 1.19598C20.0018 0.906862 19.9288 0.400897 19.6369 0.184055C19.3449 -0.105067 18.834 -0.0327867 18.6151 0.256336C17.2284 1.84651 16.8634 3.50897 17.4473 5.2437C17.5696 5.72812 17.7943 6.1618 17.9928 6.54477C18.0312 6.61895 18.0687 6.69122 18.1042 6.7616Z" fill="#444444"/>
<path d="M25.2565 9.43598C25.9133 8.64089 25.6214 7.99037 24.9645 6.7616C24.929 6.69124 24.8916 6.61898 24.8531 6.54482C24.6547 6.16187 24.4299 5.72809 24.3077 5.2437C23.7238 3.50897 24.0887 1.84651 25.4754 0.256336C25.6944 -0.0327867 26.2053 -0.105067 26.4972 0.184055C26.7891 0.400897 26.8621 0.906862 26.5702 1.19598C25.5484 2.42476 25.2565 3.50897 25.6944 4.81002C25.8031 5.13292 25.9522 5.41575 26.1117 5.71817C26.1664 5.82193 26.2223 5.92801 26.2783 6.03879C26.3084 6.10215 26.339 6.16608 26.37 6.23058C26.9395 7.41702 27.601 8.79517 26.4242 10.3033C26.2782 10.5202 26.0593 10.5925 25.8404 10.5925C25.6944 10.5925 25.5484 10.5202 25.4024 10.4479C25.0375 10.2311 25.0375 9.7251 25.2565 9.43598Z" fill="#444444"/>
<path d="M3.43417 20.8564L0.73375 20.9287C0.295844 20.9287 0.00390625 21.2901 0.00390625 21.6515C0.00390625 22.0129 0.368828 22.3743 0.73375 22.3743L3.43417 22.3021C3.87208 22.3021 4.16402 21.9407 4.16402 21.5793C4.16402 21.2178 3.79909 20.8564 3.43417 20.8564Z" fill="#444444"/>
<path fill-rule="evenodd" clip-rule="evenodd" d="M36.9339 15.7967C36.9339 15.363 37.2259 15.0739 37.6638 15.0739C38.0287 15.0739 38.3936 15.363 38.3936 15.7967V22.1574H34.1605V41.2394C34.1605 43.4801 32.3359 45.3594 30.0004 45.3594C28.5407 45.3594 27.227 44.6366 26.4972 43.4801C25.7673 44.6366 24.4536 45.3594 22.9939 45.3594C21.5342 45.3594 20.2205 44.6366 19.4907 43.4801C18.7608 44.6366 17.4471 45.3594 15.9874 45.3594C14.5277 45.3594 13.214 44.6366 12.4842 43.4801C11.7543 44.6366 10.4406 45.3594 8.98091 45.3594C6.71839 45.3594 4.8208 43.5524 4.8208 41.2394V18.6156C4.8208 16.3749 6.64541 14.4956 8.98091 14.4956C10.4406 14.4956 11.7543 15.2184 12.4842 16.3749C13.214 15.2184 14.5277 14.4956 15.9874 14.4956C17.4471 14.4956 18.7608 15.2184 19.4907 16.3749C20.2205 15.2184 21.5342 14.4956 22.9939 14.4956C24.4536 14.4956 25.7673 15.2184 26.4972 16.3749C27.227 15.2184 28.5407 14.4956 30.0004 14.4956C32.2629 14.4956 34.1605 16.3026 34.1605 18.6156V20.7117H36.9339V15.7967ZM8.98091 43.9861C10.4406 43.9861 11.6813 42.7573 11.6813 41.3117V18.6879C11.6813 17.2423 10.4406 16.0135 8.98091 16.0135C7.52122 16.0135 6.28049 17.2423 6.28049 18.6879V41.3117C6.28049 42.7573 7.52122 43.9861 8.98091 43.9861ZM15.9144 43.9861C17.3741 43.9861 18.6149 42.7573 18.6149 41.3117V18.6879C18.6149 17.2423 17.3741 16.0135 15.9144 16.0135C14.4547 16.0135 13.214 17.2423 13.214 18.6879V41.3117C13.214 42.7573 14.4547 43.9861 15.9144 43.9861ZM22.9209 43.9861C24.3806 43.9861 25.6214 42.7573 25.6214 41.3117V18.6879C25.6214 17.2423 24.3806 16.0135 22.9209 16.0135C21.4613 16.0135 20.2205 17.2423 20.2205 18.6879V41.3117C20.2205 42.7573 21.4613 43.9861 22.9209 43.9861ZM29.9274 43.9861C31.3871 43.9861 32.6279 42.7573 32.6279 41.3117V18.6879C32.6279 17.2423 31.3871 16.0135 29.9274 16.0135C28.4677 16.0135 27.227 17.2423 27.227 18.6879V41.3117C27.227 42.7573 28.4677 43.9861 29.9274 43.9861Z" fill="#444444"/>
</svg>
