<svg width="47" height="47" viewBox="0 0 47 47" fill="none" xmlns="http://www.w3.org/2000/svg">
<path d="M31.5293 0C31.0914 0 30.7994 0.289123 30.7994 0.722807C30.7994 1.15649 31.0914 1.44561 31.5293 1.44561H45.2504V25.1537H38.3898C37.9519 25.1537 37.66 25.4428 37.66 25.8765C37.66 26.3102 37.9519 26.5993 38.3898 26.5993H45.2504V44.5972H23.574V26.5993H29.7047C30.1426 26.5993 30.4345 26.3102 30.4345 25.8765C30.4345 25.4428 30.1426 25.1537 29.7047 25.1537H15.9836C15.5457 25.1537 15.2537 25.4428 15.2537 25.8765C15.2537 26.3102 15.5457 26.5993 15.9836 26.5993H22.1143V44.5972H1.45969V1.44561H16.2755L25.1796 8.45684C25.4716 8.67368 25.9825 8.67368 26.2014 8.31227C26.4204 8.02315 26.4204 7.51719 26.0554 7.30035L16.7864 0H0V46.0428H46.7101V0H31.5293Z" fill="#444444"/>
</svg>
