<svg width="42" height="42" viewBox="0 0 42 42" fill="none" xmlns="http://www.w3.org/2000/svg">
<path fill-rule="evenodd" clip-rule="evenodd" d="M4.06046 0H40.4244C40.7142 0 41.0039 0.290377 41.0039 0.580752C41.0039 0.871127 40.7142 1.1615 40.4244 1.1615H4.06046C3.77071 1.1615 3.48096 0.871127 3.48096 0.580752C3.48096 0.290377 3.77071 0 4.06046 0ZM0.728431 38.1842C1.01818 38.1842 1.30794 37.8938 1.30794 37.6034V1.16156C1.30794 0.871186 1.01818 0.580811 0.728431 0.580811C0.438678 0.580811 0.148926 0.871186 0.148926 1.16156V37.6034C0.148926 37.8938 0.438678 38.1842 0.728431 38.1842ZM40.1347 3.4845C39.8449 3.4845 39.5552 3.77487 39.5552 4.06525V40.7975C39.5552 41.0879 39.8449 41.3782 40.1347 41.3782C40.4244 41.3782 40.7142 41.0879 40.7142 40.7975V3.92006C40.7142 3.62969 40.4244 3.4845 40.1347 3.4845ZM16.0849 39.9263H37.2368C37.5266 39.9263 37.8163 40.2167 37.8163 40.5071C37.8163 40.7975 37.5266 41.0878 37.2368 41.0878H15.6503C15.3605 41.0878 15.0708 40.9426 15.0708 40.6523V40.3619V39.636C14.9259 39.3456 15.2156 39.0552 15.5054 39.0552C15.7951 38.91 16.0849 39.2004 16.0849 39.4908V39.9263ZM7.24772 30.1989H6.52334H6.37846H6.23359C5.94384 30.1989 5.65408 30.4892 5.65408 30.7796V39.9264H0.583412C0.293659 39.9264 0.00390625 40.2167 0.00390625 40.5071C0.00390625 40.7975 0.293659 41.0879 0.583412 41.0879H6.08871C6.37847 41.0879 6.66822 40.7975 6.66822 40.5071V31.3604H7.24772C7.53748 31.3604 7.82723 31.2152 7.82723 30.9248C7.68235 30.4892 7.53748 30.1989 7.24772 30.1989ZM15.9402 38.039C15.9402 38.3293 15.7953 38.6197 15.5055 38.6197C15.0709 38.6197 14.926 38.4745 14.926 38.3293L14.4914 37.0226C14.3465 36.7323 14.4914 36.4419 14.7812 36.2967C15.0709 36.1515 15.3607 36.2967 15.5055 36.5871L15.5056 36.5871C15.6504 37.0227 15.7953 37.4582 15.9402 38.039ZM12.246 32.1589L12.2459 32.1588C12.0286 31.9773 11.8113 31.7959 11.594 31.6507C11.3042 31.5055 11.0145 31.5055 10.8696 31.7959C10.7247 32.0862 10.7247 32.3766 11.0145 32.5218C11.2318 32.667 11.4129 32.8122 11.594 32.9574C11.7751 33.1025 11.9561 33.2477 12.1735 33.3929C12.3183 33.5381 12.4632 33.5381 12.6081 33.5381C12.753 33.5381 12.8978 33.5381 13.0427 33.3929C13.0427 33.2477 13.0427 32.8122 12.8978 32.667C12.6806 32.5218 12.4633 32.3404 12.246 32.1589ZM13.9122 33.8284L14.7814 35.1351C14.9263 35.2803 14.7814 35.7159 14.4917 35.8611H14.2019C14.0571 35.8611 13.9122 35.7159 13.7673 35.5707L13.7673 35.5707C13.6224 35.1351 13.3327 34.6996 13.0429 34.4092C12.898 34.264 12.898 33.8284 13.1878 33.6833C13.3327 33.5381 13.7673 33.5381 13.9122 33.8284ZM10.2903 30.9248C10.073 30.8522 9.81945 30.7433 9.56592 30.6344L9.56585 30.6344C9.31234 30.5255 9.05883 30.4166 8.84153 30.344C8.55178 30.1988 8.26202 30.4892 8.11715 30.7796C7.97227 31.07 8.26202 31.3604 8.55178 31.5055L9.85566 31.9411H10.1454C10.2903 31.9411 10.58 31.7959 10.58 31.6507C10.58 31.3604 10.4352 31.07 10.2903 30.9248ZM23.329 2.323C23.0393 2.323 22.7495 2.61336 22.7495 2.90374V15.3898C22.7495 15.6802 23.0393 15.9706 23.329 15.9706H23.4739H23.6188H32.746V16.5513C32.746 16.8417 32.8909 17.1321 33.1806 17.1321C33.4704 17.1321 33.7601 16.9869 33.7601 16.6965V15.9706V15.8254V15.6802C33.7601 15.3898 33.4704 15.0994 33.1806 15.0994H23.7636V3.19412C23.9085 2.61337 23.7636 2.323 23.329 2.323ZM25.9371 24.3914L27.241 23.9559C27.3858 23.8107 27.8205 23.9559 27.9653 24.2463C28.1102 24.5366 27.9653 24.827 27.6756 24.9722C27.4583 25.0448 27.2047 25.1174 26.9512 25.19C26.6977 25.2626 26.4441 25.3352 26.2268 25.4077H26.0819C25.7922 25.4077 25.5024 25.2626 25.5024 24.9722C25.5024 24.6818 25.6473 24.3914 25.9371 24.3914ZM29.5587 22.5039C29.269 22.7943 28.8343 23.0847 28.3997 23.2299C28.11 23.3751 28.11 23.6654 28.2548 23.9558L28.2549 23.9558C28.3997 24.101 28.5446 24.2462 28.6895 24.2462H28.9792L30.2831 23.3751C30.5729 23.2299 30.5729 22.7943 30.428 22.6491C30.1382 22.3588 29.8485 22.3587 29.5587 22.5039ZM31.4419 22.3587C31.297 22.5039 31.1522 22.5039 31.0073 22.5039C30.8624 22.5039 30.7175 22.3587 30.7175 22.3587C30.5727 22.2135 30.5727 21.9231 30.7175 21.6328C30.8624 21.415 31.0073 21.2335 31.1522 21.052C31.2971 20.8705 31.4419 20.6891 31.5868 20.4713C31.7317 20.1809 32.0214 20.1809 32.3112 20.3261C32.6009 20.4713 32.6009 20.7616 32.4561 21.052C32.3112 21.2697 32.1302 21.4875 31.9491 21.7052L31.949 21.7053L31.949 21.7054C31.7679 21.9231 31.5868 22.1409 31.4419 22.3587ZM33.0358 19.6002C33.1082 19.3824 33.2169 19.1284 33.3256 18.8743C33.4342 18.6202 33.5429 18.3661 33.6153 18.1483C33.7602 17.858 33.4704 17.5676 33.1807 17.4224C32.8909 17.2772 32.6012 17.5676 32.4563 17.858L32.0217 19.1647C31.8768 19.455 32.0217 19.7454 32.3114 19.8906H32.6012C32.8909 20.0358 33.0358 19.8906 33.0358 19.6002ZM23.474 38.7649C23.1843 38.7649 22.8945 38.4745 22.8945 38.1842V25.2626C22.8945 24.9722 23.1843 24.6818 23.474 24.6818H23.6189H23.7638H24.4882C24.7779 24.5366 25.0677 24.827 25.0677 25.1174C25.2126 25.4077 24.9228 25.6981 24.6331 25.6981H24.0535V38.1842C24.0535 38.4745 23.7638 38.7649 23.474 38.7649Z" fill="#D5C695"/>
</svg>
