<svg width="17" height="17" viewBox="0 0 17 17" fill="none" xmlns="http://www.w3.org/2000/svg">
<path fill-rule="evenodd" clip-rule="evenodd" d="M10.1632 0.826416C11.7869 0.826416 13.2894 1.4565 14.4526 2.5955C15.5916 3.75873 16.2217 5.26124 16.2459 6.88492C16.2459 7.05456 16.1005 7.19997 15.9309 7.19997C15.7612 7.19997 15.6158 7.05456 15.6158 6.88492C15.6158 5.43088 15.0585 4.07378 14.0164 3.05595C12.9743 2.01388 11.6172 1.4565 10.1632 1.4565C9.99355 1.4565 9.84814 1.3111 9.84814 1.14146C9.84814 0.97182 9.99355 0.826416 10.1632 0.826416ZM11.7142 10.3019L14.5496 13.1373C14.9131 13.5008 14.9131 14.1067 14.5496 14.446L13.4591 15.5365C13.1198 15.8515 12.6593 16.0212 12.0777 16.0212C11.4719 16.0212 10.7206 15.8515 9.87243 15.4638C8.32146 14.7852 6.62507 13.5493 5.04986 11.9741C3.49888 10.3989 2.23871 8.7025 1.56016 7.15152C0.833141 5.52784 0.808907 4.24344 1.48746 3.56488L2.57799 2.49858C2.9415 2.13507 3.54735 2.13507 3.91086 2.49858L6.74624 5.3582C6.91588 5.52784 7.01282 5.77018 7.01282 6.01252C7.01282 6.25486 6.91588 6.4972 6.74624 6.66684L6.04346 7.36963V7.39386C5.84958 7.68467 6.26156 8.7025 7.30363 9.74456C8.34569 10.7866 9.38775 11.1744 9.65433 11.0047L10.3813 10.3019C10.7449 9.93843 11.3507 9.93843 11.7142 10.3019ZM13.6045 14.5671L14.1376 14.034C14.2588 13.9128 14.2588 13.6947 14.1376 13.5978L11.278 10.7382C11.1568 10.617 10.9387 10.617 10.8176 10.7382L9.75126 11.6348C9.67856 11.659 9.58163 11.659 9.48469 11.659C8.73343 11.659 7.66714 10.9563 6.89165 10.1808C5.99499 9.30835 5.24373 8.09665 5.43761 7.32116L6.33427 6.25486C6.40697 6.18216 6.4312 6.10946 6.4312 6.01252C6.4312 5.91558 6.40697 5.84288 6.33427 5.77018L3.45042 2.9348C3.32925 2.81363 3.11114 2.81363 2.98997 2.9348L2.45682 3.46795L5.2922 6.30333C5.2195 6.37603 5.15286 6.44873 5.08621 6.52143L5.08621 6.52144C5.01956 6.59414 4.95292 6.66684 4.88022 6.73954L2.02061 3.90416L1.92367 4.0011C1.43899 4.48578 1.51169 5.55207 2.11754 6.90918C2.77186 8.38745 3.98356 10.0354 5.48607 11.5621C8.83037 14.8822 12.0777 16.0939 13.0471 15.1245L13.144 15.0033L10.3086 12.168L10.7449 11.7318L13.6045 14.5671ZM10.1632 3.49215C12.0292 3.49215 13.556 5.01889 13.556 6.88491C13.556 7.05455 13.7014 7.19995 13.871 7.19995C14.0406 7.19995 14.186 7.05455 14.186 6.88491C14.186 4.67961 12.3927 2.86206 10.1632 2.86206C9.99355 2.86206 9.84814 3.00746 9.84814 3.1771C9.84814 3.34674 9.99355 3.49215 10.1632 3.49215ZM11.5204 6.88495C11.5204 6.1337 10.9145 5.52785 10.1632 5.52785C9.99361 5.52785 9.87244 5.40668 9.87244 5.23704C9.87244 5.0674 10.0178 4.922 10.1875 4.922C11.278 4.922 12.1504 5.79442 12.1504 6.88495C12.1504 7.05459 12.005 7.2 11.8354 7.2C11.6658 7.2 11.5204 7.05459 11.5204 6.88495Z" fill="white"/>
</svg>
