<svg width="21" height="21" viewBox="0 0 21 21" fill="none" xmlns="http://www.w3.org/2000/svg">
<path fill-rule="evenodd" clip-rule="evenodd" d="M0.928269 10.4499C0.912245 5.16193 5.08047 0.763064 10.3624 0.511566C16.1676 0.235101 20.942 4.95142 20.7616 10.7363C20.5933 16.133 16.0918 20.4197 10.6931 20.3372C9.16331 20.3139 7.71784 19.9436 6.43094 19.3026L1.42189 20.4893C1.14719 20.5544 0.8978 20.3122 0.954767 20.0357L2.00787 14.9238C1.32197 13.5806 0.933148 12.0605 0.928269 10.4499ZM10.8474 18.1859C12.922 18.1859 14.8724 17.3781 16.3393 15.9111C17.7931 14.4573 18.6142 12.4751 18.6142 10.419C18.6142 8.34449 17.8063 6.39411 16.3394 4.92717C14.8724 3.46028 12.9221 2.65241 10.8476 2.65236C8.79152 2.65236 6.80929 3.47338 5.35545 4.92722C3.88851 6.39421 3.08063 8.34458 3.08063 10.4192C3.08063 11.6617 3.36466 12.848 3.92481 13.945L4.26848 14.618L3.62204 17.756L6.6931 17.0284L7.39068 17.3759C8.46971 17.9134 9.63268 18.1859 10.8474 18.1859ZM13.7398 12.0186L15.6612 12.5703C16.1214 12.7025 16.3239 13.2394 16.0674 13.6437C15.6913 14.2367 15.0952 14.961 14.3493 15.1417C13.0343 15.4602 11.0145 15.1492 8.49238 12.7952C6.30921 10.7576 5.73189 9.06061 5.86825 7.71444C5.9456 6.95091 6.58185 6.26171 7.11809 5.80817C7.48367 5.49899 8.04325 5.62646 8.23687 6.06436L9.04522 7.89262C9.1515 8.13297 9.11759 8.41221 8.95687 8.62013L8.54667 9.15082C8.37371 9.37463 8.35042 9.68127 8.49128 9.92655C8.97955 10.7769 10.8915 12.4768 11.8004 12.8446C12.0626 12.9507 12.3632 12.8858 12.5613 12.684L13.0312 12.2053C13.2152 12.0177 13.4872 11.9461 13.7398 12.0186Z" fill="#7AD06D"/>
</svg>
