<svg width="21" height="21" viewBox="0 0 21 21" fill="none" xmlns="http://www.w3.org/2000/svg">
<path fill-rule="evenodd" clip-rule="evenodd" d="M14.9953 0.5H6.91148C3.62616 0.5 0.953369 3.17279 0.953369 6.45811V14.5419C0.953369 17.8272 3.62616 20.5 6.91148 20.5H14.9953C18.2806 20.5 20.9534 17.8272 20.9534 14.5419V6.45811C20.9533 3.17279 18.2805 0.5 14.9953 0.5ZM18.9414 14.5419C18.9414 16.7212 17.1746 18.488 14.9953 18.488H6.91148C4.73212 18.488 2.96537 16.7212 2.96537 14.5419V6.45811C2.96537 4.27871 4.73212 2.512 6.91148 2.512H14.9953C17.1746 2.512 18.9414 4.27871 18.9414 6.45811V14.5419ZM10.9531 5.32729C8.10089 5.32729 5.78042 7.64777 5.78042 10.5C5.78042 13.3522 8.10089 15.6727 10.9531 15.6727C13.8054 15.6727 16.1258 13.3522 16.1258 10.5C16.1258 7.64773 13.8054 5.32729 10.9531 5.32729ZM10.9531 13.6607C9.2075 13.6607 7.79242 12.2456 7.79242 10.5C7.79242 8.75438 9.20754 7.33929 10.9531 7.33929C12.6988 7.33929 14.1138 8.75438 14.1138 10.5C14.1138 12.2456 12.6987 13.6607 10.9531 13.6607ZM17.3754 5.36612C17.3754 6.05067 16.8205 6.60561 16.1359 6.60561C15.4514 6.60561 14.8964 6.05067 14.8964 5.36612C14.8964 4.68157 15.4514 4.12664 16.1359 4.12664C16.8205 4.12664 17.3754 4.68157 17.3754 5.36612Z" fill="#CC289E"/>
</svg>
