<svg width="21" height="23" viewBox="0 0 21 23" fill="none" xmlns="http://www.w3.org/2000/svg">
<path fill-rule="evenodd" clip-rule="evenodd" d="M20.6842 13.2361C21.34 7.71624 20.3692 4.2314 18.618 2.65521L18.619 2.65429C15.7926 -0.0374185 6.24753 -0.435817 2.86618 2.77518C1.34769 4.34588 0.812828 6.6511 0.754213 9.50492C0.695598 12.3596 0.625993 17.7073 5.60918 19.1581H5.61376L5.60918 21.3735C5.60918 21.3735 5.57529 22.2711 6.14862 22.4515C6.76614 22.6516 7.06529 22.2937 8.80134 20.2169L9.14073 19.8111C12.5514 20.1069 15.1707 19.4292 15.4684 19.3302C15.5299 19.3096 15.617 19.2868 15.7251 19.2584C16.8272 18.9688 20.1104 18.1062 20.6842 13.2361ZM9.47685 18.2523C9.47685 18.2523 7.31817 20.944 6.64685 21.6428C6.42704 21.8699 6.18617 21.8489 6.18984 21.3983C6.18984 21.1024 6.20632 17.7202 6.20632 17.7202C2.12666 16.551 2.21874 12.2648 2.27112 9.82667C2.27298 9.7399 2.2748 9.65547 2.27637 9.5736C2.32216 7.19054 2.75811 5.23884 4.04398 3.92459C7.01045 1.14312 15.3786 1.76499 17.5108 3.76889C19.8833 5.87215 19.3276 11.4696 19.2129 12.6256C19.2016 12.7396 19.1945 12.8104 19.195 12.8304C18.7126 16.8497 16.1044 17.4794 15.1658 17.7061L15.1657 17.7061L15.1656 17.7061C15.0619 17.7312 14.9785 17.7513 14.9207 17.7705C14.6725 17.853 12.3691 18.4455 9.47685 18.2523ZM10.6711 4.44755C10.3185 4.44755 10.3185 4.99706 10.6711 5.00164C13.4068 5.02271 15.6598 6.92952 15.6845 10.4272C15.6845 10.7963 16.2249 10.7917 16.2203 10.4226H16.2194C16.1901 6.65385 13.7301 4.46861 10.6711 4.44755ZM14.8053 9.86027C14.8007 10.2294 14.2612 10.212 14.2695 9.84745C14.3116 8.02764 13.2117 6.60256 11.1235 6.44412C10.7718 6.41847 10.8085 5.86438 11.1611 5.89002C13.5689 6.07045 14.8501 7.78219 14.8053 9.86027ZM13.6927 12.2113C13.2402 11.9493 12.7795 12.1124 12.589 12.3697L12.1906 12.8854C11.9882 13.1473 11.61 13.1125 11.61 13.1125C8.84959 12.3825 8.11141 9.49393 8.11141 9.49393C8.11141 9.49393 8.07752 9.10286 8.3303 8.89313L8.82853 8.48099C9.07764 8.28316 9.23517 7.80692 8.98148 7.33891C8.47045 6.41562 8.08596 5.94846 7.82839 5.63551C7.74436 5.53342 7.67384 5.44774 7.61685 5.36798C7.37323 5.063 7.00688 4.99431 6.62589 5.20038H6.61764C5.82543 5.66381 4.95811 6.53112 5.23561 7.42409C5.31772 7.58734 5.41175 7.81254 5.52556 8.0851C6.06808 9.38438 7.06006 11.7601 9.3524 13.6345C10.6557 14.707 12.7182 15.806 13.5937 16.0597L13.602 16.0725C14.4647 16.3601 15.3036 15.4589 15.7515 14.6429V14.6365C15.9502 14.2417 15.8843 13.8681 15.594 13.6235C15.0793 13.1216 14.3026 12.5676 13.6927 12.2113ZM12.8911 9.38953C12.8453 8.44528 12.4186 7.98552 11.5384 7.93423C11.1821 7.91316 11.2151 7.35907 11.5677 7.38013C12.7254 7.44424 13.3683 8.13114 13.4269 9.36388C13.4434 9.73297 12.9076 9.75862 12.8911 9.38953Z" fill="#8E24AA"/>
</svg>
