<svg width="190" height="53" viewBox="0 0 190 53" fill="none" xmlns="http://www.w3.org/2000/svg">
<g clip-path="url(#clip0)">
<path d="M70.8598 36.3647V41.174C70.8598 42.5971 70.2299 43.4805 68.8249 43.4805C67.4199 43.4805 66.79 42.5481 66.79 41.174V40.1925H67.759V41.2721C67.759 42.1064 68.0982 42.5971 68.8249 42.5971C69.5516 42.5971 69.8908 42.1064 69.8908 41.2721V39.1129H68.292V38.1805H69.8908V36.3157C69.8908 35.4814 69.5516 34.9907 68.8249 34.9907C68.0982 34.9907 67.759 35.4814 67.759 36.3157V37.0518H66.8385V36.3647C66.8385 34.9416 67.4683 34.0582 68.8734 34.0582C70.1815 34.0092 70.8598 34.9416 70.8598 36.3647Z" fill="white"/>
<path d="M73.3792 39.3574L72.8463 40.2898V43.3815H71.8289V34.1064H72.8463V38.5722L75.2687 34.1064H76.2862L73.9606 38.3268L76.3346 43.3815H75.2687L73.3792 39.3574Z" fill="white"/>
<path d="M77.0613 36.3639C77.0613 34.9407 77.7396 34.0574 79.1446 34.0574C80.5496 34.0574 81.2279 34.9898 81.2279 36.3639V41.1731C81.2279 42.5963 80.5496 43.4796 79.1446 43.4796C77.7396 43.4796 77.0613 42.5472 77.0613 41.1731V36.3639ZM78.0787 41.1731C78.0787 42.0074 78.4179 42.4981 79.1446 42.4981C79.8713 42.4981 80.2105 42.0074 80.2105 41.1731V36.3148C80.2105 35.4805 79.8713 34.9898 79.1446 34.9898C78.4179 34.9898 78.0787 35.4805 78.0787 36.3148V41.1731Z" fill="white"/>
<path d="M84.1832 35.0389L83.9894 41.075C83.941 42.5472 83.5534 43.3815 82.1484 43.3815H81.9546V42.449C82.8267 42.449 82.9236 42.0074 82.972 41.124L83.2143 34.1064H86.9448V43.3815H85.9274V35.0389H84.1832Z" fill="white"/>
<path d="M87.9624 36.3639C87.9624 34.9407 88.6407 34.0574 90.0457 34.0574C91.4507 34.0574 92.129 34.9898 92.129 36.3639V41.1731C92.129 42.5963 91.4507 43.4796 90.0457 43.4796C88.6407 43.4796 87.9624 42.5472 87.9624 41.1731V36.3639ZM88.9798 41.1731C88.9798 42.0074 89.319 42.4981 90.0457 42.4981C90.7725 42.4981 91.1116 42.0074 91.1116 41.1731V36.3148C91.1116 35.4805 90.7725 34.9898 90.0457 34.9898C89.319 34.9898 88.9798 35.4805 88.9798 36.3148V41.1731Z" fill="white"/>
<path d="M94.1639 35.0389V43.3815H93.1465V34.1064H96.7802V35.0389H94.1639Z" fill="white"/>
<path d="M100.171 39.112L98.8149 43.3815H97.749V34.1064H98.6696V41.0259L99.4932 38.474L100.947 34.1064H102.061V43.3815H101.14V36.0203L100.171 39.112Z" fill="white"/>
<path d="M106.276 39.2592C105.937 39.75 105.404 39.9953 104.871 39.9953C103.66 39.9953 103.078 39.0629 103.078 37.787V34.1064H104.096V37.7379C104.096 38.5231 104.483 39.0629 105.21 39.0629C105.84 39.0629 106.179 38.6703 106.324 37.9833V34.1064H107.342V43.3815H106.324V39.2592H106.276Z" fill="white"/>
<path d="M109.377 39.2102V43.3815H108.359V34.1064H109.377V38.2777H111.605V34.1064H112.623V43.3815H111.605V39.2102H109.377Z" fill="white"/>
<path d="M113.592 36.3639C113.592 34.9407 114.27 34.0574 115.675 34.0574C117.08 34.0574 117.758 34.9898 117.758 36.3639V41.1731C117.758 42.5963 117.08 43.4796 115.675 43.4796C114.27 43.4796 113.592 42.5472 113.592 41.1731V36.3639ZM114.609 41.1731C114.609 42.0074 114.948 42.4981 115.675 42.4981C116.402 42.4981 116.741 42.0074 116.741 41.1731V36.3148C116.741 35.4805 116.402 34.9898 115.675 34.9898C114.948 34.9898 114.609 35.4805 114.609 36.3148V41.1731Z" fill="white"/>
<path d="M122.022 38.2287V39.1611H119.793V42.449H122.555V43.3815H118.776V34.1064H122.555V35.0389H119.793V38.1796H122.022V38.2287Z" fill="white"/>
<path d="M129.532 36.3639V37.1981H128.563V36.3148C128.563 35.4805 128.224 34.9898 127.497 34.9898C126.77 34.9898 126.431 35.4805 126.431 36.3148V41.2222C126.431 42.0564 126.77 42.5472 127.497 42.5472C128.224 42.5472 128.563 42.0564 128.563 41.2222V39.9953H129.532V41.124C129.532 42.5472 128.902 43.4305 127.448 43.4305C126.043 43.4305 125.414 42.4981 125.414 41.124V36.3148C125.414 34.8916 126.043 34.0083 127.448 34.0083C128.853 34.0083 129.532 34.9407 129.532 36.3639Z" fill="white"/>
<path d="M131.857 43.3815V35.0389H130.161V34.1064H134.57V35.0389H132.875V43.3815H131.857Z" fill="white"/>
<path d="M137.332 34.1064C138.785 34.1064 139.367 34.9898 139.367 36.3639V37.4926C139.367 38.9648 138.689 39.75 137.235 39.75H136.315V43.3815H135.297V34.1064H137.332ZM137.235 38.8176C138.01 38.8176 138.349 38.474 138.349 37.5907V36.3148C138.349 35.4805 138.059 35.0389 137.284 35.0389H136.315V38.7685H137.235V38.8176Z" fill="white"/>
<path d="M140.094 36.3639C140.094 34.9407 140.772 34.0574 142.177 34.0574C143.582 34.0574 144.26 34.9898 144.26 36.3639V41.1731C144.26 42.5963 143.582 43.4796 142.177 43.4796C140.772 43.4796 140.094 42.5472 140.094 41.1731V36.3639ZM141.062 41.1731C141.062 42.0074 141.402 42.4981 142.128 42.4981C142.855 42.4981 143.194 42.0074 143.194 41.1731V36.3148C143.194 35.4805 142.855 34.9898 142.128 34.9898C141.402 34.9898 141.062 35.4805 141.062 36.3148V41.1731Z" fill="white"/>
<path d="M147.652 39.112L146.295 43.3815H145.229V34.1064H146.15V41.0259L146.973 38.474L148.427 34.1064H149.541V43.3815H148.621V36.0203L147.652 39.112Z" fill="white"/>
<path d="M151.964 43.3815V35.0389H150.268V34.1064H154.677V35.0389H152.981V43.3815H151.964Z" fill="white"/>
<path d="M158.698 38.2287V39.1611H156.469V42.449H159.231V43.3815H155.452V34.1064H159.231V35.0389H156.469V38.1796H158.698V38.2287Z" fill="white"/>
<path d="M162.089 35.0389L161.896 41.075C161.847 42.5472 161.46 43.3815 160.055 43.3815H159.909V42.449C160.781 42.449 160.878 42.0074 160.927 41.124L161.169 34.1064H164.899V43.3815H163.882V35.0389H162.089Z" fill="white"/>
<path d="M167.855 37.787C169.308 37.787 169.987 38.5722 169.987 40.0444V41.1731C169.987 42.5963 169.357 43.4305 167.952 43.4305H165.965V34.1064H166.983V37.787H167.855ZM167.952 42.449C168.678 42.449 169.018 42.0074 169.018 41.1731V39.9463C169.018 39.0629 168.63 38.7194 167.903 38.7194H166.983V42.449H167.952Z" fill="white"/>
<path d="M174.977 36.3639V37.1981H174.008V36.3148C174.008 35.4805 173.669 34.9898 172.942 34.9898C172.215 34.9898 171.876 35.4805 171.876 36.3148V41.2222C171.876 42.0564 172.215 42.5472 172.942 42.5472C173.669 42.5472 174.008 42.0564 174.008 41.2222V39.9953H174.977V41.124C174.977 42.5472 174.347 43.4305 172.893 43.4305C171.488 43.4305 170.859 42.4981 170.859 41.124V36.3148C170.859 34.8916 171.488 34.0083 172.893 34.0083C174.299 34.0083 174.977 34.9407 174.977 36.3639Z" fill="white"/>
<path d="M177.302 43.3815V35.0389H175.607V34.1064H180.016V35.0389H178.32V43.3815H177.302Z" fill="white"/>
<path d="M182.777 34.1064C184.182 34.1064 184.764 34.7935 184.764 36.1676V36.6092C184.764 37.5907 184.473 38.1796 183.698 38.425C184.57 38.6703 184.909 39.4064 184.909 40.3879V41.2222C184.909 42.5963 184.231 43.3815 182.826 43.3815H180.742V34.1064H182.777ZM182.535 38.0324C183.359 38.0324 183.746 37.787 183.746 36.8055V36.2657C183.746 35.4314 183.456 35.0389 182.729 35.0389H181.711V38.0324H182.535ZM182.826 42.449C183.552 42.449 183.892 42.0564 183.892 41.1731V40.3389C183.892 39.3083 183.504 38.9648 182.632 38.9648H181.76V42.4H182.826V42.449Z" fill="white"/>
<path d="M185.781 36.3639C185.781 34.9407 186.459 34.0574 187.864 34.0574C189.269 34.0574 189.948 34.9898 189.948 36.3639V41.1731C189.948 42.5963 189.269 43.4796 187.864 43.4796C186.459 43.4796 185.781 42.5472 185.781 41.1731V36.3639ZM186.798 41.1731C186.798 42.0074 187.138 42.4981 187.864 42.4981C188.591 42.4981 188.93 42.0074 188.93 41.1731V36.3148C188.93 35.4805 188.591 34.9898 187.864 34.9898C187.138 34.9898 186.798 35.4805 186.798 36.3148V41.1731Z" fill="white"/>
<path d="M66.7415 26.3528V11.7288H76.0921V13.5445H68.8248V26.3528H66.7415Z" fill="white"/>
<path d="M77.8848 26.3528V11.7288H84.8614C88.0106 11.7288 88.9312 13.9371 88.9312 16.6362C88.9312 19.0408 87.8168 21.2491 84.9583 21.2491H79.9681V26.3528H77.8848ZM84.4738 19.4334C85.8789 19.4334 86.6056 18.3538 86.6056 16.5871C86.6056 14.6241 85.8789 13.5445 84.5707 13.5445H79.9681V19.4334H84.4738Z" fill="white"/>
<path d="M103.224 26.3528H101.14V14.8695C99.0571 18.7464 96.7316 22.7704 94.3575 26.3528H91.5959V11.7288H93.6793V23.7519C96.1986 19.7769 98.5726 15.7038 100.704 11.7288H103.272V26.3528H103.224Z" fill="white"/>
<path d="M109.231 26.3528H107.148V11.7288H109.231V17.5686H116.159V11.7288H118.243V26.3528H116.159V19.5315H109.231V26.3528Z" fill="white"/>
<path d="M129.58 11.3851C130.888 11.3851 132.584 11.6305 133.65 11.9249L133.117 13.8388C132.293 13.5444 130.84 13.3481 129.822 13.3481C126.431 13.3481 125.171 14.0351 125.171 18.9425C125.171 23.8499 126.431 24.6842 129.822 24.6842C130.888 24.6842 132.293 24.4879 133.117 24.1935L133.65 26.1074C132.535 26.4509 130.888 26.6472 129.58 26.6472C125.026 26.6472 122.894 24.8805 122.894 18.8935C122.894 12.9064 125.074 11.3851 129.58 11.3851Z" fill="white"/>
<path d="M139.706 26.3527V13.5444H134.764V11.7286H146.78V13.5444H141.838V26.3527H139.706Z" fill="white"/>
<path d="M148.814 26.3527V11.7286H155.791C158.94 11.7286 159.861 13.937 159.861 16.636C159.861 19.0407 158.747 21.249 155.888 21.249H150.946V26.3527H148.814ZM155.404 19.4333C156.809 19.4333 157.535 18.3536 157.535 16.587C157.535 14.624 156.809 13.5444 155.5 13.5444H150.946V19.4333H155.404Z" fill="white"/>
<path d="M175.171 18.9425C175.171 24.9786 173.039 26.6472 168.485 26.6472C163.931 26.6472 161.799 24.9786 161.799 18.9425C161.799 13.0046 163.979 11.3851 168.485 11.3851C172.991 11.3851 175.171 13.0046 175.171 18.9425ZM172.942 18.9916C172.942 14.0842 171.925 13.2499 168.485 13.2499C165.045 13.2499 164.076 14.0842 164.076 18.9916C164.076 23.7518 165.093 24.7333 168.485 24.7333C171.925 24.7333 172.942 23.7027 172.942 18.9916Z" fill="white"/>
<path d="M189.996 26.3527H187.913V14.8694C185.829 18.7462 183.504 22.7703 181.13 26.3527H178.32V11.7287H180.403V23.7518C182.922 19.7768 185.296 15.7037 187.428 11.7287H189.996V26.3527ZM182.729 8.0481C182.729 9.12773 183.213 9.3731 184.231 9.3731C185.2 9.3731 185.733 9.12773 185.733 8.0481H187.089C187.089 9.96198 186.072 10.7962 184.182 10.7962C182.293 10.7962 181.275 9.91291 181.275 8.0481H182.729Z" fill="white"/>
<path d="M31.1314 14.6241C30.7922 12.4648 30.55 10.5019 30.2593 8.53889C30.2108 8.53889 30.1624 8.53889 30.1139 8.53889C29.7748 10.5019 29.4357 12.4648 29.0965 14.4769C25.9958 13.6426 24.5908 10.7963 25.4144 7.21389C26.0927 4.26944 27.8368 2.06111 30.0655 0C33.1178 2.65 35.2496 5.74167 34.9589 9.91296C34.862 12.1213 33.6023 13.7407 31.1314 14.6241Z" fill="white"/>
<path d="M16.4999 19.1389C15.5309 18.1083 14.7073 17.225 13.6414 16.0472C14.2712 17.5194 14.7073 18.6481 15.1918 19.875C13.6414 20.4148 12.4302 20.0222 11.5096 18.9426C9.5232 16.587 9.66855 13.8879 10.4437 10.9435C13.2053 11.4342 15.6278 12.3666 16.9844 14.9185C17.7111 16.2926 17.6142 17.7157 16.4999 19.1389Z" fill="white"/>
<path d="M44.9396 19.9731C45.521 18.599 46.0539 17.3722 46.6838 15.9C45.5694 17.1268 44.6973 18.0592 43.7284 19.1389C42.7109 18.0101 42.4202 16.8324 42.9532 15.5564C44.1644 12.5629 46.6838 11.5814 49.6876 10.9926C50.6566 13.6916 50.6081 16.2435 49.0093 18.599C48.0888 19.875 46.8291 20.3166 44.9396 19.9731Z" fill="white"/>
<path d="M49.3968 30.1805C50.5112 26.5 55.5014 26.5491 59.232 30.8185C57.5363 32.8796 55.5499 34.3518 52.6914 34.2537C51.141 34.2046 50.0267 33.4194 49.3484 31.7018C50.705 31.4074 51.9646 31.162 53.3212 30.9166C51.9646 30.6713 50.705 30.475 49.3968 30.1805Z" fill="white"/>
<path d="M10.8312 30.1805C9.47458 30.4259 8.2149 30.6713 6.80988 30.9166C8.16645 31.162 9.42613 31.4074 10.7343 31.6527C10.4436 33.174 9.52303 33.9592 8.26335 34.1555C5.21106 34.6462 3.03085 33.174 1.04443 30.8675C2.83705 28.7574 4.92036 27.3342 7.73041 27.5305C9.13544 27.6287 10.2982 28.4138 10.8312 30.1805Z" fill="white"/>
<path d="M39.0286 14.2315C39.0286 13.201 39.0286 12.2686 39.0286 10.8454C38.4472 12.0723 38.0596 12.9556 37.672 13.8389C36.4608 13.3482 35.9763 12.3667 36.0248 11.2871C36.0732 8.44079 37.9143 6.82134 40.1914 5.34912C41.7418 7.36116 42.5654 9.52042 41.7902 12.0723C41.3542 13.3973 40.4821 14.1334 39.0286 14.2315Z" fill="white"/>
<path d="M21.0542 10.6982C21.1511 12.0723 21.248 13.1519 21.2964 14.2806C19.8429 14.1824 18.9224 13.4954 18.4864 12.3176C17.6143 9.81486 18.341 7.60652 19.8914 5.44727C22.0716 6.62504 23.7673 8.14634 24.1549 10.6982C24.3487 12.0232 23.8642 13.1028 22.5561 13.888C22.12 12.9556 21.684 11.9741 21.0542 10.6982Z" fill="white"/>
<path d="M10.589 23.5065C9.95916 23.2611 9.47467 23.0648 8.79638 22.7704C9.32932 23.4083 9.66847 23.85 10.0561 24.3407C7.7305 25.5185 5.84099 23.8009 5.55029 20.4639C8.84483 19.6296 11.1219 20.9055 10.589 23.5065Z" fill="white"/>
<path d="M54.5324 20.4148C54.6293 23.5065 52.4491 25.5185 50.1236 24.3407C50.5112 23.85 50.8988 23.4083 51.4317 22.8194C50.705 23.0648 50.1236 23.2611 49.5422 23.5065C49.2515 20.8565 51.2864 19.6787 54.5324 20.4148Z" fill="white"/>
<path d="M38.7865 18.0592C38.2536 18.2065 37.9144 18.3046 37.5269 18.4028C37.2362 16.0963 39.0288 15.0657 41.9357 15.7528C41.7419 18.6972 40.1431 20.1694 38.1082 19.1879C38.2536 18.8444 38.4474 18.55 38.7865 18.0592Z" fill="white"/>
<path d="M22.7013 18.4028C22.2169 18.2065 21.7808 18.0592 21.0541 17.7648C21.5386 18.3046 21.8293 18.6972 22.1684 19.0407C20.2789 20.2185 18.4378 18.6481 18.2925 15.7528C20.9572 14.9676 22.992 16.0963 22.7013 18.4028Z" fill="white"/>
<path d="M46.6352 34.7444C46.3929 34.3519 46.1991 34.0574 46.0538 33.7139C47.9918 32.7815 49.5906 34.2537 49.6875 36.9528C47.3135 37.787 45.5209 36.8056 45.4724 34.5482C45.8116 34.5972 46.1991 34.6463 46.6352 34.7444Z" fill="white"/>
<path d="M14.2226 33.6648C13.9319 34.0574 13.7381 34.4009 13.399 34.8426C13.9319 34.6954 14.2711 34.5972 14.9009 34.4009C14.804 34.9898 14.804 35.4315 14.6587 35.775C14.0288 37.1 12.1878 37.5907 10.4436 36.9037C10.8312 34.1065 12.0909 32.9287 14.2226 33.6648Z" fill="white"/>
<path d="M16.209 24.1935C15.8214 24.1935 15.5307 24.1935 15.1431 24.1935C15.3853 24.488 15.5791 24.6843 15.8698 25.0278C15.5307 25.175 15.2884 25.3713 14.9977 25.3713C13.4958 25.4204 12.9144 24.3898 12.4299 23.2121C14.0772 21.9852 15.4822 22.2796 16.209 24.1935Z" fill="white"/>
<path d="M45.5209 7.85181C46.0538 9.22588 46.2961 10.4037 44.9395 11.0907C44.6488 11.2379 43.6314 10.6981 43.5829 10.3546C43.2922 8.93144 44.4066 8.4407 45.5209 7.85181Z" fill="white"/>
<path d="M15.0462 8.24438C14.5133 9.61846 14.271 10.7962 15.5792 11.4833C15.8699 11.6305 16.8873 11.0907 16.9357 10.7472C17.2749 9.37309 16.1606 8.88235 15.0462 8.24438Z" fill="white"/>
<path d="M29.1935 25.0278C29.8233 24.8806 30.2594 24.9787 30.6954 25.2241C31.5675 25.7148 31.8098 25.6658 32.2942 24.7333C34.1838 21.0037 39.8039 19.7769 43.2922 23.3593C45.3271 25.4695 45.86 28.6593 44.6003 31.2602C43.3406 33.9593 40.6275 35.5296 37.6721 35.2843C35.395 35.088 33.5539 34.0574 32.3911 31.9963C32.052 31.4074 31.616 31.162 30.9377 31.162C26.1412 31.2111 21.3447 31.2111 16.4998 31.2602C16.1122 31.2602 15.7731 31.162 15.5309 30.8676C15.1433 30.4259 14.7557 30.0333 14.3196 29.6408C14.0774 29.3954 14.0774 29.2482 14.3196 29.0028C15.0464 28.3157 15.7246 27.5796 16.4029 26.8926C16.6936 26.5982 16.9359 26.5491 17.2266 26.8926C17.4688 27.138 17.7111 27.138 17.9533 26.8926C18.3409 26.5982 19.0192 26.5491 19.4068 26.8435C19.7944 27.138 20.0851 27.138 20.4242 26.7945C20.5211 26.6963 20.7634 26.6472 20.9087 26.6472C21.9746 26.5 22.992 26.7454 23.8156 27.4815C24.2517 27.8741 24.6877 27.9232 25.0753 27.4815C25.1722 27.3833 25.3176 27.3343 25.4145 27.2361C25.7052 26.9908 25.9474 26.9908 26.2866 27.187C27.1586 27.6287 26.9648 27.5306 27.5947 27.0398C28.0307 26.6472 28.5637 26.3528 29.0482 26.0093C29.1451 25.9111 29.242 25.7639 29.2904 25.6167C29.2904 25.4695 29.242 25.2241 29.1935 25.0278ZM41.8872 29.5426C42.5655 28.8556 42.6139 27.7759 41.9356 27.0398C41.2573 26.3528 40.143 26.3528 39.4647 26.9908C38.7864 27.6778 38.738 28.8065 39.4163 29.4935C40.143 30.2296 41.2089 30.2296 41.8872 29.5426ZM15.2402 29.15C15.3371 29.15 15.3855 29.1991 15.4824 29.1991C20.4242 29.1991 25.366 29.15 30.3078 29.1009C30.4532 29.1009 30.5985 28.9046 30.7923 28.8065C30.647 28.7083 30.4532 28.5611 30.3078 28.5611C25.6083 28.5611 20.8603 28.6102 16.1607 28.6102C15.6762 28.6102 15.434 28.7574 15.2402 29.15Z" fill="white"/>
<path d="M40.8698 41.4185C40.0462 41.2713 39.1741 41.075 38.2535 40.9278C39.6586 40.388 40.9182 39.6519 42.3717 39.5046C42.9047 39.4556 43.4376 39.4556 43.8252 40.0445C44.2128 39.8482 44.6004 39.6028 44.988 39.4065C45.424 39.2102 45.8601 39.0139 46.2961 38.8176C47.0228 38.5722 47.7011 38.6704 48.1856 39.3084C48.3794 39.5537 48.5732 39.5537 48.8154 39.4556C49.3968 39.2102 49.9782 39.063 50.6081 39.2593C51.3348 39.5046 51.7224 40.0935 51.577 40.8787C51.577 41.0259 51.5286 41.1732 51.5286 41.3204C51.6255 42.2528 51.1895 42.9398 50.4627 43.4306C50.2689 43.5778 50.0751 43.725 49.9298 43.8722C48.2825 45.688 46.2476 47.013 44.1643 48.1908C42.5171 49.1722 40.676 49.8593 38.8834 50.5463C37.2361 51.2334 35.5404 51.7732 33.8447 52.313C32.9726 52.6074 32.0521 52.7547 31.1315 52.8528C30.6955 52.9019 30.2594 52.7547 29.8234 52.7056C28.5153 52.4602 27.1587 52.2639 25.899 51.8713C24.3002 51.3806 22.7498 50.8408 21.2479 50.2028C17.9049 48.8287 14.7073 49.025 11.655 51.1352C11.6065 51.1843 11.5581 51.1843 11.4612 51.2334C11.1705 50.5954 10.8798 50.0065 10.5891 49.4176C9.81391 47.6019 9.03873 45.8352 8.69958 43.8722C8.36044 42.0074 8.89338 40.9278 10.6375 40.1426C12.091 39.5046 13.5929 38.8667 15.0464 38.2778C17.2751 37.3454 19.5037 37.4435 21.7324 38.1796C23.525 38.7685 25.3176 39.4556 27.0133 40.2408C29.6296 41.4676 32.2459 41.6639 35.0559 41.2222C37.1392 40.8787 39.2225 41.2222 41.1605 42.1056C41.7903 42.4 42.3233 42.8908 42.4686 43.6269C42.6624 44.6574 42.2264 45.3445 41.2574 45.5408C40.1431 45.7371 38.9803 45.7371 37.9628 46.0806C35.7342 46.8167 33.4086 46.9148 31.0831 47.013C29.8718 47.0621 28.7575 47.2584 27.5947 47.7C26.9165 47.9454 26.1897 48.1417 25.5114 48.3871C25.9475 48.338 26.432 48.338 26.868 48.1908C28.9029 47.5037 30.9862 47.5037 33.0695 47.5037C34.6199 47.5037 36.1218 47.4056 37.6237 46.9148C38.7865 46.5222 40.0462 46.4732 41.2574 46.2769C42.8078 46.0315 43.6314 44.6084 42.9531 43.1361C42.614 42.4 42.0326 41.9093 41.3543 41.5658C41.1605 41.6148 41.0151 41.5167 40.8698 41.4185C41.3543 41.2222 41.8872 40.9769 42.3717 40.7806C42.7593 40.6334 43.0984 40.4371 43.486 40.2408C42.7593 40.2408 41.3058 40.9278 40.8698 41.4185ZM43.4376 43.8232C43.4376 43.8722 43.486 43.9213 43.486 43.9704C44.019 43.725 44.5519 43.5778 45.0364 43.2834C46.0054 42.6945 46.9744 42.0565 47.8949 41.4185C48.767 40.8296 49.6875 40.4861 50.7534 40.9769C50.7534 40.9769 50.8019 40.9769 50.8503 40.9278C50.2689 40.388 49.1546 40.1917 48.331 40.7315C47.3135 41.4185 46.1023 41.8602 45.2302 42.7926C45.0849 42.9889 44.7942 43.0871 44.6004 43.1852C44.2612 43.4306 43.8252 43.6269 43.4376 43.8232ZM42.9047 42.4C42.9047 42.4491 42.9531 42.4982 42.9531 42.5472C43.8736 42.1546 44.7457 41.7621 45.6663 41.3695C46.5868 40.9769 47.7496 40.1917 48.0887 39.7009C46.3445 40.6334 44.6004 41.5167 42.9047 42.4Z" fill="white"/>
</g>
<defs>
<clipPath id="clip0">
<rect width="189" height="53" fill="white" transform="translate(0.996094)"/>
</clipPath>
</defs>
</svg>
