<svg width="190" height="53" fill="none" xmlns="http://www.w3.org/2000/svg"><g clip-path="url(#clip0)" fill="#fff"><path d="M70.86 36.365v4.809c0 1.423-.63 2.306-2.035 2.306-1.405 0-2.035-.932-2.035-2.306v-.981h.969v1.08c0 .833.34 1.324 1.066 1.324.727 0 1.066-.49 1.066-1.325v-2.16h-1.599v-.931h1.599v-1.865c0-.835-.34-1.325-1.066-1.325-.727 0-1.066.49-1.066 1.325v.736h-.92v-.687c0-1.423.63-2.307 2.034-2.307 1.308-.049 1.987.884 1.987 2.307zM73.38 39.357l-.534.933v3.092H71.83v-9.276h1.017v4.466l2.423-4.466h1.017l-2.325 4.22 2.374 5.056h-1.066l-1.89-4.025zM77.061 36.364c0-1.423.679-2.307 2.084-2.307s2.083.933 2.083 2.307v4.81c0 1.422-.678 2.306-2.083 2.306-1.405 0-2.084-.933-2.084-2.307v-4.81zm1.018 4.81c0 .833.339 1.324 1.066 1.324.726 0 1.066-.49 1.066-1.325v-4.858c0-.834-.34-1.325-1.066-1.325-.727 0-1.066.49-1.066 1.325v4.858zM84.183 35.039l-.194 6.036c-.048 1.472-.436 2.306-1.84 2.306h-.194v-.932c.872 0 .969-.442 1.017-1.325l.242-7.018h3.73v9.276h-1.017v-8.343h-1.744zM87.962 36.364c0-1.423.679-2.307 2.084-2.307s2.083.933 2.083 2.307v4.81c0 1.422-.678 2.306-2.083 2.306-1.405 0-2.084-.933-2.084-2.307v-4.81zm1.018 4.81c0 .833.339 1.324 1.066 1.324.726 0 1.066-.49 1.066-1.325v-4.858c0-.834-.34-1.325-1.066-1.325-.727 0-1.066.49-1.066 1.325v4.858zM94.164 35.039v8.343h-1.017v-9.276h3.633v.933h-2.616zM100.171 39.112l-1.356 4.27h-1.066v-9.276h.92v6.92l.824-2.552 1.454-4.368h1.114v9.276h-.921V36.02l-.969 3.092zM106.276 39.26c-.339.49-.872.735-1.405.735-1.211 0-1.793-.932-1.793-2.208v-3.68h1.018v3.63c0 .786.387 1.326 1.114 1.326.63 0 .969-.393 1.114-1.08v-3.877h1.018v9.276h-1.018v-4.123h-.048zM109.377 39.21v4.172h-1.018v-9.276h1.018v4.172h2.228v-4.172h1.018v9.276h-1.018V39.21h-2.228zM113.592 36.364c0-1.423.678-2.307 2.083-2.307 1.405 0 2.083.933 2.083 2.307v4.81c0 1.422-.678 2.306-2.083 2.306-1.405 0-2.083-.933-2.083-2.307v-4.81zm1.017 4.81c0 .833.339 1.324 1.066 1.324.727 0 1.066-.49 1.066-1.325v-4.858c0-.834-.339-1.325-1.066-1.325-.727 0-1.066.49-1.066 1.325v4.858zM122.022 38.229v.932h-2.229v3.288h2.762v.933h-3.779v-9.276h3.779v.933h-2.762v3.14h2.229v.05zM129.532 36.364v.834h-.969v-.883c0-.834-.339-1.325-1.066-1.325-.727 0-1.066.49-1.066 1.325v4.907c0 .834.339 1.325 1.066 1.325.727 0 1.066-.49 1.066-1.325v-1.227h.969v1.129c0 1.423-.63 2.306-2.084 2.306-1.405 0-2.034-.932-2.034-2.306v-4.81c0-1.422.629-2.306 2.034-2.306 1.405 0 2.084.933 2.084 2.356zM131.857 43.382v-8.343h-1.696v-.933h4.409v.933h-1.695v8.343h-1.018zM137.332 34.106c1.453 0 2.035.884 2.035 2.258v1.129c0 1.472-.678 2.257-2.132 2.257h-.92v3.632h-1.018v-9.276h2.035zm-.097 4.712c.775 0 1.114-.344 1.114-1.227v-1.276c0-.834-.29-1.276-1.065-1.276h-.969v3.73h.92v.049zM140.094 36.364c0-1.423.678-2.307 2.083-2.307 1.405 0 2.083.933 2.083 2.307v4.81c0 1.422-.678 2.306-2.083 2.306-1.405 0-2.083-.933-2.083-2.307v-4.81zm.968 4.81c0 .833.34 1.324 1.066 1.324.727 0 1.066-.49 1.066-1.325v-4.858c0-.834-.339-1.325-1.066-1.325-.726 0-1.066.49-1.066 1.325v4.858zM147.652 39.112l-1.357 4.27h-1.066v-9.276h.921v6.92l.823-2.552 1.454-4.368h1.114v9.276h-.92V36.02l-.969 3.092zM151.964 43.382v-8.343h-1.696v-.933h4.409v.933h-1.696v8.343h-1.017zM158.698 38.229v.932h-2.229v3.288h2.762v.933h-3.779v-9.276h3.779v.933h-2.762v3.14h2.229v.05zM162.089 35.039l-.193 6.036c-.049 1.472-.436 2.306-1.841 2.306h-.146v-.932c.872 0 .969-.442 1.018-1.325l.242-7.018h3.73v9.276h-1.017v-8.343h-1.793zM167.855 37.787c1.453 0 2.132.785 2.132 2.257v1.13c0 1.422-.63 2.257-2.035 2.257h-1.987v-9.325h1.018v3.681h.872zm.097 4.662c.726 0 1.066-.442 1.066-1.276v-1.227c0-.883-.388-1.227-1.115-1.227h-.92v3.73h.969zM174.977 36.364v.834h-.969v-.883c0-.834-.339-1.325-1.066-1.325-.727 0-1.066.49-1.066 1.325v4.907c0 .834.339 1.325 1.066 1.325.727 0 1.066-.49 1.066-1.325v-1.227h.969v1.129c0 1.423-.63 2.306-2.084 2.306-1.405 0-2.034-.932-2.034-2.306v-4.81c0-1.422.629-2.306 2.034-2.306 1.406 0 2.084.933 2.084 2.356zM177.302 43.382v-8.343h-1.695v-.933h4.409v.933h-1.696v8.343h-1.018zM182.777 34.106c1.405 0 1.987.688 1.987 2.062v.441c0 .982-.291 1.57-1.066 1.816.872.245 1.211.981 1.211 1.963v.834c0 1.374-.678 2.16-2.083 2.16h-2.084v-9.276h2.035zm-.242 3.926c.824 0 1.211-.245 1.211-1.226v-.54c0-.835-.29-1.227-1.017-1.227h-1.018v2.993h.824zm.291 4.417c.726 0 1.066-.393 1.066-1.276v-.834c0-1.03-.388-1.374-1.26-1.374h-.872V42.4h1.066v.049zM185.781 36.364c0-1.423.678-2.307 2.083-2.307 1.405 0 2.084.933 2.084 2.307v4.81c0 1.422-.679 2.306-2.084 2.306s-2.083-.933-2.083-2.307v-4.81zm1.017 4.81c0 .833.34 1.324 1.066 1.324.727 0 1.066-.49 1.066-1.325v-4.858c0-.834-.339-1.325-1.066-1.325-.726 0-1.066.49-1.066 1.325v4.858zM66.742 26.353V11.729h9.35v1.816h-7.267v12.808H66.74zM77.885 26.353V11.729h6.976c3.15 0 4.07 2.208 4.07 4.907 0 2.405-1.114 4.613-3.973 4.613h-4.99v5.104h-2.083zm6.589-6.92c1.405 0 2.132-1.08 2.132-2.846 0-1.963-.727-3.043-2.035-3.043h-4.603v5.89h4.506zM103.224 26.353h-2.084V14.869c-2.083 3.877-4.408 7.901-6.782 11.484h-2.762V11.729h2.083v12.023a193.022 193.022 0 007.025-12.023h2.568v14.624h-.048zM109.231 26.353h-2.083V11.729h2.083v5.84h6.928v-5.84h2.084v14.624h-2.084V19.53h-6.928v6.822zM129.58 11.385c1.308 0 3.004.245 4.07.54l-.533 1.914c-.824-.295-2.277-.49-3.295-.49-3.391 0-4.651.686-4.651 5.593 0 4.908 1.26 5.742 4.651 5.742 1.066 0 2.471-.196 3.295-.49l.533 1.913c-1.115.344-2.762.54-4.07.54-4.554 0-6.686-1.766-6.686-7.753 0-5.988 2.18-7.509 6.686-7.509zM139.706 26.353V13.544h-4.942V11.73h12.016v1.815h-4.942v12.809h-2.132zM148.814 26.353V11.729h6.977c3.149 0 4.07 2.208 4.07 4.907 0 2.405-1.114 4.613-3.973 4.613h-4.942v5.104h-2.132zm6.59-6.92c1.405 0 2.131-1.08 2.131-2.846 0-1.963-.726-3.043-2.035-3.043h-4.554v5.89h4.458zM175.171 18.942c0 6.037-2.132 7.705-6.686 7.705s-6.686-1.668-6.686-7.704c0-5.938 2.18-7.558 6.686-7.558s6.686 1.62 6.686 7.557zm-2.229.05c0-4.908-1.017-5.742-4.457-5.742s-4.409.834-4.409 5.742c0 4.76 1.017 5.741 4.409 5.741 3.44 0 4.457-1.03 4.457-5.741zM189.996 26.353h-2.083V14.869c-2.084 3.877-4.409 7.901-6.783 11.484h-2.81V11.729h2.083v12.023a193.477 193.477 0 007.025-12.023h2.568v14.624zm-7.267-18.305c0 1.08.484 1.325 1.502 1.325.969 0 1.502-.245 1.502-1.325h1.356c0 1.914-1.017 2.748-2.907 2.748-1.889 0-2.907-.883-2.907-2.748h1.454zM31.131 14.624c-.339-2.16-.581-4.122-.872-6.085h-.145c-.34 1.963-.678 3.926-1.018 5.938-3.1-.834-4.505-3.68-3.682-7.263.679-2.945 2.423-5.153 4.651-7.214 3.053 2.65 5.185 5.742 4.894 9.913-.097 2.208-1.357 3.828-3.828 4.711zM16.5 19.139a205.15 205.15 0 01-2.859-3.092c.63 1.472 1.066 2.601 1.55 3.828-1.55.54-2.76.147-3.681-.932-1.987-2.356-1.841-5.055-1.066-8 2.761.491 5.184 1.424 6.54 3.976.727 1.374.63 2.797-.484 4.22zM44.94 19.973c.581-1.374 1.114-2.6 1.744-4.073-1.115 1.227-1.987 2.16-2.956 3.239-1.017-1.129-1.308-2.307-.775-3.583 1.211-2.993 3.73-3.975 6.735-4.563.969 2.699.92 5.25-.679 7.606-.92 1.276-2.18 1.718-4.07 1.374zM49.397 30.18c1.114-3.68 6.104-3.63 9.835.639-1.696 2.06-3.682 3.533-6.54 3.435-1.551-.05-2.665-.835-3.344-2.552a113.73 113.73 0 013.973-.785c-1.356-.246-2.616-.442-3.924-.737zM10.831 30.18c-1.356.246-2.616.491-4.021.737 1.356.245 2.616.49 3.924.736-.29 1.521-1.211 2.306-2.47 2.503-3.053.49-5.233-.982-7.22-3.288 1.793-2.11 3.876-3.534 6.686-3.337 1.405.098 2.568.883 3.101 2.65zM39.029 14.232v-3.387c-.582 1.227-.97 2.11-1.357 2.994-1.211-.49-1.696-1.472-1.647-2.552.048-2.846 1.89-4.466 4.166-5.938 1.55 2.012 2.374 4.171 1.6 6.723-.437 1.325-1.309 2.061-2.762 2.16zM21.054 10.698c.097 1.374.194 2.454.242 3.583-1.453-.099-2.374-.786-2.81-1.963-.872-2.503-.145-4.711 1.405-6.87 2.18 1.177 3.876 2.698 4.264 5.25.194 1.325-.29 2.405-1.599 3.19-.436-.932-.872-1.914-1.502-3.19zM10.589 23.506a46.47 46.47 0 01-1.793-.736c.533.638.872 1.08 1.26 1.57-2.325 1.178-4.215-.54-4.506-3.876 3.295-.834 5.572.442 5.039 3.043zM54.532 20.415c.097 3.091-2.083 5.104-4.408 3.926.387-.491.775-.933 1.308-1.522-.727.246-1.308.442-1.89.688-.29-2.65 1.744-3.828 4.99-3.092zM38.786 18.06c-.532.146-.872.245-1.26.343-.29-2.307 1.503-3.337 4.41-2.65-.194 2.944-1.793 4.416-3.828 3.435.146-.344.34-.638.678-1.129zM22.701 18.403c-.484-.197-.92-.344-1.647-.638.485.54.775.932 1.114 1.276-1.89 1.177-3.73-.393-3.875-3.288 2.664-.785 4.699.343 4.408 2.65zM46.635 34.744c-.242-.392-.436-.687-.581-1.03 1.938-.932 3.537.54 3.633 3.239-2.373.834-4.166-.147-4.215-2.405.34.05.727.098 1.163.196zM14.223 33.665c-.291.392-.485.736-.824 1.178.533-.148.872-.246 1.502-.442-.097.589-.097 1.03-.242 1.374-.63 1.325-2.471 1.816-4.215 1.129.387-2.798 1.647-3.975 3.779-3.24zM16.209 24.194h-1.066c.242.294.436.49.727.834-.34.147-.582.343-.872.343-1.502.05-2.084-.981-2.568-2.159 1.647-1.227 3.052-.932 3.779.982zM45.52 7.852c.534 1.374.776 2.552-.58 3.239-.291.147-1.309-.393-1.357-.736-.29-1.424.824-1.914 1.938-2.503zM15.046 8.244c-.533 1.374-.775 2.552.533 3.24.29.146 1.308-.393 1.357-.737.339-1.374-.775-1.865-1.89-2.503zM29.194 25.028c.63-.147 1.065-.05 1.501.196.872.49 1.115.442 1.6-.49 1.889-3.73 7.509-4.957 10.997-1.375 2.035 2.11 2.568 5.3 1.308 7.901-1.26 2.7-3.973 4.27-6.928 4.024-2.277-.196-4.118-1.227-5.28-3.288-.34-.589-.776-.834-1.454-.834-4.797.05-9.593.05-14.438.098-.388 0-.727-.098-.97-.392a14.355 14.355 0 00-1.21-1.227c-.243-.246-.243-.393 0-.638.726-.687 1.405-1.423 2.083-2.11.29-.295.533-.344.824 0 .242.245.484.245.726 0 .388-.295 1.066-.344 1.454-.05.387.295.678.295 1.017-.049.097-.098.34-.147.485-.147 1.066-.147 2.083.098 2.907.835.436.392.872.441 1.26 0 .096-.099.242-.148.338-.246.291-.245.533-.245.873-.049.872.442.678.344 1.308-.147.436-.393.969-.687 1.453-1.03a1.07 1.07 0 00.242-.393 2.97 2.97 0 00-.096-.59zm12.693 4.515a1.793 1.793 0 00.049-2.503 1.785 1.785 0 00-2.471-.05c-.679.688-.727 1.817-.049 2.504.727.736 1.793.736 2.471.049zM15.24 29.15c.097 0 .146.05.242.05 4.942 0 9.884-.05 14.826-.1.145 0 .29-.195.484-.294-.145-.098-.339-.245-.484-.245-4.7 0-9.448.05-14.147.05-.485 0-.727.146-.92.539zM40.87 41.419c-.824-.148-1.696-.344-2.616-.491 1.405-.54 2.664-1.276 4.118-1.423.533-.05 1.066-.05 1.453.54.388-.197.775-.442 1.163-.639l1.308-.588c.727-.246 1.405-.148 1.89.49.193.246.387.246.63.148.58-.246 1.162-.393 1.792-.197.727.246 1.114.834.969 1.62 0 .147-.048.294-.048.441.096.933-.34 1.62-1.066 2.11-.194.148-.388.295-.533.442-1.648 1.816-3.682 3.141-5.766 4.319-1.647.981-3.488 1.668-5.28 2.355-1.648.687-3.344 1.227-5.04 1.767-.871.294-1.792.442-2.713.54-.436.049-.872-.098-1.308-.147-1.308-.246-2.664-.442-3.924-.835a47.524 47.524 0 01-4.651-1.668c-3.343-1.374-6.54-1.178-9.593.932-.048.05-.097.05-.194.098-.29-.638-.581-1.226-.872-1.815-.775-1.816-1.55-3.583-1.89-5.546-.339-1.865.194-2.944 1.938-3.73a168.923 168.923 0 014.41-1.864c2.228-.933 4.457-.834 6.685-.098a49.157 49.157 0 015.281 2.06c2.617 1.228 5.233 1.424 8.043.982 2.083-.343 4.166 0 6.105.884.63.294 1.162.785 1.308 1.52.193 1.031-.243 1.718-1.212 1.915-1.114.196-2.277.196-3.294.54-2.229.736-4.554.834-6.88.932-1.211.05-2.325.245-3.488.687-.678.245-1.405.442-2.084.687.437-.049.921-.049 1.357-.196 2.035-.687 4.118-.687 6.201-.687 1.55 0 3.053-.098 4.555-.59 1.162-.392 2.422-.44 3.633-.637 1.55-.245 2.374-1.669 1.696-3.14-.339-.737-.92-1.228-1.599-1.571-.194.049-.339-.05-.484-.148.484-.196 1.017-.441 1.502-.637.387-.148.726-.344 1.114-.54-.727 0-2.18.687-2.616 1.178zm2.568 2.404c0 .05.048.098.048.147.533-.245 1.066-.392 1.55-.687a57.433 57.433 0 002.859-1.864c.872-.59 1.792-.933 2.858-.442 0 0 .049 0 .097-.05-.581-.539-1.695-.735-2.519-.196-1.018.688-2.229 1.13-3.1 2.062-.146.196-.437.294-.63.392-.34.246-.776.442-1.163.638zm-.533-1.423c0 .05.048.098.048.147.92-.392 1.793-.785 2.713-1.177.92-.393 2.084-1.178 2.423-1.67-1.745.933-3.489 1.817-5.184 2.7z"/></g><defs><clipPath id="clip0"><path fill="#fff" transform="translate(.996)" d="M0 0h189v53H0z"/></clipPath></defs></svg>